<?xml version="1.0" encoding="UTF-8"?>
<!-- Generator: CustomSymbols v2.6.2.41 by @serious_bret https://bretlester.com/app_content/CustomSymbols/ -->
<!-- Guides: Left/Right 0.0/0.0 Cap/Base 0.0/0.0 -->
<!-- Settings: RefScale 1.0 Min/Max Stroke Scales 0.5/2.21 -->
<!DOCTYPE svg
PUBLIC "-//W3C//DTD SVG 1.1//EN"
       "http://www.w3.org/Graphics/SVG/1.1/DTD/svg11.dtd">
<svg version="1.1" xmlns="http://www.w3.org/2000/svg" xmlns:xlink="http://www.w3.org/1999/xlink" width="3300" height="2200">
<![CDATA[<svg fill="#000000" xmlns="http://www.w3.org/2000/svg"  viewBox="0 0 50 50" width="50px" height="50px"><path d="M 12 0 C 10.90625 0 10 0.90625 10 2 L 10 4 L 4 4 C 3.59375 4 3.148438 4.0625 2.722656 4.359375 C 2.296875 4.65625 2 5.246094 2 5.792969 L 2 46.042969 C 2 46.542969 2.171875 47.054688 2.53125 47.425781 C 2.886719 47.800781 3.410156 48 3.917969 48 L 46.082031 48 C 46.589844 48 47.113281 47.800781 47.46875 47.425781 C 47.828125 47.054688 48 46.542969 48 46.042969 L 48 5.792969 C 48 5.246094 47.703125 4.65625 47.277344 4.359375 C 46.851563 4.0625 46.40625 4 46 4 L 40 4 L 40 2 C 40 0.90625 39.09375 0 38 0 L 36 0 C 34.90625 0 34 0.90625 34 2 L 34 4 L 16 4 L 16 2 C 16 0.90625 15.09375 0 14 0 Z M 12 2 L 14 2 L 14 8 L 12 8 Z M 36 2 L 38 2 L 38 8 L 36 8 Z M 4 6 L 10 6 L 10 8 C 10 9.09375 10.90625 10 12 10 L 14 10 C 15.09375 10 16 9.09375 16 8 L 16 6 L 34 6 L 34 8 C 34 9.09375 34.90625 10 36 10 L 38 10 C 39.09375 10 40 9.09375 40 8 L 40 6 L 46 6 L 46 13 L 4 13 Z M 4 15 L 46 15 L 46 46 L 4 46 Z M 24.625 23.425781 C 24.554688 23.808594 24.402344 24.132813 24.167969 24.398438 C 23.933594 24.664063 23.648438 24.878906 23.320313 25.046875 C 22.992188 25.214844 22.621094 25.335938 22.214844 25.40625 C 21.808594 25.476563 21.386719 25.515625 20.953125 25.515625 L 20.953125 27.136719 L 24.050781 27.136719 L 24.050781 36.027344 L 26.300781 36.027344 L 26.300781 23.425781 Z"/></svg>]]>
 <g id="Notes">
  <rect height="2200" id="artboard" style="fill:white;opacity:1" width="3300" x="0" y="0"/>
  <line id="" style="fill:none;stroke:black;opacity:1;stroke-width:0.5;" x1="263" x2="3036" y1="292" y2="292"/>
  <text id="reftext1" style="stroke:none;fill:black;font-family:-apple-system,&quot;SF Pro Display&quot;,&quot;SF Pro Text&quot;,Helvetica,sans-serif;font-weight:bold;" transform="matrix(1 0 0 1 263 322)">Weight/Scale Variations</text>
  <text id="reftext2" style="stroke:none;fill:black;font-family:-apple-system,&quot;SF Pro Display&quot;,&quot;SF Pro Text&quot;,Helvetica,sans-serif;text-anchor:middle;" transform="matrix(1 0 0 1 559.711 322)">Ultralight</text>
  <text style="stroke:none;fill:black;font-family:-apple-system,&quot;SF Pro Display&quot;,&quot;SF Pro Text&quot;,Helvetica,sans-serif;text-anchor:middle;" transform="matrix(1 0 0 1 856.422 322)">Thin</text>
  <text style="stroke:none;fill:black;font-family:-apple-system,&quot;SF Pro Display&quot;,&quot;SF Pro Text&quot;,Helvetica,sans-serif;text-anchor:middle;" transform="matrix(1 0 0 1 1153.13 322)">Light</text>
  <text style="stroke:none;fill:black;font-family:-apple-system,&quot;SF Pro Display&quot;,&quot;SF Pro Text&quot;,Helvetica,sans-serif;text-anchor:middle;" transform="matrix(1 0 0 1 1449.84 322)">Regular</text>
  <text style="stroke:none;fill:black;font-family:-apple-system,&quot;SF Pro Display&quot;,&quot;SF Pro Text&quot;,Helvetica,sans-serif;text-anchor:middle;" transform="matrix(1 0 0 1 1746.56 322)">Medium</text>
  <text style="stroke:none;fill:black;font-family:-apple-system,&quot;SF Pro Display&quot;,&quot;SF Pro Text&quot;,Helvetica,sans-serif;text-anchor:middle;" transform="matrix(1 0 0 1 2043.27 322)">Semibold</text>
  <text style="stroke:none;fill:black;font-family:-apple-system,&quot;SF Pro Display&quot;,&quot;SF Pro Text&quot;,Helvetica,sans-serif;text-anchor:middle;" transform="matrix(1 0 0 1 2339.98 322)">Bold</text>
  <text style="stroke:none;fill:black;font-family:-apple-system,&quot;SF Pro Display&quot;,&quot;SF Pro Text&quot;,Helvetica,sans-serif;text-anchor:middle;" transform="matrix(1 0 0 1 2636.69 322)">Heavy</text>
  <text style="stroke:none;fill:black;font-family:-apple-system,&quot;SF Pro Display&quot;,&quot;SF Pro Text&quot;,Helvetica,sans-serif;text-anchor:middle;" transform="matrix(1 0 0 1 2933.4 322)">Black</text>
  <line id="" style="fill:none;stroke:black;opacity:1;stroke-width:0.5;" x1="263" x2="3036" y1="1903" y2="1903"/>
  <g id="" transform="matrix(1 0 0 1 263 1933)">
   <path d="M9.24805 0.830078C13.5547 0.830078 17.1387-2.74414 17.1387-7.05078C17.1387-11.3574 13.5449-14.9316 9.23828-14.9316C4.94141-14.9316 1.36719-11.3574 1.36719-7.05078C1.36719-2.74414 4.95117 0.830078 9.24805 0.830078ZM9.24805-0.654297C5.70312-0.654297 2.87109-3.49609 2.87109-7.05078C2.87109-10.6055 5.69336-13.4473 9.23828-13.4473C12.793-13.4473 15.6348-10.6055 15.6445-7.05078C15.6543-3.49609 12.8027-0.654297 9.24805-0.654297ZM6.39648-6.31836L8.50586-6.31836L8.50586-4.19922C8.50586-3.75977 8.79883-3.45703 9.22852-3.45703C9.67773-3.45703 9.9707-3.75977 9.9707-4.19922L9.9707-6.31836L12.0996-6.31836C12.5391-6.31836 12.8418-6.61133 12.8418-7.04102C12.8418-7.48047 12.5391-7.7832 12.0996-7.7832L9.9707-7.7832L9.9707-9.89258C9.9707-10.3418 9.67773-10.6445 9.22852-10.6445C8.79883-10.6445 8.50586-10.3418 8.50586-9.89258L8.50586-7.7832L6.39648-7.7832C5.94727-7.7832 5.64453-7.48047 5.64453-7.04102C5.64453-6.61133 5.94727-6.31836 6.39648-6.31836Z"/>
  </g>
  <g id="" transform="matrix(1 0 0 1 281.506 1933)">
   <path d="M11.709 2.91016C17.1582 2.91016 21.6699-1.61133 21.6699-7.05078C21.6699-12.5 17.1484-17.0117 11.6992-17.0117C6.25977-17.0117 1.74805-12.5 1.74805-7.05078C1.74805-1.61133 6.26953 2.91016 11.709 2.91016ZM11.709 1.25C7.09961 1.25 3.41797-2.44141 3.41797-7.05078C3.41797-11.6602 7.08984-15.3516 11.6992-15.3516C16.3086-15.3516 20-11.6602 20.0098-7.05078C20.0195-2.44141 16.3184 1.25 11.709 1.25ZM7.98828-6.23047L10.8789-6.23047L10.8789-3.32031C10.8789-2.83203 11.2109-2.5 11.6895-2.5C12.1777-2.5 12.5195-2.83203 12.5195-3.32031L12.5195-6.23047L15.4297-6.23047C15.918-6.23047 16.25-6.5625 16.25-7.04102C16.25-7.5293 15.918-7.87109 15.4297-7.87109L12.5195-7.87109L12.5195-10.7617C12.5195-11.2695 12.1777-11.6016 11.6895-11.6016C11.2109-11.6016 10.8789-11.2598 10.8789-10.7617L10.8789-7.87109L7.98828-7.87109C7.48047-7.87109 7.14844-7.5293 7.14844-7.04102C7.14844-6.5625 7.49023-6.23047 7.98828-6.23047Z"/>
  </g>
  <g id="" transform="matrix(1 0 0 1 304.924 1933)">
   <path d="M14.9707 5.66406C21.9336 5.66406 27.6953-0.0976562 27.6953-7.05078C27.6953-14.0137 21.9238-19.7754 14.9609-19.7754C8.00781-19.7754 2.25586-14.0137 2.25586-7.05078C2.25586-0.0976562 8.01758 5.66406 14.9707 5.66406ZM14.9707 3.84766C8.93555 3.84766 4.08203-1.01562 4.08203-7.05078C4.08203-13.0957 8.92578-17.9492 14.9609-17.9492C21.0059-17.9492 25.8594-13.0957 25.8691-7.05078C25.8789-1.01562 21.0156 3.84766 14.9707 3.84766ZM10.0586-6.14258L14.0625-6.14258L14.0625-2.12891C14.0625-1.5918 14.4336-1.2207 14.9512-1.2207C15.4883-1.2207 15.8594-1.5918 15.8594-2.12891L15.8594-6.14258L19.8828-6.14258C20.4102-6.14258 20.791-6.51367 20.791-7.03125C20.791-7.56836 20.4199-7.94922 19.8828-7.94922L15.8594-7.94922L15.8594-11.9531C15.8594-12.5098 15.4883-12.8809 14.9512-12.8809C14.4336-12.8809 14.0625-12.5 14.0625-11.9531L14.0625-7.94922L10.0586-7.94922C9.50195-7.94922 9.13086-7.56836 9.13086-7.03125C9.13086-6.51367 9.51172-6.14258 10.0586-6.14258Z"/>
  </g>
  <text style="stroke:none;fill:black;font-family:-apple-system,&quot;SF Pro Display&quot;,&quot;SF Pro Text&quot;,Helvetica,sans-serif;font-weight:bold;" transform="matrix(1 0 0 1 263 1953)">Design Variations</text>
  <text style="stroke:none;fill:black;font-family:-apple-system,&quot;SF Pro Display&quot;,&quot;SF Pro Text&quot;,Helvetica,sans-serif;" transform="matrix(1 0 0 1 263 1971)">Symbols are supported in up to nine weights and three scales.</text>
  <text style="stroke:none;fill:black;font-family:-apple-system,&quot;SF Pro Display&quot;,&quot;SF Pro Text&quot;,Helvetica,sans-serif;" transform="matrix(1 0 0 1 263 1989)">For optimal layout with text and other symbols, vertically align</text>
  <text style="stroke:none;fill:black;font-family:-apple-system,&quot;SF Pro Display&quot;,&quot;SF Pro Text&quot;,Helvetica,sans-serif;" transform="matrix(1 0 0 1 263 2007)">symbols with the adjacent text.</text>
  <line id="" style="fill:none;stroke:#00AEEF;stroke-width:0.5;opacity:1.0;" x1="776" x2="776" y1="1919" y2="1933"/>
  <g id="" transform="matrix(1 0 0 1 776 1933)">
   <path d="M3.31055 0.126953C3.82812 0.126953 4.08203-0.0683594 4.26758-0.605469L5.52734-4.0625L11.2891-4.0625L12.5488-0.605469C12.7344-0.0683594 12.9883 0.126953 13.4961 0.126953C14.0137 0.126953 14.3457-0.185547 14.3457-0.673828C14.3457-0.839844 14.3164-0.986328 14.2383-1.20117L9.6582-13.3887C9.43359-13.9941 9.0332-14.2871 8.4082-14.2871C7.80273-14.2871 7.39258-13.9941 7.17773-13.3984L2.59766-1.19141C2.51953-0.976562 2.49023-0.830078 2.49023-0.664062C2.49023-0.175781 2.80273 0.126953 3.31055 0.126953ZM6.00586-5.53711L8.37891-12.1094L8.42773-12.1094L10.8008-5.53711Z"/>
  </g>
  <line id="" style="fill:none;stroke:#00AEEF;stroke-width:0.5;opacity:1.0;" x1="792.836" x2="792.836" y1="1919" y2="1933"/>
  <text style="stroke:none;fill:black;font-family:-apple-system,&quot;SF Pro Display&quot;,&quot;SF Pro Text&quot;,Helvetica,sans-serif;font-weight:bold;" transform="matrix(1 0 0 1 776 1953)">Margins</text>
  <text style="stroke:none;fill:black;font-family:-apple-system,&quot;SF Pro Display&quot;,&quot;SF Pro Text&quot;,Helvetica,sans-serif;" transform="matrix(1 0 0 1 776 1971)">Leading and trailing margins on the left and right side of each symbol</text>
  <text style="stroke:none;fill:black;font-family:-apple-system,&quot;SF Pro Display&quot;,&quot;SF Pro Text&quot;,Helvetica,sans-serif;" transform="matrix(1 0 0 1 776 1989)">can be adjusted by modifying the x-location of the margin guidelines.</text>
  <text style="stroke:none;fill:black;font-family:-apple-system,&quot;SF Pro Display&quot;,&quot;SF Pro Text&quot;,Helvetica,sans-serif;" transform="matrix(1 0 0 1 776 2007)">Modifications are automatically applied proportionally to all</text>
  <text style="stroke:none;fill:black;font-family:-apple-system,&quot;SF Pro Display&quot;,&quot;SF Pro Text&quot;,Helvetica,sans-serif;" transform="matrix(1 0 0 1 776 2025)">scales and weights.</text>
  <g id="" transform="matrix(1 0 0 1 1289 1933)">
   <path d="M2.8418 1.86523L4.54102 3.57422C5.40039 4.44336 6.38672 4.38477 7.31445 3.35938L17.4902-7.85156C17.7539-7.76367 18.0273-7.7832 18.3398-7.8418L19.4043-8.03711L20.0684-7.36328L20.0293-6.80664C19.9902-6.30859 20.1172-5.92773 20.6055-5.44922L21.3672-4.70703C21.8457-4.22852 22.4609-4.19922 22.9297-4.66797L25.8398-7.58789C26.3086-8.05664 26.2891-8.65234 25.8105-9.13086L25.0391-9.89258C24.5605-10.3711 24.1895-10.5273 23.7109-10.4883L23.1348-10.4395L22.4902-11.0742L22.7344-12.1973C22.8613-12.7637 22.7051-13.2031 22.1191-13.7891L19.9219-15.9766C16.582-19.2969 12.1484-19.2188 9.25781-16.3281C8.83789-15.918 8.80859-15.3418 9.04297-14.9512C9.27734-14.5898 9.73633-14.3555 10.3809-14.5215C11.8457-14.8633 13.3691-14.9219 14.7949-13.9844L14.209-12.5293C14.0137-12.0508 13.9844-11.6504 14.1113-11.2891L3.04688-0.898438C2.06055 0.0195312 1.98242 0.996094 2.8418 1.86523ZM10.752-15.957C13.1836-17.7344 16.4746-17.4316 18.7012-15.2051L21.1328-12.793C21.3672-12.5586 21.4062-12.373 21.3379-12.0312L21.0156-10.5469L22.5195-9.0625L23.5059-9.12109C23.7598-9.13086 23.8379-9.11133 24.0332-8.91602L24.6094-8.33984L22.168-5.89844L21.5918-6.47461C21.3965-6.66992 21.3672-6.74805 21.377-7.01172L21.4453-7.98828L19.9512-9.47266L18.4277-9.21875C18.1055-9.15039 17.959-9.17969 17.7148-9.41406L15.7129-11.416C15.459-11.6504 15.4297-11.8164 15.5859-12.1875L16.4648-14.2773C14.9023-15.7324 12.8711-16.3574 10.8398-15.7617C10.6836-15.7227 10.625-15.8496 10.752-15.957ZM5.27344 2.30469L4.10156 1.14258C3.63281 0.683594 3.74023 0.341797 4.14062-0.0195312L14.9512-10.1953L16.416-8.71094L6.42578 2.27539C6.07422 2.67578 5.74219 2.77344 5.27344 2.30469Z"/>
  </g>
  <text style="stroke:none;fill:black;font-family:-apple-system,&quot;SF Pro Display&quot;,&quot;SF Pro Text&quot;,Helvetica,sans-serif;font-weight:bold;" transform="matrix(1 0 0 1 1289 1953)">Exporting</text>
  <text style="stroke:none;fill:black;font-family:-apple-system,&quot;SF Pro Display&quot;,&quot;SF Pro Text&quot;,Helvetica,sans-serif;" transform="matrix(1 0 0 1 1289 1971)">Symbols should be outlined when exporting to ensure the</text>
  <text style="stroke:none;fill:black;font-family:-apple-system,&quot;SF Pro Display&quot;,&quot;SF Pro Text&quot;,Helvetica,sans-serif;" transform="matrix(1 0 0 1 1289 1989)">design is preserved when submitting to Xcode.</text>
  <text id="template-version" style="stroke:none;fill:black;font-family:-apple-system,&quot;SF Pro Display&quot;,&quot;SF Pro Text&quot;,Helvetica,sans-serif;text-anchor:end;" transform="matrix(1 0 0 1 3036 1933)">Template v.2.0</text>
  <text style="stroke:none;fill:black;font-family:-apple-system,&quot;SF Pro Display&quot;,&quot;SF Pro Text&quot;,Helvetica,sans-serif;text-anchor:end;" transform="matrix(1 0 0 1 3036 1951)">Requires Xcode 12 or greater</text>
  <text style="stroke:none;fill:black;font-family:-apple-system,&quot;SF Pro Display&quot;,&quot;SF Pro Text&quot;,Helvetica,sans-serif;" transform="matrix(1 0 0 1 263 726)">Small</text>
  <text style="stroke:none;fill:black;font-family:-apple-system,&quot;SF Pro Display&quot;,&quot;SF Pro Text&quot;,Helvetica,sans-serif;" transform="matrix(1 0 0 1 263 1156)">Medium</text>
  <text style="stroke:none;fill:black;font-family:-apple-system,&quot;SF Pro Display&quot;,&quot;SF Pro Text&quot;,Helvetica,sans-serif;" transform="matrix(1 0 0 1 263 1586)">Large</text>
 </g>
 <g id="Guides">
  <g id="H-reference" style="fill:#27AAE1;stroke:none;" transform="matrix(1 0 0 1 339 696)">
   <path d="M0.976562 0L3.66211 0L12.9883-24.4629L45.752-24.4629L55.127 0L57.7637 0L30.6152-70.459L28.125-70.459ZM29.3457-67.1387L29.4434-67.1387L44.873-26.709L13.8672-26.709Z"/>
  </g>
  <line id="Baseline-S" style="fill:none;stroke:#27AAE1;opacity:1;stroke-width:0.5;" x1="263" x2="3036" y1="696" y2="696"/>
  <line id="Capline-S" style="fill:none;stroke:#27AAE1;opacity:1;stroke-width:0.5;" x1="263" x2="3036" y1="625.541" y2="625.541"/>
  <g id="H-reference" style="fill:#27AAE1;stroke:none;" transform="matrix(1 0 0 1 339 1126)">
   <path d="M0.976562 0L3.66211 0L12.9883-24.4629L45.752-24.4629L55.127 0L57.7637 0L30.6152-70.459L28.125-70.459ZM29.3457-67.1387L29.4434-67.1387L44.873-26.709L13.8672-26.709Z"/>
  </g>
  <line id="Baseline-M" style="fill:none;stroke:#27AAE1;opacity:1;stroke-width:0.5;" x1="263" x2="3036" y1="1126" y2="1126"/>
  <line id="Capline-M" style="fill:none;stroke:#27AAE1;opacity:1;stroke-width:0.5;" x1="263" x2="3036" y1="1055.54" y2="1055.54"/>
  <g id="H-reference" style="fill:#27AAE1;stroke:none;" transform="matrix(1 0 0 1 339 1556)">
   <path d="M0.976562 0L3.66211 0L12.9883-24.4629L45.752-24.4629L55.127 0L57.7637 0L30.6152-70.459L28.125-70.459ZM29.3457-67.1387L29.4434-67.1387L44.873-26.709L13.8672-26.709Z"/>
  </g>
  <line id="Baseline-L" style="fill:none;stroke:#27AAE1;opacity:1;stroke-width:0.5;" x1="263" x2="3036" y1="1556" y2="1556"/>
  <line id="Capline-L" style="fill:none;stroke:#27AAE1;opacity:1;stroke-width:0.5;" x1="263" x2="3036" y1="1485.54" y2="1485.54"/>
  <line id="left-margin" x1="1415.9000195312499" x2="1415.9000195312499" y1="1030.79" y2="1150.12" style="fill:none;stroke:#00AEEF;stroke-width:0.5;opacity:1.0;"/>
  <line id="right-margin" x1="1486.3599804687499" x2="1486.3599804687499" y1="1030.79" y2="1150.12" style="fill:none;stroke:#00AEEF;stroke-width:0.5;opacity:1.0;"/>
 </g>
 <g id="Symbols">
  <g id="Black-L" transform="matrix(1.0,0.0,0.0,1.0,2889.2333251953123,1475.3233447265625)">  <path stroke-linejoin="miter" stroke="none" fill-opacity="1" stroke-dasharray="none" stroke-width="1px" stroke-opacity="1" fill-rule="nonzero" stroke-miterlimit="4" fill="#000000" stroke-linecap="butt" d="M21.814,0C19.826,0,18.179,1.647,18.179,3.636L18.179,7.271L7.271,7.271C6.533,7.271,5.723,7.385,4.949,7.925C4.175,8.464,3.636,9.537,3.636,10.531L3.636,83.7C3.636,84.609,3.948,85.539,4.601,86.214C5.248,86.895,6.199,87.258,7.122,87.258L83.771,87.258C84.694,87.258,85.646,86.895,86.292,86.214C86.945,85.539,87.258,84.609,87.258,83.7L87.258,10.531C87.258,9.537,86.718,8.464,85.944,7.925C85.17,7.385,84.36,7.271,83.622,7.271L72.715,7.271L72.715,3.636C72.715,1.647,71.067,0,69.079,0L65.443,0C63.455,0,61.807,1.647,61.807,3.636L61.807,7.271L29.086,7.271L29.086,3.636C29.086,1.647,27.438,0,25.45,0ZM21.814,3.636L25.45,3.636L25.45,14.543L21.814,14.543ZM65.443,3.636L69.079,3.636L69.079,14.543L65.443,14.543ZM7.271,10.907L18.179,10.907L18.179,14.543C18.179,16.531,19.826,18.179,21.814,18.179L25.45,18.179C27.438,18.179,29.086,16.531,29.086,14.543L29.086,10.907L61.807,10.907L61.807,14.543C61.807,16.531,63.455,18.179,65.443,18.179L69.079,18.179C71.067,18.179,72.715,16.531,72.715,14.543L72.715,10.907L83.622,10.907L83.622,23.632L7.271,23.632ZM7.271,27.268L83.622,27.268L83.622,83.622L7.271,83.622ZM44.765,42.585C44.637,43.281,44.36,43.87,43.934,44.353C43.508,44.836,42.99,45.227,42.393,45.532C41.797,45.837,41.122,46.057,40.384,46.185C39.645,46.313,38.878,46.384,38.09,46.384L38.09,49.331L43.721,49.331L43.721,65.493L47.811,65.493L47.811,42.585ZM44.765,42.585"/>
</g>
  <g id="Heavy-L" transform="matrix(1.0,0.0,0.0,1.0,2592.5233251953123,1475.3233447265625)">  <path stroke-width="1px" stroke-linecap="butt" fill-rule="nonzero" fill-opacity="1" stroke-linejoin="miter" stroke-dasharray="none" stroke="none" stroke-opacity="1" stroke-miterlimit="4" fill="#000000" d="M21.814,0C19.826,0,18.179,1.647,18.179,3.636L18.179,7.271L7.271,7.271C6.533,7.271,5.723,7.385,4.949,7.925C4.175,8.464,3.636,9.537,3.636,10.531L3.636,83.7C3.636,84.609,3.948,85.539,4.601,86.214C5.248,86.895,6.199,87.258,7.122,87.258L83.771,87.258C84.694,87.258,85.646,86.895,86.292,86.214C86.945,85.539,87.258,84.609,87.258,83.7L87.258,10.531C87.258,9.537,86.718,8.464,85.944,7.925C85.17,7.385,84.36,7.271,83.622,7.271L72.715,7.271L72.715,3.636C72.715,1.647,71.067,0,69.079,0L65.443,0C63.455,0,61.807,1.647,61.807,3.636L61.807,7.271L29.086,7.271L29.086,3.636C29.086,1.647,27.438,0,25.45,0ZM21.814,3.636L25.45,3.636L25.45,14.543L21.814,14.543ZM65.443,3.636L69.079,3.636L69.079,14.543L65.443,14.543ZM7.271,10.907L18.179,10.907L18.179,14.543C18.179,16.531,19.826,18.179,21.814,18.179L25.45,18.179C27.438,18.179,29.086,16.531,29.086,14.543L29.086,10.907L61.807,10.907L61.807,14.543C61.807,16.531,63.455,18.179,65.443,18.179L69.079,18.179C71.067,18.179,72.715,16.531,72.715,14.543L72.715,10.907L83.622,10.907L83.622,23.632L7.271,23.632ZM7.271,27.268L83.622,27.268L83.622,83.622L7.271,83.622ZM44.765,42.585C44.637,43.281,44.36,43.87,43.934,44.353C43.508,44.836,42.99,45.227,42.393,45.532C41.797,45.837,41.122,46.057,40.384,46.185C39.645,46.313,38.878,46.384,38.09,46.384L38.09,49.331L43.721,49.331L43.721,65.493L47.811,65.493L47.811,42.585ZM44.765,42.585"/>
</g>
  <g id="Bold-L" transform="matrix(1.0,0.0,0.0,1.0,2295.8133251953122,1475.3233447265625)">  <path stroke-dasharray="none" fill-rule="nonzero" stroke-opacity="1" fill-opacity="1" fill="#000000" stroke-width="1px" stroke-linejoin="miter" stroke-linecap="butt" stroke-miterlimit="4" stroke="none" d="M21.814,0C19.826,0,18.179,1.647,18.179,3.636L18.179,7.271L7.271,7.271C6.533,7.271,5.723,7.385,4.949,7.925C4.175,8.464,3.636,9.537,3.636,10.531L3.636,83.7C3.636,84.609,3.948,85.539,4.601,86.214C5.248,86.895,6.199,87.258,7.122,87.258L83.771,87.258C84.694,87.258,85.646,86.895,86.292,86.214C86.945,85.539,87.258,84.609,87.258,83.7L87.258,10.531C87.258,9.537,86.718,8.464,85.944,7.925C85.17,7.385,84.36,7.271,83.622,7.271L72.715,7.271L72.715,3.636C72.715,1.647,71.067,0,69.079,0L65.443,0C63.455,0,61.807,1.647,61.807,3.636L61.807,7.271L29.086,7.271L29.086,3.636C29.086,1.647,27.438,0,25.45,0ZM21.814,3.636L25.45,3.636L25.45,14.543L21.814,14.543ZM65.443,3.636L69.079,3.636L69.079,14.543L65.443,14.543ZM7.271,10.907L18.179,10.907L18.179,14.543C18.179,16.531,19.826,18.179,21.814,18.179L25.45,18.179C27.438,18.179,29.086,16.531,29.086,14.543L29.086,10.907L61.807,10.907L61.807,14.543C61.807,16.531,63.455,18.179,65.443,18.179L69.079,18.179C71.067,18.179,72.715,16.531,72.715,14.543L72.715,10.907L83.622,10.907L83.622,23.632L7.271,23.632ZM7.271,27.268L83.622,27.268L83.622,83.622L7.271,83.622ZM44.765,42.585C44.637,43.281,44.36,43.87,43.934,44.353C43.508,44.836,42.99,45.227,42.393,45.532C41.797,45.837,41.122,46.057,40.384,46.185C39.645,46.313,38.878,46.384,38.09,46.384L38.09,49.331L43.721,49.331L43.721,65.493L47.811,65.493L47.811,42.585ZM44.765,42.585"/>
</g>
  <g id="Semibold-L" transform="matrix(1.0,0.0,0.0,1.0,1999.1033251953124,1475.3233447265625)">  <path stroke-linejoin="miter" stroke-width="1px" stroke-miterlimit="4" fill-rule="nonzero" stroke-opacity="1" fill="#000000" stroke-dasharray="none" fill-opacity="1" stroke-linecap="butt" stroke="none" d="M21.814,0C19.826,0,18.179,1.647,18.179,3.636L18.179,7.271L7.271,7.271C6.533,7.271,5.723,7.385,4.949,7.925C4.175,8.464,3.636,9.537,3.636,10.531L3.636,83.7C3.636,84.609,3.948,85.539,4.601,86.214C5.248,86.895,6.199,87.258,7.122,87.258L83.771,87.258C84.694,87.258,85.646,86.895,86.292,86.214C86.945,85.539,87.258,84.609,87.258,83.7L87.258,10.531C87.258,9.537,86.718,8.464,85.944,7.925C85.17,7.385,84.36,7.271,83.622,7.271L72.715,7.271L72.715,3.636C72.715,1.647,71.067,0,69.079,0L65.443,0C63.455,0,61.807,1.647,61.807,3.636L61.807,7.271L29.086,7.271L29.086,3.636C29.086,1.647,27.438,0,25.45,0ZM21.814,3.636L25.45,3.636L25.45,14.543L21.814,14.543ZM65.443,3.636L69.079,3.636L69.079,14.543L65.443,14.543ZM7.271,10.907L18.179,10.907L18.179,14.543C18.179,16.531,19.826,18.179,21.814,18.179L25.45,18.179C27.438,18.179,29.086,16.531,29.086,14.543L29.086,10.907L61.807,10.907L61.807,14.543C61.807,16.531,63.455,18.179,65.443,18.179L69.079,18.179C71.067,18.179,72.715,16.531,72.715,14.543L72.715,10.907L83.622,10.907L83.622,23.632L7.271,23.632ZM7.271,27.268L83.622,27.268L83.622,83.622L7.271,83.622ZM44.765,42.585C44.637,43.281,44.36,43.87,43.934,44.353C43.508,44.836,42.99,45.227,42.393,45.532C41.797,45.837,41.122,46.057,40.384,46.185C39.645,46.313,38.878,46.384,38.09,46.384L38.09,49.331L43.721,49.331L43.721,65.493L47.811,65.493L47.811,42.585ZM44.765,42.585"/>
</g>
  <g id="Medium-L" transform="matrix(1.0,0.0,0.0,1.0,1702.3933251953124,1475.3233447265625)">  <path fill-opacity="1" fill="#000000" stroke-linecap="butt" stroke="none" stroke-width="1px" stroke-linejoin="miter" fill-rule="nonzero" stroke-miterlimit="4" stroke-dasharray="none" stroke-opacity="1" d="M21.814,0C19.826,0,18.179,1.647,18.179,3.636L18.179,7.271L7.271,7.271C6.533,7.271,5.723,7.385,4.949,7.925C4.175,8.464,3.636,9.537,3.636,10.531L3.636,83.7C3.636,84.609,3.948,85.539,4.601,86.214C5.248,86.895,6.199,87.258,7.122,87.258L83.771,87.258C84.694,87.258,85.646,86.895,86.292,86.214C86.945,85.539,87.258,84.609,87.258,83.7L87.258,10.531C87.258,9.537,86.718,8.464,85.944,7.925C85.17,7.385,84.36,7.271,83.622,7.271L72.715,7.271L72.715,3.636C72.715,1.647,71.067,0,69.079,0L65.443,0C63.455,0,61.807,1.647,61.807,3.636L61.807,7.271L29.086,7.271L29.086,3.636C29.086,1.647,27.438,0,25.45,0ZM21.814,3.636L25.45,3.636L25.45,14.543L21.814,14.543ZM65.443,3.636L69.079,3.636L69.079,14.543L65.443,14.543ZM7.271,10.907L18.179,10.907L18.179,14.543C18.179,16.531,19.826,18.179,21.814,18.179L25.45,18.179C27.438,18.179,29.086,16.531,29.086,14.543L29.086,10.907L61.807,10.907L61.807,14.543C61.807,16.531,63.455,18.179,65.443,18.179L69.079,18.179C71.067,18.179,72.715,16.531,72.715,14.543L72.715,10.907L83.622,10.907L83.622,23.632L7.271,23.632ZM7.271,27.268L83.622,27.268L83.622,83.622L7.271,83.622ZM44.765,42.585C44.637,43.281,44.36,43.87,43.934,44.353C43.508,44.836,42.99,45.227,42.393,45.532C41.797,45.837,41.122,46.057,40.384,46.185C39.645,46.313,38.878,46.384,38.09,46.384L38.09,49.331L43.721,49.331L43.721,65.493L47.811,65.493L47.811,42.585ZM44.765,42.585"/>
</g>
  <g id="Regular-L" transform="matrix(1.0,0.0,0.0,1.0,1405.6833251953124,1475.3233447265625)">  <path stroke-miterlimit="4" fill-rule="nonzero" stroke-linejoin="miter" stroke-opacity="1" stroke-dasharray="none" fill-opacity="1" fill="#000000" stroke="none" stroke-linecap="butt" stroke-width="1px" d="M21.814,0C19.826,0,18.179,1.647,18.179,3.636L18.179,7.271L7.271,7.271C6.533,7.271,5.723,7.385,4.949,7.925C4.175,8.464,3.636,9.537,3.636,10.531L3.636,83.7C3.636,84.609,3.948,85.539,4.601,86.214C5.248,86.895,6.199,87.258,7.122,87.258L83.771,87.258C84.694,87.258,85.646,86.895,86.292,86.214C86.945,85.539,87.258,84.609,87.258,83.7L87.258,10.531C87.258,9.537,86.718,8.464,85.944,7.925C85.17,7.385,84.36,7.271,83.622,7.271L72.715,7.271L72.715,3.636C72.715,1.647,71.067,0,69.079,0L65.443,0C63.455,0,61.807,1.647,61.807,3.636L61.807,7.271L29.086,7.271L29.086,3.636C29.086,1.647,27.438,0,25.45,0ZM21.814,3.636L25.45,3.636L25.45,14.543L21.814,14.543ZM65.443,3.636L69.079,3.636L69.079,14.543L65.443,14.543ZM7.271,10.907L18.179,10.907L18.179,14.543C18.179,16.531,19.826,18.179,21.814,18.179L25.45,18.179C27.438,18.179,29.086,16.531,29.086,14.543L29.086,10.907L61.807,10.907L61.807,14.543C61.807,16.531,63.455,18.179,65.443,18.179L69.079,18.179C71.067,18.179,72.715,16.531,72.715,14.543L72.715,10.907L83.622,10.907L83.622,23.632L7.271,23.632ZM7.271,27.268L83.622,27.268L83.622,83.622L7.271,83.622ZM44.765,42.585C44.637,43.281,44.36,43.87,43.934,44.353C43.508,44.836,42.99,45.227,42.393,45.532C41.797,45.837,41.122,46.057,40.384,46.185C39.645,46.313,38.878,46.384,38.09,46.384L38.09,49.331L43.721,49.331L43.721,65.493L47.811,65.493L47.811,42.585ZM44.765,42.585"/>
</g>
  <g id="Light-L" transform="matrix(1.0,0.0,0.0,1.0,1108.9733251953126,1475.3233447265625)">  <path fill-opacity="1" stroke-linejoin="miter" stroke="none" fill-rule="nonzero" stroke-width="1px" stroke-opacity="1" stroke-miterlimit="4" fill="#000000" stroke-dasharray="none" stroke-linecap="butt" d="M21.814,0C19.826,0,18.179,1.647,18.179,3.636L18.179,7.271L7.271,7.271C6.533,7.271,5.723,7.385,4.949,7.925C4.175,8.464,3.636,9.537,3.636,10.531L3.636,83.7C3.636,84.609,3.948,85.539,4.601,86.214C5.248,86.895,6.199,87.258,7.122,87.258L83.771,87.258C84.694,87.258,85.646,86.895,86.292,86.214C86.945,85.539,87.258,84.609,87.258,83.7L87.258,10.531C87.258,9.537,86.718,8.464,85.944,7.925C85.17,7.385,84.36,7.271,83.622,7.271L72.715,7.271L72.715,3.636C72.715,1.647,71.067,0,69.079,0L65.443,0C63.455,0,61.807,1.647,61.807,3.636L61.807,7.271L29.086,7.271L29.086,3.636C29.086,1.647,27.438,0,25.45,0ZM21.814,3.636L25.45,3.636L25.45,14.543L21.814,14.543ZM65.443,3.636L69.079,3.636L69.079,14.543L65.443,14.543ZM7.271,10.907L18.179,10.907L18.179,14.543C18.179,16.531,19.826,18.179,21.814,18.179L25.45,18.179C27.438,18.179,29.086,16.531,29.086,14.543L29.086,10.907L61.807,10.907L61.807,14.543C61.807,16.531,63.455,18.179,65.443,18.179L69.079,18.179C71.067,18.179,72.715,16.531,72.715,14.543L72.715,10.907L83.622,10.907L83.622,23.632L7.271,23.632ZM7.271,27.268L83.622,27.268L83.622,83.622L7.271,83.622ZM44.765,42.585C44.637,43.281,44.36,43.87,43.934,44.353C43.508,44.836,42.99,45.227,42.393,45.532C41.797,45.837,41.122,46.057,40.384,46.185C39.645,46.313,38.878,46.384,38.09,46.384L38.09,49.331L43.721,49.331L43.721,65.493L47.811,65.493L47.811,42.585ZM44.765,42.585"/>
</g>
  <g id="Thin-L" transform="matrix(1.0,0.0,0.0,1.0,812.2633251953125,1475.3233447265625)">  <path fill-rule="nonzero" stroke="none" stroke-miterlimit="4" fill="#000000" stroke-dasharray="none" stroke-opacity="1" fill-opacity="1" stroke-linejoin="miter" stroke-width="1px" stroke-linecap="butt" d="M21.814,0C19.826,0,18.179,1.647,18.179,3.636L18.179,7.271L7.271,7.271C6.533,7.271,5.723,7.385,4.949,7.925C4.175,8.464,3.636,9.537,3.636,10.531L3.636,83.7C3.636,84.609,3.948,85.539,4.601,86.214C5.248,86.895,6.199,87.258,7.122,87.258L83.771,87.258C84.694,87.258,85.646,86.895,86.292,86.214C86.945,85.539,87.258,84.609,87.258,83.7L87.258,10.531C87.258,9.537,86.718,8.464,85.944,7.925C85.17,7.385,84.36,7.271,83.622,7.271L72.715,7.271L72.715,3.636C72.715,1.647,71.067,0,69.079,0L65.443,0C63.455,0,61.807,1.647,61.807,3.636L61.807,7.271L29.086,7.271L29.086,3.636C29.086,1.647,27.438,0,25.45,0ZM21.814,3.636L25.45,3.636L25.45,14.543L21.814,14.543ZM65.443,3.636L69.079,3.636L69.079,14.543L65.443,14.543ZM7.271,10.907L18.179,10.907L18.179,14.543C18.179,16.531,19.826,18.179,21.814,18.179L25.45,18.179C27.438,18.179,29.086,16.531,29.086,14.543L29.086,10.907L61.807,10.907L61.807,14.543C61.807,16.531,63.455,18.179,65.443,18.179L69.079,18.179C71.067,18.179,72.715,16.531,72.715,14.543L72.715,10.907L83.622,10.907L83.622,23.632L7.271,23.632ZM7.271,27.268L83.622,27.268L83.622,83.622L7.271,83.622ZM44.765,42.585C44.637,43.281,44.36,43.87,43.934,44.353C43.508,44.836,42.99,45.227,42.393,45.532C41.797,45.837,41.122,46.057,40.384,46.185C39.645,46.313,38.878,46.384,38.09,46.384L38.09,49.331L43.721,49.331L43.721,65.493L47.811,65.493L47.811,42.585ZM44.765,42.585"/>
</g>
  <g id="Ultralight-L" transform="matrix(1.0,0.0,0.0,1.0,515.5533251953125,1475.3233447265625)">  <path stroke-linecap="butt" stroke-dasharray="none" stroke-width="1px" stroke-miterlimit="4" stroke-linejoin="miter" fill-rule="nonzero" stroke="none" fill-opacity="1" stroke-opacity="1" fill="#000000" d="M21.814,0C19.826,0,18.179,1.647,18.179,3.636L18.179,7.271L7.271,7.271C6.533,7.271,5.723,7.385,4.949,7.925C4.175,8.464,3.636,9.537,3.636,10.531L3.636,83.7C3.636,84.609,3.948,85.539,4.601,86.214C5.248,86.895,6.199,87.258,7.122,87.258L83.771,87.258C84.694,87.258,85.646,86.895,86.292,86.214C86.945,85.539,87.258,84.609,87.258,83.7L87.258,10.531C87.258,9.537,86.718,8.464,85.944,7.925C85.17,7.385,84.36,7.271,83.622,7.271L72.715,7.271L72.715,3.636C72.715,1.647,71.067,0,69.079,0L65.443,0C63.455,0,61.807,1.647,61.807,3.636L61.807,7.271L29.086,7.271L29.086,3.636C29.086,1.647,27.438,0,25.45,0ZM21.814,3.636L25.45,3.636L25.45,14.543L21.814,14.543ZM65.443,3.636L69.079,3.636L69.079,14.543L65.443,14.543ZM7.271,10.907L18.179,10.907L18.179,14.543C18.179,16.531,19.826,18.179,21.814,18.179L25.45,18.179C27.438,18.179,29.086,16.531,29.086,14.543L29.086,10.907L61.807,10.907L61.807,14.543C61.807,16.531,63.455,18.179,65.443,18.179L69.079,18.179C71.067,18.179,72.715,16.531,72.715,14.543L72.715,10.907L83.622,10.907L83.622,23.632L7.271,23.632ZM7.271,27.268L83.622,27.268L83.622,83.622L7.271,83.622ZM44.765,42.585C44.637,43.281,44.36,43.87,43.934,44.353C43.508,44.836,42.99,45.227,42.393,45.532C41.797,45.837,41.122,46.057,40.384,46.185C39.645,46.313,38.878,46.384,38.09,46.384L38.09,49.331L43.721,49.331L43.721,65.493L47.811,65.493L47.811,42.585ZM44.765,42.585"/>
</g>
  <g id="Black-M" transform="matrix(1.0,0.0,0.0,1.0,2899.45001953125,1055.5400390625)">  <path stroke-linejoin="miter" stroke="none" fill-opacity="1" stroke-dasharray="none" stroke-width="1px" stroke-opacity="1" fill-rule="nonzero" stroke-miterlimit="4" fill="#000000" stroke-linecap="butt" d="M16.91,0C15.369,0,14.092,1.277,14.092,2.818L14.092,5.637L5.637,5.637C5.064,5.637,4.437,5.725,3.837,6.143C3.237,6.562,2.818,7.393,2.818,8.163L2.818,64.884C2.818,65.588,3.061,66.309,3.567,66.832C4.068,67.361,4.806,67.642,5.521,67.642L64.939,67.642C65.654,67.642,66.392,67.361,66.893,66.832C67.399,66.309,67.642,65.588,67.642,64.884L67.642,8.163C67.642,7.393,67.223,6.562,66.623,6.143C66.023,5.725,65.396,5.637,64.823,5.637L56.368,5.637L56.368,2.818C56.368,1.277,55.091,0,53.55,0L50.731,0C49.19,0,47.913,1.277,47.913,2.818L47.913,5.637L22.547,5.637L22.547,2.818C22.547,1.277,21.27,0,19.729,0ZM16.91,2.818L19.729,2.818L19.729,11.274L16.91,11.274ZM50.731,2.818L53.55,2.818L53.55,11.274L50.731,11.274ZM5.637,8.455L14.092,8.455L14.092,11.274C14.092,12.815,15.369,14.092,16.91,14.092L19.729,14.092C21.27,14.092,22.547,12.815,22.547,11.274L22.547,8.455L47.913,8.455L47.913,11.274C47.913,12.815,49.19,14.092,50.731,14.092L53.55,14.092C55.091,14.092,56.368,12.815,56.368,11.274L56.368,8.455L64.823,8.455L64.823,18.32L5.637,18.32ZM5.637,21.138L64.823,21.138L64.823,64.823L5.637,64.823ZM34.702,33.012C34.602,33.551,34.388,34.008,34.057,34.382C33.727,34.757,33.325,35.059,32.863,35.296C32.401,35.533,31.878,35.703,31.305,35.802C30.733,35.902,30.138,35.957,29.527,35.957L29.527,38.241L33.892,38.241L33.892,50.77L37.063,50.77L37.063,33.012ZM34.702,33.012"/>
</g>
  <g id="Heavy-M" transform="matrix(1.0,0.0,0.0,1.0,2602.74001953125,1055.5400390625)">  <path stroke-width="1px" stroke-linecap="butt" fill-rule="nonzero" fill-opacity="1" stroke-linejoin="miter" stroke-dasharray="none" stroke="none" stroke-opacity="1" stroke-miterlimit="4" fill="#000000" d="M16.91,0C15.369,0,14.092,1.277,14.092,2.818L14.092,5.637L5.637,5.637C5.064,5.637,4.437,5.725,3.837,6.143C3.237,6.562,2.818,7.393,2.818,8.163L2.818,64.884C2.818,65.588,3.061,66.309,3.567,66.832C4.068,67.361,4.806,67.642,5.521,67.642L64.939,67.642C65.654,67.642,66.392,67.361,66.893,66.832C67.399,66.309,67.642,65.588,67.642,64.884L67.642,8.163C67.642,7.393,67.223,6.562,66.623,6.143C66.023,5.725,65.396,5.637,64.823,5.637L56.368,5.637L56.368,2.818C56.368,1.277,55.091,0,53.55,0L50.731,0C49.19,0,47.913,1.277,47.913,2.818L47.913,5.637L22.547,5.637L22.547,2.818C22.547,1.277,21.27,0,19.729,0ZM16.91,2.818L19.729,2.818L19.729,11.274L16.91,11.274ZM50.731,2.818L53.55,2.818L53.55,11.274L50.731,11.274ZM5.637,8.455L14.092,8.455L14.092,11.274C14.092,12.815,15.369,14.092,16.91,14.092L19.729,14.092C21.27,14.092,22.547,12.815,22.547,11.274L22.547,8.455L47.913,8.455L47.913,11.274C47.913,12.815,49.19,14.092,50.731,14.092L53.55,14.092C55.091,14.092,56.368,12.815,56.368,11.274L56.368,8.455L64.823,8.455L64.823,18.32L5.637,18.32ZM5.637,21.138L64.823,21.138L64.823,64.823L5.637,64.823ZM34.702,33.012C34.602,33.551,34.388,34.008,34.057,34.382C33.727,34.757,33.325,35.059,32.863,35.296C32.401,35.533,31.878,35.703,31.305,35.802C30.733,35.902,30.138,35.957,29.527,35.957L29.527,38.241L33.892,38.241L33.892,50.77L37.063,50.77L37.063,33.012ZM34.702,33.012"/>
</g>
  <g id="Bold-M" transform="matrix(1.0,0.0,0.0,1.0,2306.0300195312498,1055.5400390625)">  <path stroke-dasharray="none" fill-rule="nonzero" stroke-opacity="1" fill-opacity="1" fill="#000000" stroke-width="1px" stroke-linejoin="miter" stroke-linecap="butt" stroke-miterlimit="4" stroke="none" d="M16.91,0C15.369,0,14.092,1.277,14.092,2.818L14.092,5.637L5.637,5.637C5.064,5.637,4.437,5.725,3.837,6.143C3.237,6.562,2.818,7.393,2.818,8.163L2.818,64.884C2.818,65.588,3.061,66.309,3.567,66.832C4.068,67.361,4.806,67.642,5.521,67.642L64.939,67.642C65.654,67.642,66.392,67.361,66.893,66.832C67.399,66.309,67.642,65.588,67.642,64.884L67.642,8.163C67.642,7.393,67.223,6.562,66.623,6.143C66.023,5.725,65.396,5.637,64.823,5.637L56.368,5.637L56.368,2.818C56.368,1.277,55.091,0,53.55,0L50.731,0C49.19,0,47.913,1.277,47.913,2.818L47.913,5.637L22.547,5.637L22.547,2.818C22.547,1.277,21.27,0,19.729,0ZM16.91,2.818L19.729,2.818L19.729,11.274L16.91,11.274ZM50.731,2.818L53.55,2.818L53.55,11.274L50.731,11.274ZM5.637,8.455L14.092,8.455L14.092,11.274C14.092,12.815,15.369,14.092,16.91,14.092L19.729,14.092C21.27,14.092,22.547,12.815,22.547,11.274L22.547,8.455L47.913,8.455L47.913,11.274C47.913,12.815,49.19,14.092,50.731,14.092L53.55,14.092C55.091,14.092,56.368,12.815,56.368,11.274L56.368,8.455L64.823,8.455L64.823,18.32L5.637,18.32ZM5.637,21.138L64.823,21.138L64.823,64.823L5.637,64.823ZM34.702,33.012C34.602,33.551,34.388,34.008,34.057,34.382C33.727,34.757,33.325,35.059,32.863,35.296C32.401,35.533,31.878,35.703,31.305,35.802C30.733,35.902,30.138,35.957,29.527,35.957L29.527,38.241L33.892,38.241L33.892,50.77L37.063,50.77L37.063,33.012ZM34.702,33.012"/>
</g>
  <g id="Semibold-M" transform="matrix(1.0,0.0,0.0,1.0,2009.32001953125,1055.5400390625)">  <path stroke-linejoin="miter" stroke-width="1px" stroke-miterlimit="4" fill-rule="nonzero" stroke-opacity="1" fill="#000000" stroke-dasharray="none" fill-opacity="1" stroke-linecap="butt" stroke="none" d="M16.91,0C15.369,0,14.092,1.277,14.092,2.818L14.092,5.637L5.637,5.637C5.064,5.637,4.437,5.725,3.837,6.143C3.237,6.562,2.818,7.393,2.818,8.163L2.818,64.884C2.818,65.588,3.061,66.309,3.567,66.832C4.068,67.361,4.806,67.642,5.521,67.642L64.939,67.642C65.654,67.642,66.392,67.361,66.893,66.832C67.399,66.309,67.642,65.588,67.642,64.884L67.642,8.163C67.642,7.393,67.223,6.562,66.623,6.143C66.023,5.725,65.396,5.637,64.823,5.637L56.368,5.637L56.368,2.818C56.368,1.277,55.091,0,53.55,0L50.731,0C49.19,0,47.913,1.277,47.913,2.818L47.913,5.637L22.547,5.637L22.547,2.818C22.547,1.277,21.27,0,19.729,0ZM16.91,2.818L19.729,2.818L19.729,11.274L16.91,11.274ZM50.731,2.818L53.55,2.818L53.55,11.274L50.731,11.274ZM5.637,8.455L14.092,8.455L14.092,11.274C14.092,12.815,15.369,14.092,16.91,14.092L19.729,14.092C21.27,14.092,22.547,12.815,22.547,11.274L22.547,8.455L47.913,8.455L47.913,11.274C47.913,12.815,49.19,14.092,50.731,14.092L53.55,14.092C55.091,14.092,56.368,12.815,56.368,11.274L56.368,8.455L64.823,8.455L64.823,18.32L5.637,18.32ZM5.637,21.138L64.823,21.138L64.823,64.823L5.637,64.823ZM34.702,33.012C34.602,33.551,34.388,34.008,34.057,34.382C33.727,34.757,33.325,35.059,32.863,35.296C32.401,35.533,31.878,35.703,31.305,35.802C30.733,35.902,30.138,35.957,29.527,35.957L29.527,38.241L33.892,38.241L33.892,50.77L37.063,50.77L37.063,33.012ZM34.702,33.012"/>
</g>
  <g id="Medium-M" transform="matrix(1.0,0.0,0.0,1.0,1712.61001953125,1055.5400390625)">  <path fill-opacity="1" fill="#000000" stroke-linecap="butt" stroke="none" stroke-width="1px" stroke-linejoin="miter" fill-rule="nonzero" stroke-miterlimit="4" stroke-dasharray="none" stroke-opacity="1" d="M16.91,0C15.369,0,14.092,1.277,14.092,2.818L14.092,5.637L5.637,5.637C5.064,5.637,4.437,5.725,3.837,6.143C3.237,6.562,2.818,7.393,2.818,8.163L2.818,64.884C2.818,65.588,3.061,66.309,3.567,66.832C4.068,67.361,4.806,67.642,5.521,67.642L64.939,67.642C65.654,67.642,66.392,67.361,66.893,66.832C67.399,66.309,67.642,65.588,67.642,64.884L67.642,8.163C67.642,7.393,67.223,6.562,66.623,6.143C66.023,5.725,65.396,5.637,64.823,5.637L56.368,5.637L56.368,2.818C56.368,1.277,55.091,0,53.55,0L50.731,0C49.19,0,47.913,1.277,47.913,2.818L47.913,5.637L22.547,5.637L22.547,2.818C22.547,1.277,21.27,0,19.729,0ZM16.91,2.818L19.729,2.818L19.729,11.274L16.91,11.274ZM50.731,2.818L53.55,2.818L53.55,11.274L50.731,11.274ZM5.637,8.455L14.092,8.455L14.092,11.274C14.092,12.815,15.369,14.092,16.91,14.092L19.729,14.092C21.27,14.092,22.547,12.815,22.547,11.274L22.547,8.455L47.913,8.455L47.913,11.274C47.913,12.815,49.19,14.092,50.731,14.092L53.55,14.092C55.091,14.092,56.368,12.815,56.368,11.274L56.368,8.455L64.823,8.455L64.823,18.32L5.637,18.32ZM5.637,21.138L64.823,21.138L64.823,64.823L5.637,64.823ZM34.702,33.012C34.602,33.551,34.388,34.008,34.057,34.382C33.727,34.757,33.325,35.059,32.863,35.296C32.401,35.533,31.878,35.703,31.305,35.802C30.733,35.902,30.138,35.957,29.527,35.957L29.527,38.241L33.892,38.241L33.892,50.77L37.063,50.77L37.063,33.012ZM34.702,33.012"/>
</g>
  <g id="Regular-M" transform="matrix(1.0,0.0,0.0,1.0,1415.9000195312499,1055.5400390625)">  <path stroke-miterlimit="4" fill-rule="nonzero" stroke-linejoin="miter" stroke-opacity="1" stroke-dasharray="none" fill-opacity="1" fill="#000000" stroke="none" stroke-linecap="butt" stroke-width="1px" d="M16.91,0C15.369,0,14.092,1.277,14.092,2.818L14.092,5.637L5.637,5.637C5.064,5.637,4.437,5.725,3.837,6.143C3.237,6.562,2.818,7.393,2.818,8.163L2.818,64.884C2.818,65.588,3.061,66.309,3.567,66.832C4.068,67.361,4.806,67.642,5.521,67.642L64.939,67.642C65.654,67.642,66.392,67.361,66.893,66.832C67.399,66.309,67.642,65.588,67.642,64.884L67.642,8.163C67.642,7.393,67.223,6.562,66.623,6.143C66.023,5.725,65.396,5.637,64.823,5.637L56.368,5.637L56.368,2.818C56.368,1.277,55.091,0,53.55,0L50.731,0C49.19,0,47.913,1.277,47.913,2.818L47.913,5.637L22.547,5.637L22.547,2.818C22.547,1.277,21.27,0,19.729,0ZM16.91,2.818L19.729,2.818L19.729,11.274L16.91,11.274ZM50.731,2.818L53.55,2.818L53.55,11.274L50.731,11.274ZM5.637,8.455L14.092,8.455L14.092,11.274C14.092,12.815,15.369,14.092,16.91,14.092L19.729,14.092C21.27,14.092,22.547,12.815,22.547,11.274L22.547,8.455L47.913,8.455L47.913,11.274C47.913,12.815,49.19,14.092,50.731,14.092L53.55,14.092C55.091,14.092,56.368,12.815,56.368,11.274L56.368,8.455L64.823,8.455L64.823,18.32L5.637,18.32ZM5.637,21.138L64.823,21.138L64.823,64.823L5.637,64.823ZM34.702,33.012C34.602,33.551,34.388,34.008,34.057,34.382C33.727,34.757,33.325,35.059,32.863,35.296C32.401,35.533,31.878,35.703,31.305,35.802C30.733,35.902,30.138,35.957,29.527,35.957L29.527,38.241L33.892,38.241L33.892,50.77L37.063,50.77L37.063,33.012ZM34.702,33.012"/>
</g>
  <g id="Light-M" transform="matrix(1.0,0.0,0.0,1.0,1119.19001953125,1055.5400390625)">  <path fill-opacity="1" stroke-linejoin="miter" stroke="none" fill-rule="nonzero" stroke-width="1px" stroke-opacity="1" stroke-miterlimit="4" fill="#000000" stroke-dasharray="none" stroke-linecap="butt" d="M16.91,0C15.369,0,14.092,1.277,14.092,2.818L14.092,5.637L5.637,5.637C5.064,5.637,4.437,5.725,3.837,6.143C3.237,6.562,2.818,7.393,2.818,8.163L2.818,64.884C2.818,65.588,3.061,66.309,3.567,66.832C4.068,67.361,4.806,67.642,5.521,67.642L64.939,67.642C65.654,67.642,66.392,67.361,66.893,66.832C67.399,66.309,67.642,65.588,67.642,64.884L67.642,8.163C67.642,7.393,67.223,6.562,66.623,6.143C66.023,5.725,65.396,5.637,64.823,5.637L56.368,5.637L56.368,2.818C56.368,1.277,55.091,0,53.55,0L50.731,0C49.19,0,47.913,1.277,47.913,2.818L47.913,5.637L22.547,5.637L22.547,2.818C22.547,1.277,21.27,0,19.729,0ZM16.91,2.818L19.729,2.818L19.729,11.274L16.91,11.274ZM50.731,2.818L53.55,2.818L53.55,11.274L50.731,11.274ZM5.637,8.455L14.092,8.455L14.092,11.274C14.092,12.815,15.369,14.092,16.91,14.092L19.729,14.092C21.27,14.092,22.547,12.815,22.547,11.274L22.547,8.455L47.913,8.455L47.913,11.274C47.913,12.815,49.19,14.092,50.731,14.092L53.55,14.092C55.091,14.092,56.368,12.815,56.368,11.274L56.368,8.455L64.823,8.455L64.823,18.32L5.637,18.32ZM5.637,21.138L64.823,21.138L64.823,64.823L5.637,64.823ZM34.702,33.012C34.602,33.551,34.388,34.008,34.057,34.382C33.727,34.757,33.325,35.059,32.863,35.296C32.401,35.533,31.878,35.703,31.305,35.802C30.733,35.902,30.138,35.957,29.527,35.957L29.527,38.241L33.892,38.241L33.892,50.77L37.063,50.77L37.063,33.012ZM34.702,33.012"/>
</g>
  <g id="Thin-M" transform="matrix(1.0,0.0,0.0,1.0,822.48001953125,1055.5400390625)">  <path fill-rule="nonzero" stroke="none" stroke-miterlimit="4" fill="#000000" stroke-dasharray="none" stroke-opacity="1" fill-opacity="1" stroke-linejoin="miter" stroke-width="1px" stroke-linecap="butt" d="M16.91,0C15.369,0,14.092,1.277,14.092,2.818L14.092,5.637L5.637,5.637C5.064,5.637,4.437,5.725,3.837,6.143C3.237,6.562,2.818,7.393,2.818,8.163L2.818,64.884C2.818,65.588,3.061,66.309,3.567,66.832C4.068,67.361,4.806,67.642,5.521,67.642L64.939,67.642C65.654,67.642,66.392,67.361,66.893,66.832C67.399,66.309,67.642,65.588,67.642,64.884L67.642,8.163C67.642,7.393,67.223,6.562,66.623,6.143C66.023,5.725,65.396,5.637,64.823,5.637L56.368,5.637L56.368,2.818C56.368,1.277,55.091,0,53.55,0L50.731,0C49.19,0,47.913,1.277,47.913,2.818L47.913,5.637L22.547,5.637L22.547,2.818C22.547,1.277,21.27,0,19.729,0ZM16.91,2.818L19.729,2.818L19.729,11.274L16.91,11.274ZM50.731,2.818L53.55,2.818L53.55,11.274L50.731,11.274ZM5.637,8.455L14.092,8.455L14.092,11.274C14.092,12.815,15.369,14.092,16.91,14.092L19.729,14.092C21.27,14.092,22.547,12.815,22.547,11.274L22.547,8.455L47.913,8.455L47.913,11.274C47.913,12.815,49.19,14.092,50.731,14.092L53.55,14.092C55.091,14.092,56.368,12.815,56.368,11.274L56.368,8.455L64.823,8.455L64.823,18.32L5.637,18.32ZM5.637,21.138L64.823,21.138L64.823,64.823L5.637,64.823ZM34.702,33.012C34.602,33.551,34.388,34.008,34.057,34.382C33.727,34.757,33.325,35.059,32.863,35.296C32.401,35.533,31.878,35.703,31.305,35.802C30.733,35.902,30.138,35.957,29.527,35.957L29.527,38.241L33.892,38.241L33.892,50.77L37.063,50.77L37.063,33.012ZM34.702,33.012"/>
</g>
  <g id="Ultralight-M" transform="matrix(1.0,0.0,0.0,1.0,525.77001953125,1055.5400390625)">  <path stroke-linecap="butt" stroke-dasharray="none" stroke-width="1px" stroke-miterlimit="4" stroke-linejoin="miter" fill-rule="nonzero" stroke="none" fill-opacity="1" stroke-opacity="1" fill="#000000" d="M16.91,0C15.369,0,14.092,1.277,14.092,2.818L14.092,5.637L5.637,5.637C5.064,5.637,4.437,5.725,3.837,6.143C3.237,6.562,2.818,7.393,2.818,8.163L2.818,64.884C2.818,65.588,3.061,66.309,3.567,66.832C4.068,67.361,4.806,67.642,5.521,67.642L64.939,67.642C65.654,67.642,66.392,67.361,66.893,66.832C67.399,66.309,67.642,65.588,67.642,64.884L67.642,8.163C67.642,7.393,67.223,6.562,66.623,6.143C66.023,5.725,65.396,5.637,64.823,5.637L56.368,5.637L56.368,2.818C56.368,1.277,55.091,0,53.55,0L50.731,0C49.19,0,47.913,1.277,47.913,2.818L47.913,5.637L22.547,5.637L22.547,2.818C22.547,1.277,21.27,0,19.729,0ZM16.91,2.818L19.729,2.818L19.729,11.274L16.91,11.274ZM50.731,2.818L53.55,2.818L53.55,11.274L50.731,11.274ZM5.637,8.455L14.092,8.455L14.092,11.274C14.092,12.815,15.369,14.092,16.91,14.092L19.729,14.092C21.27,14.092,22.547,12.815,22.547,11.274L22.547,8.455L47.913,8.455L47.913,11.274C47.913,12.815,49.19,14.092,50.731,14.092L53.55,14.092C55.091,14.092,56.368,12.815,56.368,11.274L56.368,8.455L64.823,8.455L64.823,18.32L5.637,18.32ZM5.637,21.138L64.823,21.138L64.823,64.823L5.637,64.823ZM34.702,33.012C34.602,33.551,34.388,34.008,34.057,34.382C33.727,34.757,33.325,35.059,32.863,35.296C32.401,35.533,31.878,35.703,31.305,35.802C30.733,35.902,30.138,35.957,29.527,35.957L29.527,38.241L33.892,38.241L33.892,50.77L37.063,50.77L37.063,33.012ZM34.702,33.012"/>
</g>
  <g id="Black-S" transform="matrix(1.0,0.0,0.0,1.0,2907.0949252929686,633.1849448242187)">  <path stroke-linejoin="miter" stroke="none" fill-opacity="1" stroke-dasharray="none" stroke-width="1px" stroke-opacity="1" fill-rule="nonzero" stroke-miterlimit="4" fill="#000000" stroke-linecap="butt" d="M13.241,0C12.034,0,11.034,1,11.034,2.207L11.034,4.414L4.414,4.414C3.965,4.414,3.474,4.483,3.004,4.81C2.534,5.138,2.207,5.789,2.207,6.392L2.207,50.804C2.207,51.356,2.396,51.92,2.793,52.33C3.185,52.744,3.763,52.963,4.323,52.963L50.847,52.963C51.407,52.963,51.985,52.744,52.377,52.33C52.774,51.92,52.963,51.356,52.963,50.804L52.963,6.392C52.963,5.789,52.636,5.138,52.166,4.81C51.696,4.483,51.205,4.414,50.757,4.414L44.136,4.414L44.136,2.207C44.136,1,43.136,0,41.929,0L39.723,0C38.516,0,37.516,1,37.516,2.207L37.516,4.414L17.654,4.414L17.654,2.207C17.654,1,16.654,0,15.448,0ZM13.241,2.207L15.448,2.207L15.448,8.827L13.241,8.827ZM39.723,2.207L41.929,2.207L41.929,8.827L39.723,8.827ZM4.414,6.62L11.034,6.62L11.034,8.827C11.034,10.034,12.034,11.034,13.241,11.034L15.448,11.034C16.654,11.034,17.654,10.034,17.654,8.827L17.654,6.62L37.516,6.62L37.516,8.827C37.516,10.034,38.516,11.034,39.723,11.034L41.929,11.034C43.136,11.034,44.136,10.034,44.136,8.827L44.136,6.62L50.757,6.62L50.757,14.344L4.414,14.344ZM4.414,16.551L50.757,16.551L50.757,50.757L4.414,50.757ZM27.171,25.848C27.094,26.27,26.926,26.628,26.667,26.921C26.408,27.214,26.094,27.451,25.732,27.637C25.37,27.822,24.96,27.956,24.512,28.033C24.064,28.111,23.598,28.154,23.12,28.154L23.12,29.943L26.538,29.943L26.538,39.753L29.02,39.753L29.02,25.848ZM27.171,25.848"/>
</g>
  <g id="Heavy-S" transform="matrix(1.0,0.0,0.0,1.0,2610.3849252929685,633.1849448242187)">  <path stroke-width="1px" stroke-linecap="butt" fill-rule="nonzero" fill-opacity="1" stroke-linejoin="miter" stroke-dasharray="none" stroke="none" stroke-opacity="1" stroke-miterlimit="4" fill="#000000" d="M13.241,0C12.034,0,11.034,1,11.034,2.207L11.034,4.414L4.414,4.414C3.965,4.414,3.474,4.483,3.004,4.81C2.534,5.138,2.207,5.789,2.207,6.392L2.207,50.804C2.207,51.356,2.396,51.92,2.793,52.33C3.185,52.744,3.763,52.963,4.323,52.963L50.847,52.963C51.407,52.963,51.985,52.744,52.377,52.33C52.774,51.92,52.963,51.356,52.963,50.804L52.963,6.392C52.963,5.789,52.636,5.138,52.166,4.81C51.696,4.483,51.205,4.414,50.757,4.414L44.136,4.414L44.136,2.207C44.136,1,43.136,0,41.929,0L39.723,0C38.516,0,37.516,1,37.516,2.207L37.516,4.414L17.654,4.414L17.654,2.207C17.654,1,16.654,0,15.448,0ZM13.241,2.207L15.448,2.207L15.448,8.827L13.241,8.827ZM39.723,2.207L41.929,2.207L41.929,8.827L39.723,8.827ZM4.414,6.62L11.034,6.62L11.034,8.827C11.034,10.034,12.034,11.034,13.241,11.034L15.448,11.034C16.654,11.034,17.654,10.034,17.654,8.827L17.654,6.62L37.516,6.62L37.516,8.827C37.516,10.034,38.516,11.034,39.723,11.034L41.929,11.034C43.136,11.034,44.136,10.034,44.136,8.827L44.136,6.62L50.757,6.62L50.757,14.344L4.414,14.344ZM4.414,16.551L50.757,16.551L50.757,50.757L4.414,50.757ZM27.171,25.848C27.094,26.27,26.926,26.628,26.667,26.921C26.408,27.214,26.094,27.451,25.732,27.637C25.37,27.822,24.96,27.956,24.512,28.033C24.064,28.111,23.598,28.154,23.12,28.154L23.12,29.943L26.538,29.943L26.538,39.753L29.02,39.753L29.02,25.848ZM27.171,25.848"/>
</g>
  <g id="Bold-S" transform="matrix(1.0,0.0,0.0,1.0,2313.6749252929685,633.1849448242187)">  <path stroke-dasharray="none" fill-rule="nonzero" stroke-opacity="1" fill-opacity="1" fill="#000000" stroke-width="1px" stroke-linejoin="miter" stroke-linecap="butt" stroke-miterlimit="4" stroke="none" d="M13.241,0C12.034,0,11.034,1,11.034,2.207L11.034,4.414L4.414,4.414C3.965,4.414,3.474,4.483,3.004,4.81C2.534,5.138,2.207,5.789,2.207,6.392L2.207,50.804C2.207,51.356,2.396,51.92,2.793,52.33C3.185,52.744,3.763,52.963,4.323,52.963L50.847,52.963C51.407,52.963,51.985,52.744,52.377,52.33C52.774,51.92,52.963,51.356,52.963,50.804L52.963,6.392C52.963,5.789,52.636,5.138,52.166,4.81C51.696,4.483,51.205,4.414,50.757,4.414L44.136,4.414L44.136,2.207C44.136,1,43.136,0,41.929,0L39.723,0C38.516,0,37.516,1,37.516,2.207L37.516,4.414L17.654,4.414L17.654,2.207C17.654,1,16.654,0,15.448,0ZM13.241,2.207L15.448,2.207L15.448,8.827L13.241,8.827ZM39.723,2.207L41.929,2.207L41.929,8.827L39.723,8.827ZM4.414,6.62L11.034,6.62L11.034,8.827C11.034,10.034,12.034,11.034,13.241,11.034L15.448,11.034C16.654,11.034,17.654,10.034,17.654,8.827L17.654,6.62L37.516,6.62L37.516,8.827C37.516,10.034,38.516,11.034,39.723,11.034L41.929,11.034C43.136,11.034,44.136,10.034,44.136,8.827L44.136,6.62L50.757,6.62L50.757,14.344L4.414,14.344ZM4.414,16.551L50.757,16.551L50.757,50.757L4.414,50.757ZM27.171,25.848C27.094,26.27,26.926,26.628,26.667,26.921C26.408,27.214,26.094,27.451,25.732,27.637C25.37,27.822,24.96,27.956,24.512,28.033C24.064,28.111,23.598,28.154,23.12,28.154L23.12,29.943L26.538,29.943L26.538,39.753L29.02,39.753L29.02,25.848ZM27.171,25.848"/>
</g>
  <g id="Semibold-S" transform="matrix(1.0,0.0,0.0,1.0,2016.9649252929687,633.1849448242187)">  <path stroke-linejoin="miter" stroke-width="1px" stroke-miterlimit="4" fill-rule="nonzero" stroke-opacity="1" fill="#000000" stroke-dasharray="none" fill-opacity="1" stroke-linecap="butt" stroke="none" d="M13.241,0C12.034,0,11.034,1,11.034,2.207L11.034,4.414L4.414,4.414C3.965,4.414,3.474,4.483,3.004,4.81C2.534,5.138,2.207,5.789,2.207,6.392L2.207,50.804C2.207,51.356,2.396,51.92,2.793,52.33C3.185,52.744,3.763,52.963,4.323,52.963L50.847,52.963C51.407,52.963,51.985,52.744,52.377,52.33C52.774,51.92,52.963,51.356,52.963,50.804L52.963,6.392C52.963,5.789,52.636,5.138,52.166,4.81C51.696,4.483,51.205,4.414,50.757,4.414L44.136,4.414L44.136,2.207C44.136,1,43.136,0,41.929,0L39.723,0C38.516,0,37.516,1,37.516,2.207L37.516,4.414L17.654,4.414L17.654,2.207C17.654,1,16.654,0,15.448,0ZM13.241,2.207L15.448,2.207L15.448,8.827L13.241,8.827ZM39.723,2.207L41.929,2.207L41.929,8.827L39.723,8.827ZM4.414,6.62L11.034,6.62L11.034,8.827C11.034,10.034,12.034,11.034,13.241,11.034L15.448,11.034C16.654,11.034,17.654,10.034,17.654,8.827L17.654,6.62L37.516,6.62L37.516,8.827C37.516,10.034,38.516,11.034,39.723,11.034L41.929,11.034C43.136,11.034,44.136,10.034,44.136,8.827L44.136,6.62L50.757,6.62L50.757,14.344L4.414,14.344ZM4.414,16.551L50.757,16.551L50.757,50.757L4.414,50.757ZM27.171,25.848C27.094,26.27,26.926,26.628,26.667,26.921C26.408,27.214,26.094,27.451,25.732,27.637C25.37,27.822,24.96,27.956,24.512,28.033C24.064,28.111,23.598,28.154,23.12,28.154L23.12,29.943L26.538,29.943L26.538,39.753L29.02,39.753L29.02,25.848ZM27.171,25.848"/>
</g>
  <g id="Medium-S" transform="matrix(1.0,0.0,0.0,1.0,1720.2549252929687,633.1849448242187)">  <path fill-opacity="1" fill="#000000" stroke-linecap="butt" stroke="none" stroke-width="1px" stroke-linejoin="miter" fill-rule="nonzero" stroke-miterlimit="4" stroke-dasharray="none" stroke-opacity="1" d="M13.241,0C12.034,0,11.034,1,11.034,2.207L11.034,4.414L4.414,4.414C3.965,4.414,3.474,4.483,3.004,4.81C2.534,5.138,2.207,5.789,2.207,6.392L2.207,50.804C2.207,51.356,2.396,51.92,2.793,52.33C3.185,52.744,3.763,52.963,4.323,52.963L50.847,52.963C51.407,52.963,51.985,52.744,52.377,52.33C52.774,51.92,52.963,51.356,52.963,50.804L52.963,6.392C52.963,5.789,52.636,5.138,52.166,4.81C51.696,4.483,51.205,4.414,50.757,4.414L44.136,4.414L44.136,2.207C44.136,1,43.136,0,41.929,0L39.723,0C38.516,0,37.516,1,37.516,2.207L37.516,4.414L17.654,4.414L17.654,2.207C17.654,1,16.654,0,15.448,0ZM13.241,2.207L15.448,2.207L15.448,8.827L13.241,8.827ZM39.723,2.207L41.929,2.207L41.929,8.827L39.723,8.827ZM4.414,6.62L11.034,6.62L11.034,8.827C11.034,10.034,12.034,11.034,13.241,11.034L15.448,11.034C16.654,11.034,17.654,10.034,17.654,8.827L17.654,6.62L37.516,6.62L37.516,8.827C37.516,10.034,38.516,11.034,39.723,11.034L41.929,11.034C43.136,11.034,44.136,10.034,44.136,8.827L44.136,6.62L50.757,6.62L50.757,14.344L4.414,14.344ZM4.414,16.551L50.757,16.551L50.757,50.757L4.414,50.757ZM27.171,25.848C27.094,26.27,26.926,26.628,26.667,26.921C26.408,27.214,26.094,27.451,25.732,27.637C25.37,27.822,24.96,27.956,24.512,28.033C24.064,28.111,23.598,28.154,23.12,28.154L23.12,29.943L26.538,29.943L26.538,39.753L29.02,39.753L29.02,25.848ZM27.171,25.848"/>
</g>
  <g id="Regular-S" transform="matrix(1.0,0.0,0.0,1.0,1423.5449252929686,633.1849448242187)">  <path stroke-miterlimit="4" fill-rule="nonzero" stroke-linejoin="miter" stroke-opacity="1" stroke-dasharray="none" fill-opacity="1" fill="#000000" stroke="none" stroke-linecap="butt" stroke-width="1px" d="M13.241,0C12.034,0,11.034,1,11.034,2.207L11.034,4.414L4.414,4.414C3.965,4.414,3.474,4.483,3.004,4.81C2.534,5.138,2.207,5.789,2.207,6.392L2.207,50.804C2.207,51.356,2.396,51.92,2.793,52.33C3.185,52.744,3.763,52.963,4.323,52.963L50.847,52.963C51.407,52.963,51.985,52.744,52.377,52.33C52.774,51.92,52.963,51.356,52.963,50.804L52.963,6.392C52.963,5.789,52.636,5.138,52.166,4.81C51.696,4.483,51.205,4.414,50.757,4.414L44.136,4.414L44.136,2.207C44.136,1,43.136,0,41.929,0L39.723,0C38.516,0,37.516,1,37.516,2.207L37.516,4.414L17.654,4.414L17.654,2.207C17.654,1,16.654,0,15.448,0ZM13.241,2.207L15.448,2.207L15.448,8.827L13.241,8.827ZM39.723,2.207L41.929,2.207L41.929,8.827L39.723,8.827ZM4.414,6.62L11.034,6.62L11.034,8.827C11.034,10.034,12.034,11.034,13.241,11.034L15.448,11.034C16.654,11.034,17.654,10.034,17.654,8.827L17.654,6.62L37.516,6.62L37.516,8.827C37.516,10.034,38.516,11.034,39.723,11.034L41.929,11.034C43.136,11.034,44.136,10.034,44.136,8.827L44.136,6.62L50.757,6.62L50.757,14.344L4.414,14.344ZM4.414,16.551L50.757,16.551L50.757,50.757L4.414,50.757ZM27.171,25.848C27.094,26.27,26.926,26.628,26.667,26.921C26.408,27.214,26.094,27.451,25.732,27.637C25.37,27.822,24.96,27.956,24.512,28.033C24.064,28.111,23.598,28.154,23.12,28.154L23.12,29.943L26.538,29.943L26.538,39.753L29.02,39.753L29.02,25.848ZM27.171,25.848"/>
</g>
  <g id="Light-S" transform="matrix(1.0,0.0,0.0,1.0,1126.8349252929688,633.1849448242187)">  <path fill-opacity="1" stroke-linejoin="miter" stroke="none" fill-rule="nonzero" stroke-width="1px" stroke-opacity="1" stroke-miterlimit="4" fill="#000000" stroke-dasharray="none" stroke-linecap="butt" d="M13.241,0C12.034,0,11.034,1,11.034,2.207L11.034,4.414L4.414,4.414C3.965,4.414,3.474,4.483,3.004,4.81C2.534,5.138,2.207,5.789,2.207,6.392L2.207,50.804C2.207,51.356,2.396,51.92,2.793,52.33C3.185,52.744,3.763,52.963,4.323,52.963L50.847,52.963C51.407,52.963,51.985,52.744,52.377,52.33C52.774,51.92,52.963,51.356,52.963,50.804L52.963,6.392C52.963,5.789,52.636,5.138,52.166,4.81C51.696,4.483,51.205,4.414,50.757,4.414L44.136,4.414L44.136,2.207C44.136,1,43.136,0,41.929,0L39.723,0C38.516,0,37.516,1,37.516,2.207L37.516,4.414L17.654,4.414L17.654,2.207C17.654,1,16.654,0,15.448,0ZM13.241,2.207L15.448,2.207L15.448,8.827L13.241,8.827ZM39.723,2.207L41.929,2.207L41.929,8.827L39.723,8.827ZM4.414,6.62L11.034,6.62L11.034,8.827C11.034,10.034,12.034,11.034,13.241,11.034L15.448,11.034C16.654,11.034,17.654,10.034,17.654,8.827L17.654,6.62L37.516,6.62L37.516,8.827C37.516,10.034,38.516,11.034,39.723,11.034L41.929,11.034C43.136,11.034,44.136,10.034,44.136,8.827L44.136,6.62L50.757,6.62L50.757,14.344L4.414,14.344ZM4.414,16.551L50.757,16.551L50.757,50.757L4.414,50.757ZM27.171,25.848C27.094,26.27,26.926,26.628,26.667,26.921C26.408,27.214,26.094,27.451,25.732,27.637C25.37,27.822,24.96,27.956,24.512,28.033C24.064,28.111,23.598,28.154,23.12,28.154L23.12,29.943L26.538,29.943L26.538,39.753L29.02,39.753L29.02,25.848ZM27.171,25.848"/>
</g>
  <g id="Thin-S" transform="matrix(1.0,0.0,0.0,1.0,830.1249252929688,633.1849448242187)">  <path fill-rule="nonzero" stroke="none" stroke-miterlimit="4" fill="#000000" stroke-dasharray="none" stroke-opacity="1" fill-opacity="1" stroke-linejoin="miter" stroke-width="1px" stroke-linecap="butt" d="M13.241,0C12.034,0,11.034,1,11.034,2.207L11.034,4.414L4.414,4.414C3.965,4.414,3.474,4.483,3.004,4.81C2.534,5.138,2.207,5.789,2.207,6.392L2.207,50.804C2.207,51.356,2.396,51.92,2.793,52.33C3.185,52.744,3.763,52.963,4.323,52.963L50.847,52.963C51.407,52.963,51.985,52.744,52.377,52.33C52.774,51.92,52.963,51.356,52.963,50.804L52.963,6.392C52.963,5.789,52.636,5.138,52.166,4.81C51.696,4.483,51.205,4.414,50.757,4.414L44.136,4.414L44.136,2.207C44.136,1,43.136,0,41.929,0L39.723,0C38.516,0,37.516,1,37.516,2.207L37.516,4.414L17.654,4.414L17.654,2.207C17.654,1,16.654,0,15.448,0ZM13.241,2.207L15.448,2.207L15.448,8.827L13.241,8.827ZM39.723,2.207L41.929,2.207L41.929,8.827L39.723,8.827ZM4.414,6.62L11.034,6.62L11.034,8.827C11.034,10.034,12.034,11.034,13.241,11.034L15.448,11.034C16.654,11.034,17.654,10.034,17.654,8.827L17.654,6.62L37.516,6.62L37.516,8.827C37.516,10.034,38.516,11.034,39.723,11.034L41.929,11.034C43.136,11.034,44.136,10.034,44.136,8.827L44.136,6.62L50.757,6.62L50.757,14.344L4.414,14.344ZM4.414,16.551L50.757,16.551L50.757,50.757L4.414,50.757ZM27.171,25.848C27.094,26.27,26.926,26.628,26.667,26.921C26.408,27.214,26.094,27.451,25.732,27.637C25.37,27.822,24.96,27.956,24.512,28.033C24.064,28.111,23.598,28.154,23.12,28.154L23.12,29.943L26.538,29.943L26.538,39.753L29.02,39.753L29.02,25.848ZM27.171,25.848"/>
</g>
  <g id="Ultralight-S" transform="matrix(1.0,0.0,0.0,1.0,533.4149252929687,633.1849448242187)">  <path stroke-linecap="butt" stroke-dasharray="none" stroke-width="1px" stroke-miterlimit="4" stroke-linejoin="miter" fill-rule="nonzero" stroke="none" fill-opacity="1" stroke-opacity="1" fill="#000000" d="M13.241,0C12.034,0,11.034,1,11.034,2.207L11.034,4.414L4.414,4.414C3.965,4.414,3.474,4.483,3.004,4.81C2.534,5.138,2.207,5.789,2.207,6.392L2.207,50.804C2.207,51.356,2.396,51.92,2.793,52.33C3.185,52.744,3.763,52.963,4.323,52.963L50.847,52.963C51.407,52.963,51.985,52.744,52.377,52.33C52.774,51.92,52.963,51.356,52.963,50.804L52.963,6.392C52.963,5.789,52.636,5.138,52.166,4.81C51.696,4.483,51.205,4.414,50.757,4.414L44.136,4.414L44.136,2.207C44.136,1,43.136,0,41.929,0L39.723,0C38.516,0,37.516,1,37.516,2.207L37.516,4.414L17.654,4.414L17.654,2.207C17.654,1,16.654,0,15.448,0ZM13.241,2.207L15.448,2.207L15.448,8.827L13.241,8.827ZM39.723,2.207L41.929,2.207L41.929,8.827L39.723,8.827ZM4.414,6.62L11.034,6.62L11.034,8.827C11.034,10.034,12.034,11.034,13.241,11.034L15.448,11.034C16.654,11.034,17.654,10.034,17.654,8.827L17.654,6.62L37.516,6.62L37.516,8.827C37.516,10.034,38.516,11.034,39.723,11.034L41.929,11.034C43.136,11.034,44.136,10.034,44.136,8.827L44.136,6.62L50.757,6.62L50.757,14.344L4.414,14.344ZM4.414,16.551L50.757,16.551L50.757,50.757L4.414,50.757ZM27.171,25.848C27.094,26.27,26.926,26.628,26.667,26.921C26.408,27.214,26.094,27.451,25.732,27.637C25.37,27.822,24.96,27.956,24.512,28.033C24.064,28.111,23.598,28.154,23.12,28.154L23.12,29.943L26.538,29.943L26.538,39.753L29.02,39.753L29.02,25.848ZM27.171,25.848"/>
</g>
 </g>
</svg>
