<?xml version="1.0" encoding="UTF-8"?>
<!-- Generator: CustomSymbols v2.6.2.41 by @serious_bret https://bretlester.com/app_content/CustomSymbols/ -->
<!-- Guides: Left/Right 0.0/0.0 Cap/Base 0.0/0.0 -->
<!-- Settings: RefScale 1.0 Min/Max Stroke Scales 0.5/2.21 -->
<!DOCTYPE svg
PUBLIC "-//W3C//DTD SVG 1.1//EN"
       "http://www.w3.org/Graphics/SVG/1.1/DTD/svg11.dtd">
<svg version="1.1" xmlns="http://www.w3.org/2000/svg" xmlns:xlink="http://www.w3.org/1999/xlink" width="3300" height="2200">
<![CDATA[<svg fill="#000000" xmlns="http://www.w3.org/2000/svg"  viewBox="0 0 50 50" width="50px" height="50px"><path d="M 3.84375 4 C 3.375 4 2.886719 4.175781 2.53125 4.53125 C 1.816406 5.246094 1.816406 6.410156 2.53125 7.125 L 15.875 20.46875 C 16.234375 20.824219 16.71875 21 17.1875 21 C 17.65625 21 18.113281 20.824219 18.46875 20.46875 C 19.183594 19.753906 19.183594 18.589844 18.46875 17.875 L 5.125 4.53125 C 4.769531 4.175781 4.3125 4 3.84375 4 Z M 46.15625 4 C 45.6875 4 45.230469 4.175781 44.875 4.53125 L 31.53125 17.875 C 30.816406 18.589844 30.816406 19.753906 31.53125 20.46875 C 31.886719 20.824219 32.34375 21 32.8125 21 C 33.28125 21 33.765625 20.824219 34.125 20.46875 L 47.46875 7.125 C 48.183594 6.410156 48.183594 5.246094 47.46875 4.53125 C 47.113281 4.175781 46.625 4 46.15625 4 Z M 2 16 C 0.898438 16 0 16.898438 0 18 L 0 24 C 0 25.101563 0.898438 26 2 26 L 48 26 C 49.101563 26 50 25.101563 50 24 L 50 18 C 50 16.898438 49.101563 16 48 16 L 41.40625 16 L 35.53125 21.875 C 34.808594 22.597656 33.832031 23 32.8125 23 C 31.792969 23 30.851563 22.601563 30.125 21.875 C 28.636719 20.382813 28.632813 17.960938 30.125 16.46875 L 30.59375 16 L 19.40625 16 L 19.875 16.46875 C 21.363281 17.960938 21.363281 20.382813 19.875 21.875 C 19.152344 22.597656 18.210938 23 17.1875 23 C 16.167969 23 15.195313 22.597656 14.46875 21.875 L 8.59375 16 Z M 2.78125 27 L 7.8125 44.53125 C 8.054688 45.375 8.984375 46 10 46 L 40 46 C 41.015625 46 41.941406 45.375 42.1875 44.53125 L 47.21875 27 Z M 17.625 28.53125 C 18.640625 28.53125 19.46875 29.359375 19.46875 30.375 L 19.46875 39.46875 C 19.46875 40.484375 18.640625 41.3125 17.625 41.3125 C 16.609375 41.3125 15.78125 40.484375 15.78125 39.46875 L 15.78125 30.375 C 15.78125 29.359375 16.609375 28.53125 17.625 28.53125 Z M 25 28.53125 C 26.019531 28.53125 26.84375 29.359375 26.84375 30.375 L 26.84375 39.46875 C 26.84375 40.484375 26.019531 41.3125 25 41.3125 C 23.984375 41.3125 23.15625 40.484375 23.15625 39.46875 L 23.15625 30.375 C 23.15625 29.359375 23.984375 28.53125 25 28.53125 Z M 32.375 28.53125 C 33.394531 28.53125 34.21875 29.359375 34.21875 30.375 L 34.21875 39.46875 C 34.21875 40.484375 33.394531 41.3125 32.375 41.3125 C 31.359375 41.3125 30.53125 40.484375 30.53125 39.46875 L 30.53125 30.375 C 30.53125 29.359375 31.359375 28.53125 32.375 28.53125 Z"/></svg>]]>
 <g id="Notes">
  <rect height="2200" id="artboard" style="fill:white;opacity:1" width="3300" x="0" y="0"/>
  <line id="" style="fill:none;stroke:black;opacity:1;stroke-width:0.5;" x1="263" x2="3036" y1="292" y2="292"/>
  <text id="reftext1" style="stroke:none;fill:black;font-family:-apple-system,&quot;SF Pro Display&quot;,&quot;SF Pro Text&quot;,Helvetica,sans-serif;font-weight:bold;" transform="matrix(1 0 0 1 263 322)">Weight/Scale Variations</text>
  <text id="reftext2" style="stroke:none;fill:black;font-family:-apple-system,&quot;SF Pro Display&quot;,&quot;SF Pro Text&quot;,Helvetica,sans-serif;text-anchor:middle;" transform="matrix(1 0 0 1 559.711 322)">Ultralight</text>
  <text style="stroke:none;fill:black;font-family:-apple-system,&quot;SF Pro Display&quot;,&quot;SF Pro Text&quot;,Helvetica,sans-serif;text-anchor:middle;" transform="matrix(1 0 0 1 856.422 322)">Thin</text>
  <text style="stroke:none;fill:black;font-family:-apple-system,&quot;SF Pro Display&quot;,&quot;SF Pro Text&quot;,Helvetica,sans-serif;text-anchor:middle;" transform="matrix(1 0 0 1 1153.13 322)">Light</text>
  <text style="stroke:none;fill:black;font-family:-apple-system,&quot;SF Pro Display&quot;,&quot;SF Pro Text&quot;,Helvetica,sans-serif;text-anchor:middle;" transform="matrix(1 0 0 1 1449.84 322)">Regular</text>
  <text style="stroke:none;fill:black;font-family:-apple-system,&quot;SF Pro Display&quot;,&quot;SF Pro Text&quot;,Helvetica,sans-serif;text-anchor:middle;" transform="matrix(1 0 0 1 1746.56 322)">Medium</text>
  <text style="stroke:none;fill:black;font-family:-apple-system,&quot;SF Pro Display&quot;,&quot;SF Pro Text&quot;,Helvetica,sans-serif;text-anchor:middle;" transform="matrix(1 0 0 1 2043.27 322)">Semibold</text>
  <text style="stroke:none;fill:black;font-family:-apple-system,&quot;SF Pro Display&quot;,&quot;SF Pro Text&quot;,Helvetica,sans-serif;text-anchor:middle;" transform="matrix(1 0 0 1 2339.98 322)">Bold</text>
  <text style="stroke:none;fill:black;font-family:-apple-system,&quot;SF Pro Display&quot;,&quot;SF Pro Text&quot;,Helvetica,sans-serif;text-anchor:middle;" transform="matrix(1 0 0 1 2636.69 322)">Heavy</text>
  <text style="stroke:none;fill:black;font-family:-apple-system,&quot;SF Pro Display&quot;,&quot;SF Pro Text&quot;,Helvetica,sans-serif;text-anchor:middle;" transform="matrix(1 0 0 1 2933.4 322)">Black</text>
  <line id="" style="fill:none;stroke:black;opacity:1;stroke-width:0.5;" x1="263" x2="3036" y1="1903" y2="1903"/>
  <g id="" transform="matrix(1 0 0 1 263 1933)">
   <path d="M9.24805 0.830078C13.5547 0.830078 17.1387-2.74414 17.1387-7.05078C17.1387-11.3574 13.5449-14.9316 9.23828-14.9316C4.94141-14.9316 1.36719-11.3574 1.36719-7.05078C1.36719-2.74414 4.95117 0.830078 9.24805 0.830078ZM9.24805-0.654297C5.70312-0.654297 2.87109-3.49609 2.87109-7.05078C2.87109-10.6055 5.69336-13.4473 9.23828-13.4473C12.793-13.4473 15.6348-10.6055 15.6445-7.05078C15.6543-3.49609 12.8027-0.654297 9.24805-0.654297ZM6.39648-6.31836L8.50586-6.31836L8.50586-4.19922C8.50586-3.75977 8.79883-3.45703 9.22852-3.45703C9.67773-3.45703 9.9707-3.75977 9.9707-4.19922L9.9707-6.31836L12.0996-6.31836C12.5391-6.31836 12.8418-6.61133 12.8418-7.04102C12.8418-7.48047 12.5391-7.7832 12.0996-7.7832L9.9707-7.7832L9.9707-9.89258C9.9707-10.3418 9.67773-10.6445 9.22852-10.6445C8.79883-10.6445 8.50586-10.3418 8.50586-9.89258L8.50586-7.7832L6.39648-7.7832C5.94727-7.7832 5.64453-7.48047 5.64453-7.04102C5.64453-6.61133 5.94727-6.31836 6.39648-6.31836Z"/>
  </g>
  <g id="" transform="matrix(1 0 0 1 281.506 1933)">
   <path d="M11.709 2.91016C17.1582 2.91016 21.6699-1.61133 21.6699-7.05078C21.6699-12.5 17.1484-17.0117 11.6992-17.0117C6.25977-17.0117 1.74805-12.5 1.74805-7.05078C1.74805-1.61133 6.26953 2.91016 11.709 2.91016ZM11.709 1.25C7.09961 1.25 3.41797-2.44141 3.41797-7.05078C3.41797-11.6602 7.08984-15.3516 11.6992-15.3516C16.3086-15.3516 20-11.6602 20.0098-7.05078C20.0195-2.44141 16.3184 1.25 11.709 1.25ZM7.98828-6.23047L10.8789-6.23047L10.8789-3.32031C10.8789-2.83203 11.2109-2.5 11.6895-2.5C12.1777-2.5 12.5195-2.83203 12.5195-3.32031L12.5195-6.23047L15.4297-6.23047C15.918-6.23047 16.25-6.5625 16.25-7.04102C16.25-7.5293 15.918-7.87109 15.4297-7.87109L12.5195-7.87109L12.5195-10.7617C12.5195-11.2695 12.1777-11.6016 11.6895-11.6016C11.2109-11.6016 10.8789-11.2598 10.8789-10.7617L10.8789-7.87109L7.98828-7.87109C7.48047-7.87109 7.14844-7.5293 7.14844-7.04102C7.14844-6.5625 7.49023-6.23047 7.98828-6.23047Z"/>
  </g>
  <g id="" transform="matrix(1 0 0 1 304.924 1933)">
   <path d="M14.9707 5.66406C21.9336 5.66406 27.6953-0.0976562 27.6953-7.05078C27.6953-14.0137 21.9238-19.7754 14.9609-19.7754C8.00781-19.7754 2.25586-14.0137 2.25586-7.05078C2.25586-0.0976562 8.01758 5.66406 14.9707 5.66406ZM14.9707 3.84766C8.93555 3.84766 4.08203-1.01562 4.08203-7.05078C4.08203-13.0957 8.92578-17.9492 14.9609-17.9492C21.0059-17.9492 25.8594-13.0957 25.8691-7.05078C25.8789-1.01562 21.0156 3.84766 14.9707 3.84766ZM10.0586-6.14258L14.0625-6.14258L14.0625-2.12891C14.0625-1.5918 14.4336-1.2207 14.9512-1.2207C15.4883-1.2207 15.8594-1.5918 15.8594-2.12891L15.8594-6.14258L19.8828-6.14258C20.4102-6.14258 20.791-6.51367 20.791-7.03125C20.791-7.56836 20.4199-7.94922 19.8828-7.94922L15.8594-7.94922L15.8594-11.9531C15.8594-12.5098 15.4883-12.8809 14.9512-12.8809C14.4336-12.8809 14.0625-12.5 14.0625-11.9531L14.0625-7.94922L10.0586-7.94922C9.50195-7.94922 9.13086-7.56836 9.13086-7.03125C9.13086-6.51367 9.51172-6.14258 10.0586-6.14258Z"/>
  </g>
  <text style="stroke:none;fill:black;font-family:-apple-system,&quot;SF Pro Display&quot;,&quot;SF Pro Text&quot;,Helvetica,sans-serif;font-weight:bold;" transform="matrix(1 0 0 1 263 1953)">Design Variations</text>
  <text style="stroke:none;fill:black;font-family:-apple-system,&quot;SF Pro Display&quot;,&quot;SF Pro Text&quot;,Helvetica,sans-serif;" transform="matrix(1 0 0 1 263 1971)">Symbols are supported in up to nine weights and three scales.</text>
  <text style="stroke:none;fill:black;font-family:-apple-system,&quot;SF Pro Display&quot;,&quot;SF Pro Text&quot;,Helvetica,sans-serif;" transform="matrix(1 0 0 1 263 1989)">For optimal layout with text and other symbols, vertically align</text>
  <text style="stroke:none;fill:black;font-family:-apple-system,&quot;SF Pro Display&quot;,&quot;SF Pro Text&quot;,Helvetica,sans-serif;" transform="matrix(1 0 0 1 263 2007)">symbols with the adjacent text.</text>
  <line id="" style="fill:none;stroke:#00AEEF;stroke-width:0.5;opacity:1.0;" x1="776" x2="776" y1="1919" y2="1933"/>
  <g id="" transform="matrix(1 0 0 1 776 1933)">
   <path d="M3.31055 0.126953C3.82812 0.126953 4.08203-0.0683594 4.26758-0.605469L5.52734-4.0625L11.2891-4.0625L12.5488-0.605469C12.7344-0.0683594 12.9883 0.126953 13.4961 0.126953C14.0137 0.126953 14.3457-0.185547 14.3457-0.673828C14.3457-0.839844 14.3164-0.986328 14.2383-1.20117L9.6582-13.3887C9.43359-13.9941 9.0332-14.2871 8.4082-14.2871C7.80273-14.2871 7.39258-13.9941 7.17773-13.3984L2.59766-1.19141C2.51953-0.976562 2.49023-0.830078 2.49023-0.664062C2.49023-0.175781 2.80273 0.126953 3.31055 0.126953ZM6.00586-5.53711L8.37891-12.1094L8.42773-12.1094L10.8008-5.53711Z"/>
  </g>
  <line id="" style="fill:none;stroke:#00AEEF;stroke-width:0.5;opacity:1.0;" x1="792.836" x2="792.836" y1="1919" y2="1933"/>
  <text style="stroke:none;fill:black;font-family:-apple-system,&quot;SF Pro Display&quot;,&quot;SF Pro Text&quot;,Helvetica,sans-serif;font-weight:bold;" transform="matrix(1 0 0 1 776 1953)">Margins</text>
  <text style="stroke:none;fill:black;font-family:-apple-system,&quot;SF Pro Display&quot;,&quot;SF Pro Text&quot;,Helvetica,sans-serif;" transform="matrix(1 0 0 1 776 1971)">Leading and trailing margins on the left and right side of each symbol</text>
  <text style="stroke:none;fill:black;font-family:-apple-system,&quot;SF Pro Display&quot;,&quot;SF Pro Text&quot;,Helvetica,sans-serif;" transform="matrix(1 0 0 1 776 1989)">can be adjusted by modifying the x-location of the margin guidelines.</text>
  <text style="stroke:none;fill:black;font-family:-apple-system,&quot;SF Pro Display&quot;,&quot;SF Pro Text&quot;,Helvetica,sans-serif;" transform="matrix(1 0 0 1 776 2007)">Modifications are automatically applied proportionally to all</text>
  <text style="stroke:none;fill:black;font-family:-apple-system,&quot;SF Pro Display&quot;,&quot;SF Pro Text&quot;,Helvetica,sans-serif;" transform="matrix(1 0 0 1 776 2025)">scales and weights.</text>
  <g id="" transform="matrix(1 0 0 1 1289 1933)">
   <path d="M2.8418 1.86523L4.54102 3.57422C5.40039 4.44336 6.38672 4.38477 7.31445 3.35938L17.4902-7.85156C17.7539-7.76367 18.0273-7.7832 18.3398-7.8418L19.4043-8.03711L20.0684-7.36328L20.0293-6.80664C19.9902-6.30859 20.1172-5.92773 20.6055-5.44922L21.3672-4.70703C21.8457-4.22852 22.4609-4.19922 22.9297-4.66797L25.8398-7.58789C26.3086-8.05664 26.2891-8.65234 25.8105-9.13086L25.0391-9.89258C24.5605-10.3711 24.1895-10.5273 23.7109-10.4883L23.1348-10.4395L22.4902-11.0742L22.7344-12.1973C22.8613-12.7637 22.7051-13.2031 22.1191-13.7891L19.9219-15.9766C16.582-19.2969 12.1484-19.2188 9.25781-16.3281C8.83789-15.918 8.80859-15.3418 9.04297-14.9512C9.27734-14.5898 9.73633-14.3555 10.3809-14.5215C11.8457-14.8633 13.3691-14.9219 14.7949-13.9844L14.209-12.5293C14.0137-12.0508 13.9844-11.6504 14.1113-11.2891L3.04688-0.898438C2.06055 0.0195312 1.98242 0.996094 2.8418 1.86523ZM10.752-15.957C13.1836-17.7344 16.4746-17.4316 18.7012-15.2051L21.1328-12.793C21.3672-12.5586 21.4062-12.373 21.3379-12.0312L21.0156-10.5469L22.5195-9.0625L23.5059-9.12109C23.7598-9.13086 23.8379-9.11133 24.0332-8.91602L24.6094-8.33984L22.168-5.89844L21.5918-6.47461C21.3965-6.66992 21.3672-6.74805 21.377-7.01172L21.4453-7.98828L19.9512-9.47266L18.4277-9.21875C18.1055-9.15039 17.959-9.17969 17.7148-9.41406L15.7129-11.416C15.459-11.6504 15.4297-11.8164 15.5859-12.1875L16.4648-14.2773C14.9023-15.7324 12.8711-16.3574 10.8398-15.7617C10.6836-15.7227 10.625-15.8496 10.752-15.957ZM5.27344 2.30469L4.10156 1.14258C3.63281 0.683594 3.74023 0.341797 4.14062-0.0195312L14.9512-10.1953L16.416-8.71094L6.42578 2.27539C6.07422 2.67578 5.74219 2.77344 5.27344 2.30469Z"/>
  </g>
  <text style="stroke:none;fill:black;font-family:-apple-system,&quot;SF Pro Display&quot;,&quot;SF Pro Text&quot;,Helvetica,sans-serif;font-weight:bold;" transform="matrix(1 0 0 1 1289 1953)">Exporting</text>
  <text style="stroke:none;fill:black;font-family:-apple-system,&quot;SF Pro Display&quot;,&quot;SF Pro Text&quot;,Helvetica,sans-serif;" transform="matrix(1 0 0 1 1289 1971)">Symbols should be outlined when exporting to ensure the</text>
  <text style="stroke:none;fill:black;font-family:-apple-system,&quot;SF Pro Display&quot;,&quot;SF Pro Text&quot;,Helvetica,sans-serif;" transform="matrix(1 0 0 1 1289 1989)">design is preserved when submitting to Xcode.</text>
  <text id="template-version" style="stroke:none;fill:black;font-family:-apple-system,&quot;SF Pro Display&quot;,&quot;SF Pro Text&quot;,Helvetica,sans-serif;text-anchor:end;" transform="matrix(1 0 0 1 3036 1933)">Template v.2.0</text>
  <text style="stroke:none;fill:black;font-family:-apple-system,&quot;SF Pro Display&quot;,&quot;SF Pro Text&quot;,Helvetica,sans-serif;text-anchor:end;" transform="matrix(1 0 0 1 3036 1951)">Requires Xcode 12 or greater</text>
  <text style="stroke:none;fill:black;font-family:-apple-system,&quot;SF Pro Display&quot;,&quot;SF Pro Text&quot;,Helvetica,sans-serif;" transform="matrix(1 0 0 1 263 726)">Small</text>
  <text style="stroke:none;fill:black;font-family:-apple-system,&quot;SF Pro Display&quot;,&quot;SF Pro Text&quot;,Helvetica,sans-serif;" transform="matrix(1 0 0 1 263 1156)">Medium</text>
  <text style="stroke:none;fill:black;font-family:-apple-system,&quot;SF Pro Display&quot;,&quot;SF Pro Text&quot;,Helvetica,sans-serif;" transform="matrix(1 0 0 1 263 1586)">Large</text>
 </g>
 <g id="Guides">
  <g id="H-reference" style="fill:#27AAE1;stroke:none;" transform="matrix(1 0 0 1 339 696)">
   <path d="M0.976562 0L3.66211 0L12.9883-24.4629L45.752-24.4629L55.127 0L57.7637 0L30.6152-70.459L28.125-70.459ZM29.3457-67.1387L29.4434-67.1387L44.873-26.709L13.8672-26.709Z"/>
  </g>
  <line id="Baseline-S" style="fill:none;stroke:#27AAE1;opacity:1;stroke-width:0.5;" x1="263" x2="3036" y1="696" y2="696"/>
  <line id="Capline-S" style="fill:none;stroke:#27AAE1;opacity:1;stroke-width:0.5;" x1="263" x2="3036" y1="625.541" y2="625.541"/>
  <g id="H-reference" style="fill:#27AAE1;stroke:none;" transform="matrix(1 0 0 1 339 1126)">
   <path d="M0.976562 0L3.66211 0L12.9883-24.4629L45.752-24.4629L55.127 0L57.7637 0L30.6152-70.459L28.125-70.459ZM29.3457-67.1387L29.4434-67.1387L44.873-26.709L13.8672-26.709Z"/>
  </g>
  <line id="Baseline-M" style="fill:none;stroke:#27AAE1;opacity:1;stroke-width:0.5;" x1="263" x2="3036" y1="1126" y2="1126"/>
  <line id="Capline-M" style="fill:none;stroke:#27AAE1;opacity:1;stroke-width:0.5;" x1="263" x2="3036" y1="1055.54" y2="1055.54"/>
  <g id="H-reference" style="fill:#27AAE1;stroke:none;" transform="matrix(1 0 0 1 339 1556)">
   <path d="M0.976562 0L3.66211 0L12.9883-24.4629L45.752-24.4629L55.127 0L57.7637 0L30.6152-70.459L28.125-70.459ZM29.3457-67.1387L29.4434-67.1387L44.873-26.709L13.8672-26.709Z"/>
  </g>
  <line id="Baseline-L" style="fill:none;stroke:#27AAE1;opacity:1;stroke-width:0.5;" x1="263" x2="3036" y1="1556" y2="1556"/>
  <line id="Capline-L" style="fill:none;stroke:#27AAE1;opacity:1;stroke-width:0.5;" x1="263" x2="3036" y1="1485.54" y2="1485.54"/>
  <line id="left-margin" x1="1415.9000195312499" x2="1415.9000195312499" y1="1030.79" y2="1150.12" style="fill:none;stroke:#00AEEF;stroke-width:0.5;opacity:1.0;"/>
  <line id="right-margin" x1="1486.3599804687499" x2="1486.3599804687499" y1="1030.79" y2="1150.12" style="fill:none;stroke:#00AEEF;stroke-width:0.5;opacity:1.0;"/>
 </g>
 <g id="Symbols">
  <g id="Black-L" transform="matrix(1.0,0.0,0.0,1.0,2889.2333251953123,1475.3233447265625)">  <path fill-opacity="1" fill="#000000" stroke-opacity="1" stroke-width="1px" stroke-linecap="butt" stroke="none" stroke-linejoin="miter" stroke-dasharray="none" stroke-miterlimit="4" fill-rule="nonzero" d="M6.987,7.271C6.135,7.271,5.248,7.591,4.601,8.237C3.302,9.537,3.302,11.653,4.601,12.952L28.859,37.209C29.512,37.856,30.392,38.175,31.245,38.175C32.097,38.175,32.928,37.856,33.574,37.209C34.873,35.91,34.873,33.794,33.574,32.494L9.317,8.237C8.67,7.591,7.84,7.271,6.987,7.271ZM83.906,7.271C83.054,7.271,82.223,7.591,81.577,8.237L57.32,32.494C56.02,33.794,56.02,35.91,57.32,37.209C57.966,37.856,58.797,38.175,59.649,38.175C60.501,38.175,61.381,37.856,62.035,37.209L86.292,12.952C87.591,11.653,87.591,9.537,86.292,8.237C85.646,7.591,84.758,7.271,83.906,7.271ZM3.636,29.086C1.633,29.086,0,30.719,0,32.722L0,43.629C0,45.631,1.633,47.265,3.636,47.265L87.258,47.265C89.26,47.265,90.893,45.631,90.893,43.629L90.893,32.722C90.893,30.719,89.26,29.086,87.258,29.086L75.271,29.086L64.591,39.766C63.277,41.08,61.502,41.811,59.649,41.811C57.795,41.811,56.084,41.087,54.763,39.766C52.058,37.053,52.051,32.651,54.763,29.938L55.615,29.086L35.278,29.086L36.13,29.938C38.836,32.651,38.836,37.053,36.13,39.766C34.816,41.08,33.105,41.811,31.245,41.811C29.391,41.811,27.623,41.08,26.302,39.766L15.622,29.086ZM5.056,49.082L14.202,80.952C14.642,82.486,16.332,83.622,18.179,83.622L72.715,83.622C74.561,83.622,76.244,82.486,76.691,80.952L85.837,49.082ZM32.04,51.866C33.886,51.866,35.392,53.371,35.392,55.218L35.392,71.749C35.392,73.595,33.886,75.101,32.04,75.101C30.194,75.101,28.688,73.595,28.688,71.749L28.688,55.218C28.688,53.371,30.194,51.866,32.04,51.866ZM45.447,51.866C47.3,51.866,48.798,53.371,48.798,55.218L48.798,71.749C48.798,73.595,47.3,75.101,45.447,75.101C43.6,75.101,42.095,73.595,42.095,71.749L42.095,55.218C42.095,53.371,43.6,51.866,45.447,51.866ZM58.853,51.866C60.707,51.866,62.205,53.371,62.205,55.218L62.205,71.749C62.205,73.595,60.707,75.101,58.853,75.101C57.007,75.101,55.502,73.595,55.502,71.749L55.502,55.218C55.502,53.371,57.007,51.866,58.853,51.866ZM58.853,51.866"/>
</g>
  <g id="Heavy-L" transform="matrix(1.0,0.0,0.0,1.0,2592.5233251953123,1475.3233447265625)">  <path stroke-dasharray="none" stroke-miterlimit="4" fill-rule="nonzero" fill="#000000" stroke-linecap="butt" fill-opacity="1" stroke-opacity="1" stroke-width="1px" stroke="none" stroke-linejoin="miter" d="M6.987,7.271C6.135,7.271,5.248,7.591,4.601,8.237C3.302,9.537,3.302,11.653,4.601,12.952L28.859,37.209C29.512,37.856,30.392,38.175,31.245,38.175C32.097,38.175,32.928,37.856,33.574,37.209C34.873,35.91,34.873,33.794,33.574,32.494L9.317,8.237C8.67,7.591,7.84,7.271,6.987,7.271ZM83.906,7.271C83.054,7.271,82.223,7.591,81.577,8.237L57.32,32.494C56.02,33.794,56.02,35.91,57.32,37.209C57.966,37.856,58.797,38.175,59.649,38.175C60.501,38.175,61.381,37.856,62.035,37.209L86.292,12.952C87.591,11.653,87.591,9.537,86.292,8.237C85.646,7.591,84.758,7.271,83.906,7.271ZM3.636,29.086C1.633,29.086,0,30.719,0,32.722L0,43.629C0,45.631,1.633,47.265,3.636,47.265L87.258,47.265C89.26,47.265,90.893,45.631,90.893,43.629L90.893,32.722C90.893,30.719,89.26,29.086,87.258,29.086L75.271,29.086L64.591,39.766C63.277,41.08,61.502,41.811,59.649,41.811C57.795,41.811,56.084,41.087,54.763,39.766C52.058,37.053,52.051,32.651,54.763,29.938L55.615,29.086L35.278,29.086L36.13,29.938C38.836,32.651,38.836,37.053,36.13,39.766C34.816,41.08,33.105,41.811,31.245,41.811C29.391,41.811,27.623,41.08,26.302,39.766L15.622,29.086ZM5.056,49.082L14.202,80.952C14.642,82.486,16.332,83.622,18.179,83.622L72.715,83.622C74.561,83.622,76.244,82.486,76.691,80.952L85.837,49.082ZM32.04,51.866C33.886,51.866,35.392,53.371,35.392,55.218L35.392,71.749C35.392,73.595,33.886,75.101,32.04,75.101C30.194,75.101,28.688,73.595,28.688,71.749L28.688,55.218C28.688,53.371,30.194,51.866,32.04,51.866ZM45.447,51.866C47.3,51.866,48.798,53.371,48.798,55.218L48.798,71.749C48.798,73.595,47.3,75.101,45.447,75.101C43.6,75.101,42.095,73.595,42.095,71.749L42.095,55.218C42.095,53.371,43.6,51.866,45.447,51.866ZM58.853,51.866C60.707,51.866,62.205,53.371,62.205,55.218L62.205,71.749C62.205,73.595,60.707,75.101,58.853,75.101C57.007,75.101,55.502,73.595,55.502,71.749L55.502,55.218C55.502,53.371,57.007,51.866,58.853,51.866ZM58.853,51.866"/>
</g>
  <g id="Bold-L" transform="matrix(1.0,0.0,0.0,1.0,2295.8133251953122,1475.3233447265625)">  <path stroke-opacity="1" stroke-dasharray="none" stroke="none" fill="#000000" fill-opacity="1" fill-rule="nonzero" stroke-linecap="butt" stroke-linejoin="miter" stroke-width="1px" stroke-miterlimit="4" d="M6.987,7.271C6.135,7.271,5.248,7.591,4.601,8.237C3.302,9.537,3.302,11.653,4.601,12.952L28.859,37.209C29.512,37.856,30.392,38.175,31.245,38.175C32.097,38.175,32.928,37.856,33.574,37.209C34.873,35.91,34.873,33.794,33.574,32.494L9.317,8.237C8.67,7.591,7.84,7.271,6.987,7.271ZM83.906,7.271C83.054,7.271,82.223,7.591,81.577,8.237L57.32,32.494C56.02,33.794,56.02,35.91,57.32,37.209C57.966,37.856,58.797,38.175,59.649,38.175C60.501,38.175,61.381,37.856,62.035,37.209L86.292,12.952C87.591,11.653,87.591,9.537,86.292,8.237C85.646,7.591,84.758,7.271,83.906,7.271ZM3.636,29.086C1.633,29.086,0,30.719,0,32.722L0,43.629C0,45.631,1.633,47.265,3.636,47.265L87.258,47.265C89.26,47.265,90.893,45.631,90.893,43.629L90.893,32.722C90.893,30.719,89.26,29.086,87.258,29.086L75.271,29.086L64.591,39.766C63.277,41.08,61.502,41.811,59.649,41.811C57.795,41.811,56.084,41.087,54.763,39.766C52.058,37.053,52.051,32.651,54.763,29.938L55.615,29.086L35.278,29.086L36.13,29.938C38.836,32.651,38.836,37.053,36.13,39.766C34.816,41.08,33.105,41.811,31.245,41.811C29.391,41.811,27.623,41.08,26.302,39.766L15.622,29.086ZM5.056,49.082L14.202,80.952C14.642,82.486,16.332,83.622,18.179,83.622L72.715,83.622C74.561,83.622,76.244,82.486,76.691,80.952L85.837,49.082ZM32.04,51.866C33.886,51.866,35.392,53.371,35.392,55.218L35.392,71.749C35.392,73.595,33.886,75.101,32.04,75.101C30.194,75.101,28.688,73.595,28.688,71.749L28.688,55.218C28.688,53.371,30.194,51.866,32.04,51.866ZM45.447,51.866C47.3,51.866,48.798,53.371,48.798,55.218L48.798,71.749C48.798,73.595,47.3,75.101,45.447,75.101C43.6,75.101,42.095,73.595,42.095,71.749L42.095,55.218C42.095,53.371,43.6,51.866,45.447,51.866ZM58.853,51.866C60.707,51.866,62.205,53.371,62.205,55.218L62.205,71.749C62.205,73.595,60.707,75.101,58.853,75.101C57.007,75.101,55.502,73.595,55.502,71.749L55.502,55.218C55.502,53.371,57.007,51.866,58.853,51.866ZM58.853,51.866"/>
</g>
  <g id="Semibold-L" transform="matrix(1.0,0.0,0.0,1.0,1999.1033251953124,1475.3233447265625)">  <path stroke-dasharray="none" stroke-opacity="1" fill-rule="nonzero" stroke-width="1px" stroke-miterlimit="4" fill-opacity="1" stroke="none" stroke-linecap="butt" stroke-linejoin="miter" fill="#000000" d="M6.987,7.271C6.135,7.271,5.248,7.591,4.601,8.237C3.302,9.537,3.302,11.653,4.601,12.952L28.859,37.209C29.512,37.856,30.392,38.175,31.245,38.175C32.097,38.175,32.928,37.856,33.574,37.209C34.873,35.91,34.873,33.794,33.574,32.494L9.317,8.237C8.67,7.591,7.84,7.271,6.987,7.271ZM83.906,7.271C83.054,7.271,82.223,7.591,81.577,8.237L57.32,32.494C56.02,33.794,56.02,35.91,57.32,37.209C57.966,37.856,58.797,38.175,59.649,38.175C60.501,38.175,61.381,37.856,62.035,37.209L86.292,12.952C87.591,11.653,87.591,9.537,86.292,8.237C85.646,7.591,84.758,7.271,83.906,7.271ZM3.636,29.086C1.633,29.086,0,30.719,0,32.722L0,43.629C0,45.631,1.633,47.265,3.636,47.265L87.258,47.265C89.26,47.265,90.893,45.631,90.893,43.629L90.893,32.722C90.893,30.719,89.26,29.086,87.258,29.086L75.271,29.086L64.591,39.766C63.277,41.08,61.502,41.811,59.649,41.811C57.795,41.811,56.084,41.087,54.763,39.766C52.058,37.053,52.051,32.651,54.763,29.938L55.615,29.086L35.278,29.086L36.13,29.938C38.836,32.651,38.836,37.053,36.13,39.766C34.816,41.08,33.105,41.811,31.245,41.811C29.391,41.811,27.623,41.08,26.302,39.766L15.622,29.086ZM5.056,49.082L14.202,80.952C14.642,82.486,16.332,83.622,18.179,83.622L72.715,83.622C74.561,83.622,76.244,82.486,76.691,80.952L85.837,49.082ZM32.04,51.866C33.886,51.866,35.392,53.371,35.392,55.218L35.392,71.749C35.392,73.595,33.886,75.101,32.04,75.101C30.194,75.101,28.688,73.595,28.688,71.749L28.688,55.218C28.688,53.371,30.194,51.866,32.04,51.866ZM45.447,51.866C47.3,51.866,48.798,53.371,48.798,55.218L48.798,71.749C48.798,73.595,47.3,75.101,45.447,75.101C43.6,75.101,42.095,73.595,42.095,71.749L42.095,55.218C42.095,53.371,43.6,51.866,45.447,51.866ZM58.853,51.866C60.707,51.866,62.205,53.371,62.205,55.218L62.205,71.749C62.205,73.595,60.707,75.101,58.853,75.101C57.007,75.101,55.502,73.595,55.502,71.749L55.502,55.218C55.502,53.371,57.007,51.866,58.853,51.866ZM58.853,51.866"/>
</g>
  <g id="Medium-L" transform="matrix(1.0,0.0,0.0,1.0,1702.3933251953124,1475.3233447265625)">  <path fill-opacity="1" stroke-dasharray="none" stroke="none" fill-rule="nonzero" stroke-linejoin="miter" stroke-miterlimit="4" stroke-linecap="butt" fill="#000000" stroke-opacity="1" stroke-width="1px" d="M6.987,7.271C6.135,7.271,5.248,7.591,4.601,8.237C3.302,9.537,3.302,11.653,4.601,12.952L28.859,37.209C29.512,37.856,30.392,38.175,31.245,38.175C32.097,38.175,32.928,37.856,33.574,37.209C34.873,35.91,34.873,33.794,33.574,32.494L9.317,8.237C8.67,7.591,7.84,7.271,6.987,7.271ZM83.906,7.271C83.054,7.271,82.223,7.591,81.577,8.237L57.32,32.494C56.02,33.794,56.02,35.91,57.32,37.209C57.966,37.856,58.797,38.175,59.649,38.175C60.501,38.175,61.381,37.856,62.035,37.209L86.292,12.952C87.591,11.653,87.591,9.537,86.292,8.237C85.646,7.591,84.758,7.271,83.906,7.271ZM3.636,29.086C1.633,29.086,0,30.719,0,32.722L0,43.629C0,45.631,1.633,47.265,3.636,47.265L87.258,47.265C89.26,47.265,90.893,45.631,90.893,43.629L90.893,32.722C90.893,30.719,89.26,29.086,87.258,29.086L75.271,29.086L64.591,39.766C63.277,41.08,61.502,41.811,59.649,41.811C57.795,41.811,56.084,41.087,54.763,39.766C52.058,37.053,52.051,32.651,54.763,29.938L55.615,29.086L35.278,29.086L36.13,29.938C38.836,32.651,38.836,37.053,36.13,39.766C34.816,41.08,33.105,41.811,31.245,41.811C29.391,41.811,27.623,41.08,26.302,39.766L15.622,29.086ZM5.056,49.082L14.202,80.952C14.642,82.486,16.332,83.622,18.179,83.622L72.715,83.622C74.561,83.622,76.244,82.486,76.691,80.952L85.837,49.082ZM32.04,51.866C33.886,51.866,35.392,53.371,35.392,55.218L35.392,71.749C35.392,73.595,33.886,75.101,32.04,75.101C30.194,75.101,28.688,73.595,28.688,71.749L28.688,55.218C28.688,53.371,30.194,51.866,32.04,51.866ZM45.447,51.866C47.3,51.866,48.798,53.371,48.798,55.218L48.798,71.749C48.798,73.595,47.3,75.101,45.447,75.101C43.6,75.101,42.095,73.595,42.095,71.749L42.095,55.218C42.095,53.371,43.6,51.866,45.447,51.866ZM58.853,51.866C60.707,51.866,62.205,53.371,62.205,55.218L62.205,71.749C62.205,73.595,60.707,75.101,58.853,75.101C57.007,75.101,55.502,73.595,55.502,71.749L55.502,55.218C55.502,53.371,57.007,51.866,58.853,51.866ZM58.853,51.866"/>
</g>
  <g id="Regular-L" transform="matrix(1.0,0.0,0.0,1.0,1405.6833251953124,1475.3233447265625)">  <path fill-rule="nonzero" fill-opacity="1" stroke-width="1px" stroke-miterlimit="4" fill="#000000" stroke-linejoin="miter" stroke="none" stroke-opacity="1" stroke-dasharray="none" stroke-linecap="butt" d="M6.987,7.271C6.135,7.271,5.248,7.591,4.601,8.237C3.302,9.537,3.302,11.653,4.601,12.952L28.859,37.209C29.512,37.856,30.392,38.175,31.245,38.175C32.097,38.175,32.928,37.856,33.574,37.209C34.873,35.91,34.873,33.794,33.574,32.494L9.317,8.237C8.67,7.591,7.84,7.271,6.987,7.271ZM83.906,7.271C83.054,7.271,82.223,7.591,81.577,8.237L57.32,32.494C56.02,33.794,56.02,35.91,57.32,37.209C57.966,37.856,58.797,38.175,59.649,38.175C60.501,38.175,61.381,37.856,62.035,37.209L86.292,12.952C87.591,11.653,87.591,9.537,86.292,8.237C85.646,7.591,84.758,7.271,83.906,7.271ZM3.636,29.086C1.633,29.086,0,30.719,0,32.722L0,43.629C0,45.631,1.633,47.265,3.636,47.265L87.258,47.265C89.26,47.265,90.893,45.631,90.893,43.629L90.893,32.722C90.893,30.719,89.26,29.086,87.258,29.086L75.271,29.086L64.591,39.766C63.277,41.08,61.502,41.811,59.649,41.811C57.795,41.811,56.084,41.087,54.763,39.766C52.058,37.053,52.051,32.651,54.763,29.938L55.615,29.086L35.278,29.086L36.13,29.938C38.836,32.651,38.836,37.053,36.13,39.766C34.816,41.08,33.105,41.811,31.245,41.811C29.391,41.811,27.623,41.08,26.302,39.766L15.622,29.086ZM5.056,49.082L14.202,80.952C14.642,82.486,16.332,83.622,18.179,83.622L72.715,83.622C74.561,83.622,76.244,82.486,76.691,80.952L85.837,49.082ZM32.04,51.866C33.886,51.866,35.392,53.371,35.392,55.218L35.392,71.749C35.392,73.595,33.886,75.101,32.04,75.101C30.194,75.101,28.688,73.595,28.688,71.749L28.688,55.218C28.688,53.371,30.194,51.866,32.04,51.866ZM45.447,51.866C47.3,51.866,48.798,53.371,48.798,55.218L48.798,71.749C48.798,73.595,47.3,75.101,45.447,75.101C43.6,75.101,42.095,73.595,42.095,71.749L42.095,55.218C42.095,53.371,43.6,51.866,45.447,51.866ZM58.853,51.866C60.707,51.866,62.205,53.371,62.205,55.218L62.205,71.749C62.205,73.595,60.707,75.101,58.853,75.101C57.007,75.101,55.502,73.595,55.502,71.749L55.502,55.218C55.502,53.371,57.007,51.866,58.853,51.866ZM58.853,51.866"/>
</g>
  <g id="Light-L" transform="matrix(1.0,0.0,0.0,1.0,1108.9733251953126,1475.3233447265625)">  <path fill-opacity="1" stroke-miterlimit="4" stroke-linecap="butt" fill-rule="nonzero" stroke="none" stroke-width="1px" stroke-dasharray="none" stroke-opacity="1" fill="#000000" stroke-linejoin="miter" d="M6.987,7.271C6.135,7.271,5.248,7.591,4.601,8.237C3.302,9.537,3.302,11.653,4.601,12.952L28.859,37.209C29.512,37.856,30.392,38.175,31.245,38.175C32.097,38.175,32.928,37.856,33.574,37.209C34.873,35.91,34.873,33.794,33.574,32.494L9.317,8.237C8.67,7.591,7.84,7.271,6.987,7.271ZM83.906,7.271C83.054,7.271,82.223,7.591,81.577,8.237L57.32,32.494C56.02,33.794,56.02,35.91,57.32,37.209C57.966,37.856,58.797,38.175,59.649,38.175C60.501,38.175,61.381,37.856,62.035,37.209L86.292,12.952C87.591,11.653,87.591,9.537,86.292,8.237C85.646,7.591,84.758,7.271,83.906,7.271ZM3.636,29.086C1.633,29.086,0,30.719,0,32.722L0,43.629C0,45.631,1.633,47.265,3.636,47.265L87.258,47.265C89.26,47.265,90.893,45.631,90.893,43.629L90.893,32.722C90.893,30.719,89.26,29.086,87.258,29.086L75.271,29.086L64.591,39.766C63.277,41.08,61.502,41.811,59.649,41.811C57.795,41.811,56.084,41.087,54.763,39.766C52.058,37.053,52.051,32.651,54.763,29.938L55.615,29.086L35.278,29.086L36.13,29.938C38.836,32.651,38.836,37.053,36.13,39.766C34.816,41.08,33.105,41.811,31.245,41.811C29.391,41.811,27.623,41.08,26.302,39.766L15.622,29.086ZM5.056,49.082L14.202,80.952C14.642,82.486,16.332,83.622,18.179,83.622L72.715,83.622C74.561,83.622,76.244,82.486,76.691,80.952L85.837,49.082ZM32.04,51.866C33.886,51.866,35.392,53.371,35.392,55.218L35.392,71.749C35.392,73.595,33.886,75.101,32.04,75.101C30.194,75.101,28.688,73.595,28.688,71.749L28.688,55.218C28.688,53.371,30.194,51.866,32.04,51.866ZM45.447,51.866C47.3,51.866,48.798,53.371,48.798,55.218L48.798,71.749C48.798,73.595,47.3,75.101,45.447,75.101C43.6,75.101,42.095,73.595,42.095,71.749L42.095,55.218C42.095,53.371,43.6,51.866,45.447,51.866ZM58.853,51.866C60.707,51.866,62.205,53.371,62.205,55.218L62.205,71.749C62.205,73.595,60.707,75.101,58.853,75.101C57.007,75.101,55.502,73.595,55.502,71.749L55.502,55.218C55.502,53.371,57.007,51.866,58.853,51.866ZM58.853,51.866"/>
</g>
  <g id="Thin-L" transform="matrix(1.0,0.0,0.0,1.0,812.2633251953125,1475.3233447265625)">  <path fill="#000000" stroke-width="1px" stroke="none" stroke-dasharray="none" fill-opacity="1" stroke-opacity="1" fill-rule="nonzero" stroke-miterlimit="4" stroke-linejoin="miter" stroke-linecap="butt" d="M6.987,7.271C6.135,7.271,5.248,7.591,4.601,8.237C3.302,9.537,3.302,11.653,4.601,12.952L28.859,37.209C29.512,37.856,30.392,38.175,31.245,38.175C32.097,38.175,32.928,37.856,33.574,37.209C34.873,35.91,34.873,33.794,33.574,32.494L9.317,8.237C8.67,7.591,7.84,7.271,6.987,7.271ZM83.906,7.271C83.054,7.271,82.223,7.591,81.577,8.237L57.32,32.494C56.02,33.794,56.02,35.91,57.32,37.209C57.966,37.856,58.797,38.175,59.649,38.175C60.501,38.175,61.381,37.856,62.035,37.209L86.292,12.952C87.591,11.653,87.591,9.537,86.292,8.237C85.646,7.591,84.758,7.271,83.906,7.271ZM3.636,29.086C1.633,29.086,0,30.719,0,32.722L0,43.629C0,45.631,1.633,47.265,3.636,47.265L87.258,47.265C89.26,47.265,90.893,45.631,90.893,43.629L90.893,32.722C90.893,30.719,89.26,29.086,87.258,29.086L75.271,29.086L64.591,39.766C63.277,41.08,61.502,41.811,59.649,41.811C57.795,41.811,56.084,41.087,54.763,39.766C52.058,37.053,52.051,32.651,54.763,29.938L55.615,29.086L35.278,29.086L36.13,29.938C38.836,32.651,38.836,37.053,36.13,39.766C34.816,41.08,33.105,41.811,31.245,41.811C29.391,41.811,27.623,41.08,26.302,39.766L15.622,29.086ZM5.056,49.082L14.202,80.952C14.642,82.486,16.332,83.622,18.179,83.622L72.715,83.622C74.561,83.622,76.244,82.486,76.691,80.952L85.837,49.082ZM32.04,51.866C33.886,51.866,35.392,53.371,35.392,55.218L35.392,71.749C35.392,73.595,33.886,75.101,32.04,75.101C30.194,75.101,28.688,73.595,28.688,71.749L28.688,55.218C28.688,53.371,30.194,51.866,32.04,51.866ZM45.447,51.866C47.3,51.866,48.798,53.371,48.798,55.218L48.798,71.749C48.798,73.595,47.3,75.101,45.447,75.101C43.6,75.101,42.095,73.595,42.095,71.749L42.095,55.218C42.095,53.371,43.6,51.866,45.447,51.866ZM58.853,51.866C60.707,51.866,62.205,53.371,62.205,55.218L62.205,71.749C62.205,73.595,60.707,75.101,58.853,75.101C57.007,75.101,55.502,73.595,55.502,71.749L55.502,55.218C55.502,53.371,57.007,51.866,58.853,51.866ZM58.853,51.866"/>
</g>
  <g id="Ultralight-L" transform="matrix(1.0,0.0,0.0,1.0,515.5533251953125,1475.3233447265625)">  <path stroke-miterlimit="4" fill-rule="nonzero" stroke-dasharray="none" fill="#000000" stroke-linecap="butt" stroke="none" stroke-opacity="1" fill-opacity="1" stroke-width="1px" stroke-linejoin="miter" d="M6.987,7.271C6.135,7.271,5.248,7.591,4.601,8.237C3.302,9.537,3.302,11.653,4.601,12.952L28.859,37.209C29.512,37.856,30.392,38.175,31.245,38.175C32.097,38.175,32.928,37.856,33.574,37.209C34.873,35.91,34.873,33.794,33.574,32.494L9.317,8.237C8.67,7.591,7.84,7.271,6.987,7.271ZM83.906,7.271C83.054,7.271,82.223,7.591,81.577,8.237L57.32,32.494C56.02,33.794,56.02,35.91,57.32,37.209C57.966,37.856,58.797,38.175,59.649,38.175C60.501,38.175,61.381,37.856,62.035,37.209L86.292,12.952C87.591,11.653,87.591,9.537,86.292,8.237C85.646,7.591,84.758,7.271,83.906,7.271ZM3.636,29.086C1.633,29.086,0,30.719,0,32.722L0,43.629C0,45.631,1.633,47.265,3.636,47.265L87.258,47.265C89.26,47.265,90.893,45.631,90.893,43.629L90.893,32.722C90.893,30.719,89.26,29.086,87.258,29.086L75.271,29.086L64.591,39.766C63.277,41.08,61.502,41.811,59.649,41.811C57.795,41.811,56.084,41.087,54.763,39.766C52.058,37.053,52.051,32.651,54.763,29.938L55.615,29.086L35.278,29.086L36.13,29.938C38.836,32.651,38.836,37.053,36.13,39.766C34.816,41.08,33.105,41.811,31.245,41.811C29.391,41.811,27.623,41.08,26.302,39.766L15.622,29.086ZM5.056,49.082L14.202,80.952C14.642,82.486,16.332,83.622,18.179,83.622L72.715,83.622C74.561,83.622,76.244,82.486,76.691,80.952L85.837,49.082ZM32.04,51.866C33.886,51.866,35.392,53.371,35.392,55.218L35.392,71.749C35.392,73.595,33.886,75.101,32.04,75.101C30.194,75.101,28.688,73.595,28.688,71.749L28.688,55.218C28.688,53.371,30.194,51.866,32.04,51.866ZM45.447,51.866C47.3,51.866,48.798,53.371,48.798,55.218L48.798,71.749C48.798,73.595,47.3,75.101,45.447,75.101C43.6,75.101,42.095,73.595,42.095,71.749L42.095,55.218C42.095,53.371,43.6,51.866,45.447,51.866ZM58.853,51.866C60.707,51.866,62.205,53.371,62.205,55.218L62.205,71.749C62.205,73.595,60.707,75.101,58.853,75.101C57.007,75.101,55.502,73.595,55.502,71.749L55.502,55.218C55.502,53.371,57.007,51.866,58.853,51.866ZM58.853,51.866"/>
</g>
  <g id="Black-M" transform="matrix(1.0,0.0,0.0,1.0,2899.45001953125,1055.5400390625)">  <path fill-opacity="1" fill="#000000" stroke-opacity="1" stroke-width="1px" stroke-linecap="butt" stroke="none" stroke-linejoin="miter" stroke-dasharray="none" stroke-miterlimit="4" fill-rule="nonzero" d="M5.417,5.637C4.756,5.637,4.068,5.885,3.567,6.385C2.56,7.393,2.56,9.033,3.567,10.041L22.371,28.845C22.877,29.345,23.56,29.593,24.221,29.593C24.881,29.593,25.525,29.345,26.026,28.845C27.034,27.837,27.034,26.197,26.026,25.189L7.222,6.385C6.721,5.885,6.077,5.637,5.417,5.637ZM65.043,5.637C64.383,5.637,63.739,5.885,63.238,6.385L44.434,25.189C43.426,26.197,43.426,27.837,44.434,28.845C44.935,29.345,45.579,29.593,46.239,29.593C46.9,29.593,47.582,29.345,48.089,28.845L66.893,10.041C67.9,9.033,67.9,7.393,66.893,6.385C66.392,5.885,65.704,5.637,65.043,5.637ZM2.818,22.547C1.266,22.547,0,23.813,0,25.366L0,33.821C0,35.373,1.266,36.639,2.818,36.639L67.642,36.639C69.194,36.639,70.46,35.373,70.46,33.821L70.46,25.366C70.46,23.813,69.194,22.547,67.642,22.547L58.35,22.547L50.071,30.826C49.052,31.845,47.676,32.412,46.239,32.412C44.803,32.412,43.476,31.85,42.452,30.826C40.355,28.723,40.349,25.311,42.452,23.208L43.113,22.547L27.347,22.547L28.008,23.208C30.105,25.311,30.105,28.723,28.008,30.826C26.989,31.845,25.663,32.412,24.221,32.412C22.784,32.412,21.413,31.845,20.389,30.826L12.11,22.547ZM3.919,38.048L11.009,62.753C11.351,63.942,12.661,64.823,14.092,64.823L56.368,64.823C57.799,64.823,59.104,63.942,59.451,62.753L66.541,38.048ZM24.837,40.206C26.268,40.206,27.435,41.373,27.435,42.804L27.435,55.619C27.435,57.051,26.268,58.218,24.837,58.218C23.406,58.218,22.239,57.051,22.239,55.619L22.239,42.804C22.239,41.373,23.406,40.206,24.837,40.206ZM35.23,40.206C36.667,40.206,37.828,41.373,37.828,42.804L37.828,55.619C37.828,57.051,36.667,58.218,35.23,58.218C33.799,58.218,32.632,57.051,32.632,55.619L32.632,42.804C32.632,41.373,33.799,40.206,35.23,40.206ZM45.623,40.206C47.06,40.206,48.221,41.373,48.221,42.804L48.221,55.619C48.221,57.051,47.06,58.218,45.623,58.218C44.192,58.218,43.025,57.051,43.025,55.619L43.025,42.804C43.025,41.373,44.192,40.206,45.623,40.206ZM45.623,40.206"/>
</g>
  <g id="Heavy-M" transform="matrix(1.0,0.0,0.0,1.0,2602.74001953125,1055.5400390625)">  <path stroke-dasharray="none" stroke-miterlimit="4" fill-rule="nonzero" fill="#000000" stroke-linecap="butt" fill-opacity="1" stroke-opacity="1" stroke-width="1px" stroke="none" stroke-linejoin="miter" d="M5.417,5.637C4.756,5.637,4.068,5.885,3.567,6.385C2.56,7.393,2.56,9.033,3.567,10.041L22.371,28.845C22.877,29.345,23.56,29.593,24.221,29.593C24.881,29.593,25.525,29.345,26.026,28.845C27.034,27.837,27.034,26.197,26.026,25.189L7.222,6.385C6.721,5.885,6.077,5.637,5.417,5.637ZM65.043,5.637C64.383,5.637,63.739,5.885,63.238,6.385L44.434,25.189C43.426,26.197,43.426,27.837,44.434,28.845C44.935,29.345,45.579,29.593,46.239,29.593C46.9,29.593,47.582,29.345,48.089,28.845L66.893,10.041C67.9,9.033,67.9,7.393,66.893,6.385C66.392,5.885,65.704,5.637,65.043,5.637ZM2.818,22.547C1.266,22.547,0,23.813,0,25.366L0,33.821C0,35.373,1.266,36.639,2.818,36.639L67.642,36.639C69.194,36.639,70.46,35.373,70.46,33.821L70.46,25.366C70.46,23.813,69.194,22.547,67.642,22.547L58.35,22.547L50.071,30.826C49.052,31.845,47.676,32.412,46.239,32.412C44.803,32.412,43.476,31.85,42.452,30.826C40.355,28.723,40.349,25.311,42.452,23.208L43.113,22.547L27.347,22.547L28.008,23.208C30.105,25.311,30.105,28.723,28.008,30.826C26.989,31.845,25.663,32.412,24.221,32.412C22.784,32.412,21.413,31.845,20.389,30.826L12.11,22.547ZM3.919,38.048L11.009,62.753C11.351,63.942,12.661,64.823,14.092,64.823L56.368,64.823C57.799,64.823,59.104,63.942,59.451,62.753L66.541,38.048ZM24.837,40.206C26.268,40.206,27.435,41.373,27.435,42.804L27.435,55.619C27.435,57.051,26.268,58.218,24.837,58.218C23.406,58.218,22.239,57.051,22.239,55.619L22.239,42.804C22.239,41.373,23.406,40.206,24.837,40.206ZM35.23,40.206C36.667,40.206,37.828,41.373,37.828,42.804L37.828,55.619C37.828,57.051,36.667,58.218,35.23,58.218C33.799,58.218,32.632,57.051,32.632,55.619L32.632,42.804C32.632,41.373,33.799,40.206,35.23,40.206ZM45.623,40.206C47.06,40.206,48.221,41.373,48.221,42.804L48.221,55.619C48.221,57.051,47.06,58.218,45.623,58.218C44.192,58.218,43.025,57.051,43.025,55.619L43.025,42.804C43.025,41.373,44.192,40.206,45.623,40.206ZM45.623,40.206"/>
</g>
  <g id="Bold-M" transform="matrix(1.0,0.0,0.0,1.0,2306.0300195312498,1055.5400390625)">  <path stroke-opacity="1" stroke-dasharray="none" stroke="none" fill="#000000" fill-opacity="1" fill-rule="nonzero" stroke-linecap="butt" stroke-linejoin="miter" stroke-width="1px" stroke-miterlimit="4" d="M5.417,5.637C4.756,5.637,4.068,5.885,3.567,6.385C2.56,7.393,2.56,9.033,3.567,10.041L22.371,28.845C22.877,29.345,23.56,29.593,24.221,29.593C24.881,29.593,25.525,29.345,26.026,28.845C27.034,27.837,27.034,26.197,26.026,25.189L7.222,6.385C6.721,5.885,6.077,5.637,5.417,5.637ZM65.043,5.637C64.383,5.637,63.739,5.885,63.238,6.385L44.434,25.189C43.426,26.197,43.426,27.837,44.434,28.845C44.935,29.345,45.579,29.593,46.239,29.593C46.9,29.593,47.582,29.345,48.089,28.845L66.893,10.041C67.9,9.033,67.9,7.393,66.893,6.385C66.392,5.885,65.704,5.637,65.043,5.637ZM2.818,22.547C1.266,22.547,0,23.813,0,25.366L0,33.821C0,35.373,1.266,36.639,2.818,36.639L67.642,36.639C69.194,36.639,70.46,35.373,70.46,33.821L70.46,25.366C70.46,23.813,69.194,22.547,67.642,22.547L58.35,22.547L50.071,30.826C49.052,31.845,47.676,32.412,46.239,32.412C44.803,32.412,43.476,31.85,42.452,30.826C40.355,28.723,40.349,25.311,42.452,23.208L43.113,22.547L27.347,22.547L28.008,23.208C30.105,25.311,30.105,28.723,28.008,30.826C26.989,31.845,25.663,32.412,24.221,32.412C22.784,32.412,21.413,31.845,20.389,30.826L12.11,22.547ZM3.919,38.048L11.009,62.753C11.351,63.942,12.661,64.823,14.092,64.823L56.368,64.823C57.799,64.823,59.104,63.942,59.451,62.753L66.541,38.048ZM24.837,40.206C26.268,40.206,27.435,41.373,27.435,42.804L27.435,55.619C27.435,57.051,26.268,58.218,24.837,58.218C23.406,58.218,22.239,57.051,22.239,55.619L22.239,42.804C22.239,41.373,23.406,40.206,24.837,40.206ZM35.23,40.206C36.667,40.206,37.828,41.373,37.828,42.804L37.828,55.619C37.828,57.051,36.667,58.218,35.23,58.218C33.799,58.218,32.632,57.051,32.632,55.619L32.632,42.804C32.632,41.373,33.799,40.206,35.23,40.206ZM45.623,40.206C47.06,40.206,48.221,41.373,48.221,42.804L48.221,55.619C48.221,57.051,47.06,58.218,45.623,58.218C44.192,58.218,43.025,57.051,43.025,55.619L43.025,42.804C43.025,41.373,44.192,40.206,45.623,40.206ZM45.623,40.206"/>
</g>
  <g id="Semibold-M" transform="matrix(1.0,0.0,0.0,1.0,2009.32001953125,1055.5400390625)">  <path stroke-dasharray="none" stroke-opacity="1" fill-rule="nonzero" stroke-width="1px" stroke-miterlimit="4" fill-opacity="1" stroke="none" stroke-linecap="butt" stroke-linejoin="miter" fill="#000000" d="M5.417,5.637C4.756,5.637,4.068,5.885,3.567,6.385C2.56,7.393,2.56,9.033,3.567,10.041L22.371,28.845C22.877,29.345,23.56,29.593,24.221,29.593C24.881,29.593,25.525,29.345,26.026,28.845C27.034,27.837,27.034,26.197,26.026,25.189L7.222,6.385C6.721,5.885,6.077,5.637,5.417,5.637ZM65.043,5.637C64.383,5.637,63.739,5.885,63.238,6.385L44.434,25.189C43.426,26.197,43.426,27.837,44.434,28.845C44.935,29.345,45.579,29.593,46.239,29.593C46.9,29.593,47.582,29.345,48.089,28.845L66.893,10.041C67.9,9.033,67.9,7.393,66.893,6.385C66.392,5.885,65.704,5.637,65.043,5.637ZM2.818,22.547C1.266,22.547,0,23.813,0,25.366L0,33.821C0,35.373,1.266,36.639,2.818,36.639L67.642,36.639C69.194,36.639,70.46,35.373,70.46,33.821L70.46,25.366C70.46,23.813,69.194,22.547,67.642,22.547L58.35,22.547L50.071,30.826C49.052,31.845,47.676,32.412,46.239,32.412C44.803,32.412,43.476,31.85,42.452,30.826C40.355,28.723,40.349,25.311,42.452,23.208L43.113,22.547L27.347,22.547L28.008,23.208C30.105,25.311,30.105,28.723,28.008,30.826C26.989,31.845,25.663,32.412,24.221,32.412C22.784,32.412,21.413,31.845,20.389,30.826L12.11,22.547ZM3.919,38.048L11.009,62.753C11.351,63.942,12.661,64.823,14.092,64.823L56.368,64.823C57.799,64.823,59.104,63.942,59.451,62.753L66.541,38.048ZM24.837,40.206C26.268,40.206,27.435,41.373,27.435,42.804L27.435,55.619C27.435,57.051,26.268,58.218,24.837,58.218C23.406,58.218,22.239,57.051,22.239,55.619L22.239,42.804C22.239,41.373,23.406,40.206,24.837,40.206ZM35.23,40.206C36.667,40.206,37.828,41.373,37.828,42.804L37.828,55.619C37.828,57.051,36.667,58.218,35.23,58.218C33.799,58.218,32.632,57.051,32.632,55.619L32.632,42.804C32.632,41.373,33.799,40.206,35.23,40.206ZM45.623,40.206C47.06,40.206,48.221,41.373,48.221,42.804L48.221,55.619C48.221,57.051,47.06,58.218,45.623,58.218C44.192,58.218,43.025,57.051,43.025,55.619L43.025,42.804C43.025,41.373,44.192,40.206,45.623,40.206ZM45.623,40.206"/>
</g>
  <g id="Medium-M" transform="matrix(1.0,0.0,0.0,1.0,1712.61001953125,1055.5400390625)">  <path fill-opacity="1" stroke-dasharray="none" stroke="none" fill-rule="nonzero" stroke-linejoin="miter" stroke-miterlimit="4" stroke-linecap="butt" fill="#000000" stroke-opacity="1" stroke-width="1px" d="M5.417,5.637C4.756,5.637,4.068,5.885,3.567,6.385C2.56,7.393,2.56,9.033,3.567,10.041L22.371,28.845C22.877,29.345,23.56,29.593,24.221,29.593C24.881,29.593,25.525,29.345,26.026,28.845C27.034,27.837,27.034,26.197,26.026,25.189L7.222,6.385C6.721,5.885,6.077,5.637,5.417,5.637ZM65.043,5.637C64.383,5.637,63.739,5.885,63.238,6.385L44.434,25.189C43.426,26.197,43.426,27.837,44.434,28.845C44.935,29.345,45.579,29.593,46.239,29.593C46.9,29.593,47.582,29.345,48.089,28.845L66.893,10.041C67.9,9.033,67.9,7.393,66.893,6.385C66.392,5.885,65.704,5.637,65.043,5.637ZM2.818,22.547C1.266,22.547,0,23.813,0,25.366L0,33.821C0,35.373,1.266,36.639,2.818,36.639L67.642,36.639C69.194,36.639,70.46,35.373,70.46,33.821L70.46,25.366C70.46,23.813,69.194,22.547,67.642,22.547L58.35,22.547L50.071,30.826C49.052,31.845,47.676,32.412,46.239,32.412C44.803,32.412,43.476,31.85,42.452,30.826C40.355,28.723,40.349,25.311,42.452,23.208L43.113,22.547L27.347,22.547L28.008,23.208C30.105,25.311,30.105,28.723,28.008,30.826C26.989,31.845,25.663,32.412,24.221,32.412C22.784,32.412,21.413,31.845,20.389,30.826L12.11,22.547ZM3.919,38.048L11.009,62.753C11.351,63.942,12.661,64.823,14.092,64.823L56.368,64.823C57.799,64.823,59.104,63.942,59.451,62.753L66.541,38.048ZM24.837,40.206C26.268,40.206,27.435,41.373,27.435,42.804L27.435,55.619C27.435,57.051,26.268,58.218,24.837,58.218C23.406,58.218,22.239,57.051,22.239,55.619L22.239,42.804C22.239,41.373,23.406,40.206,24.837,40.206ZM35.23,40.206C36.667,40.206,37.828,41.373,37.828,42.804L37.828,55.619C37.828,57.051,36.667,58.218,35.23,58.218C33.799,58.218,32.632,57.051,32.632,55.619L32.632,42.804C32.632,41.373,33.799,40.206,35.23,40.206ZM45.623,40.206C47.06,40.206,48.221,41.373,48.221,42.804L48.221,55.619C48.221,57.051,47.06,58.218,45.623,58.218C44.192,58.218,43.025,57.051,43.025,55.619L43.025,42.804C43.025,41.373,44.192,40.206,45.623,40.206ZM45.623,40.206"/>
</g>
  <g id="Regular-M" transform="matrix(1.0,0.0,0.0,1.0,1415.9000195312499,1055.5400390625)">  <path fill-rule="nonzero" fill-opacity="1" stroke-width="1px" stroke-miterlimit="4" fill="#000000" stroke-linejoin="miter" stroke="none" stroke-opacity="1" stroke-dasharray="none" stroke-linecap="butt" d="M5.417,5.637C4.756,5.637,4.068,5.885,3.567,6.385C2.56,7.393,2.56,9.033,3.567,10.041L22.371,28.845C22.877,29.345,23.56,29.593,24.221,29.593C24.881,29.593,25.525,29.345,26.026,28.845C27.034,27.837,27.034,26.197,26.026,25.189L7.222,6.385C6.721,5.885,6.077,5.637,5.417,5.637ZM65.043,5.637C64.383,5.637,63.739,5.885,63.238,6.385L44.434,25.189C43.426,26.197,43.426,27.837,44.434,28.845C44.935,29.345,45.579,29.593,46.239,29.593C46.9,29.593,47.582,29.345,48.089,28.845L66.893,10.041C67.9,9.033,67.9,7.393,66.893,6.385C66.392,5.885,65.704,5.637,65.043,5.637ZM2.818,22.547C1.266,22.547,0,23.813,0,25.366L0,33.821C0,35.373,1.266,36.639,2.818,36.639L67.642,36.639C69.194,36.639,70.46,35.373,70.46,33.821L70.46,25.366C70.46,23.813,69.194,22.547,67.642,22.547L58.35,22.547L50.071,30.826C49.052,31.845,47.676,32.412,46.239,32.412C44.803,32.412,43.476,31.85,42.452,30.826C40.355,28.723,40.349,25.311,42.452,23.208L43.113,22.547L27.347,22.547L28.008,23.208C30.105,25.311,30.105,28.723,28.008,30.826C26.989,31.845,25.663,32.412,24.221,32.412C22.784,32.412,21.413,31.845,20.389,30.826L12.11,22.547ZM3.919,38.048L11.009,62.753C11.351,63.942,12.661,64.823,14.092,64.823L56.368,64.823C57.799,64.823,59.104,63.942,59.451,62.753L66.541,38.048ZM24.837,40.206C26.268,40.206,27.435,41.373,27.435,42.804L27.435,55.619C27.435,57.051,26.268,58.218,24.837,58.218C23.406,58.218,22.239,57.051,22.239,55.619L22.239,42.804C22.239,41.373,23.406,40.206,24.837,40.206ZM35.23,40.206C36.667,40.206,37.828,41.373,37.828,42.804L37.828,55.619C37.828,57.051,36.667,58.218,35.23,58.218C33.799,58.218,32.632,57.051,32.632,55.619L32.632,42.804C32.632,41.373,33.799,40.206,35.23,40.206ZM45.623,40.206C47.06,40.206,48.221,41.373,48.221,42.804L48.221,55.619C48.221,57.051,47.06,58.218,45.623,58.218C44.192,58.218,43.025,57.051,43.025,55.619L43.025,42.804C43.025,41.373,44.192,40.206,45.623,40.206ZM45.623,40.206"/>
</g>
  <g id="Light-M" transform="matrix(1.0,0.0,0.0,1.0,1119.19001953125,1055.5400390625)">  <path fill-opacity="1" stroke-miterlimit="4" stroke-linecap="butt" fill-rule="nonzero" stroke="none" stroke-width="1px" stroke-dasharray="none" stroke-opacity="1" fill="#000000" stroke-linejoin="miter" d="M5.417,5.637C4.756,5.637,4.068,5.885,3.567,6.385C2.56,7.393,2.56,9.033,3.567,10.041L22.371,28.845C22.877,29.345,23.56,29.593,24.221,29.593C24.881,29.593,25.525,29.345,26.026,28.845C27.034,27.837,27.034,26.197,26.026,25.189L7.222,6.385C6.721,5.885,6.077,5.637,5.417,5.637ZM65.043,5.637C64.383,5.637,63.739,5.885,63.238,6.385L44.434,25.189C43.426,26.197,43.426,27.837,44.434,28.845C44.935,29.345,45.579,29.593,46.239,29.593C46.9,29.593,47.582,29.345,48.089,28.845L66.893,10.041C67.9,9.033,67.9,7.393,66.893,6.385C66.392,5.885,65.704,5.637,65.043,5.637ZM2.818,22.547C1.266,22.547,0,23.813,0,25.366L0,33.821C0,35.373,1.266,36.639,2.818,36.639L67.642,36.639C69.194,36.639,70.46,35.373,70.46,33.821L70.46,25.366C70.46,23.813,69.194,22.547,67.642,22.547L58.35,22.547L50.071,30.826C49.052,31.845,47.676,32.412,46.239,32.412C44.803,32.412,43.476,31.85,42.452,30.826C40.355,28.723,40.349,25.311,42.452,23.208L43.113,22.547L27.347,22.547L28.008,23.208C30.105,25.311,30.105,28.723,28.008,30.826C26.989,31.845,25.663,32.412,24.221,32.412C22.784,32.412,21.413,31.845,20.389,30.826L12.11,22.547ZM3.919,38.048L11.009,62.753C11.351,63.942,12.661,64.823,14.092,64.823L56.368,64.823C57.799,64.823,59.104,63.942,59.451,62.753L66.541,38.048ZM24.837,40.206C26.268,40.206,27.435,41.373,27.435,42.804L27.435,55.619C27.435,57.051,26.268,58.218,24.837,58.218C23.406,58.218,22.239,57.051,22.239,55.619L22.239,42.804C22.239,41.373,23.406,40.206,24.837,40.206ZM35.23,40.206C36.667,40.206,37.828,41.373,37.828,42.804L37.828,55.619C37.828,57.051,36.667,58.218,35.23,58.218C33.799,58.218,32.632,57.051,32.632,55.619L32.632,42.804C32.632,41.373,33.799,40.206,35.23,40.206ZM45.623,40.206C47.06,40.206,48.221,41.373,48.221,42.804L48.221,55.619C48.221,57.051,47.06,58.218,45.623,58.218C44.192,58.218,43.025,57.051,43.025,55.619L43.025,42.804C43.025,41.373,44.192,40.206,45.623,40.206ZM45.623,40.206"/>
</g>
  <g id="Thin-M" transform="matrix(1.0,0.0,0.0,1.0,822.48001953125,1055.5400390625)">  <path fill="#000000" stroke-width="1px" stroke="none" stroke-dasharray="none" fill-opacity="1" stroke-opacity="1" fill-rule="nonzero" stroke-miterlimit="4" stroke-linejoin="miter" stroke-linecap="butt" d="M5.417,5.637C4.756,5.637,4.068,5.885,3.567,6.385C2.56,7.393,2.56,9.033,3.567,10.041L22.371,28.845C22.877,29.345,23.56,29.593,24.221,29.593C24.881,29.593,25.525,29.345,26.026,28.845C27.034,27.837,27.034,26.197,26.026,25.189L7.222,6.385C6.721,5.885,6.077,5.637,5.417,5.637ZM65.043,5.637C64.383,5.637,63.739,5.885,63.238,6.385L44.434,25.189C43.426,26.197,43.426,27.837,44.434,28.845C44.935,29.345,45.579,29.593,46.239,29.593C46.9,29.593,47.582,29.345,48.089,28.845L66.893,10.041C67.9,9.033,67.9,7.393,66.893,6.385C66.392,5.885,65.704,5.637,65.043,5.637ZM2.818,22.547C1.266,22.547,0,23.813,0,25.366L0,33.821C0,35.373,1.266,36.639,2.818,36.639L67.642,36.639C69.194,36.639,70.46,35.373,70.46,33.821L70.46,25.366C70.46,23.813,69.194,22.547,67.642,22.547L58.35,22.547L50.071,30.826C49.052,31.845,47.676,32.412,46.239,32.412C44.803,32.412,43.476,31.85,42.452,30.826C40.355,28.723,40.349,25.311,42.452,23.208L43.113,22.547L27.347,22.547L28.008,23.208C30.105,25.311,30.105,28.723,28.008,30.826C26.989,31.845,25.663,32.412,24.221,32.412C22.784,32.412,21.413,31.845,20.389,30.826L12.11,22.547ZM3.919,38.048L11.009,62.753C11.351,63.942,12.661,64.823,14.092,64.823L56.368,64.823C57.799,64.823,59.104,63.942,59.451,62.753L66.541,38.048ZM24.837,40.206C26.268,40.206,27.435,41.373,27.435,42.804L27.435,55.619C27.435,57.051,26.268,58.218,24.837,58.218C23.406,58.218,22.239,57.051,22.239,55.619L22.239,42.804C22.239,41.373,23.406,40.206,24.837,40.206ZM35.23,40.206C36.667,40.206,37.828,41.373,37.828,42.804L37.828,55.619C37.828,57.051,36.667,58.218,35.23,58.218C33.799,58.218,32.632,57.051,32.632,55.619L32.632,42.804C32.632,41.373,33.799,40.206,35.23,40.206ZM45.623,40.206C47.06,40.206,48.221,41.373,48.221,42.804L48.221,55.619C48.221,57.051,47.06,58.218,45.623,58.218C44.192,58.218,43.025,57.051,43.025,55.619L43.025,42.804C43.025,41.373,44.192,40.206,45.623,40.206ZM45.623,40.206"/>
</g>
  <g id="Ultralight-M" transform="matrix(1.0,0.0,0.0,1.0,525.77001953125,1055.5400390625)">  <path stroke-miterlimit="4" fill-rule="nonzero" stroke-dasharray="none" fill="#000000" stroke-linecap="butt" stroke="none" stroke-opacity="1" fill-opacity="1" stroke-width="1px" stroke-linejoin="miter" d="M5.417,5.637C4.756,5.637,4.068,5.885,3.567,6.385C2.56,7.393,2.56,9.033,3.567,10.041L22.371,28.845C22.877,29.345,23.56,29.593,24.221,29.593C24.881,29.593,25.525,29.345,26.026,28.845C27.034,27.837,27.034,26.197,26.026,25.189L7.222,6.385C6.721,5.885,6.077,5.637,5.417,5.637ZM65.043,5.637C64.383,5.637,63.739,5.885,63.238,6.385L44.434,25.189C43.426,26.197,43.426,27.837,44.434,28.845C44.935,29.345,45.579,29.593,46.239,29.593C46.9,29.593,47.582,29.345,48.089,28.845L66.893,10.041C67.9,9.033,67.9,7.393,66.893,6.385C66.392,5.885,65.704,5.637,65.043,5.637ZM2.818,22.547C1.266,22.547,0,23.813,0,25.366L0,33.821C0,35.373,1.266,36.639,2.818,36.639L67.642,36.639C69.194,36.639,70.46,35.373,70.46,33.821L70.46,25.366C70.46,23.813,69.194,22.547,67.642,22.547L58.35,22.547L50.071,30.826C49.052,31.845,47.676,32.412,46.239,32.412C44.803,32.412,43.476,31.85,42.452,30.826C40.355,28.723,40.349,25.311,42.452,23.208L43.113,22.547L27.347,22.547L28.008,23.208C30.105,25.311,30.105,28.723,28.008,30.826C26.989,31.845,25.663,32.412,24.221,32.412C22.784,32.412,21.413,31.845,20.389,30.826L12.11,22.547ZM3.919,38.048L11.009,62.753C11.351,63.942,12.661,64.823,14.092,64.823L56.368,64.823C57.799,64.823,59.104,63.942,59.451,62.753L66.541,38.048ZM24.837,40.206C26.268,40.206,27.435,41.373,27.435,42.804L27.435,55.619C27.435,57.051,26.268,58.218,24.837,58.218C23.406,58.218,22.239,57.051,22.239,55.619L22.239,42.804C22.239,41.373,23.406,40.206,24.837,40.206ZM35.23,40.206C36.667,40.206,37.828,41.373,37.828,42.804L37.828,55.619C37.828,57.051,36.667,58.218,35.23,58.218C33.799,58.218,32.632,57.051,32.632,55.619L32.632,42.804C32.632,41.373,33.799,40.206,35.23,40.206ZM45.623,40.206C47.06,40.206,48.221,41.373,48.221,42.804L48.221,55.619C48.221,57.051,47.06,58.218,45.623,58.218C44.192,58.218,43.025,57.051,43.025,55.619L43.025,42.804C43.025,41.373,44.192,40.206,45.623,40.206ZM45.623,40.206"/>
</g>
  <g id="Black-S" transform="matrix(1.0,0.0,0.0,1.0,2907.0949252929686,633.1849448242187)">  <path fill-opacity="1" fill="#000000" stroke-opacity="1" stroke-width="1px" stroke-linecap="butt" stroke="none" stroke-linejoin="miter" stroke-dasharray="none" stroke-miterlimit="4" fill-rule="nonzero" d="M4.241,4.414C3.724,4.414,3.185,4.608,2.793,5C2.004,5.789,2.004,7.073,2.793,7.862L17.517,22.585C17.913,22.978,18.448,23.171,18.965,23.171C19.482,23.171,19.986,22.978,20.378,22.585C21.167,21.797,21.167,20.512,20.378,19.723L5.655,5C5.263,4.608,4.758,4.414,4.241,4.414ZM50.929,4.414C50.412,4.414,49.907,4.608,49.515,5L34.792,19.723C34.003,20.512,34.003,21.797,34.792,22.585C35.184,22.978,35.688,23.171,36.205,23.171C36.723,23.171,37.257,22.978,37.654,22.585L52.377,7.862C53.166,7.073,53.166,5.789,52.377,5C51.985,4.608,51.446,4.414,50.929,4.414ZM2.207,17.654C0.991,17.654,0,18.646,0,19.861L0,26.482C0,27.697,0.991,28.688,2.207,28.688L52.963,28.688C54.179,28.688,55.17,27.697,55.17,26.482L55.17,19.861C55.17,18.646,54.179,17.654,52.963,17.654L45.688,17.654L39.205,24.137C38.408,24.934,37.33,25.378,36.205,25.378C35.08,25.378,34.042,24.939,33.24,24.137C31.598,22.49,31.594,19.818,33.24,18.172L33.757,17.654L21.413,17.654L21.93,18.172C23.572,19.818,23.572,22.49,21.93,24.137C21.133,24.934,20.094,25.378,18.965,25.378C17.84,25.378,16.767,24.934,15.965,24.137L9.482,17.654ZM3.069,29.792L8.62,49.136C8.888,50.067,9.913,50.757,11.034,50.757L44.136,50.757C45.257,50.757,46.278,50.067,46.55,49.136L52.101,29.792ZM19.447,31.481C20.568,31.481,21.482,32.395,21.482,33.516L21.482,43.55C21.482,44.671,20.568,45.584,19.447,45.584C18.327,45.584,17.413,44.671,17.413,43.55L17.413,33.516C17.413,32.395,18.327,31.481,19.447,31.481ZM27.585,31.481C28.71,31.481,29.619,32.395,29.619,33.516L29.619,43.55C29.619,44.671,28.71,45.584,27.585,45.584C26.464,45.584,25.551,44.671,25.551,43.55L25.551,33.516C25.551,32.395,26.464,31.481,27.585,31.481ZM35.723,31.481C36.848,31.481,37.757,32.395,37.757,33.516L37.757,43.55C37.757,44.671,36.848,45.584,35.723,45.584C34.602,45.584,33.688,44.671,33.688,43.55L33.688,33.516C33.688,32.395,34.602,31.481,35.723,31.481ZM35.723,31.481"/>
</g>
  <g id="Heavy-S" transform="matrix(1.0,0.0,0.0,1.0,2610.3849252929685,633.1849448242187)">  <path stroke-dasharray="none" stroke-miterlimit="4" fill-rule="nonzero" fill="#000000" stroke-linecap="butt" fill-opacity="1" stroke-opacity="1" stroke-width="1px" stroke="none" stroke-linejoin="miter" d="M4.241,4.414C3.724,4.414,3.185,4.608,2.793,5C2.004,5.789,2.004,7.073,2.793,7.862L17.517,22.585C17.913,22.978,18.448,23.171,18.965,23.171C19.482,23.171,19.986,22.978,20.378,22.585C21.167,21.797,21.167,20.512,20.378,19.723L5.655,5C5.263,4.608,4.758,4.414,4.241,4.414ZM50.929,4.414C50.412,4.414,49.907,4.608,49.515,5L34.792,19.723C34.003,20.512,34.003,21.797,34.792,22.585C35.184,22.978,35.688,23.171,36.205,23.171C36.723,23.171,37.257,22.978,37.654,22.585L52.377,7.862C53.166,7.073,53.166,5.789,52.377,5C51.985,4.608,51.446,4.414,50.929,4.414ZM2.207,17.654C0.991,17.654,0,18.646,0,19.861L0,26.482C0,27.697,0.991,28.688,2.207,28.688L52.963,28.688C54.179,28.688,55.17,27.697,55.17,26.482L55.17,19.861C55.17,18.646,54.179,17.654,52.963,17.654L45.688,17.654L39.205,24.137C38.408,24.934,37.33,25.378,36.205,25.378C35.08,25.378,34.042,24.939,33.24,24.137C31.598,22.49,31.594,19.818,33.24,18.172L33.757,17.654L21.413,17.654L21.93,18.172C23.572,19.818,23.572,22.49,21.93,24.137C21.133,24.934,20.094,25.378,18.965,25.378C17.84,25.378,16.767,24.934,15.965,24.137L9.482,17.654ZM3.069,29.792L8.62,49.136C8.888,50.067,9.913,50.757,11.034,50.757L44.136,50.757C45.257,50.757,46.278,50.067,46.55,49.136L52.101,29.792ZM19.447,31.481C20.568,31.481,21.482,32.395,21.482,33.516L21.482,43.55C21.482,44.671,20.568,45.584,19.447,45.584C18.327,45.584,17.413,44.671,17.413,43.55L17.413,33.516C17.413,32.395,18.327,31.481,19.447,31.481ZM27.585,31.481C28.71,31.481,29.619,32.395,29.619,33.516L29.619,43.55C29.619,44.671,28.71,45.584,27.585,45.584C26.464,45.584,25.551,44.671,25.551,43.55L25.551,33.516C25.551,32.395,26.464,31.481,27.585,31.481ZM35.723,31.481C36.848,31.481,37.757,32.395,37.757,33.516L37.757,43.55C37.757,44.671,36.848,45.584,35.723,45.584C34.602,45.584,33.688,44.671,33.688,43.55L33.688,33.516C33.688,32.395,34.602,31.481,35.723,31.481ZM35.723,31.481"/>
</g>
  <g id="Bold-S" transform="matrix(1.0,0.0,0.0,1.0,2313.6749252929685,633.1849448242187)">  <path stroke-opacity="1" stroke-dasharray="none" stroke="none" fill="#000000" fill-opacity="1" fill-rule="nonzero" stroke-linecap="butt" stroke-linejoin="miter" stroke-width="1px" stroke-miterlimit="4" d="M4.241,4.414C3.724,4.414,3.185,4.608,2.793,5C2.004,5.789,2.004,7.073,2.793,7.862L17.517,22.585C17.913,22.978,18.448,23.171,18.965,23.171C19.482,23.171,19.986,22.978,20.378,22.585C21.167,21.797,21.167,20.512,20.378,19.723L5.655,5C5.263,4.608,4.758,4.414,4.241,4.414ZM50.929,4.414C50.412,4.414,49.907,4.608,49.515,5L34.792,19.723C34.003,20.512,34.003,21.797,34.792,22.585C35.184,22.978,35.688,23.171,36.205,23.171C36.723,23.171,37.257,22.978,37.654,22.585L52.377,7.862C53.166,7.073,53.166,5.789,52.377,5C51.985,4.608,51.446,4.414,50.929,4.414ZM2.207,17.654C0.991,17.654,0,18.646,0,19.861L0,26.482C0,27.697,0.991,28.688,2.207,28.688L52.963,28.688C54.179,28.688,55.17,27.697,55.17,26.482L55.17,19.861C55.17,18.646,54.179,17.654,52.963,17.654L45.688,17.654L39.205,24.137C38.408,24.934,37.33,25.378,36.205,25.378C35.08,25.378,34.042,24.939,33.24,24.137C31.598,22.49,31.594,19.818,33.24,18.172L33.757,17.654L21.413,17.654L21.93,18.172C23.572,19.818,23.572,22.49,21.93,24.137C21.133,24.934,20.094,25.378,18.965,25.378C17.84,25.378,16.767,24.934,15.965,24.137L9.482,17.654ZM3.069,29.792L8.62,49.136C8.888,50.067,9.913,50.757,11.034,50.757L44.136,50.757C45.257,50.757,46.278,50.067,46.55,49.136L52.101,29.792ZM19.447,31.481C20.568,31.481,21.482,32.395,21.482,33.516L21.482,43.55C21.482,44.671,20.568,45.584,19.447,45.584C18.327,45.584,17.413,44.671,17.413,43.55L17.413,33.516C17.413,32.395,18.327,31.481,19.447,31.481ZM27.585,31.481C28.71,31.481,29.619,32.395,29.619,33.516L29.619,43.55C29.619,44.671,28.71,45.584,27.585,45.584C26.464,45.584,25.551,44.671,25.551,43.55L25.551,33.516C25.551,32.395,26.464,31.481,27.585,31.481ZM35.723,31.481C36.848,31.481,37.757,32.395,37.757,33.516L37.757,43.55C37.757,44.671,36.848,45.584,35.723,45.584C34.602,45.584,33.688,44.671,33.688,43.55L33.688,33.516C33.688,32.395,34.602,31.481,35.723,31.481ZM35.723,31.481"/>
</g>
  <g id="Semibold-S" transform="matrix(1.0,0.0,0.0,1.0,2016.9649252929687,633.1849448242187)">  <path stroke-dasharray="none" stroke-opacity="1" fill-rule="nonzero" stroke-width="1px" stroke-miterlimit="4" fill-opacity="1" stroke="none" stroke-linecap="butt" stroke-linejoin="miter" fill="#000000" d="M4.241,4.414C3.724,4.414,3.185,4.608,2.793,5C2.004,5.789,2.004,7.073,2.793,7.862L17.517,22.585C17.913,22.978,18.448,23.171,18.965,23.171C19.482,23.171,19.986,22.978,20.378,22.585C21.167,21.797,21.167,20.512,20.378,19.723L5.655,5C5.263,4.608,4.758,4.414,4.241,4.414ZM50.929,4.414C50.412,4.414,49.907,4.608,49.515,5L34.792,19.723C34.003,20.512,34.003,21.797,34.792,22.585C35.184,22.978,35.688,23.171,36.205,23.171C36.723,23.171,37.257,22.978,37.654,22.585L52.377,7.862C53.166,7.073,53.166,5.789,52.377,5C51.985,4.608,51.446,4.414,50.929,4.414ZM2.207,17.654C0.991,17.654,0,18.646,0,19.861L0,26.482C0,27.697,0.991,28.688,2.207,28.688L52.963,28.688C54.179,28.688,55.17,27.697,55.17,26.482L55.17,19.861C55.17,18.646,54.179,17.654,52.963,17.654L45.688,17.654L39.205,24.137C38.408,24.934,37.33,25.378,36.205,25.378C35.08,25.378,34.042,24.939,33.24,24.137C31.598,22.49,31.594,19.818,33.24,18.172L33.757,17.654L21.413,17.654L21.93,18.172C23.572,19.818,23.572,22.49,21.93,24.137C21.133,24.934,20.094,25.378,18.965,25.378C17.84,25.378,16.767,24.934,15.965,24.137L9.482,17.654ZM3.069,29.792L8.62,49.136C8.888,50.067,9.913,50.757,11.034,50.757L44.136,50.757C45.257,50.757,46.278,50.067,46.55,49.136L52.101,29.792ZM19.447,31.481C20.568,31.481,21.482,32.395,21.482,33.516L21.482,43.55C21.482,44.671,20.568,45.584,19.447,45.584C18.327,45.584,17.413,44.671,17.413,43.55L17.413,33.516C17.413,32.395,18.327,31.481,19.447,31.481ZM27.585,31.481C28.71,31.481,29.619,32.395,29.619,33.516L29.619,43.55C29.619,44.671,28.71,45.584,27.585,45.584C26.464,45.584,25.551,44.671,25.551,43.55L25.551,33.516C25.551,32.395,26.464,31.481,27.585,31.481ZM35.723,31.481C36.848,31.481,37.757,32.395,37.757,33.516L37.757,43.55C37.757,44.671,36.848,45.584,35.723,45.584C34.602,45.584,33.688,44.671,33.688,43.55L33.688,33.516C33.688,32.395,34.602,31.481,35.723,31.481ZM35.723,31.481"/>
</g>
  <g id="Medium-S" transform="matrix(1.0,0.0,0.0,1.0,1720.2549252929687,633.1849448242187)">  <path fill-opacity="1" stroke-dasharray="none" stroke="none" fill-rule="nonzero" stroke-linejoin="miter" stroke-miterlimit="4" stroke-linecap="butt" fill="#000000" stroke-opacity="1" stroke-width="1px" d="M4.241,4.414C3.724,4.414,3.185,4.608,2.793,5C2.004,5.789,2.004,7.073,2.793,7.862L17.517,22.585C17.913,22.978,18.448,23.171,18.965,23.171C19.482,23.171,19.986,22.978,20.378,22.585C21.167,21.797,21.167,20.512,20.378,19.723L5.655,5C5.263,4.608,4.758,4.414,4.241,4.414ZM50.929,4.414C50.412,4.414,49.907,4.608,49.515,5L34.792,19.723C34.003,20.512,34.003,21.797,34.792,22.585C35.184,22.978,35.688,23.171,36.205,23.171C36.723,23.171,37.257,22.978,37.654,22.585L52.377,7.862C53.166,7.073,53.166,5.789,52.377,5C51.985,4.608,51.446,4.414,50.929,4.414ZM2.207,17.654C0.991,17.654,0,18.646,0,19.861L0,26.482C0,27.697,0.991,28.688,2.207,28.688L52.963,28.688C54.179,28.688,55.17,27.697,55.17,26.482L55.17,19.861C55.17,18.646,54.179,17.654,52.963,17.654L45.688,17.654L39.205,24.137C38.408,24.934,37.33,25.378,36.205,25.378C35.08,25.378,34.042,24.939,33.24,24.137C31.598,22.49,31.594,19.818,33.24,18.172L33.757,17.654L21.413,17.654L21.93,18.172C23.572,19.818,23.572,22.49,21.93,24.137C21.133,24.934,20.094,25.378,18.965,25.378C17.84,25.378,16.767,24.934,15.965,24.137L9.482,17.654ZM3.069,29.792L8.62,49.136C8.888,50.067,9.913,50.757,11.034,50.757L44.136,50.757C45.257,50.757,46.278,50.067,46.55,49.136L52.101,29.792ZM19.447,31.481C20.568,31.481,21.482,32.395,21.482,33.516L21.482,43.55C21.482,44.671,20.568,45.584,19.447,45.584C18.327,45.584,17.413,44.671,17.413,43.55L17.413,33.516C17.413,32.395,18.327,31.481,19.447,31.481ZM27.585,31.481C28.71,31.481,29.619,32.395,29.619,33.516L29.619,43.55C29.619,44.671,28.71,45.584,27.585,45.584C26.464,45.584,25.551,44.671,25.551,43.55L25.551,33.516C25.551,32.395,26.464,31.481,27.585,31.481ZM35.723,31.481C36.848,31.481,37.757,32.395,37.757,33.516L37.757,43.55C37.757,44.671,36.848,45.584,35.723,45.584C34.602,45.584,33.688,44.671,33.688,43.55L33.688,33.516C33.688,32.395,34.602,31.481,35.723,31.481ZM35.723,31.481"/>
</g>
  <g id="Regular-S" transform="matrix(1.0,0.0,0.0,1.0,1423.5449252929686,633.1849448242187)">  <path fill-rule="nonzero" fill-opacity="1" stroke-width="1px" stroke-miterlimit="4" fill="#000000" stroke-linejoin="miter" stroke="none" stroke-opacity="1" stroke-dasharray="none" stroke-linecap="butt" d="M4.241,4.414C3.724,4.414,3.185,4.608,2.793,5C2.004,5.789,2.004,7.073,2.793,7.862L17.517,22.585C17.913,22.978,18.448,23.171,18.965,23.171C19.482,23.171,19.986,22.978,20.378,22.585C21.167,21.797,21.167,20.512,20.378,19.723L5.655,5C5.263,4.608,4.758,4.414,4.241,4.414ZM50.929,4.414C50.412,4.414,49.907,4.608,49.515,5L34.792,19.723C34.003,20.512,34.003,21.797,34.792,22.585C35.184,22.978,35.688,23.171,36.205,23.171C36.723,23.171,37.257,22.978,37.654,22.585L52.377,7.862C53.166,7.073,53.166,5.789,52.377,5C51.985,4.608,51.446,4.414,50.929,4.414ZM2.207,17.654C0.991,17.654,0,18.646,0,19.861L0,26.482C0,27.697,0.991,28.688,2.207,28.688L52.963,28.688C54.179,28.688,55.17,27.697,55.17,26.482L55.17,19.861C55.17,18.646,54.179,17.654,52.963,17.654L45.688,17.654L39.205,24.137C38.408,24.934,37.33,25.378,36.205,25.378C35.08,25.378,34.042,24.939,33.24,24.137C31.598,22.49,31.594,19.818,33.24,18.172L33.757,17.654L21.413,17.654L21.93,18.172C23.572,19.818,23.572,22.49,21.93,24.137C21.133,24.934,20.094,25.378,18.965,25.378C17.84,25.378,16.767,24.934,15.965,24.137L9.482,17.654ZM3.069,29.792L8.62,49.136C8.888,50.067,9.913,50.757,11.034,50.757L44.136,50.757C45.257,50.757,46.278,50.067,46.55,49.136L52.101,29.792ZM19.447,31.481C20.568,31.481,21.482,32.395,21.482,33.516L21.482,43.55C21.482,44.671,20.568,45.584,19.447,45.584C18.327,45.584,17.413,44.671,17.413,43.55L17.413,33.516C17.413,32.395,18.327,31.481,19.447,31.481ZM27.585,31.481C28.71,31.481,29.619,32.395,29.619,33.516L29.619,43.55C29.619,44.671,28.71,45.584,27.585,45.584C26.464,45.584,25.551,44.671,25.551,43.55L25.551,33.516C25.551,32.395,26.464,31.481,27.585,31.481ZM35.723,31.481C36.848,31.481,37.757,32.395,37.757,33.516L37.757,43.55C37.757,44.671,36.848,45.584,35.723,45.584C34.602,45.584,33.688,44.671,33.688,43.55L33.688,33.516C33.688,32.395,34.602,31.481,35.723,31.481ZM35.723,31.481"/>
</g>
  <g id="Light-S" transform="matrix(1.0,0.0,0.0,1.0,1126.8349252929688,633.1849448242187)">  <path fill-opacity="1" stroke-miterlimit="4" stroke-linecap="butt" fill-rule="nonzero" stroke="none" stroke-width="1px" stroke-dasharray="none" stroke-opacity="1" fill="#000000" stroke-linejoin="miter" d="M4.241,4.414C3.724,4.414,3.185,4.608,2.793,5C2.004,5.789,2.004,7.073,2.793,7.862L17.517,22.585C17.913,22.978,18.448,23.171,18.965,23.171C19.482,23.171,19.986,22.978,20.378,22.585C21.167,21.797,21.167,20.512,20.378,19.723L5.655,5C5.263,4.608,4.758,4.414,4.241,4.414ZM50.929,4.414C50.412,4.414,49.907,4.608,49.515,5L34.792,19.723C34.003,20.512,34.003,21.797,34.792,22.585C35.184,22.978,35.688,23.171,36.205,23.171C36.723,23.171,37.257,22.978,37.654,22.585L52.377,7.862C53.166,7.073,53.166,5.789,52.377,5C51.985,4.608,51.446,4.414,50.929,4.414ZM2.207,17.654C0.991,17.654,0,18.646,0,19.861L0,26.482C0,27.697,0.991,28.688,2.207,28.688L52.963,28.688C54.179,28.688,55.17,27.697,55.17,26.482L55.17,19.861C55.17,18.646,54.179,17.654,52.963,17.654L45.688,17.654L39.205,24.137C38.408,24.934,37.33,25.378,36.205,25.378C35.08,25.378,34.042,24.939,33.24,24.137C31.598,22.49,31.594,19.818,33.24,18.172L33.757,17.654L21.413,17.654L21.93,18.172C23.572,19.818,23.572,22.49,21.93,24.137C21.133,24.934,20.094,25.378,18.965,25.378C17.84,25.378,16.767,24.934,15.965,24.137L9.482,17.654ZM3.069,29.792L8.62,49.136C8.888,50.067,9.913,50.757,11.034,50.757L44.136,50.757C45.257,50.757,46.278,50.067,46.55,49.136L52.101,29.792ZM19.447,31.481C20.568,31.481,21.482,32.395,21.482,33.516L21.482,43.55C21.482,44.671,20.568,45.584,19.447,45.584C18.327,45.584,17.413,44.671,17.413,43.55L17.413,33.516C17.413,32.395,18.327,31.481,19.447,31.481ZM27.585,31.481C28.71,31.481,29.619,32.395,29.619,33.516L29.619,43.55C29.619,44.671,28.71,45.584,27.585,45.584C26.464,45.584,25.551,44.671,25.551,43.55L25.551,33.516C25.551,32.395,26.464,31.481,27.585,31.481ZM35.723,31.481C36.848,31.481,37.757,32.395,37.757,33.516L37.757,43.55C37.757,44.671,36.848,45.584,35.723,45.584C34.602,45.584,33.688,44.671,33.688,43.55L33.688,33.516C33.688,32.395,34.602,31.481,35.723,31.481ZM35.723,31.481"/>
</g>
  <g id="Thin-S" transform="matrix(1.0,0.0,0.0,1.0,830.1249252929688,633.1849448242187)">  <path fill="#000000" stroke-width="1px" stroke="none" stroke-dasharray="none" fill-opacity="1" stroke-opacity="1" fill-rule="nonzero" stroke-miterlimit="4" stroke-linejoin="miter" stroke-linecap="butt" d="M4.241,4.414C3.724,4.414,3.185,4.608,2.793,5C2.004,5.789,2.004,7.073,2.793,7.862L17.517,22.585C17.913,22.978,18.448,23.171,18.965,23.171C19.482,23.171,19.986,22.978,20.378,22.585C21.167,21.797,21.167,20.512,20.378,19.723L5.655,5C5.263,4.608,4.758,4.414,4.241,4.414ZM50.929,4.414C50.412,4.414,49.907,4.608,49.515,5L34.792,19.723C34.003,20.512,34.003,21.797,34.792,22.585C35.184,22.978,35.688,23.171,36.205,23.171C36.723,23.171,37.257,22.978,37.654,22.585L52.377,7.862C53.166,7.073,53.166,5.789,52.377,5C51.985,4.608,51.446,4.414,50.929,4.414ZM2.207,17.654C0.991,17.654,0,18.646,0,19.861L0,26.482C0,27.697,0.991,28.688,2.207,28.688L52.963,28.688C54.179,28.688,55.17,27.697,55.17,26.482L55.17,19.861C55.17,18.646,54.179,17.654,52.963,17.654L45.688,17.654L39.205,24.137C38.408,24.934,37.33,25.378,36.205,25.378C35.08,25.378,34.042,24.939,33.24,24.137C31.598,22.49,31.594,19.818,33.24,18.172L33.757,17.654L21.413,17.654L21.93,18.172C23.572,19.818,23.572,22.49,21.93,24.137C21.133,24.934,20.094,25.378,18.965,25.378C17.84,25.378,16.767,24.934,15.965,24.137L9.482,17.654ZM3.069,29.792L8.62,49.136C8.888,50.067,9.913,50.757,11.034,50.757L44.136,50.757C45.257,50.757,46.278,50.067,46.55,49.136L52.101,29.792ZM19.447,31.481C20.568,31.481,21.482,32.395,21.482,33.516L21.482,43.55C21.482,44.671,20.568,45.584,19.447,45.584C18.327,45.584,17.413,44.671,17.413,43.55L17.413,33.516C17.413,32.395,18.327,31.481,19.447,31.481ZM27.585,31.481C28.71,31.481,29.619,32.395,29.619,33.516L29.619,43.55C29.619,44.671,28.71,45.584,27.585,45.584C26.464,45.584,25.551,44.671,25.551,43.55L25.551,33.516C25.551,32.395,26.464,31.481,27.585,31.481ZM35.723,31.481C36.848,31.481,37.757,32.395,37.757,33.516L37.757,43.55C37.757,44.671,36.848,45.584,35.723,45.584C34.602,45.584,33.688,44.671,33.688,43.55L33.688,33.516C33.688,32.395,34.602,31.481,35.723,31.481ZM35.723,31.481"/>
</g>
  <g id="Ultralight-S" transform="matrix(1.0,0.0,0.0,1.0,533.4149252929687,633.1849448242187)">  <path stroke-miterlimit="4" fill-rule="nonzero" stroke-dasharray="none" fill="#000000" stroke-linecap="butt" stroke="none" stroke-opacity="1" fill-opacity="1" stroke-width="1px" stroke-linejoin="miter" d="M4.241,4.414C3.724,4.414,3.185,4.608,2.793,5C2.004,5.789,2.004,7.073,2.793,7.862L17.517,22.585C17.913,22.978,18.448,23.171,18.965,23.171C19.482,23.171,19.986,22.978,20.378,22.585C21.167,21.797,21.167,20.512,20.378,19.723L5.655,5C5.263,4.608,4.758,4.414,4.241,4.414ZM50.929,4.414C50.412,4.414,49.907,4.608,49.515,5L34.792,19.723C34.003,20.512,34.003,21.797,34.792,22.585C35.184,22.978,35.688,23.171,36.205,23.171C36.723,23.171,37.257,22.978,37.654,22.585L52.377,7.862C53.166,7.073,53.166,5.789,52.377,5C51.985,4.608,51.446,4.414,50.929,4.414ZM2.207,17.654C0.991,17.654,0,18.646,0,19.861L0,26.482C0,27.697,0.991,28.688,2.207,28.688L52.963,28.688C54.179,28.688,55.17,27.697,55.17,26.482L55.17,19.861C55.17,18.646,54.179,17.654,52.963,17.654L45.688,17.654L39.205,24.137C38.408,24.934,37.33,25.378,36.205,25.378C35.08,25.378,34.042,24.939,33.24,24.137C31.598,22.49,31.594,19.818,33.24,18.172L33.757,17.654L21.413,17.654L21.93,18.172C23.572,19.818,23.572,22.49,21.93,24.137C21.133,24.934,20.094,25.378,18.965,25.378C17.84,25.378,16.767,24.934,15.965,24.137L9.482,17.654ZM3.069,29.792L8.62,49.136C8.888,50.067,9.913,50.757,11.034,50.757L44.136,50.757C45.257,50.757,46.278,50.067,46.55,49.136L52.101,29.792ZM19.447,31.481C20.568,31.481,21.482,32.395,21.482,33.516L21.482,43.55C21.482,44.671,20.568,45.584,19.447,45.584C18.327,45.584,17.413,44.671,17.413,43.55L17.413,33.516C17.413,32.395,18.327,31.481,19.447,31.481ZM27.585,31.481C28.71,31.481,29.619,32.395,29.619,33.516L29.619,43.55C29.619,44.671,28.71,45.584,27.585,45.584C26.464,45.584,25.551,44.671,25.551,43.55L25.551,33.516C25.551,32.395,26.464,31.481,27.585,31.481ZM35.723,31.481C36.848,31.481,37.757,32.395,37.757,33.516L37.757,43.55C37.757,44.671,36.848,45.584,35.723,45.584C34.602,45.584,33.688,44.671,33.688,43.55L33.688,33.516C33.688,32.395,34.602,31.481,35.723,31.481ZM35.723,31.481"/>
</g>
 </g>
</svg>
