<?xml version="1.0" encoding="UTF-8"?>
<!-- Generator: CustomSymbols v2.6.2.41 by @serious_bret https://bretlester.com/app_content/CustomSymbols/ -->
<!-- Guides: Left/Right 0.0/0.0 Cap/Base 0.0/0.0 -->
<!-- Settings: RefScale 1.0 Min/Max Stroke Scales 0.5/2.21 -->
<!DOCTYPE svg
PUBLIC "-//W3C//DTD SVG 1.1//EN"
       "http://www.w3.org/Graphics/SVG/1.1/DTD/svg11.dtd">
<svg version="1.1" xmlns="http://www.w3.org/2000/svg" xmlns:xlink="http://www.w3.org/1999/xlink" width="3300" height="2200">
<![CDATA[<svg fill="#000000" xmlns="http://www.w3.org/2000/svg"  viewBox="0 0 50 50" width="50px" height="50px"><path d="M 24.962891 1.0546875 A 1.0001 1.0001 0 0 0 24.384766 1.2636719 L 1.3847656 19.210938 A 1.0005659 1.0005659 0 0 0 2.6152344 20.789062 L 4 19.708984 L 4 46 A 1.0001 1.0001 0 0 0 5 47 L 18.832031 47 A 1.0001 1.0001 0 0 0 19.158203 47 L 30.832031 47 A 1.0001 1.0001 0 0 0 31.158203 47 L 45 47 A 1.0001 1.0001 0 0 0 46 46 L 46 19.708984 L 47.384766 20.789062 A 1.0005657 1.0005657 0 1 0 48.615234 19.210938 L 41 13.269531 C 40.999922 13.061489 41.00006 12.820623 41 12.507812 C 40.999859 11.776319 41.000062 10.809744 41 9.8457031 C 40.999875 7.9176211 41 6 41 6 A 1.0001 1.0001 0 0 0 40 5 L 36 5 A 1.0001 1.0001 0 0 0 35 6 C 35 6 35.000625 7.1570629 35 8.3144531 C 34.999946 8.4138611 35.000063 8.4892153 35 8.5878906 L 25.615234 1.2636719 A 1.0001 1.0001 0 0 0 24.962891 1.0546875 z M 25 3.3222656 L 35.378906 11.419922 A 1.0001 1.0001 0 0 0 36.367188 11.560547 C 36.367188 11.560547 36.986309 10.761867 36.986328 10.761719 C 36.986348 10.76157 36.991388 10.708386 36.992188 10.697266 C 36.993688 10.675006 36.993841 10.668839 36.994141 10.662109 C 36.994592 10.648659 36.995894 10.642016 36.996094 10.634766 C 36.996335 10.620266 36.995945 10.606331 36.996094 10.587891 C 36.996392 10.551011 36.995852 10.499661 36.996094 10.435547 C 36.996578 10.307318 36.997647 10.125735 36.998047 9.9082031 C 36.99857 9.4731324 36.999687 8.8954613 37 8.3164062 C 37.000355 7.6582563 36.999934 7.4454733 37 7 L 39 7 C 39.000006 7.6422969 38.999908 8.4189176 39 9.8457031 C 39.000063 10.809787 38.999859 11.77615 39 12.507812 C 39.00007 12.873644 38.999904 13.179924 39 13.398438 C 39.000096 13.61695 39.000933 13.681016 39.001953 13.769531 A 1.0001 1.0001 0 0 0 39.386719 14.546875 L 44 18.146484 L 44 45 L 32 45 L 32 26 L 18 26 L 18 45 L 6 45 L 6 18.148438 L 25 3.3222656 z M 20 28 L 30 28 L 30 45 L 20 45 L 20 28 z M 27 35 A 1 1 0 0 0 26 36 A 1 1 0 0 0 27 37 A 1 1 0 0 0 28 36 A 1 1 0 0 0 27 35 z"/></svg>]]>
 <g id="Notes">
  <rect height="2200" id="artboard" style="fill:white;opacity:1" width="3300" x="0" y="0"/>
  <line id="" style="fill:none;stroke:black;opacity:1;stroke-width:0.5;" x1="263" x2="3036" y1="292" y2="292"/>
  <text id="reftext1" style="stroke:none;fill:black;font-family:-apple-system,&quot;SF Pro Display&quot;,&quot;SF Pro Text&quot;,Helvetica,sans-serif;font-weight:bold;" transform="matrix(1 0 0 1 263 322)">Weight/Scale Variations</text>
  <text id="reftext2" style="stroke:none;fill:black;font-family:-apple-system,&quot;SF Pro Display&quot;,&quot;SF Pro Text&quot;,Helvetica,sans-serif;text-anchor:middle;" transform="matrix(1 0 0 1 559.711 322)">Ultralight</text>
  <text style="stroke:none;fill:black;font-family:-apple-system,&quot;SF Pro Display&quot;,&quot;SF Pro Text&quot;,Helvetica,sans-serif;text-anchor:middle;" transform="matrix(1 0 0 1 856.422 322)">Thin</text>
  <text style="stroke:none;fill:black;font-family:-apple-system,&quot;SF Pro Display&quot;,&quot;SF Pro Text&quot;,Helvetica,sans-serif;text-anchor:middle;" transform="matrix(1 0 0 1 1153.13 322)">Light</text>
  <text style="stroke:none;fill:black;font-family:-apple-system,&quot;SF Pro Display&quot;,&quot;SF Pro Text&quot;,Helvetica,sans-serif;text-anchor:middle;" transform="matrix(1 0 0 1 1449.84 322)">Regular</text>
  <text style="stroke:none;fill:black;font-family:-apple-system,&quot;SF Pro Display&quot;,&quot;SF Pro Text&quot;,Helvetica,sans-serif;text-anchor:middle;" transform="matrix(1 0 0 1 1746.56 322)">Medium</text>
  <text style="stroke:none;fill:black;font-family:-apple-system,&quot;SF Pro Display&quot;,&quot;SF Pro Text&quot;,Helvetica,sans-serif;text-anchor:middle;" transform="matrix(1 0 0 1 2043.27 322)">Semibold</text>
  <text style="stroke:none;fill:black;font-family:-apple-system,&quot;SF Pro Display&quot;,&quot;SF Pro Text&quot;,Helvetica,sans-serif;text-anchor:middle;" transform="matrix(1 0 0 1 2339.98 322)">Bold</text>
  <text style="stroke:none;fill:black;font-family:-apple-system,&quot;SF Pro Display&quot;,&quot;SF Pro Text&quot;,Helvetica,sans-serif;text-anchor:middle;" transform="matrix(1 0 0 1 2636.69 322)">Heavy</text>
  <text style="stroke:none;fill:black;font-family:-apple-system,&quot;SF Pro Display&quot;,&quot;SF Pro Text&quot;,Helvetica,sans-serif;text-anchor:middle;" transform="matrix(1 0 0 1 2933.4 322)">Black</text>
  <line id="" style="fill:none;stroke:black;opacity:1;stroke-width:0.5;" x1="263" x2="3036" y1="1903" y2="1903"/>
  <g id="" transform="matrix(1 0 0 1 263 1933)">
   <path d="M9.24805 0.830078C13.5547 0.830078 17.1387-2.74414 17.1387-7.05078C17.1387-11.3574 13.5449-14.9316 9.23828-14.9316C4.94141-14.9316 1.36719-11.3574 1.36719-7.05078C1.36719-2.74414 4.95117 0.830078 9.24805 0.830078ZM9.24805-0.654297C5.70312-0.654297 2.87109-3.49609 2.87109-7.05078C2.87109-10.6055 5.69336-13.4473 9.23828-13.4473C12.793-13.4473 15.6348-10.6055 15.6445-7.05078C15.6543-3.49609 12.8027-0.654297 9.24805-0.654297ZM6.39648-6.31836L8.50586-6.31836L8.50586-4.19922C8.50586-3.75977 8.79883-3.45703 9.22852-3.45703C9.67773-3.45703 9.9707-3.75977 9.9707-4.19922L9.9707-6.31836L12.0996-6.31836C12.5391-6.31836 12.8418-6.61133 12.8418-7.04102C12.8418-7.48047 12.5391-7.7832 12.0996-7.7832L9.9707-7.7832L9.9707-9.89258C9.9707-10.3418 9.67773-10.6445 9.22852-10.6445C8.79883-10.6445 8.50586-10.3418 8.50586-9.89258L8.50586-7.7832L6.39648-7.7832C5.94727-7.7832 5.64453-7.48047 5.64453-7.04102C5.64453-6.61133 5.94727-6.31836 6.39648-6.31836Z"/>
  </g>
  <g id="" transform="matrix(1 0 0 1 281.506 1933)">
   <path d="M11.709 2.91016C17.1582 2.91016 21.6699-1.61133 21.6699-7.05078C21.6699-12.5 17.1484-17.0117 11.6992-17.0117C6.25977-17.0117 1.74805-12.5 1.74805-7.05078C1.74805-1.61133 6.26953 2.91016 11.709 2.91016ZM11.709 1.25C7.09961 1.25 3.41797-2.44141 3.41797-7.05078C3.41797-11.6602 7.08984-15.3516 11.6992-15.3516C16.3086-15.3516 20-11.6602 20.0098-7.05078C20.0195-2.44141 16.3184 1.25 11.709 1.25ZM7.98828-6.23047L10.8789-6.23047L10.8789-3.32031C10.8789-2.83203 11.2109-2.5 11.6895-2.5C12.1777-2.5 12.5195-2.83203 12.5195-3.32031L12.5195-6.23047L15.4297-6.23047C15.918-6.23047 16.25-6.5625 16.25-7.04102C16.25-7.5293 15.918-7.87109 15.4297-7.87109L12.5195-7.87109L12.5195-10.7617C12.5195-11.2695 12.1777-11.6016 11.6895-11.6016C11.2109-11.6016 10.8789-11.2598 10.8789-10.7617L10.8789-7.87109L7.98828-7.87109C7.48047-7.87109 7.14844-7.5293 7.14844-7.04102C7.14844-6.5625 7.49023-6.23047 7.98828-6.23047Z"/>
  </g>
  <g id="" transform="matrix(1 0 0 1 304.924 1933)">
   <path d="M14.9707 5.66406C21.9336 5.66406 27.6953-0.0976562 27.6953-7.05078C27.6953-14.0137 21.9238-19.7754 14.9609-19.7754C8.00781-19.7754 2.25586-14.0137 2.25586-7.05078C2.25586-0.0976562 8.01758 5.66406 14.9707 5.66406ZM14.9707 3.84766C8.93555 3.84766 4.08203-1.01562 4.08203-7.05078C4.08203-13.0957 8.92578-17.9492 14.9609-17.9492C21.0059-17.9492 25.8594-13.0957 25.8691-7.05078C25.8789-1.01562 21.0156 3.84766 14.9707 3.84766ZM10.0586-6.14258L14.0625-6.14258L14.0625-2.12891C14.0625-1.5918 14.4336-1.2207 14.9512-1.2207C15.4883-1.2207 15.8594-1.5918 15.8594-2.12891L15.8594-6.14258L19.8828-6.14258C20.4102-6.14258 20.791-6.51367 20.791-7.03125C20.791-7.56836 20.4199-7.94922 19.8828-7.94922L15.8594-7.94922L15.8594-11.9531C15.8594-12.5098 15.4883-12.8809 14.9512-12.8809C14.4336-12.8809 14.0625-12.5 14.0625-11.9531L14.0625-7.94922L10.0586-7.94922C9.50195-7.94922 9.13086-7.56836 9.13086-7.03125C9.13086-6.51367 9.51172-6.14258 10.0586-6.14258Z"/>
  </g>
  <text style="stroke:none;fill:black;font-family:-apple-system,&quot;SF Pro Display&quot;,&quot;SF Pro Text&quot;,Helvetica,sans-serif;font-weight:bold;" transform="matrix(1 0 0 1 263 1953)">Design Variations</text>
  <text style="stroke:none;fill:black;font-family:-apple-system,&quot;SF Pro Display&quot;,&quot;SF Pro Text&quot;,Helvetica,sans-serif;" transform="matrix(1 0 0 1 263 1971)">Symbols are supported in up to nine weights and three scales.</text>
  <text style="stroke:none;fill:black;font-family:-apple-system,&quot;SF Pro Display&quot;,&quot;SF Pro Text&quot;,Helvetica,sans-serif;" transform="matrix(1 0 0 1 263 1989)">For optimal layout with text and other symbols, vertically align</text>
  <text style="stroke:none;fill:black;font-family:-apple-system,&quot;SF Pro Display&quot;,&quot;SF Pro Text&quot;,Helvetica,sans-serif;" transform="matrix(1 0 0 1 263 2007)">symbols with the adjacent text.</text>
  <line id="" style="fill:none;stroke:#00AEEF;stroke-width:0.5;opacity:1.0;" x1="776" x2="776" y1="1919" y2="1933"/>
  <g id="" transform="matrix(1 0 0 1 776 1933)">
   <path d="M3.31055 0.126953C3.82812 0.126953 4.08203-0.0683594 4.26758-0.605469L5.52734-4.0625L11.2891-4.0625L12.5488-0.605469C12.7344-0.0683594 12.9883 0.126953 13.4961 0.126953C14.0137 0.126953 14.3457-0.185547 14.3457-0.673828C14.3457-0.839844 14.3164-0.986328 14.2383-1.20117L9.6582-13.3887C9.43359-13.9941 9.0332-14.2871 8.4082-14.2871C7.80273-14.2871 7.39258-13.9941 7.17773-13.3984L2.59766-1.19141C2.51953-0.976562 2.49023-0.830078 2.49023-0.664062C2.49023-0.175781 2.80273 0.126953 3.31055 0.126953ZM6.00586-5.53711L8.37891-12.1094L8.42773-12.1094L10.8008-5.53711Z"/>
  </g>
  <line id="" style="fill:none;stroke:#00AEEF;stroke-width:0.5;opacity:1.0;" x1="792.836" x2="792.836" y1="1919" y2="1933"/>
  <text style="stroke:none;fill:black;font-family:-apple-system,&quot;SF Pro Display&quot;,&quot;SF Pro Text&quot;,Helvetica,sans-serif;font-weight:bold;" transform="matrix(1 0 0 1 776 1953)">Margins</text>
  <text style="stroke:none;fill:black;font-family:-apple-system,&quot;SF Pro Display&quot;,&quot;SF Pro Text&quot;,Helvetica,sans-serif;" transform="matrix(1 0 0 1 776 1971)">Leading and trailing margins on the left and right side of each symbol</text>
  <text style="stroke:none;fill:black;font-family:-apple-system,&quot;SF Pro Display&quot;,&quot;SF Pro Text&quot;,Helvetica,sans-serif;" transform="matrix(1 0 0 1 776 1989)">can be adjusted by modifying the x-location of the margin guidelines.</text>
  <text style="stroke:none;fill:black;font-family:-apple-system,&quot;SF Pro Display&quot;,&quot;SF Pro Text&quot;,Helvetica,sans-serif;" transform="matrix(1 0 0 1 776 2007)">Modifications are automatically applied proportionally to all</text>
  <text style="stroke:none;fill:black;font-family:-apple-system,&quot;SF Pro Display&quot;,&quot;SF Pro Text&quot;,Helvetica,sans-serif;" transform="matrix(1 0 0 1 776 2025)">scales and weights.</text>
  <g id="" transform="matrix(1 0 0 1 1289 1933)">
   <path d="M2.8418 1.86523L4.54102 3.57422C5.40039 4.44336 6.38672 4.38477 7.31445 3.35938L17.4902-7.85156C17.7539-7.76367 18.0273-7.7832 18.3398-7.8418L19.4043-8.03711L20.0684-7.36328L20.0293-6.80664C19.9902-6.30859 20.1172-5.92773 20.6055-5.44922L21.3672-4.70703C21.8457-4.22852 22.4609-4.19922 22.9297-4.66797L25.8398-7.58789C26.3086-8.05664 26.2891-8.65234 25.8105-9.13086L25.0391-9.89258C24.5605-10.3711 24.1895-10.5273 23.7109-10.4883L23.1348-10.4395L22.4902-11.0742L22.7344-12.1973C22.8613-12.7637 22.7051-13.2031 22.1191-13.7891L19.9219-15.9766C16.582-19.2969 12.1484-19.2188 9.25781-16.3281C8.83789-15.918 8.80859-15.3418 9.04297-14.9512C9.27734-14.5898 9.73633-14.3555 10.3809-14.5215C11.8457-14.8633 13.3691-14.9219 14.7949-13.9844L14.209-12.5293C14.0137-12.0508 13.9844-11.6504 14.1113-11.2891L3.04688-0.898438C2.06055 0.0195312 1.98242 0.996094 2.8418 1.86523ZM10.752-15.957C13.1836-17.7344 16.4746-17.4316 18.7012-15.2051L21.1328-12.793C21.3672-12.5586 21.4062-12.373 21.3379-12.0312L21.0156-10.5469L22.5195-9.0625L23.5059-9.12109C23.7598-9.13086 23.8379-9.11133 24.0332-8.91602L24.6094-8.33984L22.168-5.89844L21.5918-6.47461C21.3965-6.66992 21.3672-6.74805 21.377-7.01172L21.4453-7.98828L19.9512-9.47266L18.4277-9.21875C18.1055-9.15039 17.959-9.17969 17.7148-9.41406L15.7129-11.416C15.459-11.6504 15.4297-11.8164 15.5859-12.1875L16.4648-14.2773C14.9023-15.7324 12.8711-16.3574 10.8398-15.7617C10.6836-15.7227 10.625-15.8496 10.752-15.957ZM5.27344 2.30469L4.10156 1.14258C3.63281 0.683594 3.74023 0.341797 4.14062-0.0195312L14.9512-10.1953L16.416-8.71094L6.42578 2.27539C6.07422 2.67578 5.74219 2.77344 5.27344 2.30469Z"/>
  </g>
  <text style="stroke:none;fill:black;font-family:-apple-system,&quot;SF Pro Display&quot;,&quot;SF Pro Text&quot;,Helvetica,sans-serif;font-weight:bold;" transform="matrix(1 0 0 1 1289 1953)">Exporting</text>
  <text style="stroke:none;fill:black;font-family:-apple-system,&quot;SF Pro Display&quot;,&quot;SF Pro Text&quot;,Helvetica,sans-serif;" transform="matrix(1 0 0 1 1289 1971)">Symbols should be outlined when exporting to ensure the</text>
  <text style="stroke:none;fill:black;font-family:-apple-system,&quot;SF Pro Display&quot;,&quot;SF Pro Text&quot;,Helvetica,sans-serif;" transform="matrix(1 0 0 1 1289 1989)">design is preserved when submitting to Xcode.</text>
  <text id="template-version" style="stroke:none;fill:black;font-family:-apple-system,&quot;SF Pro Display&quot;,&quot;SF Pro Text&quot;,Helvetica,sans-serif;text-anchor:end;" transform="matrix(1 0 0 1 3036 1933)">Template v.2.0</text>
  <text style="stroke:none;fill:black;font-family:-apple-system,&quot;SF Pro Display&quot;,&quot;SF Pro Text&quot;,Helvetica,sans-serif;text-anchor:end;" transform="matrix(1 0 0 1 3036 1951)">Requires Xcode 12 or greater</text>
  <text style="stroke:none;fill:black;font-family:-apple-system,&quot;SF Pro Display&quot;,&quot;SF Pro Text&quot;,Helvetica,sans-serif;" transform="matrix(1 0 0 1 263 726)">Small</text>
  <text style="stroke:none;fill:black;font-family:-apple-system,&quot;SF Pro Display&quot;,&quot;SF Pro Text&quot;,Helvetica,sans-serif;" transform="matrix(1 0 0 1 263 1156)">Medium</text>
  <text style="stroke:none;fill:black;font-family:-apple-system,&quot;SF Pro Display&quot;,&quot;SF Pro Text&quot;,Helvetica,sans-serif;" transform="matrix(1 0 0 1 263 1586)">Large</text>
 </g>
 <g id="Guides">
  <g id="H-reference" style="fill:#27AAE1;stroke:none;" transform="matrix(1 0 0 1 339 696)">
   <path d="M0.976562 0L3.66211 0L12.9883-24.4629L45.752-24.4629L55.127 0L57.7637 0L30.6152-70.459L28.125-70.459ZM29.3457-67.1387L29.4434-67.1387L44.873-26.709L13.8672-26.709Z"/>
  </g>
  <line id="Baseline-S" style="fill:none;stroke:#27AAE1;opacity:1;stroke-width:0.5;" x1="263" x2="3036" y1="696" y2="696"/>
  <line id="Capline-S" style="fill:none;stroke:#27AAE1;opacity:1;stroke-width:0.5;" x1="263" x2="3036" y1="625.541" y2="625.541"/>
  <g id="H-reference" style="fill:#27AAE1;stroke:none;" transform="matrix(1 0 0 1 339 1126)">
   <path d="M0.976562 0L3.66211 0L12.9883-24.4629L45.752-24.4629L55.127 0L57.7637 0L30.6152-70.459L28.125-70.459ZM29.3457-67.1387L29.4434-67.1387L44.873-26.709L13.8672-26.709Z"/>
  </g>
  <line id="Baseline-M" style="fill:none;stroke:#27AAE1;opacity:1;stroke-width:0.5;" x1="263" x2="3036" y1="1126" y2="1126"/>
  <line id="Capline-M" style="fill:none;stroke:#27AAE1;opacity:1;stroke-width:0.5;" x1="263" x2="3036" y1="1055.54" y2="1055.54"/>
  <g id="H-reference" style="fill:#27AAE1;stroke:none;" transform="matrix(1 0 0 1 339 1556)">
   <path d="M0.976562 0L3.66211 0L12.9883-24.4629L45.752-24.4629L55.127 0L57.7637 0L30.6152-70.459L28.125-70.459ZM29.3457-67.1387L29.4434-67.1387L44.873-26.709L13.8672-26.709Z"/>
  </g>
  <line id="Baseline-L" style="fill:none;stroke:#27AAE1;opacity:1;stroke-width:0.5;" x1="263" x2="3036" y1="1556" y2="1556"/>
  <line id="Capline-L" style="fill:none;stroke:#27AAE1;opacity:1;stroke-width:0.5;" x1="263" x2="3036" y1="1485.54" y2="1485.54"/>
  <line id="left-margin" x1="1415.9000195312499" x2="1415.9000195312499" y1="1030.79" y2="1150.12" style="fill:none;stroke:#00AEEF;stroke-width:0.5;opacity:1.0;"/>
  <line id="right-margin" x1="1486.3599804687499" x2="1486.3599804687499" y1="1030.79" y2="1150.12" style="fill:none;stroke:#00AEEF;stroke-width:0.5;opacity:1.0;"/>
 </g>
 <g id="Symbols">
  <g id="Black-L" transform="matrix(1.0,0.0,0.0,1.0,2889.2333251953123,1475.3233447265625)">  <path stroke="none" fill-rule="nonzero" stroke-linejoin="miter" stroke-dasharray="none" stroke-linecap="butt" stroke-width="1px" fill-opacity="1" stroke-miterlimit="4" fill="#000000" stroke-opacity="1" d="M45.379,1.917C44.998,1.93,44.63,2.063,44.328,2.297L2.517,34.923C1.725,35.541,1.584,36.684,2.201,37.476C2.819,38.268,3.962,38.409,4.754,37.792L7.271,35.828L7.271,83.622C7.272,84.626,8.085,85.44,9.089,85.44L34.234,85.44C34.43,85.472,34.631,85.472,34.827,85.44L56.049,85.44C56.245,85.472,56.445,85.472,56.641,85.44L81.804,85.44C82.808,85.44,83.622,84.626,83.622,83.622L83.622,35.828L86.139,37.792C86.931,38.409,88.074,38.268,88.692,37.476C89.31,36.684,89.168,35.541,88.376,34.923L74.533,24.122C74.532,23.744,74.533,23.306,74.533,22.738C74.532,21.408,74.533,19.651,74.533,17.898C74.532,14.393,74.533,10.907,74.533,10.907C74.532,9.903,73.719,9.089,72.715,9.089L65.443,9.089C64.439,9.089,63.625,9.903,63.625,10.907C63.625,10.907,63.626,13.011,63.625,15.115C63.625,15.295,63.625,15.432,63.625,15.612L46.565,2.297C46.227,2.035,45.807,1.9,45.379,1.917ZM45.447,6.039L64.314,20.76C64.825,21.159,65.509,21.257,66.111,21.016C66.111,21.016,67.236,19.564,67.236,19.563C67.236,19.563,67.245,19.466,67.247,19.446C67.25,19.406,67.25,19.395,67.25,19.382C67.251,19.358,67.254,19.346,67.254,19.333C67.254,19.306,67.254,19.281,67.254,19.247C67.255,19.18,67.254,19.087,67.254,18.97C67.255,18.737,67.257,18.407,67.258,18.012C67.258,17.221,67.261,16.171,67.261,15.118C67.262,13.922,67.261,13.535,67.261,12.725L70.897,12.725C70.897,13.893,70.897,15.304,70.897,17.898C70.897,19.651,70.897,21.407,70.897,22.738C70.897,23.403,70.897,23.959,70.897,24.357C70.897,24.754,70.899,24.87,70.9,25.031C70.906,25.584,71.164,26.104,71.6,26.444L79.986,32.988L79.986,81.804L58.172,81.804L58.172,47.265L32.722,47.265L32.722,81.804L10.907,81.804L10.907,32.991L45.447,6.039ZM36.357,50.9L54.536,50.9L54.536,81.804L36.357,81.804L36.357,50.9ZM49.082,63.625C48.078,63.625,47.265,64.439,47.265,65.443C47.265,66.447,48.078,67.261,49.082,67.261C50.086,67.261,50.9,66.447,50.9,65.443C50.9,64.439,50.086,63.625,49.082,63.625ZM49.082,63.625"/>
</g>
  <g id="Heavy-L" transform="matrix(1.0,0.0,0.0,1.0,2592.5233251953123,1475.3233447265625)">  <path stroke-width="1px" fill-rule="nonzero" stroke-linejoin="miter" stroke-linecap="butt" fill-opacity="1" fill="#000000" stroke-opacity="1" stroke="none" stroke-dasharray="none" stroke-miterlimit="4" d="M45.379,1.917C44.998,1.93,44.63,2.063,44.328,2.297L2.517,34.923C1.725,35.541,1.584,36.684,2.201,37.476C2.819,38.268,3.962,38.409,4.754,37.792L7.271,35.828L7.271,83.622C7.272,84.626,8.085,85.44,9.089,85.44L34.234,85.44C34.43,85.472,34.631,85.472,34.827,85.44L56.049,85.44C56.245,85.472,56.445,85.472,56.641,85.44L81.804,85.44C82.808,85.44,83.622,84.626,83.622,83.622L83.622,35.828L86.139,37.792C86.931,38.409,88.074,38.268,88.692,37.476C89.31,36.684,89.168,35.541,88.376,34.923L74.533,24.122C74.532,23.744,74.533,23.306,74.533,22.738C74.532,21.408,74.533,19.651,74.533,17.898C74.532,14.393,74.533,10.907,74.533,10.907C74.532,9.903,73.719,9.089,72.715,9.089L65.443,9.089C64.439,9.089,63.625,9.903,63.625,10.907C63.625,10.907,63.626,13.011,63.625,15.115C63.625,15.295,63.625,15.432,63.625,15.612L46.565,2.297C46.227,2.035,45.807,1.9,45.379,1.917ZM45.447,6.039L64.314,20.76C64.825,21.159,65.509,21.257,66.111,21.016C66.111,21.016,67.236,19.564,67.236,19.563C67.236,19.563,67.245,19.466,67.247,19.446C67.25,19.406,67.25,19.395,67.25,19.382C67.251,19.358,67.254,19.346,67.254,19.333C67.254,19.306,67.254,19.281,67.254,19.247C67.255,19.18,67.254,19.087,67.254,18.97C67.255,18.737,67.257,18.407,67.258,18.012C67.258,17.221,67.261,16.171,67.261,15.118C67.262,13.922,67.261,13.535,67.261,12.725L70.897,12.725C70.897,13.893,70.897,15.304,70.897,17.898C70.897,19.651,70.897,21.407,70.897,22.738C70.897,23.403,70.897,23.959,70.897,24.357C70.897,24.754,70.899,24.87,70.9,25.031C70.906,25.584,71.164,26.104,71.6,26.444L79.986,32.988L79.986,81.804L58.172,81.804L58.172,47.265L32.722,47.265L32.722,81.804L10.907,81.804L10.907,32.991L45.447,6.039ZM36.357,50.9L54.536,50.9L54.536,81.804L36.357,81.804L36.357,50.9ZM49.082,63.625C48.078,63.625,47.265,64.439,47.265,65.443C47.265,66.447,48.078,67.261,49.082,67.261C50.086,67.261,50.9,66.447,50.9,65.443C50.9,64.439,50.086,63.625,49.082,63.625ZM49.082,63.625"/>
</g>
  <g id="Bold-L" transform="matrix(1.0,0.0,0.0,1.0,2295.8133251953122,1475.3233447265625)">  <path stroke="none" stroke-linejoin="miter" stroke-opacity="1" stroke-miterlimit="4" stroke-linecap="butt" fill="#000000" stroke-width="1px" fill-rule="nonzero" stroke-dasharray="none" fill-opacity="1" d="M45.379,1.917C44.998,1.93,44.63,2.063,44.328,2.297L2.517,34.923C1.725,35.541,1.584,36.684,2.201,37.476C2.819,38.268,3.962,38.409,4.754,37.792L7.271,35.828L7.271,83.622C7.272,84.626,8.085,85.44,9.089,85.44L34.234,85.44C34.43,85.472,34.631,85.472,34.827,85.44L56.049,85.44C56.245,85.472,56.445,85.472,56.641,85.44L81.804,85.44C82.808,85.44,83.622,84.626,83.622,83.622L83.622,35.828L86.139,37.792C86.931,38.409,88.074,38.268,88.692,37.476C89.31,36.684,89.168,35.541,88.376,34.923L74.533,24.122C74.532,23.744,74.533,23.306,74.533,22.738C74.532,21.408,74.533,19.651,74.533,17.898C74.532,14.393,74.533,10.907,74.533,10.907C74.532,9.903,73.719,9.089,72.715,9.089L65.443,9.089C64.439,9.089,63.625,9.903,63.625,10.907C63.625,10.907,63.626,13.011,63.625,15.115C63.625,15.295,63.625,15.432,63.625,15.612L46.565,2.297C46.227,2.035,45.807,1.9,45.379,1.917ZM45.447,6.039L64.314,20.76C64.825,21.159,65.509,21.257,66.111,21.016C66.111,21.016,67.236,19.564,67.236,19.563C67.236,19.563,67.245,19.466,67.247,19.446C67.25,19.406,67.25,19.395,67.25,19.382C67.251,19.358,67.254,19.346,67.254,19.333C67.254,19.306,67.254,19.281,67.254,19.247C67.255,19.18,67.254,19.087,67.254,18.97C67.255,18.737,67.257,18.407,67.258,18.012C67.258,17.221,67.261,16.171,67.261,15.118C67.262,13.922,67.261,13.535,67.261,12.725L70.897,12.725C70.897,13.893,70.897,15.304,70.897,17.898C70.897,19.651,70.897,21.407,70.897,22.738C70.897,23.403,70.897,23.959,70.897,24.357C70.897,24.754,70.899,24.87,70.9,25.031C70.906,25.584,71.164,26.104,71.6,26.444L79.986,32.988L79.986,81.804L58.172,81.804L58.172,47.265L32.722,47.265L32.722,81.804L10.907,81.804L10.907,32.991L45.447,6.039ZM36.357,50.9L54.536,50.9L54.536,81.804L36.357,81.804L36.357,50.9ZM49.082,63.625C48.078,63.625,47.265,64.439,47.265,65.443C47.265,66.447,48.078,67.261,49.082,67.261C50.086,67.261,50.9,66.447,50.9,65.443C50.9,64.439,50.086,63.625,49.082,63.625ZM49.082,63.625"/>
</g>
  <g id="Semibold-L" transform="matrix(1.0,0.0,0.0,1.0,1999.1033251953124,1475.3233447265625)">  <path stroke-miterlimit="4" stroke-linecap="butt" stroke-linejoin="miter" stroke-opacity="1" stroke-dasharray="none" stroke-width="1px" stroke="none" fill="#000000" fill-rule="nonzero" fill-opacity="1" d="M45.379,1.917C44.998,1.93,44.63,2.063,44.328,2.297L2.517,34.923C1.725,35.541,1.584,36.684,2.201,37.476C2.819,38.268,3.962,38.409,4.754,37.792L7.271,35.828L7.271,83.622C7.272,84.626,8.085,85.44,9.089,85.44L34.234,85.44C34.43,85.472,34.631,85.472,34.827,85.44L56.049,85.44C56.245,85.472,56.445,85.472,56.641,85.44L81.804,85.44C82.808,85.44,83.622,84.626,83.622,83.622L83.622,35.828L86.139,37.792C86.931,38.409,88.074,38.268,88.692,37.476C89.31,36.684,89.168,35.541,88.376,34.923L74.533,24.122C74.532,23.744,74.533,23.306,74.533,22.738C74.532,21.408,74.533,19.651,74.533,17.898C74.532,14.393,74.533,10.907,74.533,10.907C74.532,9.903,73.719,9.089,72.715,9.089L65.443,9.089C64.439,9.089,63.625,9.903,63.625,10.907C63.625,10.907,63.626,13.011,63.625,15.115C63.625,15.295,63.625,15.432,63.625,15.612L46.565,2.297C46.227,2.035,45.807,1.9,45.379,1.917ZM45.447,6.039L64.314,20.76C64.825,21.159,65.509,21.257,66.111,21.016C66.111,21.016,67.236,19.564,67.236,19.563C67.236,19.563,67.245,19.466,67.247,19.446C67.25,19.406,67.25,19.395,67.25,19.382C67.251,19.358,67.254,19.346,67.254,19.333C67.254,19.306,67.254,19.281,67.254,19.247C67.255,19.18,67.254,19.087,67.254,18.97C67.255,18.737,67.257,18.407,67.258,18.012C67.258,17.221,67.261,16.171,67.261,15.118C67.262,13.922,67.261,13.535,67.261,12.725L70.897,12.725C70.897,13.893,70.897,15.304,70.897,17.898C70.897,19.651,70.897,21.407,70.897,22.738C70.897,23.403,70.897,23.959,70.897,24.357C70.897,24.754,70.899,24.87,70.9,25.031C70.906,25.584,71.164,26.104,71.6,26.444L79.986,32.988L79.986,81.804L58.172,81.804L58.172,47.265L32.722,47.265L32.722,81.804L10.907,81.804L10.907,32.991L45.447,6.039ZM36.357,50.9L54.536,50.9L54.536,81.804L36.357,81.804L36.357,50.9ZM49.082,63.625C48.078,63.625,47.265,64.439,47.265,65.443C47.265,66.447,48.078,67.261,49.082,67.261C50.086,67.261,50.9,66.447,50.9,65.443C50.9,64.439,50.086,63.625,49.082,63.625ZM49.082,63.625"/>
</g>
  <g id="Medium-L" transform="matrix(1.0,0.0,0.0,1.0,1702.3933251953124,1475.3233447265625)">  <path fill-rule="nonzero" stroke-miterlimit="4" stroke="none" stroke-linecap="butt" stroke-linejoin="miter" stroke-dasharray="none" stroke-width="1px" fill="#000000" stroke-opacity="1" fill-opacity="1" d="M45.379,1.917C44.998,1.93,44.63,2.063,44.328,2.297L2.517,34.923C1.725,35.541,1.584,36.684,2.201,37.476C2.819,38.268,3.962,38.409,4.754,37.792L7.271,35.828L7.271,83.622C7.272,84.626,8.085,85.44,9.089,85.44L34.234,85.44C34.43,85.472,34.631,85.472,34.827,85.44L56.049,85.44C56.245,85.472,56.445,85.472,56.641,85.44L81.804,85.44C82.808,85.44,83.622,84.626,83.622,83.622L83.622,35.828L86.139,37.792C86.931,38.409,88.074,38.268,88.692,37.476C89.31,36.684,89.168,35.541,88.376,34.923L74.533,24.122C74.532,23.744,74.533,23.306,74.533,22.738C74.532,21.408,74.533,19.651,74.533,17.898C74.532,14.393,74.533,10.907,74.533,10.907C74.532,9.903,73.719,9.089,72.715,9.089L65.443,9.089C64.439,9.089,63.625,9.903,63.625,10.907C63.625,10.907,63.626,13.011,63.625,15.115C63.625,15.295,63.625,15.432,63.625,15.612L46.565,2.297C46.227,2.035,45.807,1.9,45.379,1.917ZM45.447,6.039L64.314,20.76C64.825,21.159,65.509,21.257,66.111,21.016C66.111,21.016,67.236,19.564,67.236,19.563C67.236,19.563,67.245,19.466,67.247,19.446C67.25,19.406,67.25,19.395,67.25,19.382C67.251,19.358,67.254,19.346,67.254,19.333C67.254,19.306,67.254,19.281,67.254,19.247C67.255,19.18,67.254,19.087,67.254,18.97C67.255,18.737,67.257,18.407,67.258,18.012C67.258,17.221,67.261,16.171,67.261,15.118C67.262,13.922,67.261,13.535,67.261,12.725L70.897,12.725C70.897,13.893,70.897,15.304,70.897,17.898C70.897,19.651,70.897,21.407,70.897,22.738C70.897,23.403,70.897,23.959,70.897,24.357C70.897,24.754,70.899,24.87,70.9,25.031C70.906,25.584,71.164,26.104,71.6,26.444L79.986,32.988L79.986,81.804L58.172,81.804L58.172,47.265L32.722,47.265L32.722,81.804L10.907,81.804L10.907,32.991L45.447,6.039ZM36.357,50.9L54.536,50.9L54.536,81.804L36.357,81.804L36.357,50.9ZM49.082,63.625C48.078,63.625,47.265,64.439,47.265,65.443C47.265,66.447,48.078,67.261,49.082,67.261C50.086,67.261,50.9,66.447,50.9,65.443C50.9,64.439,50.086,63.625,49.082,63.625ZM49.082,63.625"/>
</g>
  <g id="Regular-L" transform="matrix(1.0,0.0,0.0,1.0,1405.6833251953124,1475.3233447265625)">  <path stroke-dasharray="none" stroke="none" stroke-width="1px" stroke-opacity="1" stroke-linejoin="miter" stroke-miterlimit="4" stroke-linecap="butt" fill="#000000" fill-rule="nonzero" fill-opacity="1" d="M45.379,1.917C44.998,1.93,44.63,2.063,44.328,2.297L2.517,34.923C1.725,35.541,1.584,36.684,2.201,37.476C2.819,38.268,3.962,38.409,4.754,37.792L7.271,35.828L7.271,83.622C7.272,84.626,8.085,85.44,9.089,85.44L34.234,85.44C34.43,85.472,34.631,85.472,34.827,85.44L56.049,85.44C56.245,85.472,56.445,85.472,56.641,85.44L81.804,85.44C82.808,85.44,83.622,84.626,83.622,83.622L83.622,35.828L86.139,37.792C86.931,38.409,88.074,38.268,88.692,37.476C89.31,36.684,89.168,35.541,88.376,34.923L74.533,24.122C74.532,23.744,74.533,23.306,74.533,22.738C74.532,21.408,74.533,19.651,74.533,17.898C74.532,14.393,74.533,10.907,74.533,10.907C74.532,9.903,73.719,9.089,72.715,9.089L65.443,9.089C64.439,9.089,63.625,9.903,63.625,10.907C63.625,10.907,63.626,13.011,63.625,15.115C63.625,15.295,63.625,15.432,63.625,15.612L46.565,2.297C46.227,2.035,45.807,1.9,45.379,1.917ZM45.447,6.039L64.314,20.76C64.825,21.159,65.509,21.257,66.111,21.016C66.111,21.016,67.236,19.564,67.236,19.563C67.236,19.563,67.245,19.466,67.247,19.446C67.25,19.406,67.25,19.395,67.25,19.382C67.251,19.358,67.254,19.346,67.254,19.333C67.254,19.306,67.254,19.281,67.254,19.247C67.255,19.18,67.254,19.087,67.254,18.97C67.255,18.737,67.257,18.407,67.258,18.012C67.258,17.221,67.261,16.171,67.261,15.118C67.262,13.922,67.261,13.535,67.261,12.725L70.897,12.725C70.897,13.893,70.897,15.304,70.897,17.898C70.897,19.651,70.897,21.407,70.897,22.738C70.897,23.403,70.897,23.959,70.897,24.357C70.897,24.754,70.899,24.87,70.9,25.031C70.906,25.584,71.164,26.104,71.6,26.444L79.986,32.988L79.986,81.804L58.172,81.804L58.172,47.265L32.722,47.265L32.722,81.804L10.907,81.804L10.907,32.991L45.447,6.039ZM36.357,50.9L54.536,50.9L54.536,81.804L36.357,81.804L36.357,50.9ZM49.082,63.625C48.078,63.625,47.265,64.439,47.265,65.443C47.265,66.447,48.078,67.261,49.082,67.261C50.086,67.261,50.9,66.447,50.9,65.443C50.9,64.439,50.086,63.625,49.082,63.625ZM49.082,63.625"/>
</g>
  <g id="Light-L" transform="matrix(1.0,0.0,0.0,1.0,1108.9733251953126,1475.3233447265625)">  <path stroke="none" stroke-dasharray="none" fill-opacity="1" stroke-width="1px" stroke-linecap="butt" fill="#000000" stroke-miterlimit="4" fill-rule="nonzero" stroke-opacity="1" stroke-linejoin="miter" d="M45.379,1.917C44.998,1.93,44.63,2.063,44.328,2.297L2.517,34.923C1.725,35.541,1.584,36.684,2.201,37.476C2.819,38.268,3.962,38.409,4.754,37.792L7.271,35.828L7.271,83.622C7.272,84.626,8.085,85.44,9.089,85.44L34.234,85.44C34.43,85.472,34.631,85.472,34.827,85.44L56.049,85.44C56.245,85.472,56.445,85.472,56.641,85.44L81.804,85.44C82.808,85.44,83.622,84.626,83.622,83.622L83.622,35.828L86.139,37.792C86.931,38.409,88.074,38.268,88.692,37.476C89.31,36.684,89.168,35.541,88.376,34.923L74.533,24.122C74.532,23.744,74.533,23.306,74.533,22.738C74.532,21.408,74.533,19.651,74.533,17.898C74.532,14.393,74.533,10.907,74.533,10.907C74.532,9.903,73.719,9.089,72.715,9.089L65.443,9.089C64.439,9.089,63.625,9.903,63.625,10.907C63.625,10.907,63.626,13.011,63.625,15.115C63.625,15.295,63.625,15.432,63.625,15.612L46.565,2.297C46.227,2.035,45.807,1.9,45.379,1.917ZM45.447,6.039L64.314,20.76C64.825,21.159,65.509,21.257,66.111,21.016C66.111,21.016,67.236,19.564,67.236,19.563C67.236,19.563,67.245,19.466,67.247,19.446C67.25,19.406,67.25,19.395,67.25,19.382C67.251,19.358,67.254,19.346,67.254,19.333C67.254,19.306,67.254,19.281,67.254,19.247C67.255,19.18,67.254,19.087,67.254,18.97C67.255,18.737,67.257,18.407,67.258,18.012C67.258,17.221,67.261,16.171,67.261,15.118C67.262,13.922,67.261,13.535,67.261,12.725L70.897,12.725C70.897,13.893,70.897,15.304,70.897,17.898C70.897,19.651,70.897,21.407,70.897,22.738C70.897,23.403,70.897,23.959,70.897,24.357C70.897,24.754,70.899,24.87,70.9,25.031C70.906,25.584,71.164,26.104,71.6,26.444L79.986,32.988L79.986,81.804L58.172,81.804L58.172,47.265L32.722,47.265L32.722,81.804L10.907,81.804L10.907,32.991L45.447,6.039ZM36.357,50.9L54.536,50.9L54.536,81.804L36.357,81.804L36.357,50.9ZM49.082,63.625C48.078,63.625,47.265,64.439,47.265,65.443C47.265,66.447,48.078,67.261,49.082,67.261C50.086,67.261,50.9,66.447,50.9,65.443C50.9,64.439,50.086,63.625,49.082,63.625ZM49.082,63.625"/>
</g>
  <g id="Thin-L" transform="matrix(1.0,0.0,0.0,1.0,812.2633251953125,1475.3233447265625)">  <path fill-opacity="1" stroke-opacity="1" stroke-linecap="butt" stroke="none" stroke-dasharray="none" stroke-width="1px" stroke-linejoin="miter" fill-rule="nonzero" fill="#000000" stroke-miterlimit="4" d="M45.379,1.917C44.998,1.93,44.63,2.063,44.328,2.297L2.517,34.923C1.725,35.541,1.584,36.684,2.201,37.476C2.819,38.268,3.962,38.409,4.754,37.792L7.271,35.828L7.271,83.622C7.272,84.626,8.085,85.44,9.089,85.44L34.234,85.44C34.43,85.472,34.631,85.472,34.827,85.44L56.049,85.44C56.245,85.472,56.445,85.472,56.641,85.44L81.804,85.44C82.808,85.44,83.622,84.626,83.622,83.622L83.622,35.828L86.139,37.792C86.931,38.409,88.074,38.268,88.692,37.476C89.31,36.684,89.168,35.541,88.376,34.923L74.533,24.122C74.532,23.744,74.533,23.306,74.533,22.738C74.532,21.408,74.533,19.651,74.533,17.898C74.532,14.393,74.533,10.907,74.533,10.907C74.532,9.903,73.719,9.089,72.715,9.089L65.443,9.089C64.439,9.089,63.625,9.903,63.625,10.907C63.625,10.907,63.626,13.011,63.625,15.115C63.625,15.295,63.625,15.432,63.625,15.612L46.565,2.297C46.227,2.035,45.807,1.9,45.379,1.917ZM45.447,6.039L64.314,20.76C64.825,21.159,65.509,21.257,66.111,21.016C66.111,21.016,67.236,19.564,67.236,19.563C67.236,19.563,67.245,19.466,67.247,19.446C67.25,19.406,67.25,19.395,67.25,19.382C67.251,19.358,67.254,19.346,67.254,19.333C67.254,19.306,67.254,19.281,67.254,19.247C67.255,19.18,67.254,19.087,67.254,18.97C67.255,18.737,67.257,18.407,67.258,18.012C67.258,17.221,67.261,16.171,67.261,15.118C67.262,13.922,67.261,13.535,67.261,12.725L70.897,12.725C70.897,13.893,70.897,15.304,70.897,17.898C70.897,19.651,70.897,21.407,70.897,22.738C70.897,23.403,70.897,23.959,70.897,24.357C70.897,24.754,70.899,24.87,70.9,25.031C70.906,25.584,71.164,26.104,71.6,26.444L79.986,32.988L79.986,81.804L58.172,81.804L58.172,47.265L32.722,47.265L32.722,81.804L10.907,81.804L10.907,32.991L45.447,6.039ZM36.357,50.9L54.536,50.9L54.536,81.804L36.357,81.804L36.357,50.9ZM49.082,63.625C48.078,63.625,47.265,64.439,47.265,65.443C47.265,66.447,48.078,67.261,49.082,67.261C50.086,67.261,50.9,66.447,50.9,65.443C50.9,64.439,50.086,63.625,49.082,63.625ZM49.082,63.625"/>
</g>
  <g id="Ultralight-L" transform="matrix(1.0,0.0,0.0,1.0,515.5533251953125,1475.3233447265625)">  <path stroke-miterlimit="4" stroke-dasharray="none" stroke-opacity="1" stroke-linecap="butt" fill="#000000" fill-rule="nonzero" fill-opacity="1" stroke-linejoin="miter" stroke="none" stroke-width="1px" d="M45.379,1.917C44.998,1.93,44.63,2.063,44.328,2.297L2.517,34.923C1.725,35.541,1.584,36.684,2.201,37.476C2.819,38.268,3.962,38.409,4.754,37.792L7.271,35.828L7.271,83.622C7.272,84.626,8.085,85.44,9.089,85.44L34.234,85.44C34.43,85.472,34.631,85.472,34.827,85.44L56.049,85.44C56.245,85.472,56.445,85.472,56.641,85.44L81.804,85.44C82.808,85.44,83.622,84.626,83.622,83.622L83.622,35.828L86.139,37.792C86.931,38.409,88.074,38.268,88.692,37.476C89.31,36.684,89.168,35.541,88.376,34.923L74.533,24.122C74.532,23.744,74.533,23.306,74.533,22.738C74.532,21.408,74.533,19.651,74.533,17.898C74.532,14.393,74.533,10.907,74.533,10.907C74.532,9.903,73.719,9.089,72.715,9.089L65.443,9.089C64.439,9.089,63.625,9.903,63.625,10.907C63.625,10.907,63.626,13.011,63.625,15.115C63.625,15.295,63.625,15.432,63.625,15.612L46.565,2.297C46.227,2.035,45.807,1.9,45.379,1.917ZM45.447,6.039L64.314,20.76C64.825,21.159,65.509,21.257,66.111,21.016C66.111,21.016,67.236,19.564,67.236,19.563C67.236,19.563,67.245,19.466,67.247,19.446C67.25,19.406,67.25,19.395,67.25,19.382C67.251,19.358,67.254,19.346,67.254,19.333C67.254,19.306,67.254,19.281,67.254,19.247C67.255,19.18,67.254,19.087,67.254,18.97C67.255,18.737,67.257,18.407,67.258,18.012C67.258,17.221,67.261,16.171,67.261,15.118C67.262,13.922,67.261,13.535,67.261,12.725L70.897,12.725C70.897,13.893,70.897,15.304,70.897,17.898C70.897,19.651,70.897,21.407,70.897,22.738C70.897,23.403,70.897,23.959,70.897,24.357C70.897,24.754,70.899,24.87,70.9,25.031C70.906,25.584,71.164,26.104,71.6,26.444L79.986,32.988L79.986,81.804L58.172,81.804L58.172,47.265L32.722,47.265L32.722,81.804L10.907,81.804L10.907,32.991L45.447,6.039ZM36.357,50.9L54.536,50.9L54.536,81.804L36.357,81.804L36.357,50.9ZM49.082,63.625C48.078,63.625,47.265,64.439,47.265,65.443C47.265,66.447,48.078,67.261,49.082,67.261C50.086,67.261,50.9,66.447,50.9,65.443C50.9,64.439,50.086,63.625,49.082,63.625ZM49.082,63.625"/>
</g>
  <g id="Black-M" transform="matrix(1.0,0.0,0.0,1.0,2899.45001953125,1055.5400390625)">  <path stroke="none" fill-rule="nonzero" stroke-linejoin="miter" stroke-dasharray="none" stroke-linecap="butt" stroke-width="1px" fill-opacity="1" stroke-miterlimit="4" fill="#000000" stroke-opacity="1" d="M35.178,1.486C34.882,1.496,34.597,1.6,34.363,1.781L1.951,27.072C1.337,27.551,1.228,28.437,1.706,29.051C2.185,29.665,3.071,29.775,3.685,29.296L5.637,27.774L5.637,64.823C5.637,65.601,6.268,66.232,7.046,66.232L26.538,66.232C26.69,66.258,26.846,66.258,26.998,66.232L43.448,66.232C43.601,66.258,43.756,66.258,43.908,66.232L63.414,66.232C64.192,66.232,64.823,65.601,64.823,64.823L64.823,27.774L66.775,29.296C67.389,29.775,68.275,29.665,68.754,29.051C69.232,28.437,69.123,27.551,68.509,27.072L57.777,18.699C57.777,18.406,57.777,18.067,57.777,17.626C57.777,16.595,57.777,15.233,57.777,13.875C57.777,11.158,57.777,8.455,57.777,8.455C57.777,7.677,57.146,7.046,56.368,7.046L50.731,7.046C49.953,7.046,49.322,7.677,49.322,8.455C49.322,8.455,49.323,10.086,49.322,11.717C49.322,11.857,49.322,11.963,49.322,12.102L36.097,1.781C35.835,1.577,35.509,1.473,35.178,1.486ZM35.23,4.682L49.856,16.093C50.252,16.403,50.782,16.478,51.249,16.291C51.249,16.291,52.121,15.166,52.121,15.165C52.121,15.165,52.128,15.09,52.129,15.075C52.131,15.043,52.132,15.035,52.132,15.025C52.133,15.006,52.135,14.997,52.135,14.987C52.135,14.966,52.135,14.946,52.135,14.92C52.135,14.868,52.135,14.796,52.135,14.706C52.136,14.525,52.137,14.269,52.138,13.963C52.138,13.35,52.14,12.535,52.14,11.719C52.141,10.792,52.14,10.492,52.14,9.864L54.959,9.864C54.959,10.77,54.959,11.864,54.959,13.875C54.959,15.233,54.959,16.595,54.959,17.626C54.959,18.142,54.959,18.573,54.959,18.881C54.959,19.189,54.96,19.279,54.962,19.404C54.966,19.833,55.166,20.236,55.504,20.499L62.005,25.572L62.005,63.414L45.094,63.414L45.094,36.639L25.366,36.639L25.366,63.414L8.455,63.414L8.455,25.575L35.23,4.682ZM28.184,39.458L42.276,39.458L42.276,63.414L28.184,63.414L28.184,39.458ZM38.048,49.322C37.27,49.322,36.639,49.953,36.639,50.731C36.639,51.509,37.27,52.14,38.048,52.14C38.827,52.14,39.458,51.509,39.458,50.731C39.458,49.953,38.827,49.322,38.048,49.322ZM38.048,49.322"/>
</g>
  <g id="Heavy-M" transform="matrix(1.0,0.0,0.0,1.0,2602.74001953125,1055.5400390625)">  <path stroke-width="1px" fill-rule="nonzero" stroke-linejoin="miter" stroke-linecap="butt" fill-opacity="1" fill="#000000" stroke-opacity="1" stroke="none" stroke-dasharray="none" stroke-miterlimit="4" d="M35.178,1.486C34.882,1.496,34.597,1.6,34.363,1.781L1.951,27.072C1.337,27.551,1.228,28.437,1.706,29.051C2.185,29.665,3.071,29.775,3.685,29.296L5.637,27.774L5.637,64.823C5.637,65.601,6.268,66.232,7.046,66.232L26.538,66.232C26.69,66.258,26.846,66.258,26.998,66.232L43.448,66.232C43.601,66.258,43.756,66.258,43.908,66.232L63.414,66.232C64.192,66.232,64.823,65.601,64.823,64.823L64.823,27.774L66.775,29.296C67.389,29.775,68.275,29.665,68.754,29.051C69.232,28.437,69.123,27.551,68.509,27.072L57.777,18.699C57.777,18.406,57.777,18.067,57.777,17.626C57.777,16.595,57.777,15.233,57.777,13.875C57.777,11.158,57.777,8.455,57.777,8.455C57.777,7.677,57.146,7.046,56.368,7.046L50.731,7.046C49.953,7.046,49.322,7.677,49.322,8.455C49.322,8.455,49.323,10.086,49.322,11.717C49.322,11.857,49.322,11.963,49.322,12.102L36.097,1.781C35.835,1.577,35.509,1.473,35.178,1.486ZM35.23,4.682L49.856,16.093C50.252,16.403,50.782,16.478,51.249,16.291C51.249,16.291,52.121,15.166,52.121,15.165C52.121,15.165,52.128,15.09,52.129,15.075C52.131,15.043,52.132,15.035,52.132,15.025C52.133,15.006,52.135,14.997,52.135,14.987C52.135,14.966,52.135,14.946,52.135,14.92C52.135,14.868,52.135,14.796,52.135,14.706C52.136,14.525,52.137,14.269,52.138,13.963C52.138,13.35,52.14,12.535,52.14,11.719C52.141,10.792,52.14,10.492,52.14,9.864L54.959,9.864C54.959,10.77,54.959,11.864,54.959,13.875C54.959,15.233,54.959,16.595,54.959,17.626C54.959,18.142,54.959,18.573,54.959,18.881C54.959,19.189,54.96,19.279,54.962,19.404C54.966,19.833,55.166,20.236,55.504,20.499L62.005,25.572L62.005,63.414L45.094,63.414L45.094,36.639L25.366,36.639L25.366,63.414L8.455,63.414L8.455,25.575L35.23,4.682ZM28.184,39.458L42.276,39.458L42.276,63.414L28.184,63.414L28.184,39.458ZM38.048,49.322C37.27,49.322,36.639,49.953,36.639,50.731C36.639,51.509,37.27,52.14,38.048,52.14C38.827,52.14,39.458,51.509,39.458,50.731C39.458,49.953,38.827,49.322,38.048,49.322ZM38.048,49.322"/>
</g>
  <g id="Bold-M" transform="matrix(1.0,0.0,0.0,1.0,2306.0300195312498,1055.5400390625)">  <path stroke="none" stroke-linejoin="miter" stroke-opacity="1" stroke-miterlimit="4" stroke-linecap="butt" fill="#000000" stroke-width="1px" fill-rule="nonzero" stroke-dasharray="none" fill-opacity="1" d="M35.178,1.486C34.882,1.496,34.597,1.6,34.363,1.781L1.951,27.072C1.337,27.551,1.228,28.437,1.706,29.051C2.185,29.665,3.071,29.775,3.685,29.296L5.637,27.774L5.637,64.823C5.637,65.601,6.268,66.232,7.046,66.232L26.538,66.232C26.69,66.258,26.846,66.258,26.998,66.232L43.448,66.232C43.601,66.258,43.756,66.258,43.908,66.232L63.414,66.232C64.192,66.232,64.823,65.601,64.823,64.823L64.823,27.774L66.775,29.296C67.389,29.775,68.275,29.665,68.754,29.051C69.232,28.437,69.123,27.551,68.509,27.072L57.777,18.699C57.777,18.406,57.777,18.067,57.777,17.626C57.777,16.595,57.777,15.233,57.777,13.875C57.777,11.158,57.777,8.455,57.777,8.455C57.777,7.677,57.146,7.046,56.368,7.046L50.731,7.046C49.953,7.046,49.322,7.677,49.322,8.455C49.322,8.455,49.323,10.086,49.322,11.717C49.322,11.857,49.322,11.963,49.322,12.102L36.097,1.781C35.835,1.577,35.509,1.473,35.178,1.486ZM35.23,4.682L49.856,16.093C50.252,16.403,50.782,16.478,51.249,16.291C51.249,16.291,52.121,15.166,52.121,15.165C52.121,15.165,52.128,15.09,52.129,15.075C52.131,15.043,52.132,15.035,52.132,15.025C52.133,15.006,52.135,14.997,52.135,14.987C52.135,14.966,52.135,14.946,52.135,14.92C52.135,14.868,52.135,14.796,52.135,14.706C52.136,14.525,52.137,14.269,52.138,13.963C52.138,13.35,52.14,12.535,52.14,11.719C52.141,10.792,52.14,10.492,52.14,9.864L54.959,9.864C54.959,10.77,54.959,11.864,54.959,13.875C54.959,15.233,54.959,16.595,54.959,17.626C54.959,18.142,54.959,18.573,54.959,18.881C54.959,19.189,54.96,19.279,54.962,19.404C54.966,19.833,55.166,20.236,55.504,20.499L62.005,25.572L62.005,63.414L45.094,63.414L45.094,36.639L25.366,36.639L25.366,63.414L8.455,63.414L8.455,25.575L35.23,4.682ZM28.184,39.458L42.276,39.458L42.276,63.414L28.184,63.414L28.184,39.458ZM38.048,49.322C37.27,49.322,36.639,49.953,36.639,50.731C36.639,51.509,37.27,52.14,38.048,52.14C38.827,52.14,39.458,51.509,39.458,50.731C39.458,49.953,38.827,49.322,38.048,49.322ZM38.048,49.322"/>
</g>
  <g id="Semibold-M" transform="matrix(1.0,0.0,0.0,1.0,2009.32001953125,1055.5400390625)">  <path stroke-miterlimit="4" stroke-linecap="butt" stroke-linejoin="miter" stroke-opacity="1" stroke-dasharray="none" stroke-width="1px" stroke="none" fill="#000000" fill-rule="nonzero" fill-opacity="1" d="M35.178,1.486C34.882,1.496,34.597,1.6,34.363,1.781L1.951,27.072C1.337,27.551,1.228,28.437,1.706,29.051C2.185,29.665,3.071,29.775,3.685,29.296L5.637,27.774L5.637,64.823C5.637,65.601,6.268,66.232,7.046,66.232L26.538,66.232C26.69,66.258,26.846,66.258,26.998,66.232L43.448,66.232C43.601,66.258,43.756,66.258,43.908,66.232L63.414,66.232C64.192,66.232,64.823,65.601,64.823,64.823L64.823,27.774L66.775,29.296C67.389,29.775,68.275,29.665,68.754,29.051C69.232,28.437,69.123,27.551,68.509,27.072L57.777,18.699C57.777,18.406,57.777,18.067,57.777,17.626C57.777,16.595,57.777,15.233,57.777,13.875C57.777,11.158,57.777,8.455,57.777,8.455C57.777,7.677,57.146,7.046,56.368,7.046L50.731,7.046C49.953,7.046,49.322,7.677,49.322,8.455C49.322,8.455,49.323,10.086,49.322,11.717C49.322,11.857,49.322,11.963,49.322,12.102L36.097,1.781C35.835,1.577,35.509,1.473,35.178,1.486ZM35.23,4.682L49.856,16.093C50.252,16.403,50.782,16.478,51.249,16.291C51.249,16.291,52.121,15.166,52.121,15.165C52.121,15.165,52.128,15.09,52.129,15.075C52.131,15.043,52.132,15.035,52.132,15.025C52.133,15.006,52.135,14.997,52.135,14.987C52.135,14.966,52.135,14.946,52.135,14.92C52.135,14.868,52.135,14.796,52.135,14.706C52.136,14.525,52.137,14.269,52.138,13.963C52.138,13.35,52.14,12.535,52.14,11.719C52.141,10.792,52.14,10.492,52.14,9.864L54.959,9.864C54.959,10.77,54.959,11.864,54.959,13.875C54.959,15.233,54.959,16.595,54.959,17.626C54.959,18.142,54.959,18.573,54.959,18.881C54.959,19.189,54.96,19.279,54.962,19.404C54.966,19.833,55.166,20.236,55.504,20.499L62.005,25.572L62.005,63.414L45.094,63.414L45.094,36.639L25.366,36.639L25.366,63.414L8.455,63.414L8.455,25.575L35.23,4.682ZM28.184,39.458L42.276,39.458L42.276,63.414L28.184,63.414L28.184,39.458ZM38.048,49.322C37.27,49.322,36.639,49.953,36.639,50.731C36.639,51.509,37.27,52.14,38.048,52.14C38.827,52.14,39.458,51.509,39.458,50.731C39.458,49.953,38.827,49.322,38.048,49.322ZM38.048,49.322"/>
</g>
  <g id="Medium-M" transform="matrix(1.0,0.0,0.0,1.0,1712.61001953125,1055.5400390625)">  <path fill-rule="nonzero" stroke-miterlimit="4" stroke="none" stroke-linecap="butt" stroke-linejoin="miter" stroke-dasharray="none" stroke-width="1px" fill="#000000" stroke-opacity="1" fill-opacity="1" d="M35.178,1.486C34.882,1.496,34.597,1.6,34.363,1.781L1.951,27.072C1.337,27.551,1.228,28.437,1.706,29.051C2.185,29.665,3.071,29.775,3.685,29.296L5.637,27.774L5.637,64.823C5.637,65.601,6.268,66.232,7.046,66.232L26.538,66.232C26.69,66.258,26.846,66.258,26.998,66.232L43.448,66.232C43.601,66.258,43.756,66.258,43.908,66.232L63.414,66.232C64.192,66.232,64.823,65.601,64.823,64.823L64.823,27.774L66.775,29.296C67.389,29.775,68.275,29.665,68.754,29.051C69.232,28.437,69.123,27.551,68.509,27.072L57.777,18.699C57.777,18.406,57.777,18.067,57.777,17.626C57.777,16.595,57.777,15.233,57.777,13.875C57.777,11.158,57.777,8.455,57.777,8.455C57.777,7.677,57.146,7.046,56.368,7.046L50.731,7.046C49.953,7.046,49.322,7.677,49.322,8.455C49.322,8.455,49.323,10.086,49.322,11.717C49.322,11.857,49.322,11.963,49.322,12.102L36.097,1.781C35.835,1.577,35.509,1.473,35.178,1.486ZM35.23,4.682L49.856,16.093C50.252,16.403,50.782,16.478,51.249,16.291C51.249,16.291,52.121,15.166,52.121,15.165C52.121,15.165,52.128,15.09,52.129,15.075C52.131,15.043,52.132,15.035,52.132,15.025C52.133,15.006,52.135,14.997,52.135,14.987C52.135,14.966,52.135,14.946,52.135,14.92C52.135,14.868,52.135,14.796,52.135,14.706C52.136,14.525,52.137,14.269,52.138,13.963C52.138,13.35,52.14,12.535,52.14,11.719C52.141,10.792,52.14,10.492,52.14,9.864L54.959,9.864C54.959,10.77,54.959,11.864,54.959,13.875C54.959,15.233,54.959,16.595,54.959,17.626C54.959,18.142,54.959,18.573,54.959,18.881C54.959,19.189,54.96,19.279,54.962,19.404C54.966,19.833,55.166,20.236,55.504,20.499L62.005,25.572L62.005,63.414L45.094,63.414L45.094,36.639L25.366,36.639L25.366,63.414L8.455,63.414L8.455,25.575L35.23,4.682ZM28.184,39.458L42.276,39.458L42.276,63.414L28.184,63.414L28.184,39.458ZM38.048,49.322C37.27,49.322,36.639,49.953,36.639,50.731C36.639,51.509,37.27,52.14,38.048,52.14C38.827,52.14,39.458,51.509,39.458,50.731C39.458,49.953,38.827,49.322,38.048,49.322ZM38.048,49.322"/>
</g>
  <g id="Regular-M" transform="matrix(1.0,0.0,0.0,1.0,1415.9000195312499,1055.5400390625)">  <path stroke-dasharray="none" stroke="none" stroke-width="1px" stroke-opacity="1" stroke-linejoin="miter" stroke-miterlimit="4" stroke-linecap="butt" fill="#000000" fill-rule="nonzero" fill-opacity="1" d="M35.178,1.486C34.882,1.496,34.597,1.6,34.363,1.781L1.951,27.072C1.337,27.551,1.228,28.437,1.706,29.051C2.185,29.665,3.071,29.775,3.685,29.296L5.637,27.774L5.637,64.823C5.637,65.601,6.268,66.232,7.046,66.232L26.538,66.232C26.69,66.258,26.846,66.258,26.998,66.232L43.448,66.232C43.601,66.258,43.756,66.258,43.908,66.232L63.414,66.232C64.192,66.232,64.823,65.601,64.823,64.823L64.823,27.774L66.775,29.296C67.389,29.775,68.275,29.665,68.754,29.051C69.232,28.437,69.123,27.551,68.509,27.072L57.777,18.699C57.777,18.406,57.777,18.067,57.777,17.626C57.777,16.595,57.777,15.233,57.777,13.875C57.777,11.158,57.777,8.455,57.777,8.455C57.777,7.677,57.146,7.046,56.368,7.046L50.731,7.046C49.953,7.046,49.322,7.677,49.322,8.455C49.322,8.455,49.323,10.086,49.322,11.717C49.322,11.857,49.322,11.963,49.322,12.102L36.097,1.781C35.835,1.577,35.509,1.473,35.178,1.486ZM35.23,4.682L49.856,16.093C50.252,16.403,50.782,16.478,51.249,16.291C51.249,16.291,52.121,15.166,52.121,15.165C52.121,15.165,52.128,15.09,52.129,15.075C52.131,15.043,52.132,15.035,52.132,15.025C52.133,15.006,52.135,14.997,52.135,14.987C52.135,14.966,52.135,14.946,52.135,14.92C52.135,14.868,52.135,14.796,52.135,14.706C52.136,14.525,52.137,14.269,52.138,13.963C52.138,13.35,52.14,12.535,52.14,11.719C52.141,10.792,52.14,10.492,52.14,9.864L54.959,9.864C54.959,10.77,54.959,11.864,54.959,13.875C54.959,15.233,54.959,16.595,54.959,17.626C54.959,18.142,54.959,18.573,54.959,18.881C54.959,19.189,54.96,19.279,54.962,19.404C54.966,19.833,55.166,20.236,55.504,20.499L62.005,25.572L62.005,63.414L45.094,63.414L45.094,36.639L25.366,36.639L25.366,63.414L8.455,63.414L8.455,25.575L35.23,4.682ZM28.184,39.458L42.276,39.458L42.276,63.414L28.184,63.414L28.184,39.458ZM38.048,49.322C37.27,49.322,36.639,49.953,36.639,50.731C36.639,51.509,37.27,52.14,38.048,52.14C38.827,52.14,39.458,51.509,39.458,50.731C39.458,49.953,38.827,49.322,38.048,49.322ZM38.048,49.322"/>
</g>
  <g id="Light-M" transform="matrix(1.0,0.0,0.0,1.0,1119.19001953125,1055.5400390625)">  <path stroke="none" stroke-dasharray="none" fill-opacity="1" stroke-width="1px" stroke-linecap="butt" fill="#000000" stroke-miterlimit="4" fill-rule="nonzero" stroke-opacity="1" stroke-linejoin="miter" d="M35.178,1.486C34.882,1.496,34.597,1.6,34.363,1.781L1.951,27.072C1.337,27.551,1.228,28.437,1.706,29.051C2.185,29.665,3.071,29.775,3.685,29.296L5.637,27.774L5.637,64.823C5.637,65.601,6.268,66.232,7.046,66.232L26.538,66.232C26.69,66.258,26.846,66.258,26.998,66.232L43.448,66.232C43.601,66.258,43.756,66.258,43.908,66.232L63.414,66.232C64.192,66.232,64.823,65.601,64.823,64.823L64.823,27.774L66.775,29.296C67.389,29.775,68.275,29.665,68.754,29.051C69.232,28.437,69.123,27.551,68.509,27.072L57.777,18.699C57.777,18.406,57.777,18.067,57.777,17.626C57.777,16.595,57.777,15.233,57.777,13.875C57.777,11.158,57.777,8.455,57.777,8.455C57.777,7.677,57.146,7.046,56.368,7.046L50.731,7.046C49.953,7.046,49.322,7.677,49.322,8.455C49.322,8.455,49.323,10.086,49.322,11.717C49.322,11.857,49.322,11.963,49.322,12.102L36.097,1.781C35.835,1.577,35.509,1.473,35.178,1.486ZM35.23,4.682L49.856,16.093C50.252,16.403,50.782,16.478,51.249,16.291C51.249,16.291,52.121,15.166,52.121,15.165C52.121,15.165,52.128,15.09,52.129,15.075C52.131,15.043,52.132,15.035,52.132,15.025C52.133,15.006,52.135,14.997,52.135,14.987C52.135,14.966,52.135,14.946,52.135,14.92C52.135,14.868,52.135,14.796,52.135,14.706C52.136,14.525,52.137,14.269,52.138,13.963C52.138,13.35,52.14,12.535,52.14,11.719C52.141,10.792,52.14,10.492,52.14,9.864L54.959,9.864C54.959,10.77,54.959,11.864,54.959,13.875C54.959,15.233,54.959,16.595,54.959,17.626C54.959,18.142,54.959,18.573,54.959,18.881C54.959,19.189,54.96,19.279,54.962,19.404C54.966,19.833,55.166,20.236,55.504,20.499L62.005,25.572L62.005,63.414L45.094,63.414L45.094,36.639L25.366,36.639L25.366,63.414L8.455,63.414L8.455,25.575L35.23,4.682ZM28.184,39.458L42.276,39.458L42.276,63.414L28.184,63.414L28.184,39.458ZM38.048,49.322C37.27,49.322,36.639,49.953,36.639,50.731C36.639,51.509,37.27,52.14,38.048,52.14C38.827,52.14,39.458,51.509,39.458,50.731C39.458,49.953,38.827,49.322,38.048,49.322ZM38.048,49.322"/>
</g>
  <g id="Thin-M" transform="matrix(1.0,0.0,0.0,1.0,822.48001953125,1055.5400390625)">  <path fill-opacity="1" stroke-opacity="1" stroke-linecap="butt" stroke="none" stroke-dasharray="none" stroke-width="1px" stroke-linejoin="miter" fill-rule="nonzero" fill="#000000" stroke-miterlimit="4" d="M35.178,1.486C34.882,1.496,34.597,1.6,34.363,1.781L1.951,27.072C1.337,27.551,1.228,28.437,1.706,29.051C2.185,29.665,3.071,29.775,3.685,29.296L5.637,27.774L5.637,64.823C5.637,65.601,6.268,66.232,7.046,66.232L26.538,66.232C26.69,66.258,26.846,66.258,26.998,66.232L43.448,66.232C43.601,66.258,43.756,66.258,43.908,66.232L63.414,66.232C64.192,66.232,64.823,65.601,64.823,64.823L64.823,27.774L66.775,29.296C67.389,29.775,68.275,29.665,68.754,29.051C69.232,28.437,69.123,27.551,68.509,27.072L57.777,18.699C57.777,18.406,57.777,18.067,57.777,17.626C57.777,16.595,57.777,15.233,57.777,13.875C57.777,11.158,57.777,8.455,57.777,8.455C57.777,7.677,57.146,7.046,56.368,7.046L50.731,7.046C49.953,7.046,49.322,7.677,49.322,8.455C49.322,8.455,49.323,10.086,49.322,11.717C49.322,11.857,49.322,11.963,49.322,12.102L36.097,1.781C35.835,1.577,35.509,1.473,35.178,1.486ZM35.23,4.682L49.856,16.093C50.252,16.403,50.782,16.478,51.249,16.291C51.249,16.291,52.121,15.166,52.121,15.165C52.121,15.165,52.128,15.09,52.129,15.075C52.131,15.043,52.132,15.035,52.132,15.025C52.133,15.006,52.135,14.997,52.135,14.987C52.135,14.966,52.135,14.946,52.135,14.92C52.135,14.868,52.135,14.796,52.135,14.706C52.136,14.525,52.137,14.269,52.138,13.963C52.138,13.35,52.14,12.535,52.14,11.719C52.141,10.792,52.14,10.492,52.14,9.864L54.959,9.864C54.959,10.77,54.959,11.864,54.959,13.875C54.959,15.233,54.959,16.595,54.959,17.626C54.959,18.142,54.959,18.573,54.959,18.881C54.959,19.189,54.96,19.279,54.962,19.404C54.966,19.833,55.166,20.236,55.504,20.499L62.005,25.572L62.005,63.414L45.094,63.414L45.094,36.639L25.366,36.639L25.366,63.414L8.455,63.414L8.455,25.575L35.23,4.682ZM28.184,39.458L42.276,39.458L42.276,63.414L28.184,63.414L28.184,39.458ZM38.048,49.322C37.27,49.322,36.639,49.953,36.639,50.731C36.639,51.509,37.27,52.14,38.048,52.14C38.827,52.14,39.458,51.509,39.458,50.731C39.458,49.953,38.827,49.322,38.048,49.322ZM38.048,49.322"/>
</g>
  <g id="Ultralight-M" transform="matrix(1.0,0.0,0.0,1.0,525.77001953125,1055.5400390625)">  <path stroke-miterlimit="4" stroke-dasharray="none" stroke-opacity="1" stroke-linecap="butt" fill="#000000" fill-rule="nonzero" fill-opacity="1" stroke-linejoin="miter" stroke="none" stroke-width="1px" d="M35.178,1.486C34.882,1.496,34.597,1.6,34.363,1.781L1.951,27.072C1.337,27.551,1.228,28.437,1.706,29.051C2.185,29.665,3.071,29.775,3.685,29.296L5.637,27.774L5.637,64.823C5.637,65.601,6.268,66.232,7.046,66.232L26.538,66.232C26.69,66.258,26.846,66.258,26.998,66.232L43.448,66.232C43.601,66.258,43.756,66.258,43.908,66.232L63.414,66.232C64.192,66.232,64.823,65.601,64.823,64.823L64.823,27.774L66.775,29.296C67.389,29.775,68.275,29.665,68.754,29.051C69.232,28.437,69.123,27.551,68.509,27.072L57.777,18.699C57.777,18.406,57.777,18.067,57.777,17.626C57.777,16.595,57.777,15.233,57.777,13.875C57.777,11.158,57.777,8.455,57.777,8.455C57.777,7.677,57.146,7.046,56.368,7.046L50.731,7.046C49.953,7.046,49.322,7.677,49.322,8.455C49.322,8.455,49.323,10.086,49.322,11.717C49.322,11.857,49.322,11.963,49.322,12.102L36.097,1.781C35.835,1.577,35.509,1.473,35.178,1.486ZM35.23,4.682L49.856,16.093C50.252,16.403,50.782,16.478,51.249,16.291C51.249,16.291,52.121,15.166,52.121,15.165C52.121,15.165,52.128,15.09,52.129,15.075C52.131,15.043,52.132,15.035,52.132,15.025C52.133,15.006,52.135,14.997,52.135,14.987C52.135,14.966,52.135,14.946,52.135,14.92C52.135,14.868,52.135,14.796,52.135,14.706C52.136,14.525,52.137,14.269,52.138,13.963C52.138,13.35,52.14,12.535,52.14,11.719C52.141,10.792,52.14,10.492,52.14,9.864L54.959,9.864C54.959,10.77,54.959,11.864,54.959,13.875C54.959,15.233,54.959,16.595,54.959,17.626C54.959,18.142,54.959,18.573,54.959,18.881C54.959,19.189,54.96,19.279,54.962,19.404C54.966,19.833,55.166,20.236,55.504,20.499L62.005,25.572L62.005,63.414L45.094,63.414L45.094,36.639L25.366,36.639L25.366,63.414L8.455,63.414L8.455,25.575L35.23,4.682ZM28.184,39.458L42.276,39.458L42.276,63.414L28.184,63.414L28.184,39.458ZM38.048,49.322C37.27,49.322,36.639,49.953,36.639,50.731C36.639,51.509,37.27,52.14,38.048,52.14C38.827,52.14,39.458,51.509,39.458,50.731C39.458,49.953,38.827,49.322,38.048,49.322ZM38.048,49.322"/>
</g>
  <g id="Black-S" transform="matrix(1.0,0.0,0.0,1.0,2907.0949252929686,633.1849448242187)">  <path stroke="none" fill-rule="nonzero" stroke-linejoin="miter" stroke-dasharray="none" stroke-linecap="butt" stroke-width="1px" fill-opacity="1" stroke-miterlimit="4" fill="#000000" stroke-opacity="1" d="M27.544,1.164C27.313,1.172,27.089,1.252,26.906,1.394L1.528,21.197C1.047,21.572,0.961,22.266,1.336,22.747C1.711,23.228,2.405,23.314,2.886,22.939L4.414,21.747L4.414,50.757C4.414,51.366,4.908,51.86,5.517,51.86L20.779,51.86C20.898,51.88,21.02,51.88,21.139,51.86L34.02,51.86C34.139,51.88,34.261,51.88,34.38,51.86L49.653,51.86C50.263,51.86,50.756,51.366,50.757,50.757L50.757,21.747L52.284,22.939C52.765,23.314,53.459,23.228,53.834,22.747C54.209,22.266,54.123,21.572,53.642,21.197L45.24,14.642C45.239,14.412,45.24,14.146,45.24,13.801C45.239,12.994,45.24,11.928,45.24,10.864C45.239,8.736,45.24,6.62,45.24,6.62C45.239,6.011,44.745,5.517,44.136,5.517L39.723,5.517C39.113,5.517,38.619,6.011,38.619,6.62C38.619,6.62,38.62,7.897,38.619,9.174C38.619,9.284,38.619,9.367,38.619,9.476L28.264,1.394C28.059,1.235,27.804,1.153,27.544,1.164ZM27.585,3.666L39.037,12.601C39.347,12.843,39.762,12.902,40.128,12.756C40.128,12.756,40.811,11.875,40.811,11.875C40.811,11.874,40.816,11.816,40.817,11.803C40.819,11.779,40.819,11.772,40.819,11.765C40.82,11.75,40.821,11.742,40.822,11.734C40.822,11.718,40.821,11.703,40.822,11.683C40.822,11.642,40.821,11.585,40.822,11.515C40.822,11.373,40.823,11.173,40.824,10.933C40.824,10.453,40.826,9.815,40.826,9.176C40.826,8.45,40.826,8.215,40.826,7.724L43.033,7.724C43.033,8.433,43.033,9.289,43.033,10.864C43.033,11.928,43.033,12.994,43.033,13.801C43.033,14.205,43.033,14.543,43.033,14.784C43.033,15.025,43.034,15.096,43.035,15.193C43.039,15.529,43.195,15.845,43.459,16.051L48.55,20.023L48.55,49.653L35.309,49.653L35.309,28.688L19.861,28.688L19.861,49.653L6.62,49.653L6.62,20.025L27.585,3.666ZM22.068,30.895L33.102,30.895L33.102,49.653L22.068,49.653L22.068,30.895ZM29.792,38.619C29.182,38.619,28.688,39.113,28.688,39.723C28.688,40.332,29.182,40.826,29.792,40.826C30.401,40.826,30.895,40.332,30.895,39.723C30.895,39.113,30.401,38.619,29.792,38.619ZM29.792,38.619"/>
</g>
  <g id="Heavy-S" transform="matrix(1.0,0.0,0.0,1.0,2610.3849252929685,633.1849448242187)">  <path stroke-width="1px" fill-rule="nonzero" stroke-linejoin="miter" stroke-linecap="butt" fill-opacity="1" fill="#000000" stroke-opacity="1" stroke="none" stroke-dasharray="none" stroke-miterlimit="4" d="M27.544,1.164C27.313,1.172,27.089,1.252,26.906,1.394L1.528,21.197C1.047,21.572,0.961,22.266,1.336,22.747C1.711,23.228,2.405,23.314,2.886,22.939L4.414,21.747L4.414,50.757C4.414,51.366,4.908,51.86,5.517,51.86L20.779,51.86C20.898,51.88,21.02,51.88,21.139,51.86L34.02,51.86C34.139,51.88,34.261,51.88,34.38,51.86L49.653,51.86C50.263,51.86,50.756,51.366,50.757,50.757L50.757,21.747L52.284,22.939C52.765,23.314,53.459,23.228,53.834,22.747C54.209,22.266,54.123,21.572,53.642,21.197L45.24,14.642C45.239,14.412,45.24,14.146,45.24,13.801C45.239,12.994,45.24,11.928,45.24,10.864C45.239,8.736,45.24,6.62,45.24,6.62C45.239,6.011,44.745,5.517,44.136,5.517L39.723,5.517C39.113,5.517,38.619,6.011,38.619,6.62C38.619,6.62,38.62,7.897,38.619,9.174C38.619,9.284,38.619,9.367,38.619,9.476L28.264,1.394C28.059,1.235,27.804,1.153,27.544,1.164ZM27.585,3.666L39.037,12.601C39.347,12.843,39.762,12.902,40.128,12.756C40.128,12.756,40.811,11.875,40.811,11.875C40.811,11.874,40.816,11.816,40.817,11.803C40.819,11.779,40.819,11.772,40.819,11.765C40.82,11.75,40.821,11.742,40.822,11.734C40.822,11.718,40.821,11.703,40.822,11.683C40.822,11.642,40.821,11.585,40.822,11.515C40.822,11.373,40.823,11.173,40.824,10.933C40.824,10.453,40.826,9.815,40.826,9.176C40.826,8.45,40.826,8.215,40.826,7.724L43.033,7.724C43.033,8.433,43.033,9.289,43.033,10.864C43.033,11.928,43.033,12.994,43.033,13.801C43.033,14.205,43.033,14.543,43.033,14.784C43.033,15.025,43.034,15.096,43.035,15.193C43.039,15.529,43.195,15.845,43.459,16.051L48.55,20.023L48.55,49.653L35.309,49.653L35.309,28.688L19.861,28.688L19.861,49.653L6.62,49.653L6.62,20.025L27.585,3.666ZM22.068,30.895L33.102,30.895L33.102,49.653L22.068,49.653L22.068,30.895ZM29.792,38.619C29.182,38.619,28.688,39.113,28.688,39.723C28.688,40.332,29.182,40.826,29.792,40.826C30.401,40.826,30.895,40.332,30.895,39.723C30.895,39.113,30.401,38.619,29.792,38.619ZM29.792,38.619"/>
</g>
  <g id="Bold-S" transform="matrix(1.0,0.0,0.0,1.0,2313.6749252929685,633.1849448242187)">  <path stroke="none" stroke-linejoin="miter" stroke-opacity="1" stroke-miterlimit="4" stroke-linecap="butt" fill="#000000" stroke-width="1px" fill-rule="nonzero" stroke-dasharray="none" fill-opacity="1" d="M27.544,1.164C27.313,1.172,27.089,1.252,26.906,1.394L1.528,21.197C1.047,21.572,0.961,22.266,1.336,22.747C1.711,23.228,2.405,23.314,2.886,22.939L4.414,21.747L4.414,50.757C4.414,51.366,4.908,51.86,5.517,51.86L20.779,51.86C20.898,51.88,21.02,51.88,21.139,51.86L34.02,51.86C34.139,51.88,34.261,51.88,34.38,51.86L49.653,51.86C50.263,51.86,50.756,51.366,50.757,50.757L50.757,21.747L52.284,22.939C52.765,23.314,53.459,23.228,53.834,22.747C54.209,22.266,54.123,21.572,53.642,21.197L45.24,14.642C45.239,14.412,45.24,14.146,45.24,13.801C45.239,12.994,45.24,11.928,45.24,10.864C45.239,8.736,45.24,6.62,45.24,6.62C45.239,6.011,44.745,5.517,44.136,5.517L39.723,5.517C39.113,5.517,38.619,6.011,38.619,6.62C38.619,6.62,38.62,7.897,38.619,9.174C38.619,9.284,38.619,9.367,38.619,9.476L28.264,1.394C28.059,1.235,27.804,1.153,27.544,1.164ZM27.585,3.666L39.037,12.601C39.347,12.843,39.762,12.902,40.128,12.756C40.128,12.756,40.811,11.875,40.811,11.875C40.811,11.874,40.816,11.816,40.817,11.803C40.819,11.779,40.819,11.772,40.819,11.765C40.82,11.75,40.821,11.742,40.822,11.734C40.822,11.718,40.821,11.703,40.822,11.683C40.822,11.642,40.821,11.585,40.822,11.515C40.822,11.373,40.823,11.173,40.824,10.933C40.824,10.453,40.826,9.815,40.826,9.176C40.826,8.45,40.826,8.215,40.826,7.724L43.033,7.724C43.033,8.433,43.033,9.289,43.033,10.864C43.033,11.928,43.033,12.994,43.033,13.801C43.033,14.205,43.033,14.543,43.033,14.784C43.033,15.025,43.034,15.096,43.035,15.193C43.039,15.529,43.195,15.845,43.459,16.051L48.55,20.023L48.55,49.653L35.309,49.653L35.309,28.688L19.861,28.688L19.861,49.653L6.62,49.653L6.62,20.025L27.585,3.666ZM22.068,30.895L33.102,30.895L33.102,49.653L22.068,49.653L22.068,30.895ZM29.792,38.619C29.182,38.619,28.688,39.113,28.688,39.723C28.688,40.332,29.182,40.826,29.792,40.826C30.401,40.826,30.895,40.332,30.895,39.723C30.895,39.113,30.401,38.619,29.792,38.619ZM29.792,38.619"/>
</g>
  <g id="Semibold-S" transform="matrix(1.0,0.0,0.0,1.0,2016.9649252929687,633.1849448242187)">  <path stroke-miterlimit="4" stroke-linecap="butt" stroke-linejoin="miter" stroke-opacity="1" stroke-dasharray="none" stroke-width="1px" stroke="none" fill="#000000" fill-rule="nonzero" fill-opacity="1" d="M27.544,1.164C27.313,1.172,27.089,1.252,26.906,1.394L1.528,21.197C1.047,21.572,0.961,22.266,1.336,22.747C1.711,23.228,2.405,23.314,2.886,22.939L4.414,21.747L4.414,50.757C4.414,51.366,4.908,51.86,5.517,51.86L20.779,51.86C20.898,51.88,21.02,51.88,21.139,51.86L34.02,51.86C34.139,51.88,34.261,51.88,34.38,51.86L49.653,51.86C50.263,51.86,50.756,51.366,50.757,50.757L50.757,21.747L52.284,22.939C52.765,23.314,53.459,23.228,53.834,22.747C54.209,22.266,54.123,21.572,53.642,21.197L45.24,14.642C45.239,14.412,45.24,14.146,45.24,13.801C45.239,12.994,45.24,11.928,45.24,10.864C45.239,8.736,45.24,6.62,45.24,6.62C45.239,6.011,44.745,5.517,44.136,5.517L39.723,5.517C39.113,5.517,38.619,6.011,38.619,6.62C38.619,6.62,38.62,7.897,38.619,9.174C38.619,9.284,38.619,9.367,38.619,9.476L28.264,1.394C28.059,1.235,27.804,1.153,27.544,1.164ZM27.585,3.666L39.037,12.601C39.347,12.843,39.762,12.902,40.128,12.756C40.128,12.756,40.811,11.875,40.811,11.875C40.811,11.874,40.816,11.816,40.817,11.803C40.819,11.779,40.819,11.772,40.819,11.765C40.82,11.75,40.821,11.742,40.822,11.734C40.822,11.718,40.821,11.703,40.822,11.683C40.822,11.642,40.821,11.585,40.822,11.515C40.822,11.373,40.823,11.173,40.824,10.933C40.824,10.453,40.826,9.815,40.826,9.176C40.826,8.45,40.826,8.215,40.826,7.724L43.033,7.724C43.033,8.433,43.033,9.289,43.033,10.864C43.033,11.928,43.033,12.994,43.033,13.801C43.033,14.205,43.033,14.543,43.033,14.784C43.033,15.025,43.034,15.096,43.035,15.193C43.039,15.529,43.195,15.845,43.459,16.051L48.55,20.023L48.55,49.653L35.309,49.653L35.309,28.688L19.861,28.688L19.861,49.653L6.62,49.653L6.62,20.025L27.585,3.666ZM22.068,30.895L33.102,30.895L33.102,49.653L22.068,49.653L22.068,30.895ZM29.792,38.619C29.182,38.619,28.688,39.113,28.688,39.723C28.688,40.332,29.182,40.826,29.792,40.826C30.401,40.826,30.895,40.332,30.895,39.723C30.895,39.113,30.401,38.619,29.792,38.619ZM29.792,38.619"/>
</g>
  <g id="Medium-S" transform="matrix(1.0,0.0,0.0,1.0,1720.2549252929687,633.1849448242187)">  <path fill-rule="nonzero" stroke-miterlimit="4" stroke="none" stroke-linecap="butt" stroke-linejoin="miter" stroke-dasharray="none" stroke-width="1px" fill="#000000" stroke-opacity="1" fill-opacity="1" d="M27.544,1.164C27.313,1.172,27.089,1.252,26.906,1.394L1.528,21.197C1.047,21.572,0.961,22.266,1.336,22.747C1.711,23.228,2.405,23.314,2.886,22.939L4.414,21.747L4.414,50.757C4.414,51.366,4.908,51.86,5.517,51.86L20.779,51.86C20.898,51.88,21.02,51.88,21.139,51.86L34.02,51.86C34.139,51.88,34.261,51.88,34.38,51.86L49.653,51.86C50.263,51.86,50.756,51.366,50.757,50.757L50.757,21.747L52.284,22.939C52.765,23.314,53.459,23.228,53.834,22.747C54.209,22.266,54.123,21.572,53.642,21.197L45.24,14.642C45.239,14.412,45.24,14.146,45.24,13.801C45.239,12.994,45.24,11.928,45.24,10.864C45.239,8.736,45.24,6.62,45.24,6.62C45.239,6.011,44.745,5.517,44.136,5.517L39.723,5.517C39.113,5.517,38.619,6.011,38.619,6.62C38.619,6.62,38.62,7.897,38.619,9.174C38.619,9.284,38.619,9.367,38.619,9.476L28.264,1.394C28.059,1.235,27.804,1.153,27.544,1.164ZM27.585,3.666L39.037,12.601C39.347,12.843,39.762,12.902,40.128,12.756C40.128,12.756,40.811,11.875,40.811,11.875C40.811,11.874,40.816,11.816,40.817,11.803C40.819,11.779,40.819,11.772,40.819,11.765C40.82,11.75,40.821,11.742,40.822,11.734C40.822,11.718,40.821,11.703,40.822,11.683C40.822,11.642,40.821,11.585,40.822,11.515C40.822,11.373,40.823,11.173,40.824,10.933C40.824,10.453,40.826,9.815,40.826,9.176C40.826,8.45,40.826,8.215,40.826,7.724L43.033,7.724C43.033,8.433,43.033,9.289,43.033,10.864C43.033,11.928,43.033,12.994,43.033,13.801C43.033,14.205,43.033,14.543,43.033,14.784C43.033,15.025,43.034,15.096,43.035,15.193C43.039,15.529,43.195,15.845,43.459,16.051L48.55,20.023L48.55,49.653L35.309,49.653L35.309,28.688L19.861,28.688L19.861,49.653L6.62,49.653L6.62,20.025L27.585,3.666ZM22.068,30.895L33.102,30.895L33.102,49.653L22.068,49.653L22.068,30.895ZM29.792,38.619C29.182,38.619,28.688,39.113,28.688,39.723C28.688,40.332,29.182,40.826,29.792,40.826C30.401,40.826,30.895,40.332,30.895,39.723C30.895,39.113,30.401,38.619,29.792,38.619ZM29.792,38.619"/>
</g>
  <g id="Regular-S" transform="matrix(1.0,0.0,0.0,1.0,1423.5449252929686,633.1849448242187)">  <path stroke-dasharray="none" stroke="none" stroke-width="1px" stroke-opacity="1" stroke-linejoin="miter" stroke-miterlimit="4" stroke-linecap="butt" fill="#000000" fill-rule="nonzero" fill-opacity="1" d="M27.544,1.164C27.313,1.172,27.089,1.252,26.906,1.394L1.528,21.197C1.047,21.572,0.961,22.266,1.336,22.747C1.711,23.228,2.405,23.314,2.886,22.939L4.414,21.747L4.414,50.757C4.414,51.366,4.908,51.86,5.517,51.86L20.779,51.86C20.898,51.88,21.02,51.88,21.139,51.86L34.02,51.86C34.139,51.88,34.261,51.88,34.38,51.86L49.653,51.86C50.263,51.86,50.756,51.366,50.757,50.757L50.757,21.747L52.284,22.939C52.765,23.314,53.459,23.228,53.834,22.747C54.209,22.266,54.123,21.572,53.642,21.197L45.24,14.642C45.239,14.412,45.24,14.146,45.24,13.801C45.239,12.994,45.24,11.928,45.24,10.864C45.239,8.736,45.24,6.62,45.24,6.62C45.239,6.011,44.745,5.517,44.136,5.517L39.723,5.517C39.113,5.517,38.619,6.011,38.619,6.62C38.619,6.62,38.62,7.897,38.619,9.174C38.619,9.284,38.619,9.367,38.619,9.476L28.264,1.394C28.059,1.235,27.804,1.153,27.544,1.164ZM27.585,3.666L39.037,12.601C39.347,12.843,39.762,12.902,40.128,12.756C40.128,12.756,40.811,11.875,40.811,11.875C40.811,11.874,40.816,11.816,40.817,11.803C40.819,11.779,40.819,11.772,40.819,11.765C40.82,11.75,40.821,11.742,40.822,11.734C40.822,11.718,40.821,11.703,40.822,11.683C40.822,11.642,40.821,11.585,40.822,11.515C40.822,11.373,40.823,11.173,40.824,10.933C40.824,10.453,40.826,9.815,40.826,9.176C40.826,8.45,40.826,8.215,40.826,7.724L43.033,7.724C43.033,8.433,43.033,9.289,43.033,10.864C43.033,11.928,43.033,12.994,43.033,13.801C43.033,14.205,43.033,14.543,43.033,14.784C43.033,15.025,43.034,15.096,43.035,15.193C43.039,15.529,43.195,15.845,43.459,16.051L48.55,20.023L48.55,49.653L35.309,49.653L35.309,28.688L19.861,28.688L19.861,49.653L6.62,49.653L6.62,20.025L27.585,3.666ZM22.068,30.895L33.102,30.895L33.102,49.653L22.068,49.653L22.068,30.895ZM29.792,38.619C29.182,38.619,28.688,39.113,28.688,39.723C28.688,40.332,29.182,40.826,29.792,40.826C30.401,40.826,30.895,40.332,30.895,39.723C30.895,39.113,30.401,38.619,29.792,38.619ZM29.792,38.619"/>
</g>
  <g id="Light-S" transform="matrix(1.0,0.0,0.0,1.0,1126.8349252929688,633.1849448242187)">  <path stroke="none" stroke-dasharray="none" fill-opacity="1" stroke-width="1px" stroke-linecap="butt" fill="#000000" stroke-miterlimit="4" fill-rule="nonzero" stroke-opacity="1" stroke-linejoin="miter" d="M27.544,1.164C27.313,1.172,27.089,1.252,26.906,1.394L1.528,21.197C1.047,21.572,0.961,22.266,1.336,22.747C1.711,23.228,2.405,23.314,2.886,22.939L4.414,21.747L4.414,50.757C4.414,51.366,4.908,51.86,5.517,51.86L20.779,51.86C20.898,51.88,21.02,51.88,21.139,51.86L34.02,51.86C34.139,51.88,34.261,51.88,34.38,51.86L49.653,51.86C50.263,51.86,50.756,51.366,50.757,50.757L50.757,21.747L52.284,22.939C52.765,23.314,53.459,23.228,53.834,22.747C54.209,22.266,54.123,21.572,53.642,21.197L45.24,14.642C45.239,14.412,45.24,14.146,45.24,13.801C45.239,12.994,45.24,11.928,45.24,10.864C45.239,8.736,45.24,6.62,45.24,6.62C45.239,6.011,44.745,5.517,44.136,5.517L39.723,5.517C39.113,5.517,38.619,6.011,38.619,6.62C38.619,6.62,38.62,7.897,38.619,9.174C38.619,9.284,38.619,9.367,38.619,9.476L28.264,1.394C28.059,1.235,27.804,1.153,27.544,1.164ZM27.585,3.666L39.037,12.601C39.347,12.843,39.762,12.902,40.128,12.756C40.128,12.756,40.811,11.875,40.811,11.875C40.811,11.874,40.816,11.816,40.817,11.803C40.819,11.779,40.819,11.772,40.819,11.765C40.82,11.75,40.821,11.742,40.822,11.734C40.822,11.718,40.821,11.703,40.822,11.683C40.822,11.642,40.821,11.585,40.822,11.515C40.822,11.373,40.823,11.173,40.824,10.933C40.824,10.453,40.826,9.815,40.826,9.176C40.826,8.45,40.826,8.215,40.826,7.724L43.033,7.724C43.033,8.433,43.033,9.289,43.033,10.864C43.033,11.928,43.033,12.994,43.033,13.801C43.033,14.205,43.033,14.543,43.033,14.784C43.033,15.025,43.034,15.096,43.035,15.193C43.039,15.529,43.195,15.845,43.459,16.051L48.55,20.023L48.55,49.653L35.309,49.653L35.309,28.688L19.861,28.688L19.861,49.653L6.62,49.653L6.62,20.025L27.585,3.666ZM22.068,30.895L33.102,30.895L33.102,49.653L22.068,49.653L22.068,30.895ZM29.792,38.619C29.182,38.619,28.688,39.113,28.688,39.723C28.688,40.332,29.182,40.826,29.792,40.826C30.401,40.826,30.895,40.332,30.895,39.723C30.895,39.113,30.401,38.619,29.792,38.619ZM29.792,38.619"/>
</g>
  <g id="Thin-S" transform="matrix(1.0,0.0,0.0,1.0,830.1249252929688,633.1849448242187)">  <path fill-opacity="1" stroke-opacity="1" stroke-linecap="butt" stroke="none" stroke-dasharray="none" stroke-width="1px" stroke-linejoin="miter" fill-rule="nonzero" fill="#000000" stroke-miterlimit="4" d="M27.544,1.164C27.313,1.172,27.089,1.252,26.906,1.394L1.528,21.197C1.047,21.572,0.961,22.266,1.336,22.747C1.711,23.228,2.405,23.314,2.886,22.939L4.414,21.747L4.414,50.757C4.414,51.366,4.908,51.86,5.517,51.86L20.779,51.86C20.898,51.88,21.02,51.88,21.139,51.86L34.02,51.86C34.139,51.88,34.261,51.88,34.38,51.86L49.653,51.86C50.263,51.86,50.756,51.366,50.757,50.757L50.757,21.747L52.284,22.939C52.765,23.314,53.459,23.228,53.834,22.747C54.209,22.266,54.123,21.572,53.642,21.197L45.24,14.642C45.239,14.412,45.24,14.146,45.24,13.801C45.239,12.994,45.24,11.928,45.24,10.864C45.239,8.736,45.24,6.62,45.24,6.62C45.239,6.011,44.745,5.517,44.136,5.517L39.723,5.517C39.113,5.517,38.619,6.011,38.619,6.62C38.619,6.62,38.62,7.897,38.619,9.174C38.619,9.284,38.619,9.367,38.619,9.476L28.264,1.394C28.059,1.235,27.804,1.153,27.544,1.164ZM27.585,3.666L39.037,12.601C39.347,12.843,39.762,12.902,40.128,12.756C40.128,12.756,40.811,11.875,40.811,11.875C40.811,11.874,40.816,11.816,40.817,11.803C40.819,11.779,40.819,11.772,40.819,11.765C40.82,11.75,40.821,11.742,40.822,11.734C40.822,11.718,40.821,11.703,40.822,11.683C40.822,11.642,40.821,11.585,40.822,11.515C40.822,11.373,40.823,11.173,40.824,10.933C40.824,10.453,40.826,9.815,40.826,9.176C40.826,8.45,40.826,8.215,40.826,7.724L43.033,7.724C43.033,8.433,43.033,9.289,43.033,10.864C43.033,11.928,43.033,12.994,43.033,13.801C43.033,14.205,43.033,14.543,43.033,14.784C43.033,15.025,43.034,15.096,43.035,15.193C43.039,15.529,43.195,15.845,43.459,16.051L48.55,20.023L48.55,49.653L35.309,49.653L35.309,28.688L19.861,28.688L19.861,49.653L6.62,49.653L6.62,20.025L27.585,3.666ZM22.068,30.895L33.102,30.895L33.102,49.653L22.068,49.653L22.068,30.895ZM29.792,38.619C29.182,38.619,28.688,39.113,28.688,39.723C28.688,40.332,29.182,40.826,29.792,40.826C30.401,40.826,30.895,40.332,30.895,39.723C30.895,39.113,30.401,38.619,29.792,38.619ZM29.792,38.619"/>
</g>
  <g id="Ultralight-S" transform="matrix(1.0,0.0,0.0,1.0,533.4149252929687,633.1849448242187)">  <path stroke-miterlimit="4" stroke-dasharray="none" stroke-opacity="1" stroke-linecap="butt" fill="#000000" fill-rule="nonzero" fill-opacity="1" stroke-linejoin="miter" stroke="none" stroke-width="1px" d="M27.544,1.164C27.313,1.172,27.089,1.252,26.906,1.394L1.528,21.197C1.047,21.572,0.961,22.266,1.336,22.747C1.711,23.228,2.405,23.314,2.886,22.939L4.414,21.747L4.414,50.757C4.414,51.366,4.908,51.86,5.517,51.86L20.779,51.86C20.898,51.88,21.02,51.88,21.139,51.86L34.02,51.86C34.139,51.88,34.261,51.88,34.38,51.86L49.653,51.86C50.263,51.86,50.756,51.366,50.757,50.757L50.757,21.747L52.284,22.939C52.765,23.314,53.459,23.228,53.834,22.747C54.209,22.266,54.123,21.572,53.642,21.197L45.24,14.642C45.239,14.412,45.24,14.146,45.24,13.801C45.239,12.994,45.24,11.928,45.24,10.864C45.239,8.736,45.24,6.62,45.24,6.62C45.239,6.011,44.745,5.517,44.136,5.517L39.723,5.517C39.113,5.517,38.619,6.011,38.619,6.62C38.619,6.62,38.62,7.897,38.619,9.174C38.619,9.284,38.619,9.367,38.619,9.476L28.264,1.394C28.059,1.235,27.804,1.153,27.544,1.164ZM27.585,3.666L39.037,12.601C39.347,12.843,39.762,12.902,40.128,12.756C40.128,12.756,40.811,11.875,40.811,11.875C40.811,11.874,40.816,11.816,40.817,11.803C40.819,11.779,40.819,11.772,40.819,11.765C40.82,11.75,40.821,11.742,40.822,11.734C40.822,11.718,40.821,11.703,40.822,11.683C40.822,11.642,40.821,11.585,40.822,11.515C40.822,11.373,40.823,11.173,40.824,10.933C40.824,10.453,40.826,9.815,40.826,9.176C40.826,8.45,40.826,8.215,40.826,7.724L43.033,7.724C43.033,8.433,43.033,9.289,43.033,10.864C43.033,11.928,43.033,12.994,43.033,13.801C43.033,14.205,43.033,14.543,43.033,14.784C43.033,15.025,43.034,15.096,43.035,15.193C43.039,15.529,43.195,15.845,43.459,16.051L48.55,20.023L48.55,49.653L35.309,49.653L35.309,28.688L19.861,28.688L19.861,49.653L6.62,49.653L6.62,20.025L27.585,3.666ZM22.068,30.895L33.102,30.895L33.102,49.653L22.068,49.653L22.068,30.895ZM29.792,38.619C29.182,38.619,28.688,39.113,28.688,39.723C28.688,40.332,29.182,40.826,29.792,40.826C30.401,40.826,30.895,40.332,30.895,39.723C30.895,39.113,30.401,38.619,29.792,38.619ZM29.792,38.619"/>
</g>
 </g>
</svg>
