<?xml version="1.0" encoding="UTF-8"?>
<!-- Generator: CustomSymbols v2.6.2.41 by @serious_bret https://bretlester.com/app_content/CustomSymbols/ -->
<!-- Guides: Left/Right 0.0/0.0 Cap/Base 0.0/0.0 -->
<!-- Settings: RefScale 1.0 Min/Max Stroke Scales 0.5/2.21 -->
<!DOCTYPE svg
PUBLIC "-//W3C//DTD SVG 1.1//EN"
       "http://www.w3.org/Graphics/SVG/1.1/DTD/svg11.dtd">
<svg version="1.1" xmlns="http://www.w3.org/2000/svg" xmlns:xlink="http://www.w3.org/1999/xlink" width="3300" height="2200">
<![CDATA[<svg fill="#000000" xmlns="http://www.w3.org/2000/svg"  viewBox="0 0 50 50" width="50px" height="50px"><path d="M 0.8125 0 C 0.335938 0.0898438 -0.0078125 0.511719 0 1 L 0 13 C 0 13.550781 0.449219 14 1 14 L 13 14 C 13.550781 14 14 13.550781 14 13 L 14 1 C 14 0.449219 13.550781 0 13 0 L 1 0 C 0.96875 0 0.9375 0 0.90625 0 C 0.875 0 0.84375 0 0.8125 0 Z M 2 2 L 12 2 L 12 12 L 2 12 Z M 10.25 3.34375 L 6.40625 7.625 L 3.65625 5.25 L 2.34375 6.75 L 5.84375 9.75 L 6.59375 10.40625 L 7.25 9.65625 L 11.75 4.65625 Z M 20 6.03125 L 20 7.96875 L 50 7.96875 L 50 6.03125 Z M 0.8125 18 C 0.335938 18.089844 -0.0078125 18.511719 0 19 L 0 31 C 0 31.550781 0.449219 32 1 32 L 13 32 C 13.550781 32 14 31.550781 14 31 L 14 19 C 14 18.449219 13.550781 18 13 18 L 1 18 C 0.96875 18 0.9375 18 0.90625 18 C 0.875 18 0.84375 18 0.8125 18 Z M 2 20 L 12 20 L 12 30 L 2 30 Z M 10.25 21.34375 L 6.40625 25.625 L 3.65625 23.25 L 2.34375 24.75 L 5.84375 27.75 L 6.59375 28.40625 L 7.25 27.65625 L 11.75 22.65625 Z M 20 24.03125 L 20 25.96875 L 50 25.96875 L 50 24.03125 Z M 0.8125 36 C 0.335938 36.089844 -0.0078125 36.511719 0 37 L 0 49 C 0 49.550781 0.449219 50 1 50 L 13 50 C 13.550781 50 14 49.550781 14 49 L 14 37 C 14 36.449219 13.550781 36 13 36 L 1 36 C 0.96875 36 0.9375 36 0.90625 36 C 0.875 36 0.84375 36 0.8125 36 Z M 2 38 L 12 38 L 12 48 L 2 48 Z M 20 42.03125 L 20 43.96875 L 50 43.96875 L 50 42.03125 Z"/></svg>]]>
 <g id="Notes">
  <rect height="2200" id="artboard" style="fill:white;opacity:1" width="3300" x="0" y="0"/>
  <line id="" style="fill:none;stroke:black;opacity:1;stroke-width:0.5;" x1="263" x2="3036" y1="292" y2="292"/>
  <text id="reftext1" style="stroke:none;fill:black;font-family:-apple-system,&quot;SF Pro Display&quot;,&quot;SF Pro Text&quot;,Helvetica,sans-serif;font-weight:bold;" transform="matrix(1 0 0 1 263 322)">Weight/Scale Variations</text>
  <text id="reftext2" style="stroke:none;fill:black;font-family:-apple-system,&quot;SF Pro Display&quot;,&quot;SF Pro Text&quot;,Helvetica,sans-serif;text-anchor:middle;" transform="matrix(1 0 0 1 559.711 322)">Ultralight</text>
  <text style="stroke:none;fill:black;font-family:-apple-system,&quot;SF Pro Display&quot;,&quot;SF Pro Text&quot;,Helvetica,sans-serif;text-anchor:middle;" transform="matrix(1 0 0 1 856.422 322)">Thin</text>
  <text style="stroke:none;fill:black;font-family:-apple-system,&quot;SF Pro Display&quot;,&quot;SF Pro Text&quot;,Helvetica,sans-serif;text-anchor:middle;" transform="matrix(1 0 0 1 1153.13 322)">Light</text>
  <text style="stroke:none;fill:black;font-family:-apple-system,&quot;SF Pro Display&quot;,&quot;SF Pro Text&quot;,Helvetica,sans-serif;text-anchor:middle;" transform="matrix(1 0 0 1 1449.84 322)">Regular</text>
  <text style="stroke:none;fill:black;font-family:-apple-system,&quot;SF Pro Display&quot;,&quot;SF Pro Text&quot;,Helvetica,sans-serif;text-anchor:middle;" transform="matrix(1 0 0 1 1746.56 322)">Medium</text>
  <text style="stroke:none;fill:black;font-family:-apple-system,&quot;SF Pro Display&quot;,&quot;SF Pro Text&quot;,Helvetica,sans-serif;text-anchor:middle;" transform="matrix(1 0 0 1 2043.27 322)">Semibold</text>
  <text style="stroke:none;fill:black;font-family:-apple-system,&quot;SF Pro Display&quot;,&quot;SF Pro Text&quot;,Helvetica,sans-serif;text-anchor:middle;" transform="matrix(1 0 0 1 2339.98 322)">Bold</text>
  <text style="stroke:none;fill:black;font-family:-apple-system,&quot;SF Pro Display&quot;,&quot;SF Pro Text&quot;,Helvetica,sans-serif;text-anchor:middle;" transform="matrix(1 0 0 1 2636.69 322)">Heavy</text>
  <text style="stroke:none;fill:black;font-family:-apple-system,&quot;SF Pro Display&quot;,&quot;SF Pro Text&quot;,Helvetica,sans-serif;text-anchor:middle;" transform="matrix(1 0 0 1 2933.4 322)">Black</text>
  <line id="" style="fill:none;stroke:black;opacity:1;stroke-width:0.5;" x1="263" x2="3036" y1="1903" y2="1903"/>
  <g id="" transform="matrix(1 0 0 1 263 1933)">
   <path d="M9.24805 0.830078C13.5547 0.830078 17.1387-2.74414 17.1387-7.05078C17.1387-11.3574 13.5449-14.9316 9.23828-14.9316C4.94141-14.9316 1.36719-11.3574 1.36719-7.05078C1.36719-2.74414 4.95117 0.830078 9.24805 0.830078ZM9.24805-0.654297C5.70312-0.654297 2.87109-3.49609 2.87109-7.05078C2.87109-10.6055 5.69336-13.4473 9.23828-13.4473C12.793-13.4473 15.6348-10.6055 15.6445-7.05078C15.6543-3.49609 12.8027-0.654297 9.24805-0.654297ZM6.39648-6.31836L8.50586-6.31836L8.50586-4.19922C8.50586-3.75977 8.79883-3.45703 9.22852-3.45703C9.67773-3.45703 9.9707-3.75977 9.9707-4.19922L9.9707-6.31836L12.0996-6.31836C12.5391-6.31836 12.8418-6.61133 12.8418-7.04102C12.8418-7.48047 12.5391-7.7832 12.0996-7.7832L9.9707-7.7832L9.9707-9.89258C9.9707-10.3418 9.67773-10.6445 9.22852-10.6445C8.79883-10.6445 8.50586-10.3418 8.50586-9.89258L8.50586-7.7832L6.39648-7.7832C5.94727-7.7832 5.64453-7.48047 5.64453-7.04102C5.64453-6.61133 5.94727-6.31836 6.39648-6.31836Z"/>
  </g>
  <g id="" transform="matrix(1 0 0 1 281.506 1933)">
   <path d="M11.709 2.91016C17.1582 2.91016 21.6699-1.61133 21.6699-7.05078C21.6699-12.5 17.1484-17.0117 11.6992-17.0117C6.25977-17.0117 1.74805-12.5 1.74805-7.05078C1.74805-1.61133 6.26953 2.91016 11.709 2.91016ZM11.709 1.25C7.09961 1.25 3.41797-2.44141 3.41797-7.05078C3.41797-11.6602 7.08984-15.3516 11.6992-15.3516C16.3086-15.3516 20-11.6602 20.0098-7.05078C20.0195-2.44141 16.3184 1.25 11.709 1.25ZM7.98828-6.23047L10.8789-6.23047L10.8789-3.32031C10.8789-2.83203 11.2109-2.5 11.6895-2.5C12.1777-2.5 12.5195-2.83203 12.5195-3.32031L12.5195-6.23047L15.4297-6.23047C15.918-6.23047 16.25-6.5625 16.25-7.04102C16.25-7.5293 15.918-7.87109 15.4297-7.87109L12.5195-7.87109L12.5195-10.7617C12.5195-11.2695 12.1777-11.6016 11.6895-11.6016C11.2109-11.6016 10.8789-11.2598 10.8789-10.7617L10.8789-7.87109L7.98828-7.87109C7.48047-7.87109 7.14844-7.5293 7.14844-7.04102C7.14844-6.5625 7.49023-6.23047 7.98828-6.23047Z"/>
  </g>
  <g id="" transform="matrix(1 0 0 1 304.924 1933)">
   <path d="M14.9707 5.66406C21.9336 5.66406 27.6953-0.0976562 27.6953-7.05078C27.6953-14.0137 21.9238-19.7754 14.9609-19.7754C8.00781-19.7754 2.25586-14.0137 2.25586-7.05078C2.25586-0.0976562 8.01758 5.66406 14.9707 5.66406ZM14.9707 3.84766C8.93555 3.84766 4.08203-1.01562 4.08203-7.05078C4.08203-13.0957 8.92578-17.9492 14.9609-17.9492C21.0059-17.9492 25.8594-13.0957 25.8691-7.05078C25.8789-1.01562 21.0156 3.84766 14.9707 3.84766ZM10.0586-6.14258L14.0625-6.14258L14.0625-2.12891C14.0625-1.5918 14.4336-1.2207 14.9512-1.2207C15.4883-1.2207 15.8594-1.5918 15.8594-2.12891L15.8594-6.14258L19.8828-6.14258C20.4102-6.14258 20.791-6.51367 20.791-7.03125C20.791-7.56836 20.4199-7.94922 19.8828-7.94922L15.8594-7.94922L15.8594-11.9531C15.8594-12.5098 15.4883-12.8809 14.9512-12.8809C14.4336-12.8809 14.0625-12.5 14.0625-11.9531L14.0625-7.94922L10.0586-7.94922C9.50195-7.94922 9.13086-7.56836 9.13086-7.03125C9.13086-6.51367 9.51172-6.14258 10.0586-6.14258Z"/>
  </g>
  <text style="stroke:none;fill:black;font-family:-apple-system,&quot;SF Pro Display&quot;,&quot;SF Pro Text&quot;,Helvetica,sans-serif;font-weight:bold;" transform="matrix(1 0 0 1 263 1953)">Design Variations</text>
  <text style="stroke:none;fill:black;font-family:-apple-system,&quot;SF Pro Display&quot;,&quot;SF Pro Text&quot;,Helvetica,sans-serif;" transform="matrix(1 0 0 1 263 1971)">Symbols are supported in up to nine weights and three scales.</text>
  <text style="stroke:none;fill:black;font-family:-apple-system,&quot;SF Pro Display&quot;,&quot;SF Pro Text&quot;,Helvetica,sans-serif;" transform="matrix(1 0 0 1 263 1989)">For optimal layout with text and other symbols, vertically align</text>
  <text style="stroke:none;fill:black;font-family:-apple-system,&quot;SF Pro Display&quot;,&quot;SF Pro Text&quot;,Helvetica,sans-serif;" transform="matrix(1 0 0 1 263 2007)">symbols with the adjacent text.</text>
  <line id="" style="fill:none;stroke:#00AEEF;stroke-width:0.5;opacity:1.0;" x1="776" x2="776" y1="1919" y2="1933"/>
  <g id="" transform="matrix(1 0 0 1 776 1933)">
   <path d="M3.31055 0.126953C3.82812 0.126953 4.08203-0.0683594 4.26758-0.605469L5.52734-4.0625L11.2891-4.0625L12.5488-0.605469C12.7344-0.0683594 12.9883 0.126953 13.4961 0.126953C14.0137 0.126953 14.3457-0.185547 14.3457-0.673828C14.3457-0.839844 14.3164-0.986328 14.2383-1.20117L9.6582-13.3887C9.43359-13.9941 9.0332-14.2871 8.4082-14.2871C7.80273-14.2871 7.39258-13.9941 7.17773-13.3984L2.59766-1.19141C2.51953-0.976562 2.49023-0.830078 2.49023-0.664062C2.49023-0.175781 2.80273 0.126953 3.31055 0.126953ZM6.00586-5.53711L8.37891-12.1094L8.42773-12.1094L10.8008-5.53711Z"/>
  </g>
  <line id="" style="fill:none;stroke:#00AEEF;stroke-width:0.5;opacity:1.0;" x1="792.836" x2="792.836" y1="1919" y2="1933"/>
  <text style="stroke:none;fill:black;font-family:-apple-system,&quot;SF Pro Display&quot;,&quot;SF Pro Text&quot;,Helvetica,sans-serif;font-weight:bold;" transform="matrix(1 0 0 1 776 1953)">Margins</text>
  <text style="stroke:none;fill:black;font-family:-apple-system,&quot;SF Pro Display&quot;,&quot;SF Pro Text&quot;,Helvetica,sans-serif;" transform="matrix(1 0 0 1 776 1971)">Leading and trailing margins on the left and right side of each symbol</text>
  <text style="stroke:none;fill:black;font-family:-apple-system,&quot;SF Pro Display&quot;,&quot;SF Pro Text&quot;,Helvetica,sans-serif;" transform="matrix(1 0 0 1 776 1989)">can be adjusted by modifying the x-location of the margin guidelines.</text>
  <text style="stroke:none;fill:black;font-family:-apple-system,&quot;SF Pro Display&quot;,&quot;SF Pro Text&quot;,Helvetica,sans-serif;" transform="matrix(1 0 0 1 776 2007)">Modifications are automatically applied proportionally to all</text>
  <text style="stroke:none;fill:black;font-family:-apple-system,&quot;SF Pro Display&quot;,&quot;SF Pro Text&quot;,Helvetica,sans-serif;" transform="matrix(1 0 0 1 776 2025)">scales and weights.</text>
  <g id="" transform="matrix(1 0 0 1 1289 1933)">
   <path d="M2.8418 1.86523L4.54102 3.57422C5.40039 4.44336 6.38672 4.38477 7.31445 3.35938L17.4902-7.85156C17.7539-7.76367 18.0273-7.7832 18.3398-7.8418L19.4043-8.03711L20.0684-7.36328L20.0293-6.80664C19.9902-6.30859 20.1172-5.92773 20.6055-5.44922L21.3672-4.70703C21.8457-4.22852 22.4609-4.19922 22.9297-4.66797L25.8398-7.58789C26.3086-8.05664 26.2891-8.65234 25.8105-9.13086L25.0391-9.89258C24.5605-10.3711 24.1895-10.5273 23.7109-10.4883L23.1348-10.4395L22.4902-11.0742L22.7344-12.1973C22.8613-12.7637 22.7051-13.2031 22.1191-13.7891L19.9219-15.9766C16.582-19.2969 12.1484-19.2188 9.25781-16.3281C8.83789-15.918 8.80859-15.3418 9.04297-14.9512C9.27734-14.5898 9.73633-14.3555 10.3809-14.5215C11.8457-14.8633 13.3691-14.9219 14.7949-13.9844L14.209-12.5293C14.0137-12.0508 13.9844-11.6504 14.1113-11.2891L3.04688-0.898438C2.06055 0.0195312 1.98242 0.996094 2.8418 1.86523ZM10.752-15.957C13.1836-17.7344 16.4746-17.4316 18.7012-15.2051L21.1328-12.793C21.3672-12.5586 21.4062-12.373 21.3379-12.0312L21.0156-10.5469L22.5195-9.0625L23.5059-9.12109C23.7598-9.13086 23.8379-9.11133 24.0332-8.91602L24.6094-8.33984L22.168-5.89844L21.5918-6.47461C21.3965-6.66992 21.3672-6.74805 21.377-7.01172L21.4453-7.98828L19.9512-9.47266L18.4277-9.21875C18.1055-9.15039 17.959-9.17969 17.7148-9.41406L15.7129-11.416C15.459-11.6504 15.4297-11.8164 15.5859-12.1875L16.4648-14.2773C14.9023-15.7324 12.8711-16.3574 10.8398-15.7617C10.6836-15.7227 10.625-15.8496 10.752-15.957ZM5.27344 2.30469L4.10156 1.14258C3.63281 0.683594 3.74023 0.341797 4.14062-0.0195312L14.9512-10.1953L16.416-8.71094L6.42578 2.27539C6.07422 2.67578 5.74219 2.77344 5.27344 2.30469Z"/>
  </g>
  <text style="stroke:none;fill:black;font-family:-apple-system,&quot;SF Pro Display&quot;,&quot;SF Pro Text&quot;,Helvetica,sans-serif;font-weight:bold;" transform="matrix(1 0 0 1 1289 1953)">Exporting</text>
  <text style="stroke:none;fill:black;font-family:-apple-system,&quot;SF Pro Display&quot;,&quot;SF Pro Text&quot;,Helvetica,sans-serif;" transform="matrix(1 0 0 1 1289 1971)">Symbols should be outlined when exporting to ensure the</text>
  <text style="stroke:none;fill:black;font-family:-apple-system,&quot;SF Pro Display&quot;,&quot;SF Pro Text&quot;,Helvetica,sans-serif;" transform="matrix(1 0 0 1 1289 1989)">design is preserved when submitting to Xcode.</text>
  <text id="template-version" style="stroke:none;fill:black;font-family:-apple-system,&quot;SF Pro Display&quot;,&quot;SF Pro Text&quot;,Helvetica,sans-serif;text-anchor:end;" transform="matrix(1 0 0 1 3036 1933)">Template v.2.0</text>
  <text style="stroke:none;fill:black;font-family:-apple-system,&quot;SF Pro Display&quot;,&quot;SF Pro Text&quot;,Helvetica,sans-serif;text-anchor:end;" transform="matrix(1 0 0 1 3036 1951)">Requires Xcode 12 or greater</text>
  <text style="stroke:none;fill:black;font-family:-apple-system,&quot;SF Pro Display&quot;,&quot;SF Pro Text&quot;,Helvetica,sans-serif;" transform="matrix(1 0 0 1 263 726)">Small</text>
  <text style="stroke:none;fill:black;font-family:-apple-system,&quot;SF Pro Display&quot;,&quot;SF Pro Text&quot;,Helvetica,sans-serif;" transform="matrix(1 0 0 1 263 1156)">Medium</text>
  <text style="stroke:none;fill:black;font-family:-apple-system,&quot;SF Pro Display&quot;,&quot;SF Pro Text&quot;,Helvetica,sans-serif;" transform="matrix(1 0 0 1 263 1586)">Large</text>
 </g>
 <g id="Guides">
  <g id="H-reference" style="fill:#27AAE1;stroke:none;" transform="matrix(1 0 0 1 339 696)">
   <path d="M0.976562 0L3.66211 0L12.9883-24.4629L45.752-24.4629L55.127 0L57.7637 0L30.6152-70.459L28.125-70.459ZM29.3457-67.1387L29.4434-67.1387L44.873-26.709L13.8672-26.709Z"/>
  </g>
  <line id="Baseline-S" style="fill:none;stroke:#27AAE1;opacity:1;stroke-width:0.5;" x1="263" x2="3036" y1="696" y2="696"/>
  <line id="Capline-S" style="fill:none;stroke:#27AAE1;opacity:1;stroke-width:0.5;" x1="263" x2="3036" y1="625.541" y2="625.541"/>
  <g id="H-reference" style="fill:#27AAE1;stroke:none;" transform="matrix(1 0 0 1 339 1126)">
   <path d="M0.976562 0L3.66211 0L12.9883-24.4629L45.752-24.4629L55.127 0L57.7637 0L30.6152-70.459L28.125-70.459ZM29.3457-67.1387L29.4434-67.1387L44.873-26.709L13.8672-26.709Z"/>
  </g>
  <line id="Baseline-M" style="fill:none;stroke:#27AAE1;opacity:1;stroke-width:0.5;" x1="263" x2="3036" y1="1126" y2="1126"/>
  <line id="Capline-M" style="fill:none;stroke:#27AAE1;opacity:1;stroke-width:0.5;" x1="263" x2="3036" y1="1055.54" y2="1055.54"/>
  <g id="H-reference" style="fill:#27AAE1;stroke:none;" transform="matrix(1 0 0 1 339 1556)">
   <path d="M0.976562 0L3.66211 0L12.9883-24.4629L45.752-24.4629L55.127 0L57.7637 0L30.6152-70.459L28.125-70.459ZM29.3457-67.1387L29.4434-67.1387L44.873-26.709L13.8672-26.709Z"/>
  </g>
  <line id="Baseline-L" style="fill:none;stroke:#27AAE1;opacity:1;stroke-width:0.5;" x1="263" x2="3036" y1="1556" y2="1556"/>
  <line id="Capline-L" style="fill:none;stroke:#27AAE1;opacity:1;stroke-width:0.5;" x1="263" x2="3036" y1="1485.54" y2="1485.54"/>
  <line id="left-margin" x1="1415.9000195312499" x2="1415.9000195312499" y1="1030.79" y2="1150.12" style="fill:none;stroke:#00AEEF;stroke-width:0.5;opacity:1.0;"/>
  <line id="right-margin" x1="1486.3599804687499" x2="1486.3599804687499" y1="1030.79" y2="1150.12" style="fill:none;stroke:#00AEEF;stroke-width:0.5;opacity:1.0;"/>
 </g>
 <g id="Symbols">
  <g id="Black-L" transform="matrix(1.0,0.0,0.0,1.0,2889.2333251953123,1475.3233447265625)">  <path fill-opacity="1" stroke-linejoin="miter" stroke-opacity="1" stroke-miterlimit="4" stroke-dasharray="none" stroke-linecap="butt" fill-rule="nonzero" fill="#000000" stroke-width="1px" stroke="none" d="M1.477,0C0.611,0.163,-0.014,0.93,0,1.818L0,23.632C0,24.634,0.817,25.45,1.818,25.45L23.632,25.45C24.634,25.45,25.45,24.634,25.45,23.632L25.45,1.818C25.45,0.817,24.634,0,23.632,0L1.818,0C1.761,0,1.704,0,1.647,0C1.591,0,1.534,0,1.477,0ZM3.636,3.636L21.814,3.636L21.814,21.814L3.636,21.814ZM18.633,6.078L11.646,13.861L6.647,9.544L4.261,12.271L10.623,17.724L11.987,18.917L13.18,17.554L21.36,8.464ZM36.357,10.964L36.357,14.486L90.893,14.486L90.893,10.964ZM1.477,32.722C0.611,32.885,-0.014,33.652,0,34.539L0,56.354C0,57.355,0.817,58.172,1.818,58.172L23.632,58.172C24.634,58.172,25.45,57.355,25.45,56.354L25.45,34.539C25.45,33.538,24.634,32.722,23.632,32.722L1.818,32.722C1.761,32.722,1.704,32.722,1.647,32.722C1.591,32.722,1.534,32.722,1.477,32.722ZM3.636,36.357L21.814,36.357L21.814,54.536L3.636,54.536ZM18.633,38.8L11.646,46.583L6.647,42.265L4.261,44.992L10.623,50.446L11.987,51.639L13.18,50.275L21.36,41.186ZM36.357,43.686L36.357,47.208L90.893,47.208L90.893,43.686ZM1.477,65.443C0.611,65.607,-0.014,66.373,0,67.261L0,89.075C0,90.077,0.817,90.893,1.818,90.893L23.632,90.893C24.634,90.893,25.45,90.077,25.45,89.075L25.45,67.261C25.45,66.26,24.634,65.443,23.632,65.443L1.818,65.443C1.761,65.443,1.704,65.443,1.647,65.443C1.591,65.443,1.534,65.443,1.477,65.443ZM3.636,69.079L21.814,69.079L21.814,87.258L3.636,87.258ZM36.357,76.407L36.357,79.929L90.893,79.929L90.893,76.407ZM36.357,76.407"/>
</g>
  <g id="Heavy-L" transform="matrix(1.0,0.0,0.0,1.0,2592.5233251953123,1475.3233447265625)">  <path fill-rule="nonzero" fill-opacity="1" fill="#000000" stroke="none" stroke-dasharray="none" stroke-width="1px" stroke-opacity="1" stroke-linejoin="miter" stroke-linecap="butt" stroke-miterlimit="4" d="M1.477,0C0.611,0.163,-0.014,0.93,0,1.818L0,23.632C0,24.634,0.817,25.45,1.818,25.45L23.632,25.45C24.634,25.45,25.45,24.634,25.45,23.632L25.45,1.818C25.45,0.817,24.634,0,23.632,0L1.818,0C1.761,0,1.704,0,1.647,0C1.591,0,1.534,0,1.477,0ZM3.636,3.636L21.814,3.636L21.814,21.814L3.636,21.814ZM18.633,6.078L11.646,13.861L6.647,9.544L4.261,12.271L10.623,17.724L11.987,18.917L13.18,17.554L21.36,8.464ZM36.357,10.964L36.357,14.486L90.893,14.486L90.893,10.964ZM1.477,32.722C0.611,32.885,-0.014,33.652,0,34.539L0,56.354C0,57.355,0.817,58.172,1.818,58.172L23.632,58.172C24.634,58.172,25.45,57.355,25.45,56.354L25.45,34.539C25.45,33.538,24.634,32.722,23.632,32.722L1.818,32.722C1.761,32.722,1.704,32.722,1.647,32.722C1.591,32.722,1.534,32.722,1.477,32.722ZM3.636,36.357L21.814,36.357L21.814,54.536L3.636,54.536ZM18.633,38.8L11.646,46.583L6.647,42.265L4.261,44.992L10.623,50.446L11.987,51.639L13.18,50.275L21.36,41.186ZM36.357,43.686L36.357,47.208L90.893,47.208L90.893,43.686ZM1.477,65.443C0.611,65.607,-0.014,66.373,0,67.261L0,89.075C0,90.077,0.817,90.893,1.818,90.893L23.632,90.893C24.634,90.893,25.45,90.077,25.45,89.075L25.45,67.261C25.45,66.26,24.634,65.443,23.632,65.443L1.818,65.443C1.761,65.443,1.704,65.443,1.647,65.443C1.591,65.443,1.534,65.443,1.477,65.443ZM3.636,69.079L21.814,69.079L21.814,87.258L3.636,87.258ZM36.357,76.407L36.357,79.929L90.893,79.929L90.893,76.407ZM36.357,76.407"/>
</g>
  <g id="Bold-L" transform="matrix(1.0,0.0,0.0,1.0,2295.8133251953122,1475.3233447265625)">  <path stroke-opacity="1" stroke-width="1px" stroke="none" stroke-linejoin="miter" stroke-miterlimit="4" fill="#000000" fill-rule="nonzero" stroke-dasharray="none" fill-opacity="1" stroke-linecap="butt" d="M1.477,0C0.611,0.163,-0.014,0.93,0,1.818L0,23.632C0,24.634,0.817,25.45,1.818,25.45L23.632,25.45C24.634,25.45,25.45,24.634,25.45,23.632L25.45,1.818C25.45,0.817,24.634,0,23.632,0L1.818,0C1.761,0,1.704,0,1.647,0C1.591,0,1.534,0,1.477,0ZM3.636,3.636L21.814,3.636L21.814,21.814L3.636,21.814ZM18.633,6.078L11.646,13.861L6.647,9.544L4.261,12.271L10.623,17.724L11.987,18.917L13.18,17.554L21.36,8.464ZM36.357,10.964L36.357,14.486L90.893,14.486L90.893,10.964ZM1.477,32.722C0.611,32.885,-0.014,33.652,0,34.539L0,56.354C0,57.355,0.817,58.172,1.818,58.172L23.632,58.172C24.634,58.172,25.45,57.355,25.45,56.354L25.45,34.539C25.45,33.538,24.634,32.722,23.632,32.722L1.818,32.722C1.761,32.722,1.704,32.722,1.647,32.722C1.591,32.722,1.534,32.722,1.477,32.722ZM3.636,36.357L21.814,36.357L21.814,54.536L3.636,54.536ZM18.633,38.8L11.646,46.583L6.647,42.265L4.261,44.992L10.623,50.446L11.987,51.639L13.18,50.275L21.36,41.186ZM36.357,43.686L36.357,47.208L90.893,47.208L90.893,43.686ZM1.477,65.443C0.611,65.607,-0.014,66.373,0,67.261L0,89.075C0,90.077,0.817,90.893,1.818,90.893L23.632,90.893C24.634,90.893,25.45,90.077,25.45,89.075L25.45,67.261C25.45,66.26,24.634,65.443,23.632,65.443L1.818,65.443C1.761,65.443,1.704,65.443,1.647,65.443C1.591,65.443,1.534,65.443,1.477,65.443ZM3.636,69.079L21.814,69.079L21.814,87.258L3.636,87.258ZM36.357,76.407L36.357,79.929L90.893,79.929L90.893,76.407ZM36.357,76.407"/>
</g>
  <g id="Semibold-L" transform="matrix(1.0,0.0,0.0,1.0,1999.1033251953124,1475.3233447265625)">  <path stroke-miterlimit="4" fill-opacity="1" stroke-dasharray="none" fill="#000000" fill-rule="nonzero" stroke-linecap="butt" stroke-opacity="1" stroke="none" stroke-width="1px" stroke-linejoin="miter" d="M1.477,0C0.611,0.163,-0.014,0.93,0,1.818L0,23.632C0,24.634,0.817,25.45,1.818,25.45L23.632,25.45C24.634,25.45,25.45,24.634,25.45,23.632L25.45,1.818C25.45,0.817,24.634,0,23.632,0L1.818,0C1.761,0,1.704,0,1.647,0C1.591,0,1.534,0,1.477,0ZM3.636,3.636L21.814,3.636L21.814,21.814L3.636,21.814ZM18.633,6.078L11.646,13.861L6.647,9.544L4.261,12.271L10.623,17.724L11.987,18.917L13.18,17.554L21.36,8.464ZM36.357,10.964L36.357,14.486L90.893,14.486L90.893,10.964ZM1.477,32.722C0.611,32.885,-0.014,33.652,0,34.539L0,56.354C0,57.355,0.817,58.172,1.818,58.172L23.632,58.172C24.634,58.172,25.45,57.355,25.45,56.354L25.45,34.539C25.45,33.538,24.634,32.722,23.632,32.722L1.818,32.722C1.761,32.722,1.704,32.722,1.647,32.722C1.591,32.722,1.534,32.722,1.477,32.722ZM3.636,36.357L21.814,36.357L21.814,54.536L3.636,54.536ZM18.633,38.8L11.646,46.583L6.647,42.265L4.261,44.992L10.623,50.446L11.987,51.639L13.18,50.275L21.36,41.186ZM36.357,43.686L36.357,47.208L90.893,47.208L90.893,43.686ZM1.477,65.443C0.611,65.607,-0.014,66.373,0,67.261L0,89.075C0,90.077,0.817,90.893,1.818,90.893L23.632,90.893C24.634,90.893,25.45,90.077,25.45,89.075L25.45,67.261C25.45,66.26,24.634,65.443,23.632,65.443L1.818,65.443C1.761,65.443,1.704,65.443,1.647,65.443C1.591,65.443,1.534,65.443,1.477,65.443ZM3.636,69.079L21.814,69.079L21.814,87.258L3.636,87.258ZM36.357,76.407L36.357,79.929L90.893,79.929L90.893,76.407ZM36.357,76.407"/>
</g>
  <g id="Medium-L" transform="matrix(1.0,0.0,0.0,1.0,1702.3933251953124,1475.3233447265625)">  <path stroke-linejoin="miter" fill-rule="nonzero" stroke-miterlimit="4" fill="#000000" stroke="none" stroke-linecap="butt" stroke-dasharray="none" fill-opacity="1" stroke-width="1px" stroke-opacity="1" d="M1.477,0C0.611,0.163,-0.014,0.93,0,1.818L0,23.632C0,24.634,0.817,25.45,1.818,25.45L23.632,25.45C24.634,25.45,25.45,24.634,25.45,23.632L25.45,1.818C25.45,0.817,24.634,0,23.632,0L1.818,0C1.761,0,1.704,0,1.647,0C1.591,0,1.534,0,1.477,0ZM3.636,3.636L21.814,3.636L21.814,21.814L3.636,21.814ZM18.633,6.078L11.646,13.861L6.647,9.544L4.261,12.271L10.623,17.724L11.987,18.917L13.18,17.554L21.36,8.464ZM36.357,10.964L36.357,14.486L90.893,14.486L90.893,10.964ZM1.477,32.722C0.611,32.885,-0.014,33.652,0,34.539L0,56.354C0,57.355,0.817,58.172,1.818,58.172L23.632,58.172C24.634,58.172,25.45,57.355,25.45,56.354L25.45,34.539C25.45,33.538,24.634,32.722,23.632,32.722L1.818,32.722C1.761,32.722,1.704,32.722,1.647,32.722C1.591,32.722,1.534,32.722,1.477,32.722ZM3.636,36.357L21.814,36.357L21.814,54.536L3.636,54.536ZM18.633,38.8L11.646,46.583L6.647,42.265L4.261,44.992L10.623,50.446L11.987,51.639L13.18,50.275L21.36,41.186ZM36.357,43.686L36.357,47.208L90.893,47.208L90.893,43.686ZM1.477,65.443C0.611,65.607,-0.014,66.373,0,67.261L0,89.075C0,90.077,0.817,90.893,1.818,90.893L23.632,90.893C24.634,90.893,25.45,90.077,25.45,89.075L25.45,67.261C25.45,66.26,24.634,65.443,23.632,65.443L1.818,65.443C1.761,65.443,1.704,65.443,1.647,65.443C1.591,65.443,1.534,65.443,1.477,65.443ZM3.636,69.079L21.814,69.079L21.814,87.258L3.636,87.258ZM36.357,76.407L36.357,79.929L90.893,79.929L90.893,76.407ZM36.357,76.407"/>
</g>
  <g id="Regular-L" transform="matrix(1.0,0.0,0.0,1.0,1405.6833251953124,1475.3233447265625)">  <path fill="#000000" stroke-linejoin="miter" stroke-linecap="butt" stroke-opacity="1" fill-opacity="1" stroke-width="1px" stroke-miterlimit="4" stroke="none" fill-rule="nonzero" stroke-dasharray="none" d="M1.477,0C0.611,0.163,-0.014,0.93,0,1.818L0,23.632C0,24.634,0.817,25.45,1.818,25.45L23.632,25.45C24.634,25.45,25.45,24.634,25.45,23.632L25.45,1.818C25.45,0.817,24.634,0,23.632,0L1.818,0C1.761,0,1.704,0,1.647,0C1.591,0,1.534,0,1.477,0ZM3.636,3.636L21.814,3.636L21.814,21.814L3.636,21.814ZM18.633,6.078L11.646,13.861L6.647,9.544L4.261,12.271L10.623,17.724L11.987,18.917L13.18,17.554L21.36,8.464ZM36.357,10.964L36.357,14.486L90.893,14.486L90.893,10.964ZM1.477,32.722C0.611,32.885,-0.014,33.652,0,34.539L0,56.354C0,57.355,0.817,58.172,1.818,58.172L23.632,58.172C24.634,58.172,25.45,57.355,25.45,56.354L25.45,34.539C25.45,33.538,24.634,32.722,23.632,32.722L1.818,32.722C1.761,32.722,1.704,32.722,1.647,32.722C1.591,32.722,1.534,32.722,1.477,32.722ZM3.636,36.357L21.814,36.357L21.814,54.536L3.636,54.536ZM18.633,38.8L11.646,46.583L6.647,42.265L4.261,44.992L10.623,50.446L11.987,51.639L13.18,50.275L21.36,41.186ZM36.357,43.686L36.357,47.208L90.893,47.208L90.893,43.686ZM1.477,65.443C0.611,65.607,-0.014,66.373,0,67.261L0,89.075C0,90.077,0.817,90.893,1.818,90.893L23.632,90.893C24.634,90.893,25.45,90.077,25.45,89.075L25.45,67.261C25.45,66.26,24.634,65.443,23.632,65.443L1.818,65.443C1.761,65.443,1.704,65.443,1.647,65.443C1.591,65.443,1.534,65.443,1.477,65.443ZM3.636,69.079L21.814,69.079L21.814,87.258L3.636,87.258ZM36.357,76.407L36.357,79.929L90.893,79.929L90.893,76.407ZM36.357,76.407"/>
</g>
  <g id="Light-L" transform="matrix(1.0,0.0,0.0,1.0,1108.9733251953126,1475.3233447265625)">  <path stroke="none" fill-opacity="1" stroke-width="1px" fill-rule="nonzero" fill="#000000" stroke-opacity="1" stroke-miterlimit="4" stroke-linecap="butt" stroke-dasharray="none" stroke-linejoin="miter" d="M1.477,0C0.611,0.163,-0.014,0.93,0,1.818L0,23.632C0,24.634,0.817,25.45,1.818,25.45L23.632,25.45C24.634,25.45,25.45,24.634,25.45,23.632L25.45,1.818C25.45,0.817,24.634,0,23.632,0L1.818,0C1.761,0,1.704,0,1.647,0C1.591,0,1.534,0,1.477,0ZM3.636,3.636L21.814,3.636L21.814,21.814L3.636,21.814ZM18.633,6.078L11.646,13.861L6.647,9.544L4.261,12.271L10.623,17.724L11.987,18.917L13.18,17.554L21.36,8.464ZM36.357,10.964L36.357,14.486L90.893,14.486L90.893,10.964ZM1.477,32.722C0.611,32.885,-0.014,33.652,0,34.539L0,56.354C0,57.355,0.817,58.172,1.818,58.172L23.632,58.172C24.634,58.172,25.45,57.355,25.45,56.354L25.45,34.539C25.45,33.538,24.634,32.722,23.632,32.722L1.818,32.722C1.761,32.722,1.704,32.722,1.647,32.722C1.591,32.722,1.534,32.722,1.477,32.722ZM3.636,36.357L21.814,36.357L21.814,54.536L3.636,54.536ZM18.633,38.8L11.646,46.583L6.647,42.265L4.261,44.992L10.623,50.446L11.987,51.639L13.18,50.275L21.36,41.186ZM36.357,43.686L36.357,47.208L90.893,47.208L90.893,43.686ZM1.477,65.443C0.611,65.607,-0.014,66.373,0,67.261L0,89.075C0,90.077,0.817,90.893,1.818,90.893L23.632,90.893C24.634,90.893,25.45,90.077,25.45,89.075L25.45,67.261C25.45,66.26,24.634,65.443,23.632,65.443L1.818,65.443C1.761,65.443,1.704,65.443,1.647,65.443C1.591,65.443,1.534,65.443,1.477,65.443ZM3.636,69.079L21.814,69.079L21.814,87.258L3.636,87.258ZM36.357,76.407L36.357,79.929L90.893,79.929L90.893,76.407ZM36.357,76.407"/>
</g>
  <g id="Thin-L" transform="matrix(1.0,0.0,0.0,1.0,812.2633251953125,1475.3233447265625)">  <path stroke-linejoin="miter" fill-opacity="1" stroke-opacity="1" stroke-miterlimit="4" stroke-width="1px" fill="#000000" stroke-linecap="butt" stroke-dasharray="none" fill-rule="nonzero" stroke="none" d="M1.477,0C0.611,0.163,-0.014,0.93,0,1.818L0,23.632C0,24.634,0.817,25.45,1.818,25.45L23.632,25.45C24.634,25.45,25.45,24.634,25.45,23.632L25.45,1.818C25.45,0.817,24.634,0,23.632,0L1.818,0C1.761,0,1.704,0,1.647,0C1.591,0,1.534,0,1.477,0ZM3.636,3.636L21.814,3.636L21.814,21.814L3.636,21.814ZM18.633,6.078L11.646,13.861L6.647,9.544L4.261,12.271L10.623,17.724L11.987,18.917L13.18,17.554L21.36,8.464ZM36.357,10.964L36.357,14.486L90.893,14.486L90.893,10.964ZM1.477,32.722C0.611,32.885,-0.014,33.652,0,34.539L0,56.354C0,57.355,0.817,58.172,1.818,58.172L23.632,58.172C24.634,58.172,25.45,57.355,25.45,56.354L25.45,34.539C25.45,33.538,24.634,32.722,23.632,32.722L1.818,32.722C1.761,32.722,1.704,32.722,1.647,32.722C1.591,32.722,1.534,32.722,1.477,32.722ZM3.636,36.357L21.814,36.357L21.814,54.536L3.636,54.536ZM18.633,38.8L11.646,46.583L6.647,42.265L4.261,44.992L10.623,50.446L11.987,51.639L13.18,50.275L21.36,41.186ZM36.357,43.686L36.357,47.208L90.893,47.208L90.893,43.686ZM1.477,65.443C0.611,65.607,-0.014,66.373,0,67.261L0,89.075C0,90.077,0.817,90.893,1.818,90.893L23.632,90.893C24.634,90.893,25.45,90.077,25.45,89.075L25.45,67.261C25.45,66.26,24.634,65.443,23.632,65.443L1.818,65.443C1.761,65.443,1.704,65.443,1.647,65.443C1.591,65.443,1.534,65.443,1.477,65.443ZM3.636,69.079L21.814,69.079L21.814,87.258L3.636,87.258ZM36.357,76.407L36.357,79.929L90.893,79.929L90.893,76.407ZM36.357,76.407"/>
</g>
  <g id="Ultralight-L" transform="matrix(1.0,0.0,0.0,1.0,515.5533251953125,1475.3233447265625)">  <path stroke-linecap="butt" stroke-opacity="1" stroke-dasharray="none" stroke-width="1px" fill="#000000" stroke-miterlimit="4" fill-rule="nonzero" fill-opacity="1" stroke-linejoin="miter" stroke="none" d="M1.477,0C0.611,0.163,-0.014,0.93,0,1.818L0,23.632C0,24.634,0.817,25.45,1.818,25.45L23.632,25.45C24.634,25.45,25.45,24.634,25.45,23.632L25.45,1.818C25.45,0.817,24.634,0,23.632,0L1.818,0C1.761,0,1.704,0,1.647,0C1.591,0,1.534,0,1.477,0ZM3.636,3.636L21.814,3.636L21.814,21.814L3.636,21.814ZM18.633,6.078L11.646,13.861L6.647,9.544L4.261,12.271L10.623,17.724L11.987,18.917L13.18,17.554L21.36,8.464ZM36.357,10.964L36.357,14.486L90.893,14.486L90.893,10.964ZM1.477,32.722C0.611,32.885,-0.014,33.652,0,34.539L0,56.354C0,57.355,0.817,58.172,1.818,58.172L23.632,58.172C24.634,58.172,25.45,57.355,25.45,56.354L25.45,34.539C25.45,33.538,24.634,32.722,23.632,32.722L1.818,32.722C1.761,32.722,1.704,32.722,1.647,32.722C1.591,32.722,1.534,32.722,1.477,32.722ZM3.636,36.357L21.814,36.357L21.814,54.536L3.636,54.536ZM18.633,38.8L11.646,46.583L6.647,42.265L4.261,44.992L10.623,50.446L11.987,51.639L13.18,50.275L21.36,41.186ZM36.357,43.686L36.357,47.208L90.893,47.208L90.893,43.686ZM1.477,65.443C0.611,65.607,-0.014,66.373,0,67.261L0,89.075C0,90.077,0.817,90.893,1.818,90.893L23.632,90.893C24.634,90.893,25.45,90.077,25.45,89.075L25.45,67.261C25.45,66.26,24.634,65.443,23.632,65.443L1.818,65.443C1.761,65.443,1.704,65.443,1.647,65.443C1.591,65.443,1.534,65.443,1.477,65.443ZM3.636,69.079L21.814,69.079L21.814,87.258L3.636,87.258ZM36.357,76.407L36.357,79.929L90.893,79.929L90.893,76.407ZM36.357,76.407"/>
</g>
  <g id="Black-M" transform="matrix(1.0,0.0,0.0,1.0,2899.45001953125,1055.5400390625)">  <path fill-opacity="1" stroke-linejoin="miter" stroke-opacity="1" stroke-miterlimit="4" stroke-dasharray="none" stroke-linecap="butt" fill-rule="nonzero" fill="#000000" stroke-width="1px" stroke="none" d="M1.145,0C0.473,0.127,-0.011,0.721,0,1.409L0,18.32C0,19.096,0.633,19.729,1.409,19.729L18.32,19.729C19.096,19.729,19.729,19.096,19.729,18.32L19.729,1.409C19.729,0.633,19.096,0,18.32,0L1.409,0C1.365,0,1.321,0,1.277,0C1.233,0,1.189,0,1.145,0ZM2.818,2.818L16.91,2.818L16.91,16.91L2.818,16.91ZM14.444,4.712L9.028,10.745L5.152,7.398L3.303,9.512L8.235,13.74L9.292,14.664L10.217,13.608L16.558,6.562ZM28.184,8.499L28.184,11.23L70.46,11.23L70.46,8.499ZM1.145,25.366C0.473,25.492,-0.011,26.087,0,26.775L0,43.685C0,44.461,0.633,45.094,1.409,45.094L18.32,45.094C19.096,45.094,19.729,44.461,19.729,43.685L19.729,26.775C19.729,25.999,19.096,25.366,18.32,25.366L1.409,25.366C1.365,25.366,1.321,25.366,1.277,25.366C1.233,25.366,1.189,25.366,1.145,25.366ZM2.818,28.184L16.91,28.184L16.91,42.276L2.818,42.276ZM14.444,30.078L9.028,36.111L5.152,32.764L3.303,34.878L8.235,39.105L9.292,40.03L10.217,38.973L16.558,31.927ZM28.184,33.865L28.184,36.595L70.46,36.595L70.46,33.865ZM1.145,50.731C0.473,50.858,-0.011,51.452,0,52.14L0,69.051C0,69.827,0.633,70.46,1.409,70.46L18.32,70.46C19.096,70.46,19.729,69.827,19.729,69.051L19.729,52.14C19.729,51.364,19.096,50.731,18.32,50.731L1.409,50.731C1.365,50.731,1.321,50.731,1.277,50.731C1.233,50.731,1.189,50.731,1.145,50.731ZM2.818,53.55L16.91,53.55L16.91,67.642L2.818,67.642ZM28.184,59.23L28.184,61.961L70.46,61.961L70.46,59.23ZM28.184,59.23"/>
</g>
  <g id="Heavy-M" transform="matrix(1.0,0.0,0.0,1.0,2602.74001953125,1055.5400390625)">  <path fill-rule="nonzero" fill-opacity="1" fill="#000000" stroke="none" stroke-dasharray="none" stroke-width="1px" stroke-opacity="1" stroke-linejoin="miter" stroke-linecap="butt" stroke-miterlimit="4" d="M1.145,0C0.473,0.127,-0.011,0.721,0,1.409L0,18.32C0,19.096,0.633,19.729,1.409,19.729L18.32,19.729C19.096,19.729,19.729,19.096,19.729,18.32L19.729,1.409C19.729,0.633,19.096,0,18.32,0L1.409,0C1.365,0,1.321,0,1.277,0C1.233,0,1.189,0,1.145,0ZM2.818,2.818L16.91,2.818L16.91,16.91L2.818,16.91ZM14.444,4.712L9.028,10.745L5.152,7.398L3.303,9.512L8.235,13.74L9.292,14.664L10.217,13.608L16.558,6.562ZM28.184,8.499L28.184,11.23L70.46,11.23L70.46,8.499ZM1.145,25.366C0.473,25.492,-0.011,26.087,0,26.775L0,43.685C0,44.461,0.633,45.094,1.409,45.094L18.32,45.094C19.096,45.094,19.729,44.461,19.729,43.685L19.729,26.775C19.729,25.999,19.096,25.366,18.32,25.366L1.409,25.366C1.365,25.366,1.321,25.366,1.277,25.366C1.233,25.366,1.189,25.366,1.145,25.366ZM2.818,28.184L16.91,28.184L16.91,42.276L2.818,42.276ZM14.444,30.078L9.028,36.111L5.152,32.764L3.303,34.878L8.235,39.105L9.292,40.03L10.217,38.973L16.558,31.927ZM28.184,33.865L28.184,36.595L70.46,36.595L70.46,33.865ZM1.145,50.731C0.473,50.858,-0.011,51.452,0,52.14L0,69.051C0,69.827,0.633,70.46,1.409,70.46L18.32,70.46C19.096,70.46,19.729,69.827,19.729,69.051L19.729,52.14C19.729,51.364,19.096,50.731,18.32,50.731L1.409,50.731C1.365,50.731,1.321,50.731,1.277,50.731C1.233,50.731,1.189,50.731,1.145,50.731ZM2.818,53.55L16.91,53.55L16.91,67.642L2.818,67.642ZM28.184,59.23L28.184,61.961L70.46,61.961L70.46,59.23ZM28.184,59.23"/>
</g>
  <g id="Bold-M" transform="matrix(1.0,0.0,0.0,1.0,2306.0300195312498,1055.5400390625)">  <path stroke-opacity="1" stroke-width="1px" stroke="none" stroke-linejoin="miter" stroke-miterlimit="4" fill="#000000" fill-rule="nonzero" stroke-dasharray="none" fill-opacity="1" stroke-linecap="butt" d="M1.145,0C0.473,0.127,-0.011,0.721,0,1.409L0,18.32C0,19.096,0.633,19.729,1.409,19.729L18.32,19.729C19.096,19.729,19.729,19.096,19.729,18.32L19.729,1.409C19.729,0.633,19.096,0,18.32,0L1.409,0C1.365,0,1.321,0,1.277,0C1.233,0,1.189,0,1.145,0ZM2.818,2.818L16.91,2.818L16.91,16.91L2.818,16.91ZM14.444,4.712L9.028,10.745L5.152,7.398L3.303,9.512L8.235,13.74L9.292,14.664L10.217,13.608L16.558,6.562ZM28.184,8.499L28.184,11.23L70.46,11.23L70.46,8.499ZM1.145,25.366C0.473,25.492,-0.011,26.087,0,26.775L0,43.685C0,44.461,0.633,45.094,1.409,45.094L18.32,45.094C19.096,45.094,19.729,44.461,19.729,43.685L19.729,26.775C19.729,25.999,19.096,25.366,18.32,25.366L1.409,25.366C1.365,25.366,1.321,25.366,1.277,25.366C1.233,25.366,1.189,25.366,1.145,25.366ZM2.818,28.184L16.91,28.184L16.91,42.276L2.818,42.276ZM14.444,30.078L9.028,36.111L5.152,32.764L3.303,34.878L8.235,39.105L9.292,40.03L10.217,38.973L16.558,31.927ZM28.184,33.865L28.184,36.595L70.46,36.595L70.46,33.865ZM1.145,50.731C0.473,50.858,-0.011,51.452,0,52.14L0,69.051C0,69.827,0.633,70.46,1.409,70.46L18.32,70.46C19.096,70.46,19.729,69.827,19.729,69.051L19.729,52.14C19.729,51.364,19.096,50.731,18.32,50.731L1.409,50.731C1.365,50.731,1.321,50.731,1.277,50.731C1.233,50.731,1.189,50.731,1.145,50.731ZM2.818,53.55L16.91,53.55L16.91,67.642L2.818,67.642ZM28.184,59.23L28.184,61.961L70.46,61.961L70.46,59.23ZM28.184,59.23"/>
</g>
  <g id="Semibold-M" transform="matrix(1.0,0.0,0.0,1.0,2009.32001953125,1055.5400390625)">  <path stroke-miterlimit="4" fill-opacity="1" stroke-dasharray="none" fill="#000000" fill-rule="nonzero" stroke-linecap="butt" stroke-opacity="1" stroke="none" stroke-width="1px" stroke-linejoin="miter" d="M1.145,0C0.473,0.127,-0.011,0.721,0,1.409L0,18.32C0,19.096,0.633,19.729,1.409,19.729L18.32,19.729C19.096,19.729,19.729,19.096,19.729,18.32L19.729,1.409C19.729,0.633,19.096,0,18.32,0L1.409,0C1.365,0,1.321,0,1.277,0C1.233,0,1.189,0,1.145,0ZM2.818,2.818L16.91,2.818L16.91,16.91L2.818,16.91ZM14.444,4.712L9.028,10.745L5.152,7.398L3.303,9.512L8.235,13.74L9.292,14.664L10.217,13.608L16.558,6.562ZM28.184,8.499L28.184,11.23L70.46,11.23L70.46,8.499ZM1.145,25.366C0.473,25.492,-0.011,26.087,0,26.775L0,43.685C0,44.461,0.633,45.094,1.409,45.094L18.32,45.094C19.096,45.094,19.729,44.461,19.729,43.685L19.729,26.775C19.729,25.999,19.096,25.366,18.32,25.366L1.409,25.366C1.365,25.366,1.321,25.366,1.277,25.366C1.233,25.366,1.189,25.366,1.145,25.366ZM2.818,28.184L16.91,28.184L16.91,42.276L2.818,42.276ZM14.444,30.078L9.028,36.111L5.152,32.764L3.303,34.878L8.235,39.105L9.292,40.03L10.217,38.973L16.558,31.927ZM28.184,33.865L28.184,36.595L70.46,36.595L70.46,33.865ZM1.145,50.731C0.473,50.858,-0.011,51.452,0,52.14L0,69.051C0,69.827,0.633,70.46,1.409,70.46L18.32,70.46C19.096,70.46,19.729,69.827,19.729,69.051L19.729,52.14C19.729,51.364,19.096,50.731,18.32,50.731L1.409,50.731C1.365,50.731,1.321,50.731,1.277,50.731C1.233,50.731,1.189,50.731,1.145,50.731ZM2.818,53.55L16.91,53.55L16.91,67.642L2.818,67.642ZM28.184,59.23L28.184,61.961L70.46,61.961L70.46,59.23ZM28.184,59.23"/>
</g>
  <g id="Medium-M" transform="matrix(1.0,0.0,0.0,1.0,1712.61001953125,1055.5400390625)">  <path stroke-linejoin="miter" fill-rule="nonzero" stroke-miterlimit="4" fill="#000000" stroke="none" stroke-linecap="butt" stroke-dasharray="none" fill-opacity="1" stroke-width="1px" stroke-opacity="1" d="M1.145,0C0.473,0.127,-0.011,0.721,0,1.409L0,18.32C0,19.096,0.633,19.729,1.409,19.729L18.32,19.729C19.096,19.729,19.729,19.096,19.729,18.32L19.729,1.409C19.729,0.633,19.096,0,18.32,0L1.409,0C1.365,0,1.321,0,1.277,0C1.233,0,1.189,0,1.145,0ZM2.818,2.818L16.91,2.818L16.91,16.91L2.818,16.91ZM14.444,4.712L9.028,10.745L5.152,7.398L3.303,9.512L8.235,13.74L9.292,14.664L10.217,13.608L16.558,6.562ZM28.184,8.499L28.184,11.23L70.46,11.23L70.46,8.499ZM1.145,25.366C0.473,25.492,-0.011,26.087,0,26.775L0,43.685C0,44.461,0.633,45.094,1.409,45.094L18.32,45.094C19.096,45.094,19.729,44.461,19.729,43.685L19.729,26.775C19.729,25.999,19.096,25.366,18.32,25.366L1.409,25.366C1.365,25.366,1.321,25.366,1.277,25.366C1.233,25.366,1.189,25.366,1.145,25.366ZM2.818,28.184L16.91,28.184L16.91,42.276L2.818,42.276ZM14.444,30.078L9.028,36.111L5.152,32.764L3.303,34.878L8.235,39.105L9.292,40.03L10.217,38.973L16.558,31.927ZM28.184,33.865L28.184,36.595L70.46,36.595L70.46,33.865ZM1.145,50.731C0.473,50.858,-0.011,51.452,0,52.14L0,69.051C0,69.827,0.633,70.46,1.409,70.46L18.32,70.46C19.096,70.46,19.729,69.827,19.729,69.051L19.729,52.14C19.729,51.364,19.096,50.731,18.32,50.731L1.409,50.731C1.365,50.731,1.321,50.731,1.277,50.731C1.233,50.731,1.189,50.731,1.145,50.731ZM2.818,53.55L16.91,53.55L16.91,67.642L2.818,67.642ZM28.184,59.23L28.184,61.961L70.46,61.961L70.46,59.23ZM28.184,59.23"/>
</g>
  <g id="Regular-M" transform="matrix(1.0,0.0,0.0,1.0,1415.9000195312499,1055.5400390625)">  <path fill="#000000" stroke-linejoin="miter" stroke-linecap="butt" stroke-opacity="1" fill-opacity="1" stroke-width="1px" stroke-miterlimit="4" stroke="none" fill-rule="nonzero" stroke-dasharray="none" d="M1.145,0C0.473,0.127,-0.011,0.721,0,1.409L0,18.32C0,19.096,0.633,19.729,1.409,19.729L18.32,19.729C19.096,19.729,19.729,19.096,19.729,18.32L19.729,1.409C19.729,0.633,19.096,0,18.32,0L1.409,0C1.365,0,1.321,0,1.277,0C1.233,0,1.189,0,1.145,0ZM2.818,2.818L16.91,2.818L16.91,16.91L2.818,16.91ZM14.444,4.712L9.028,10.745L5.152,7.398L3.303,9.512L8.235,13.74L9.292,14.664L10.217,13.608L16.558,6.562ZM28.184,8.499L28.184,11.23L70.46,11.23L70.46,8.499ZM1.145,25.366C0.473,25.492,-0.011,26.087,0,26.775L0,43.685C0,44.461,0.633,45.094,1.409,45.094L18.32,45.094C19.096,45.094,19.729,44.461,19.729,43.685L19.729,26.775C19.729,25.999,19.096,25.366,18.32,25.366L1.409,25.366C1.365,25.366,1.321,25.366,1.277,25.366C1.233,25.366,1.189,25.366,1.145,25.366ZM2.818,28.184L16.91,28.184L16.91,42.276L2.818,42.276ZM14.444,30.078L9.028,36.111L5.152,32.764L3.303,34.878L8.235,39.105L9.292,40.03L10.217,38.973L16.558,31.927ZM28.184,33.865L28.184,36.595L70.46,36.595L70.46,33.865ZM1.145,50.731C0.473,50.858,-0.011,51.452,0,52.14L0,69.051C0,69.827,0.633,70.46,1.409,70.46L18.32,70.46C19.096,70.46,19.729,69.827,19.729,69.051L19.729,52.14C19.729,51.364,19.096,50.731,18.32,50.731L1.409,50.731C1.365,50.731,1.321,50.731,1.277,50.731C1.233,50.731,1.189,50.731,1.145,50.731ZM2.818,53.55L16.91,53.55L16.91,67.642L2.818,67.642ZM28.184,59.23L28.184,61.961L70.46,61.961L70.46,59.23ZM28.184,59.23"/>
</g>
  <g id="Light-M" transform="matrix(1.0,0.0,0.0,1.0,1119.19001953125,1055.5400390625)">  <path stroke="none" fill-opacity="1" stroke-width="1px" fill-rule="nonzero" fill="#000000" stroke-opacity="1" stroke-miterlimit="4" stroke-linecap="butt" stroke-dasharray="none" stroke-linejoin="miter" d="M1.145,0C0.473,0.127,-0.011,0.721,0,1.409L0,18.32C0,19.096,0.633,19.729,1.409,19.729L18.32,19.729C19.096,19.729,19.729,19.096,19.729,18.32L19.729,1.409C19.729,0.633,19.096,0,18.32,0L1.409,0C1.365,0,1.321,0,1.277,0C1.233,0,1.189,0,1.145,0ZM2.818,2.818L16.91,2.818L16.91,16.91L2.818,16.91ZM14.444,4.712L9.028,10.745L5.152,7.398L3.303,9.512L8.235,13.74L9.292,14.664L10.217,13.608L16.558,6.562ZM28.184,8.499L28.184,11.23L70.46,11.23L70.46,8.499ZM1.145,25.366C0.473,25.492,-0.011,26.087,0,26.775L0,43.685C0,44.461,0.633,45.094,1.409,45.094L18.32,45.094C19.096,45.094,19.729,44.461,19.729,43.685L19.729,26.775C19.729,25.999,19.096,25.366,18.32,25.366L1.409,25.366C1.365,25.366,1.321,25.366,1.277,25.366C1.233,25.366,1.189,25.366,1.145,25.366ZM2.818,28.184L16.91,28.184L16.91,42.276L2.818,42.276ZM14.444,30.078L9.028,36.111L5.152,32.764L3.303,34.878L8.235,39.105L9.292,40.03L10.217,38.973L16.558,31.927ZM28.184,33.865L28.184,36.595L70.46,36.595L70.46,33.865ZM1.145,50.731C0.473,50.858,-0.011,51.452,0,52.14L0,69.051C0,69.827,0.633,70.46,1.409,70.46L18.32,70.46C19.096,70.46,19.729,69.827,19.729,69.051L19.729,52.14C19.729,51.364,19.096,50.731,18.32,50.731L1.409,50.731C1.365,50.731,1.321,50.731,1.277,50.731C1.233,50.731,1.189,50.731,1.145,50.731ZM2.818,53.55L16.91,53.55L16.91,67.642L2.818,67.642ZM28.184,59.23L28.184,61.961L70.46,61.961L70.46,59.23ZM28.184,59.23"/>
</g>
  <g id="Thin-M" transform="matrix(1.0,0.0,0.0,1.0,822.48001953125,1055.5400390625)">  <path stroke-linejoin="miter" fill-opacity="1" stroke-opacity="1" stroke-miterlimit="4" stroke-width="1px" fill="#000000" stroke-linecap="butt" stroke-dasharray="none" fill-rule="nonzero" stroke="none" d="M1.145,0C0.473,0.127,-0.011,0.721,0,1.409L0,18.32C0,19.096,0.633,19.729,1.409,19.729L18.32,19.729C19.096,19.729,19.729,19.096,19.729,18.32L19.729,1.409C19.729,0.633,19.096,0,18.32,0L1.409,0C1.365,0,1.321,0,1.277,0C1.233,0,1.189,0,1.145,0ZM2.818,2.818L16.91,2.818L16.91,16.91L2.818,16.91ZM14.444,4.712L9.028,10.745L5.152,7.398L3.303,9.512L8.235,13.74L9.292,14.664L10.217,13.608L16.558,6.562ZM28.184,8.499L28.184,11.23L70.46,11.23L70.46,8.499ZM1.145,25.366C0.473,25.492,-0.011,26.087,0,26.775L0,43.685C0,44.461,0.633,45.094,1.409,45.094L18.32,45.094C19.096,45.094,19.729,44.461,19.729,43.685L19.729,26.775C19.729,25.999,19.096,25.366,18.32,25.366L1.409,25.366C1.365,25.366,1.321,25.366,1.277,25.366C1.233,25.366,1.189,25.366,1.145,25.366ZM2.818,28.184L16.91,28.184L16.91,42.276L2.818,42.276ZM14.444,30.078L9.028,36.111L5.152,32.764L3.303,34.878L8.235,39.105L9.292,40.03L10.217,38.973L16.558,31.927ZM28.184,33.865L28.184,36.595L70.46,36.595L70.46,33.865ZM1.145,50.731C0.473,50.858,-0.011,51.452,0,52.14L0,69.051C0,69.827,0.633,70.46,1.409,70.46L18.32,70.46C19.096,70.46,19.729,69.827,19.729,69.051L19.729,52.14C19.729,51.364,19.096,50.731,18.32,50.731L1.409,50.731C1.365,50.731,1.321,50.731,1.277,50.731C1.233,50.731,1.189,50.731,1.145,50.731ZM2.818,53.55L16.91,53.55L16.91,67.642L2.818,67.642ZM28.184,59.23L28.184,61.961L70.46,61.961L70.46,59.23ZM28.184,59.23"/>
</g>
  <g id="Ultralight-M" transform="matrix(1.0,0.0,0.0,1.0,525.77001953125,1055.5400390625)">  <path stroke-linecap="butt" stroke-opacity="1" stroke-dasharray="none" stroke-width="1px" fill="#000000" stroke-miterlimit="4" fill-rule="nonzero" fill-opacity="1" stroke-linejoin="miter" stroke="none" d="M1.145,0C0.473,0.127,-0.011,0.721,0,1.409L0,18.32C0,19.096,0.633,19.729,1.409,19.729L18.32,19.729C19.096,19.729,19.729,19.096,19.729,18.32L19.729,1.409C19.729,0.633,19.096,0,18.32,0L1.409,0C1.365,0,1.321,0,1.277,0C1.233,0,1.189,0,1.145,0ZM2.818,2.818L16.91,2.818L16.91,16.91L2.818,16.91ZM14.444,4.712L9.028,10.745L5.152,7.398L3.303,9.512L8.235,13.74L9.292,14.664L10.217,13.608L16.558,6.562ZM28.184,8.499L28.184,11.23L70.46,11.23L70.46,8.499ZM1.145,25.366C0.473,25.492,-0.011,26.087,0,26.775L0,43.685C0,44.461,0.633,45.094,1.409,45.094L18.32,45.094C19.096,45.094,19.729,44.461,19.729,43.685L19.729,26.775C19.729,25.999,19.096,25.366,18.32,25.366L1.409,25.366C1.365,25.366,1.321,25.366,1.277,25.366C1.233,25.366,1.189,25.366,1.145,25.366ZM2.818,28.184L16.91,28.184L16.91,42.276L2.818,42.276ZM14.444,30.078L9.028,36.111L5.152,32.764L3.303,34.878L8.235,39.105L9.292,40.03L10.217,38.973L16.558,31.927ZM28.184,33.865L28.184,36.595L70.46,36.595L70.46,33.865ZM1.145,50.731C0.473,50.858,-0.011,51.452,0,52.14L0,69.051C0,69.827,0.633,70.46,1.409,70.46L18.32,70.46C19.096,70.46,19.729,69.827,19.729,69.051L19.729,52.14C19.729,51.364,19.096,50.731,18.32,50.731L1.409,50.731C1.365,50.731,1.321,50.731,1.277,50.731C1.233,50.731,1.189,50.731,1.145,50.731ZM2.818,53.55L16.91,53.55L16.91,67.642L2.818,67.642ZM28.184,59.23L28.184,61.961L70.46,61.961L70.46,59.23ZM28.184,59.23"/>
</g>
  <g id="Black-S" transform="matrix(1.0,0.0,0.0,1.0,2907.0949252929686,633.1849448242187)">  <path fill-opacity="1" stroke-linejoin="miter" stroke-opacity="1" stroke-miterlimit="4" stroke-dasharray="none" stroke-linecap="butt" fill-rule="nonzero" fill="#000000" stroke-width="1px" stroke="none" d="M0.897,0C0.371,0.099,-0.009,0.565,0,1.103L0,14.344C0,14.952,0.496,15.448,1.103,15.448L14.344,15.448C14.952,15.448,15.448,14.952,15.448,14.344L15.448,1.103C15.448,0.496,14.952,0,14.344,0L1.103,0C1.069,0,1.034,0,1,0C0.965,0,0.931,0,0.897,0ZM2.207,2.207L13.241,2.207L13.241,13.241L2.207,13.241ZM11.31,3.69L7.069,8.413L4.034,5.793L2.586,7.448L6.448,10.758L7.276,11.482L8,10.655L12.965,5.138ZM22.068,6.655L22.068,8.793L55.17,8.793L55.17,6.655ZM0.897,19.861C0.371,19.96,-0.009,20.426,0,20.965L0,34.205C0,34.813,0.496,35.309,1.103,35.309L14.344,35.309C14.952,35.309,15.448,34.813,15.448,34.205L15.448,20.965C15.448,20.357,14.952,19.861,14.344,19.861L1.103,19.861C1.069,19.861,1.034,19.861,1,19.861C0.965,19.861,0.931,19.861,0.897,19.861ZM2.207,22.068L13.241,22.068L13.241,33.102L2.207,33.102ZM11.31,23.551L7.069,28.275L4.034,25.654L2.586,27.309L6.448,30.619L7.276,31.344L8,30.516L12.965,24.999ZM22.068,26.516L22.068,28.654L55.17,28.654L55.17,26.516ZM0.897,39.723C0.371,39.822,-0.009,40.287,0,40.826L0,54.067C0,54.674,0.496,55.17,1.103,55.17L14.344,55.17C14.952,55.17,15.448,54.674,15.448,54.067L15.448,40.826C15.448,40.218,14.952,39.723,14.344,39.723L1.103,39.723C1.069,39.723,1.034,39.723,1,39.723C0.965,39.723,0.931,39.723,0.897,39.723ZM2.207,41.929L13.241,41.929L13.241,52.963L2.207,52.963ZM22.068,46.377L22.068,48.515L55.17,48.515L55.17,46.377ZM22.068,46.377"/>
</g>
  <g id="Heavy-S" transform="matrix(1.0,0.0,0.0,1.0,2610.3849252929685,633.1849448242187)">  <path fill-rule="nonzero" fill-opacity="1" fill="#000000" stroke="none" stroke-dasharray="none" stroke-width="1px" stroke-opacity="1" stroke-linejoin="miter" stroke-linecap="butt" stroke-miterlimit="4" d="M0.897,0C0.371,0.099,-0.009,0.565,0,1.103L0,14.344C0,14.952,0.496,15.448,1.103,15.448L14.344,15.448C14.952,15.448,15.448,14.952,15.448,14.344L15.448,1.103C15.448,0.496,14.952,0,14.344,0L1.103,0C1.069,0,1.034,0,1,0C0.965,0,0.931,0,0.897,0ZM2.207,2.207L13.241,2.207L13.241,13.241L2.207,13.241ZM11.31,3.69L7.069,8.413L4.034,5.793L2.586,7.448L6.448,10.758L7.276,11.482L8,10.655L12.965,5.138ZM22.068,6.655L22.068,8.793L55.17,8.793L55.17,6.655ZM0.897,19.861C0.371,19.96,-0.009,20.426,0,20.965L0,34.205C0,34.813,0.496,35.309,1.103,35.309L14.344,35.309C14.952,35.309,15.448,34.813,15.448,34.205L15.448,20.965C15.448,20.357,14.952,19.861,14.344,19.861L1.103,19.861C1.069,19.861,1.034,19.861,1,19.861C0.965,19.861,0.931,19.861,0.897,19.861ZM2.207,22.068L13.241,22.068L13.241,33.102L2.207,33.102ZM11.31,23.551L7.069,28.275L4.034,25.654L2.586,27.309L6.448,30.619L7.276,31.344L8,30.516L12.965,24.999ZM22.068,26.516L22.068,28.654L55.17,28.654L55.17,26.516ZM0.897,39.723C0.371,39.822,-0.009,40.287,0,40.826L0,54.067C0,54.674,0.496,55.17,1.103,55.17L14.344,55.17C14.952,55.17,15.448,54.674,15.448,54.067L15.448,40.826C15.448,40.218,14.952,39.723,14.344,39.723L1.103,39.723C1.069,39.723,1.034,39.723,1,39.723C0.965,39.723,0.931,39.723,0.897,39.723ZM2.207,41.929L13.241,41.929L13.241,52.963L2.207,52.963ZM22.068,46.377L22.068,48.515L55.17,48.515L55.17,46.377ZM22.068,46.377"/>
</g>
  <g id="Bold-S" transform="matrix(1.0,0.0,0.0,1.0,2313.6749252929685,633.1849448242187)">  <path stroke-opacity="1" stroke-width="1px" stroke="none" stroke-linejoin="miter" stroke-miterlimit="4" fill="#000000" fill-rule="nonzero" stroke-dasharray="none" fill-opacity="1" stroke-linecap="butt" d="M0.897,0C0.371,0.099,-0.009,0.565,0,1.103L0,14.344C0,14.952,0.496,15.448,1.103,15.448L14.344,15.448C14.952,15.448,15.448,14.952,15.448,14.344L15.448,1.103C15.448,0.496,14.952,0,14.344,0L1.103,0C1.069,0,1.034,0,1,0C0.965,0,0.931,0,0.897,0ZM2.207,2.207L13.241,2.207L13.241,13.241L2.207,13.241ZM11.31,3.69L7.069,8.413L4.034,5.793L2.586,7.448L6.448,10.758L7.276,11.482L8,10.655L12.965,5.138ZM22.068,6.655L22.068,8.793L55.17,8.793L55.17,6.655ZM0.897,19.861C0.371,19.96,-0.009,20.426,0,20.965L0,34.205C0,34.813,0.496,35.309,1.103,35.309L14.344,35.309C14.952,35.309,15.448,34.813,15.448,34.205L15.448,20.965C15.448,20.357,14.952,19.861,14.344,19.861L1.103,19.861C1.069,19.861,1.034,19.861,1,19.861C0.965,19.861,0.931,19.861,0.897,19.861ZM2.207,22.068L13.241,22.068L13.241,33.102L2.207,33.102ZM11.31,23.551L7.069,28.275L4.034,25.654L2.586,27.309L6.448,30.619L7.276,31.344L8,30.516L12.965,24.999ZM22.068,26.516L22.068,28.654L55.17,28.654L55.17,26.516ZM0.897,39.723C0.371,39.822,-0.009,40.287,0,40.826L0,54.067C0,54.674,0.496,55.17,1.103,55.17L14.344,55.17C14.952,55.17,15.448,54.674,15.448,54.067L15.448,40.826C15.448,40.218,14.952,39.723,14.344,39.723L1.103,39.723C1.069,39.723,1.034,39.723,1,39.723C0.965,39.723,0.931,39.723,0.897,39.723ZM2.207,41.929L13.241,41.929L13.241,52.963L2.207,52.963ZM22.068,46.377L22.068,48.515L55.17,48.515L55.17,46.377ZM22.068,46.377"/>
</g>
  <g id="Semibold-S" transform="matrix(1.0,0.0,0.0,1.0,2016.9649252929687,633.1849448242187)">  <path stroke-miterlimit="4" fill-opacity="1" stroke-dasharray="none" fill="#000000" fill-rule="nonzero" stroke-linecap="butt" stroke-opacity="1" stroke="none" stroke-width="1px" stroke-linejoin="miter" d="M0.897,0C0.371,0.099,-0.009,0.565,0,1.103L0,14.344C0,14.952,0.496,15.448,1.103,15.448L14.344,15.448C14.952,15.448,15.448,14.952,15.448,14.344L15.448,1.103C15.448,0.496,14.952,0,14.344,0L1.103,0C1.069,0,1.034,0,1,0C0.965,0,0.931,0,0.897,0ZM2.207,2.207L13.241,2.207L13.241,13.241L2.207,13.241ZM11.31,3.69L7.069,8.413L4.034,5.793L2.586,7.448L6.448,10.758L7.276,11.482L8,10.655L12.965,5.138ZM22.068,6.655L22.068,8.793L55.17,8.793L55.17,6.655ZM0.897,19.861C0.371,19.96,-0.009,20.426,0,20.965L0,34.205C0,34.813,0.496,35.309,1.103,35.309L14.344,35.309C14.952,35.309,15.448,34.813,15.448,34.205L15.448,20.965C15.448,20.357,14.952,19.861,14.344,19.861L1.103,19.861C1.069,19.861,1.034,19.861,1,19.861C0.965,19.861,0.931,19.861,0.897,19.861ZM2.207,22.068L13.241,22.068L13.241,33.102L2.207,33.102ZM11.31,23.551L7.069,28.275L4.034,25.654L2.586,27.309L6.448,30.619L7.276,31.344L8,30.516L12.965,24.999ZM22.068,26.516L22.068,28.654L55.17,28.654L55.17,26.516ZM0.897,39.723C0.371,39.822,-0.009,40.287,0,40.826L0,54.067C0,54.674,0.496,55.17,1.103,55.17L14.344,55.17C14.952,55.17,15.448,54.674,15.448,54.067L15.448,40.826C15.448,40.218,14.952,39.723,14.344,39.723L1.103,39.723C1.069,39.723,1.034,39.723,1,39.723C0.965,39.723,0.931,39.723,0.897,39.723ZM2.207,41.929L13.241,41.929L13.241,52.963L2.207,52.963ZM22.068,46.377L22.068,48.515L55.17,48.515L55.17,46.377ZM22.068,46.377"/>
</g>
  <g id="Medium-S" transform="matrix(1.0,0.0,0.0,1.0,1720.2549252929687,633.1849448242187)">  <path stroke-linejoin="miter" fill-rule="nonzero" stroke-miterlimit="4" fill="#000000" stroke="none" stroke-linecap="butt" stroke-dasharray="none" fill-opacity="1" stroke-width="1px" stroke-opacity="1" d="M0.897,0C0.371,0.099,-0.009,0.565,0,1.103L0,14.344C0,14.952,0.496,15.448,1.103,15.448L14.344,15.448C14.952,15.448,15.448,14.952,15.448,14.344L15.448,1.103C15.448,0.496,14.952,0,14.344,0L1.103,0C1.069,0,1.034,0,1,0C0.965,0,0.931,0,0.897,0ZM2.207,2.207L13.241,2.207L13.241,13.241L2.207,13.241ZM11.31,3.69L7.069,8.413L4.034,5.793L2.586,7.448L6.448,10.758L7.276,11.482L8,10.655L12.965,5.138ZM22.068,6.655L22.068,8.793L55.17,8.793L55.17,6.655ZM0.897,19.861C0.371,19.96,-0.009,20.426,0,20.965L0,34.205C0,34.813,0.496,35.309,1.103,35.309L14.344,35.309C14.952,35.309,15.448,34.813,15.448,34.205L15.448,20.965C15.448,20.357,14.952,19.861,14.344,19.861L1.103,19.861C1.069,19.861,1.034,19.861,1,19.861C0.965,19.861,0.931,19.861,0.897,19.861ZM2.207,22.068L13.241,22.068L13.241,33.102L2.207,33.102ZM11.31,23.551L7.069,28.275L4.034,25.654L2.586,27.309L6.448,30.619L7.276,31.344L8,30.516L12.965,24.999ZM22.068,26.516L22.068,28.654L55.17,28.654L55.17,26.516ZM0.897,39.723C0.371,39.822,-0.009,40.287,0,40.826L0,54.067C0,54.674,0.496,55.17,1.103,55.17L14.344,55.17C14.952,55.17,15.448,54.674,15.448,54.067L15.448,40.826C15.448,40.218,14.952,39.723,14.344,39.723L1.103,39.723C1.069,39.723,1.034,39.723,1,39.723C0.965,39.723,0.931,39.723,0.897,39.723ZM2.207,41.929L13.241,41.929L13.241,52.963L2.207,52.963ZM22.068,46.377L22.068,48.515L55.17,48.515L55.17,46.377ZM22.068,46.377"/>
</g>
  <g id="Regular-S" transform="matrix(1.0,0.0,0.0,1.0,1423.5449252929686,633.1849448242187)">  <path fill="#000000" stroke-linejoin="miter" stroke-linecap="butt" stroke-opacity="1" fill-opacity="1" stroke-width="1px" stroke-miterlimit="4" stroke="none" fill-rule="nonzero" stroke-dasharray="none" d="M0.897,0C0.371,0.099,-0.009,0.565,0,1.103L0,14.344C0,14.952,0.496,15.448,1.103,15.448L14.344,15.448C14.952,15.448,15.448,14.952,15.448,14.344L15.448,1.103C15.448,0.496,14.952,0,14.344,0L1.103,0C1.069,0,1.034,0,1,0C0.965,0,0.931,0,0.897,0ZM2.207,2.207L13.241,2.207L13.241,13.241L2.207,13.241ZM11.31,3.69L7.069,8.413L4.034,5.793L2.586,7.448L6.448,10.758L7.276,11.482L8,10.655L12.965,5.138ZM22.068,6.655L22.068,8.793L55.17,8.793L55.17,6.655ZM0.897,19.861C0.371,19.96,-0.009,20.426,0,20.965L0,34.205C0,34.813,0.496,35.309,1.103,35.309L14.344,35.309C14.952,35.309,15.448,34.813,15.448,34.205L15.448,20.965C15.448,20.357,14.952,19.861,14.344,19.861L1.103,19.861C1.069,19.861,1.034,19.861,1,19.861C0.965,19.861,0.931,19.861,0.897,19.861ZM2.207,22.068L13.241,22.068L13.241,33.102L2.207,33.102ZM11.31,23.551L7.069,28.275L4.034,25.654L2.586,27.309L6.448,30.619L7.276,31.344L8,30.516L12.965,24.999ZM22.068,26.516L22.068,28.654L55.17,28.654L55.17,26.516ZM0.897,39.723C0.371,39.822,-0.009,40.287,0,40.826L0,54.067C0,54.674,0.496,55.17,1.103,55.17L14.344,55.17C14.952,55.17,15.448,54.674,15.448,54.067L15.448,40.826C15.448,40.218,14.952,39.723,14.344,39.723L1.103,39.723C1.069,39.723,1.034,39.723,1,39.723C0.965,39.723,0.931,39.723,0.897,39.723ZM2.207,41.929L13.241,41.929L13.241,52.963L2.207,52.963ZM22.068,46.377L22.068,48.515L55.17,48.515L55.17,46.377ZM22.068,46.377"/>
</g>
  <g id="Light-S" transform="matrix(1.0,0.0,0.0,1.0,1126.8349252929688,633.1849448242187)">  <path stroke="none" fill-opacity="1" stroke-width="1px" fill-rule="nonzero" fill="#000000" stroke-opacity="1" stroke-miterlimit="4" stroke-linecap="butt" stroke-dasharray="none" stroke-linejoin="miter" d="M0.897,0C0.371,0.099,-0.009,0.565,0,1.103L0,14.344C0,14.952,0.496,15.448,1.103,15.448L14.344,15.448C14.952,15.448,15.448,14.952,15.448,14.344L15.448,1.103C15.448,0.496,14.952,0,14.344,0L1.103,0C1.069,0,1.034,0,1,0C0.965,0,0.931,0,0.897,0ZM2.207,2.207L13.241,2.207L13.241,13.241L2.207,13.241ZM11.31,3.69L7.069,8.413L4.034,5.793L2.586,7.448L6.448,10.758L7.276,11.482L8,10.655L12.965,5.138ZM22.068,6.655L22.068,8.793L55.17,8.793L55.17,6.655ZM0.897,19.861C0.371,19.96,-0.009,20.426,0,20.965L0,34.205C0,34.813,0.496,35.309,1.103,35.309L14.344,35.309C14.952,35.309,15.448,34.813,15.448,34.205L15.448,20.965C15.448,20.357,14.952,19.861,14.344,19.861L1.103,19.861C1.069,19.861,1.034,19.861,1,19.861C0.965,19.861,0.931,19.861,0.897,19.861ZM2.207,22.068L13.241,22.068L13.241,33.102L2.207,33.102ZM11.31,23.551L7.069,28.275L4.034,25.654L2.586,27.309L6.448,30.619L7.276,31.344L8,30.516L12.965,24.999ZM22.068,26.516L22.068,28.654L55.17,28.654L55.17,26.516ZM0.897,39.723C0.371,39.822,-0.009,40.287,0,40.826L0,54.067C0,54.674,0.496,55.17,1.103,55.17L14.344,55.17C14.952,55.17,15.448,54.674,15.448,54.067L15.448,40.826C15.448,40.218,14.952,39.723,14.344,39.723L1.103,39.723C1.069,39.723,1.034,39.723,1,39.723C0.965,39.723,0.931,39.723,0.897,39.723ZM2.207,41.929L13.241,41.929L13.241,52.963L2.207,52.963ZM22.068,46.377L22.068,48.515L55.17,48.515L55.17,46.377ZM22.068,46.377"/>
</g>
  <g id="Thin-S" transform="matrix(1.0,0.0,0.0,1.0,830.1249252929688,633.1849448242187)">  <path stroke-linejoin="miter" fill-opacity="1" stroke-opacity="1" stroke-miterlimit="4" stroke-width="1px" fill="#000000" stroke-linecap="butt" stroke-dasharray="none" fill-rule="nonzero" stroke="none" d="M0.897,0C0.371,0.099,-0.009,0.565,0,1.103L0,14.344C0,14.952,0.496,15.448,1.103,15.448L14.344,15.448C14.952,15.448,15.448,14.952,15.448,14.344L15.448,1.103C15.448,0.496,14.952,0,14.344,0L1.103,0C1.069,0,1.034,0,1,0C0.965,0,0.931,0,0.897,0ZM2.207,2.207L13.241,2.207L13.241,13.241L2.207,13.241ZM11.31,3.69L7.069,8.413L4.034,5.793L2.586,7.448L6.448,10.758L7.276,11.482L8,10.655L12.965,5.138ZM22.068,6.655L22.068,8.793L55.17,8.793L55.17,6.655ZM0.897,19.861C0.371,19.96,-0.009,20.426,0,20.965L0,34.205C0,34.813,0.496,35.309,1.103,35.309L14.344,35.309C14.952,35.309,15.448,34.813,15.448,34.205L15.448,20.965C15.448,20.357,14.952,19.861,14.344,19.861L1.103,19.861C1.069,19.861,1.034,19.861,1,19.861C0.965,19.861,0.931,19.861,0.897,19.861ZM2.207,22.068L13.241,22.068L13.241,33.102L2.207,33.102ZM11.31,23.551L7.069,28.275L4.034,25.654L2.586,27.309L6.448,30.619L7.276,31.344L8,30.516L12.965,24.999ZM22.068,26.516L22.068,28.654L55.17,28.654L55.17,26.516ZM0.897,39.723C0.371,39.822,-0.009,40.287,0,40.826L0,54.067C0,54.674,0.496,55.17,1.103,55.17L14.344,55.17C14.952,55.17,15.448,54.674,15.448,54.067L15.448,40.826C15.448,40.218,14.952,39.723,14.344,39.723L1.103,39.723C1.069,39.723,1.034,39.723,1,39.723C0.965,39.723,0.931,39.723,0.897,39.723ZM2.207,41.929L13.241,41.929L13.241,52.963L2.207,52.963ZM22.068,46.377L22.068,48.515L55.17,48.515L55.17,46.377ZM22.068,46.377"/>
</g>
  <g id="Ultralight-S" transform="matrix(1.0,0.0,0.0,1.0,533.4149252929687,633.1849448242187)">  <path stroke-linecap="butt" stroke-opacity="1" stroke-dasharray="none" stroke-width="1px" fill="#000000" stroke-miterlimit="4" fill-rule="nonzero" fill-opacity="1" stroke-linejoin="miter" stroke="none" d="M0.897,0C0.371,0.099,-0.009,0.565,0,1.103L0,14.344C0,14.952,0.496,15.448,1.103,15.448L14.344,15.448C14.952,15.448,15.448,14.952,15.448,14.344L15.448,1.103C15.448,0.496,14.952,0,14.344,0L1.103,0C1.069,0,1.034,0,1,0C0.965,0,0.931,0,0.897,0ZM2.207,2.207L13.241,2.207L13.241,13.241L2.207,13.241ZM11.31,3.69L7.069,8.413L4.034,5.793L2.586,7.448L6.448,10.758L7.276,11.482L8,10.655L12.965,5.138ZM22.068,6.655L22.068,8.793L55.17,8.793L55.17,6.655ZM0.897,19.861C0.371,19.96,-0.009,20.426,0,20.965L0,34.205C0,34.813,0.496,35.309,1.103,35.309L14.344,35.309C14.952,35.309,15.448,34.813,15.448,34.205L15.448,20.965C15.448,20.357,14.952,19.861,14.344,19.861L1.103,19.861C1.069,19.861,1.034,19.861,1,19.861C0.965,19.861,0.931,19.861,0.897,19.861ZM2.207,22.068L13.241,22.068L13.241,33.102L2.207,33.102ZM11.31,23.551L7.069,28.275L4.034,25.654L2.586,27.309L6.448,30.619L7.276,31.344L8,30.516L12.965,24.999ZM22.068,26.516L22.068,28.654L55.17,28.654L55.17,26.516ZM0.897,39.723C0.371,39.822,-0.009,40.287,0,40.826L0,54.067C0,54.674,0.496,55.17,1.103,55.17L14.344,55.17C14.952,55.17,15.448,54.674,15.448,54.067L15.448,40.826C15.448,40.218,14.952,39.723,14.344,39.723L1.103,39.723C1.069,39.723,1.034,39.723,1,39.723C0.965,39.723,0.931,39.723,0.897,39.723ZM2.207,41.929L13.241,41.929L13.241,52.963L2.207,52.963ZM22.068,46.377L22.068,48.515L55.17,48.515L55.17,46.377ZM22.068,46.377"/>
</g>
 </g>
</svg>
