<?xml version="1.0" encoding="UTF-8"?>
<!-- Generator: CustomSymbols v2.6.2.41 by @serious_bret https://bretlester.com/app_content/CustomSymbols/ -->
<!-- Guides: Left/Right 0.0/0.0 Cap/Base 0.0/0.0 -->
<!-- Settings: RefScale 1.0 Min/Max Stroke Scales 0.5/2.21 -->
<!DOCTYPE svg
PUBLIC "-//W3C//DTD SVG 1.1//EN"
       "http://www.w3.org/Graphics/SVG/1.1/DTD/svg11.dtd">
<svg version="1.1" xmlns="http://www.w3.org/2000/svg" xmlns:xlink="http://www.w3.org/1999/xlink" width="3300" height="2200">
<![CDATA[<svg fill="#000000" xmlns="http://www.w3.org/2000/svg"  viewBox="0 0 50 50" width="50px" height="50px"><path d="M 25 3.0703125 C 12.415167 3.0703125 2.0703125 11.925365 2.0703125 23 C 2.0703125 29.427318 5.6219606 35.086611 11 38.712891 C 10.9916 38.928457 11.008101 39.280691 10.726562 40.324219 C 10.377821 41.617047 9.6731852 43.431687 8.2402344 45.464844 A 0.92959293 0.92959293 0 0 0 8.9960938 46.929688 C 15.173361 46.956575 18.748849 42.904801 19.304688 42.251953 C 21.133469 42.659115 23.028437 42.929687 25 42.929688 C 37.583869 42.929688 47.929688 34.074694 47.929688 23 C 47.929688 11.925306 37.583869 3.0703125 25 3.0703125 z M 25 4.9296875 C 36.716131 4.9296875 46.070312 13.088694 46.070312 23 C 46.070312 32.911306 36.716131 41.070312 25 41.070312 C 22.998026 41.070312 21.063469 40.831229 19.230469 40.384766 A 0.92959293 0.92959293 0 0 0 18.285156 40.705078 C 18.285156 40.705078 15.394898 43.984833 10.787109 44.759766 C 11.62014 43.264901 12.235187 41.869931 12.521484 40.808594 C 12.920492 39.329422 12.925781 38.326172 12.925781 38.326172 A 0.92959293 0.92959293 0 0 0 12.494141 37.541016 C 7.2672049 34.227589 3.9296875 28.943265 3.9296875 23 C 3.9296875 13.088635 13.282833 4.9296875 25 4.9296875 z M 14 16 A 1.0001 1.0001 0 1 0 14 18 L 36 18 A 1.0001 1.0001 0 1 0 36 16 L 14 16 z M 10 22 A 1.0001 1.0001 0 1 0 10 24 L 27 24 A 1.0001 1.0001 0 1 0 27 22 L 10 22 z M 33 22 A 1.0001 1.0001 0 1 0 33 24 L 40 24 A 1.0001 1.0001 0 1 0 40 22 L 33 22 z M 14 28 A 1.0001 1.0001 0 1 0 14 30 L 36 30 A 1.0001 1.0001 0 1 0 36 28 L 14 28 z"/></svg>]]>
 <g id="Notes">
  <rect height="2200" id="artboard" style="fill:white;opacity:1" width="3300" x="0" y="0"/>
  <line id="" style="fill:none;stroke:black;opacity:1;stroke-width:0.5;" x1="263" x2="3036" y1="292" y2="292"/>
  <text id="reftext1" style="stroke:none;fill:black;font-family:-apple-system,&quot;SF Pro Display&quot;,&quot;SF Pro Text&quot;,Helvetica,sans-serif;font-weight:bold;" transform="matrix(1 0 0 1 263 322)">Weight/Scale Variations</text>
  <text id="reftext2" style="stroke:none;fill:black;font-family:-apple-system,&quot;SF Pro Display&quot;,&quot;SF Pro Text&quot;,Helvetica,sans-serif;text-anchor:middle;" transform="matrix(1 0 0 1 559.711 322)">Ultralight</text>
  <text style="stroke:none;fill:black;font-family:-apple-system,&quot;SF Pro Display&quot;,&quot;SF Pro Text&quot;,Helvetica,sans-serif;text-anchor:middle;" transform="matrix(1 0 0 1 856.422 322)">Thin</text>
  <text style="stroke:none;fill:black;font-family:-apple-system,&quot;SF Pro Display&quot;,&quot;SF Pro Text&quot;,Helvetica,sans-serif;text-anchor:middle;" transform="matrix(1 0 0 1 1153.13 322)">Light</text>
  <text style="stroke:none;fill:black;font-family:-apple-system,&quot;SF Pro Display&quot;,&quot;SF Pro Text&quot;,Helvetica,sans-serif;text-anchor:middle;" transform="matrix(1 0 0 1 1449.84 322)">Regular</text>
  <text style="stroke:none;fill:black;font-family:-apple-system,&quot;SF Pro Display&quot;,&quot;SF Pro Text&quot;,Helvetica,sans-serif;text-anchor:middle;" transform="matrix(1 0 0 1 1746.56 322)">Medium</text>
  <text style="stroke:none;fill:black;font-family:-apple-system,&quot;SF Pro Display&quot;,&quot;SF Pro Text&quot;,Helvetica,sans-serif;text-anchor:middle;" transform="matrix(1 0 0 1 2043.27 322)">Semibold</text>
  <text style="stroke:none;fill:black;font-family:-apple-system,&quot;SF Pro Display&quot;,&quot;SF Pro Text&quot;,Helvetica,sans-serif;text-anchor:middle;" transform="matrix(1 0 0 1 2339.98 322)">Bold</text>
  <text style="stroke:none;fill:black;font-family:-apple-system,&quot;SF Pro Display&quot;,&quot;SF Pro Text&quot;,Helvetica,sans-serif;text-anchor:middle;" transform="matrix(1 0 0 1 2636.69 322)">Heavy</text>
  <text style="stroke:none;fill:black;font-family:-apple-system,&quot;SF Pro Display&quot;,&quot;SF Pro Text&quot;,Helvetica,sans-serif;text-anchor:middle;" transform="matrix(1 0 0 1 2933.4 322)">Black</text>
  <line id="" style="fill:none;stroke:black;opacity:1;stroke-width:0.5;" x1="263" x2="3036" y1="1903" y2="1903"/>
  <g id="" transform="matrix(1 0 0 1 263 1933)">
   <path d="M9.24805 0.830078C13.5547 0.830078 17.1387-2.74414 17.1387-7.05078C17.1387-11.3574 13.5449-14.9316 9.23828-14.9316C4.94141-14.9316 1.36719-11.3574 1.36719-7.05078C1.36719-2.74414 4.95117 0.830078 9.24805 0.830078ZM9.24805-0.654297C5.70312-0.654297 2.87109-3.49609 2.87109-7.05078C2.87109-10.6055 5.69336-13.4473 9.23828-13.4473C12.793-13.4473 15.6348-10.6055 15.6445-7.05078C15.6543-3.49609 12.8027-0.654297 9.24805-0.654297ZM6.39648-6.31836L8.50586-6.31836L8.50586-4.19922C8.50586-3.75977 8.79883-3.45703 9.22852-3.45703C9.67773-3.45703 9.9707-3.75977 9.9707-4.19922L9.9707-6.31836L12.0996-6.31836C12.5391-6.31836 12.8418-6.61133 12.8418-7.04102C12.8418-7.48047 12.5391-7.7832 12.0996-7.7832L9.9707-7.7832L9.9707-9.89258C9.9707-10.3418 9.67773-10.6445 9.22852-10.6445C8.79883-10.6445 8.50586-10.3418 8.50586-9.89258L8.50586-7.7832L6.39648-7.7832C5.94727-7.7832 5.64453-7.48047 5.64453-7.04102C5.64453-6.61133 5.94727-6.31836 6.39648-6.31836Z"/>
  </g>
  <g id="" transform="matrix(1 0 0 1 281.506 1933)">
   <path d="M11.709 2.91016C17.1582 2.91016 21.6699-1.61133 21.6699-7.05078C21.6699-12.5 17.1484-17.0117 11.6992-17.0117C6.25977-17.0117 1.74805-12.5 1.74805-7.05078C1.74805-1.61133 6.26953 2.91016 11.709 2.91016ZM11.709 1.25C7.09961 1.25 3.41797-2.44141 3.41797-7.05078C3.41797-11.6602 7.08984-15.3516 11.6992-15.3516C16.3086-15.3516 20-11.6602 20.0098-7.05078C20.0195-2.44141 16.3184 1.25 11.709 1.25ZM7.98828-6.23047L10.8789-6.23047L10.8789-3.32031C10.8789-2.83203 11.2109-2.5 11.6895-2.5C12.1777-2.5 12.5195-2.83203 12.5195-3.32031L12.5195-6.23047L15.4297-6.23047C15.918-6.23047 16.25-6.5625 16.25-7.04102C16.25-7.5293 15.918-7.87109 15.4297-7.87109L12.5195-7.87109L12.5195-10.7617C12.5195-11.2695 12.1777-11.6016 11.6895-11.6016C11.2109-11.6016 10.8789-11.2598 10.8789-10.7617L10.8789-7.87109L7.98828-7.87109C7.48047-7.87109 7.14844-7.5293 7.14844-7.04102C7.14844-6.5625 7.49023-6.23047 7.98828-6.23047Z"/>
  </g>
  <g id="" transform="matrix(1 0 0 1 304.924 1933)">
   <path d="M14.9707 5.66406C21.9336 5.66406 27.6953-0.0976562 27.6953-7.05078C27.6953-14.0137 21.9238-19.7754 14.9609-19.7754C8.00781-19.7754 2.25586-14.0137 2.25586-7.05078C2.25586-0.0976562 8.01758 5.66406 14.9707 5.66406ZM14.9707 3.84766C8.93555 3.84766 4.08203-1.01562 4.08203-7.05078C4.08203-13.0957 8.92578-17.9492 14.9609-17.9492C21.0059-17.9492 25.8594-13.0957 25.8691-7.05078C25.8789-1.01562 21.0156 3.84766 14.9707 3.84766ZM10.0586-6.14258L14.0625-6.14258L14.0625-2.12891C14.0625-1.5918 14.4336-1.2207 14.9512-1.2207C15.4883-1.2207 15.8594-1.5918 15.8594-2.12891L15.8594-6.14258L19.8828-6.14258C20.4102-6.14258 20.791-6.51367 20.791-7.03125C20.791-7.56836 20.4199-7.94922 19.8828-7.94922L15.8594-7.94922L15.8594-11.9531C15.8594-12.5098 15.4883-12.8809 14.9512-12.8809C14.4336-12.8809 14.0625-12.5 14.0625-11.9531L14.0625-7.94922L10.0586-7.94922C9.50195-7.94922 9.13086-7.56836 9.13086-7.03125C9.13086-6.51367 9.51172-6.14258 10.0586-6.14258Z"/>
  </g>
  <text style="stroke:none;fill:black;font-family:-apple-system,&quot;SF Pro Display&quot;,&quot;SF Pro Text&quot;,Helvetica,sans-serif;font-weight:bold;" transform="matrix(1 0 0 1 263 1953)">Design Variations</text>
  <text style="stroke:none;fill:black;font-family:-apple-system,&quot;SF Pro Display&quot;,&quot;SF Pro Text&quot;,Helvetica,sans-serif;" transform="matrix(1 0 0 1 263 1971)">Symbols are supported in up to nine weights and three scales.</text>
  <text style="stroke:none;fill:black;font-family:-apple-system,&quot;SF Pro Display&quot;,&quot;SF Pro Text&quot;,Helvetica,sans-serif;" transform="matrix(1 0 0 1 263 1989)">For optimal layout with text and other symbols, vertically align</text>
  <text style="stroke:none;fill:black;font-family:-apple-system,&quot;SF Pro Display&quot;,&quot;SF Pro Text&quot;,Helvetica,sans-serif;" transform="matrix(1 0 0 1 263 2007)">symbols with the adjacent text.</text>
  <line id="" style="fill:none;stroke:#00AEEF;stroke-width:0.5;opacity:1.0;" x1="776" x2="776" y1="1919" y2="1933"/>
  <g id="" transform="matrix(1 0 0 1 776 1933)">
   <path d="M3.31055 0.126953C3.82812 0.126953 4.08203-0.0683594 4.26758-0.605469L5.52734-4.0625L11.2891-4.0625L12.5488-0.605469C12.7344-0.0683594 12.9883 0.126953 13.4961 0.126953C14.0137 0.126953 14.3457-0.185547 14.3457-0.673828C14.3457-0.839844 14.3164-0.986328 14.2383-1.20117L9.6582-13.3887C9.43359-13.9941 9.0332-14.2871 8.4082-14.2871C7.80273-14.2871 7.39258-13.9941 7.17773-13.3984L2.59766-1.19141C2.51953-0.976562 2.49023-0.830078 2.49023-0.664062C2.49023-0.175781 2.80273 0.126953 3.31055 0.126953ZM6.00586-5.53711L8.37891-12.1094L8.42773-12.1094L10.8008-5.53711Z"/>
  </g>
  <line id="" style="fill:none;stroke:#00AEEF;stroke-width:0.5;opacity:1.0;" x1="792.836" x2="792.836" y1="1919" y2="1933"/>
  <text style="stroke:none;fill:black;font-family:-apple-system,&quot;SF Pro Display&quot;,&quot;SF Pro Text&quot;,Helvetica,sans-serif;font-weight:bold;" transform="matrix(1 0 0 1 776 1953)">Margins</text>
  <text style="stroke:none;fill:black;font-family:-apple-system,&quot;SF Pro Display&quot;,&quot;SF Pro Text&quot;,Helvetica,sans-serif;" transform="matrix(1 0 0 1 776 1971)">Leading and trailing margins on the left and right side of each symbol</text>
  <text style="stroke:none;fill:black;font-family:-apple-system,&quot;SF Pro Display&quot;,&quot;SF Pro Text&quot;,Helvetica,sans-serif;" transform="matrix(1 0 0 1 776 1989)">can be adjusted by modifying the x-location of the margin guidelines.</text>
  <text style="stroke:none;fill:black;font-family:-apple-system,&quot;SF Pro Display&quot;,&quot;SF Pro Text&quot;,Helvetica,sans-serif;" transform="matrix(1 0 0 1 776 2007)">Modifications are automatically applied proportionally to all</text>
  <text style="stroke:none;fill:black;font-family:-apple-system,&quot;SF Pro Display&quot;,&quot;SF Pro Text&quot;,Helvetica,sans-serif;" transform="matrix(1 0 0 1 776 2025)">scales and weights.</text>
  <g id="" transform="matrix(1 0 0 1 1289 1933)">
   <path d="M2.8418 1.86523L4.54102 3.57422C5.40039 4.44336 6.38672 4.38477 7.31445 3.35938L17.4902-7.85156C17.7539-7.76367 18.0273-7.7832 18.3398-7.8418L19.4043-8.03711L20.0684-7.36328L20.0293-6.80664C19.9902-6.30859 20.1172-5.92773 20.6055-5.44922L21.3672-4.70703C21.8457-4.22852 22.4609-4.19922 22.9297-4.66797L25.8398-7.58789C26.3086-8.05664 26.2891-8.65234 25.8105-9.13086L25.0391-9.89258C24.5605-10.3711 24.1895-10.5273 23.7109-10.4883L23.1348-10.4395L22.4902-11.0742L22.7344-12.1973C22.8613-12.7637 22.7051-13.2031 22.1191-13.7891L19.9219-15.9766C16.582-19.2969 12.1484-19.2188 9.25781-16.3281C8.83789-15.918 8.80859-15.3418 9.04297-14.9512C9.27734-14.5898 9.73633-14.3555 10.3809-14.5215C11.8457-14.8633 13.3691-14.9219 14.7949-13.9844L14.209-12.5293C14.0137-12.0508 13.9844-11.6504 14.1113-11.2891L3.04688-0.898438C2.06055 0.0195312 1.98242 0.996094 2.8418 1.86523ZM10.752-15.957C13.1836-17.7344 16.4746-17.4316 18.7012-15.2051L21.1328-12.793C21.3672-12.5586 21.4062-12.373 21.3379-12.0312L21.0156-10.5469L22.5195-9.0625L23.5059-9.12109C23.7598-9.13086 23.8379-9.11133 24.0332-8.91602L24.6094-8.33984L22.168-5.89844L21.5918-6.47461C21.3965-6.66992 21.3672-6.74805 21.377-7.01172L21.4453-7.98828L19.9512-9.47266L18.4277-9.21875C18.1055-9.15039 17.959-9.17969 17.7148-9.41406L15.7129-11.416C15.459-11.6504 15.4297-11.8164 15.5859-12.1875L16.4648-14.2773C14.9023-15.7324 12.8711-16.3574 10.8398-15.7617C10.6836-15.7227 10.625-15.8496 10.752-15.957ZM5.27344 2.30469L4.10156 1.14258C3.63281 0.683594 3.74023 0.341797 4.14062-0.0195312L14.9512-10.1953L16.416-8.71094L6.42578 2.27539C6.07422 2.67578 5.74219 2.77344 5.27344 2.30469Z"/>
  </g>
  <text style="stroke:none;fill:black;font-family:-apple-system,&quot;SF Pro Display&quot;,&quot;SF Pro Text&quot;,Helvetica,sans-serif;font-weight:bold;" transform="matrix(1 0 0 1 1289 1953)">Exporting</text>
  <text style="stroke:none;fill:black;font-family:-apple-system,&quot;SF Pro Display&quot;,&quot;SF Pro Text&quot;,Helvetica,sans-serif;" transform="matrix(1 0 0 1 1289 1971)">Symbols should be outlined when exporting to ensure the</text>
  <text style="stroke:none;fill:black;font-family:-apple-system,&quot;SF Pro Display&quot;,&quot;SF Pro Text&quot;,Helvetica,sans-serif;" transform="matrix(1 0 0 1 1289 1989)">design is preserved when submitting to Xcode.</text>
  <text id="template-version" style="stroke:none;fill:black;font-family:-apple-system,&quot;SF Pro Display&quot;,&quot;SF Pro Text&quot;,Helvetica,sans-serif;text-anchor:end;" transform="matrix(1 0 0 1 3036 1933)">Template v.2.0</text>
  <text style="stroke:none;fill:black;font-family:-apple-system,&quot;SF Pro Display&quot;,&quot;SF Pro Text&quot;,Helvetica,sans-serif;text-anchor:end;" transform="matrix(1 0 0 1 3036 1951)">Requires Xcode 12 or greater</text>
  <text style="stroke:none;fill:black;font-family:-apple-system,&quot;SF Pro Display&quot;,&quot;SF Pro Text&quot;,Helvetica,sans-serif;" transform="matrix(1 0 0 1 263 726)">Small</text>
  <text style="stroke:none;fill:black;font-family:-apple-system,&quot;SF Pro Display&quot;,&quot;SF Pro Text&quot;,Helvetica,sans-serif;" transform="matrix(1 0 0 1 263 1156)">Medium</text>
  <text style="stroke:none;fill:black;font-family:-apple-system,&quot;SF Pro Display&quot;,&quot;SF Pro Text&quot;,Helvetica,sans-serif;" transform="matrix(1 0 0 1 263 1586)">Large</text>
 </g>
 <g id="Guides">
  <g id="H-reference" style="fill:#27AAE1;stroke:none;" transform="matrix(1 0 0 1 339 696)">
   <path d="M0.976562 0L3.66211 0L12.9883-24.4629L45.752-24.4629L55.127 0L57.7637 0L30.6152-70.459L28.125-70.459ZM29.3457-67.1387L29.4434-67.1387L44.873-26.709L13.8672-26.709Z"/>
  </g>
  <line id="Baseline-S" style="fill:none;stroke:#27AAE1;opacity:1;stroke-width:0.5;" x1="263" x2="3036" y1="696" y2="696"/>
  <line id="Capline-S" style="fill:none;stroke:#27AAE1;opacity:1;stroke-width:0.5;" x1="263" x2="3036" y1="625.541" y2="625.541"/>
  <g id="H-reference" style="fill:#27AAE1;stroke:none;" transform="matrix(1 0 0 1 339 1126)">
   <path d="M0.976562 0L3.66211 0L12.9883-24.4629L45.752-24.4629L55.127 0L57.7637 0L30.6152-70.459L28.125-70.459ZM29.3457-67.1387L29.4434-67.1387L44.873-26.709L13.8672-26.709Z"/>
  </g>
  <line id="Baseline-M" style="fill:none;stroke:#27AAE1;opacity:1;stroke-width:0.5;" x1="263" x2="3036" y1="1126" y2="1126"/>
  <line id="Capline-M" style="fill:none;stroke:#27AAE1;opacity:1;stroke-width:0.5;" x1="263" x2="3036" y1="1055.54" y2="1055.54"/>
  <g id="H-reference" style="fill:#27AAE1;stroke:none;" transform="matrix(1 0 0 1 339 1556)">
   <path d="M0.976562 0L3.66211 0L12.9883-24.4629L45.752-24.4629L55.127 0L57.7637 0L30.6152-70.459L28.125-70.459ZM29.3457-67.1387L29.4434-67.1387L44.873-26.709L13.8672-26.709Z"/>
  </g>
  <line id="Baseline-L" style="fill:none;stroke:#27AAE1;opacity:1;stroke-width:0.5;" x1="263" x2="3036" y1="1556" y2="1556"/>
  <line id="Capline-L" style="fill:none;stroke:#27AAE1;opacity:1;stroke-width:0.5;" x1="263" x2="3036" y1="1485.54" y2="1485.54"/>
  <line id="left-margin" x1="1415.9000195312499" x2="1415.9000195312499" y1="1030.79" y2="1150.12" style="fill:none;stroke:#00AEEF;stroke-width:0.5;opacity:1.0;"/>
  <line id="right-margin" x1="1486.3599804687499" x2="1486.3599804687499" y1="1030.79" y2="1150.12" style="fill:none;stroke:#00AEEF;stroke-width:0.5;opacity:1.0;"/>
 </g>
 <g id="Symbols">
  <g id="Black-L" transform="matrix(1.0,0.0,0.0,1.0,2889.2333251953123,1475.3233447265625)">  <path fill-opacity="1" fill-rule="nonzero" stroke-linejoin="miter" stroke-miterlimit="4" stroke-width="1px" stroke-opacity="1" fill="#000000" stroke-dasharray="none" stroke-linecap="butt" stroke="none" d="M45.447,5.581C22.569,5.581,3.764,21.679,3.764,41.811C3.764,53.495,10.22,63.783,19.997,70.375C19.981,70.767,20.011,71.407,19.499,73.304C18.865,75.654,17.585,78.953,14.98,82.649C14.617,83.164,14.571,83.837,14.86,84.397C15.148,84.956,15.724,85.309,16.354,85.312C27.583,85.361,34.083,77.995,35.093,76.808C38.418,77.549,41.863,78.04,45.447,78.04C68.322,78.04,87.13,61.943,87.13,41.811C87.13,21.679,68.322,5.581,45.447,5.581ZM45.447,8.962C66.745,8.962,83.75,23.794,83.75,41.811C83.75,59.828,66.745,74.66,45.447,74.66C41.807,74.66,38.291,74.226,34.958,73.414C34.321,73.258,33.651,73.485,33.24,73.996C33.24,73.996,27.986,79.959,19.61,81.367C21.124,78.65,22.242,76.114,22.762,74.185C23.488,71.496,23.497,69.672,23.497,69.672C23.497,69.093,23.201,68.555,22.713,68.245C13.211,62.221,7.144,52.615,7.144,41.811C7.144,23.793,24.146,8.962,45.447,8.962ZM25.45,29.086C24.795,29.077,24.185,29.421,23.854,29.987C23.524,30.554,23.524,31.254,23.854,31.82C24.185,32.386,24.795,32.731,25.45,32.722L65.443,32.722C66.099,32.731,66.709,32.386,67.039,31.82C67.37,31.254,67.37,30.554,67.039,29.987C66.709,29.421,66.099,29.077,65.443,29.086L25.45,29.086ZM18.179,39.993C17.523,39.984,16.913,40.328,16.583,40.895C16.252,41.461,16.252,42.161,16.583,42.727C16.913,43.294,17.523,43.638,18.179,43.629L49.082,43.629C49.738,43.638,50.348,43.294,50.678,42.727C51.009,42.161,51.009,41.461,50.678,40.895C50.348,40.328,49.738,39.984,49.082,39.993L18.179,39.993ZM59.99,39.993C59.334,39.984,58.724,40.328,58.394,40.895C58.063,41.461,58.063,42.161,58.394,42.727C58.724,43.294,59.334,43.638,59.99,43.629L72.715,43.629C73.37,43.638,73.98,43.294,74.311,42.727C74.641,42.161,74.641,41.461,74.311,40.895C73.98,40.328,73.37,39.984,72.715,39.993L59.99,39.993ZM25.45,50.9C24.795,50.891,24.185,51.235,23.854,51.802C23.524,52.368,23.524,53.068,23.854,53.635C24.185,54.201,24.795,54.545,25.45,54.536L65.443,54.536C66.099,54.545,66.709,54.201,67.039,53.635C67.37,53.068,67.37,52.368,67.039,51.802C66.709,51.235,66.099,50.891,65.443,50.9L25.45,50.9ZM25.45,50.9"/>
</g>
  <g id="Heavy-L" transform="matrix(1.0,0.0,0.0,1.0,2592.5233251953123,1475.3233447265625)">  <path stroke-opacity="1" fill="#000000" stroke-linejoin="miter" stroke-linecap="butt" fill-rule="nonzero" stroke="none" stroke-width="1px" stroke-miterlimit="4" fill-opacity="1" stroke-dasharray="none" d="M45.447,5.581C22.569,5.581,3.764,21.679,3.764,41.811C3.764,53.495,10.22,63.783,19.997,70.375C19.981,70.767,20.011,71.407,19.499,73.304C18.865,75.654,17.585,78.953,14.98,82.649C14.617,83.164,14.571,83.837,14.86,84.397C15.148,84.956,15.724,85.309,16.354,85.312C27.583,85.361,34.083,77.995,35.093,76.808C38.418,77.549,41.863,78.04,45.447,78.04C68.322,78.04,87.13,61.943,87.13,41.811C87.13,21.679,68.322,5.581,45.447,5.581ZM45.447,8.962C66.745,8.962,83.75,23.794,83.75,41.811C83.75,59.828,66.745,74.66,45.447,74.66C41.807,74.66,38.291,74.226,34.958,73.414C34.321,73.258,33.651,73.485,33.24,73.996C33.24,73.996,27.986,79.959,19.61,81.367C21.124,78.65,22.242,76.114,22.762,74.185C23.488,71.496,23.497,69.672,23.497,69.672C23.497,69.093,23.201,68.555,22.713,68.245C13.211,62.221,7.144,52.615,7.144,41.811C7.144,23.793,24.146,8.962,45.447,8.962ZM25.45,29.086C24.795,29.077,24.185,29.421,23.854,29.987C23.524,30.554,23.524,31.254,23.854,31.82C24.185,32.386,24.795,32.731,25.45,32.722L65.443,32.722C66.099,32.731,66.709,32.386,67.039,31.82C67.37,31.254,67.37,30.554,67.039,29.987C66.709,29.421,66.099,29.077,65.443,29.086L25.45,29.086ZM18.179,39.993C17.523,39.984,16.913,40.328,16.583,40.895C16.252,41.461,16.252,42.161,16.583,42.727C16.913,43.294,17.523,43.638,18.179,43.629L49.082,43.629C49.738,43.638,50.348,43.294,50.678,42.727C51.009,42.161,51.009,41.461,50.678,40.895C50.348,40.328,49.738,39.984,49.082,39.993L18.179,39.993ZM59.99,39.993C59.334,39.984,58.724,40.328,58.394,40.895C58.063,41.461,58.063,42.161,58.394,42.727C58.724,43.294,59.334,43.638,59.99,43.629L72.715,43.629C73.37,43.638,73.98,43.294,74.311,42.727C74.641,42.161,74.641,41.461,74.311,40.895C73.98,40.328,73.37,39.984,72.715,39.993L59.99,39.993ZM25.45,50.9C24.795,50.891,24.185,51.235,23.854,51.802C23.524,52.368,23.524,53.068,23.854,53.635C24.185,54.201,24.795,54.545,25.45,54.536L65.443,54.536C66.099,54.545,66.709,54.201,67.039,53.635C67.37,53.068,67.37,52.368,67.039,51.802C66.709,51.235,66.099,50.891,65.443,50.9L25.45,50.9ZM25.45,50.9"/>
</g>
  <g id="Bold-L" transform="matrix(1.0,0.0,0.0,1.0,2295.8133251953122,1475.3233447265625)">  <path stroke-linecap="butt" stroke="none" stroke-dasharray="none" fill-opacity="1" stroke-width="1px" fill-rule="nonzero" stroke-miterlimit="4" fill="#000000" stroke-linejoin="miter" stroke-opacity="1" d="M45.447,5.581C22.569,5.581,3.764,21.679,3.764,41.811C3.764,53.495,10.22,63.783,19.997,70.375C19.981,70.767,20.011,71.407,19.499,73.304C18.865,75.654,17.585,78.953,14.98,82.649C14.617,83.164,14.571,83.837,14.86,84.397C15.148,84.956,15.724,85.309,16.354,85.312C27.583,85.361,34.083,77.995,35.093,76.808C38.418,77.549,41.863,78.04,45.447,78.04C68.322,78.04,87.13,61.943,87.13,41.811C87.13,21.679,68.322,5.581,45.447,5.581ZM45.447,8.962C66.745,8.962,83.75,23.794,83.75,41.811C83.75,59.828,66.745,74.66,45.447,74.66C41.807,74.66,38.291,74.226,34.958,73.414C34.321,73.258,33.651,73.485,33.24,73.996C33.24,73.996,27.986,79.959,19.61,81.367C21.124,78.65,22.242,76.114,22.762,74.185C23.488,71.496,23.497,69.672,23.497,69.672C23.497,69.093,23.201,68.555,22.713,68.245C13.211,62.221,7.144,52.615,7.144,41.811C7.144,23.793,24.146,8.962,45.447,8.962ZM25.45,29.086C24.795,29.077,24.185,29.421,23.854,29.987C23.524,30.554,23.524,31.254,23.854,31.82C24.185,32.386,24.795,32.731,25.45,32.722L65.443,32.722C66.099,32.731,66.709,32.386,67.039,31.82C67.37,31.254,67.37,30.554,67.039,29.987C66.709,29.421,66.099,29.077,65.443,29.086L25.45,29.086ZM18.179,39.993C17.523,39.984,16.913,40.328,16.583,40.895C16.252,41.461,16.252,42.161,16.583,42.727C16.913,43.294,17.523,43.638,18.179,43.629L49.082,43.629C49.738,43.638,50.348,43.294,50.678,42.727C51.009,42.161,51.009,41.461,50.678,40.895C50.348,40.328,49.738,39.984,49.082,39.993L18.179,39.993ZM59.99,39.993C59.334,39.984,58.724,40.328,58.394,40.895C58.063,41.461,58.063,42.161,58.394,42.727C58.724,43.294,59.334,43.638,59.99,43.629L72.715,43.629C73.37,43.638,73.98,43.294,74.311,42.727C74.641,42.161,74.641,41.461,74.311,40.895C73.98,40.328,73.37,39.984,72.715,39.993L59.99,39.993ZM25.45,50.9C24.795,50.891,24.185,51.235,23.854,51.802C23.524,52.368,23.524,53.068,23.854,53.635C24.185,54.201,24.795,54.545,25.45,54.536L65.443,54.536C66.099,54.545,66.709,54.201,67.039,53.635C67.37,53.068,67.37,52.368,67.039,51.802C66.709,51.235,66.099,50.891,65.443,50.9L25.45,50.9ZM25.45,50.9"/>
</g>
  <g id="Semibold-L" transform="matrix(1.0,0.0,0.0,1.0,1999.1033251953124,1475.3233447265625)">  <path stroke-opacity="1" stroke-dasharray="none" stroke="none" fill="#000000" fill-opacity="1" fill-rule="nonzero" stroke-linecap="butt" stroke-linejoin="miter" stroke-width="1px" stroke-miterlimit="4" d="M45.447,5.581C22.569,5.581,3.764,21.679,3.764,41.811C3.764,53.495,10.22,63.783,19.997,70.375C19.981,70.767,20.011,71.407,19.499,73.304C18.865,75.654,17.585,78.953,14.98,82.649C14.617,83.164,14.571,83.837,14.86,84.397C15.148,84.956,15.724,85.309,16.354,85.312C27.583,85.361,34.083,77.995,35.093,76.808C38.418,77.549,41.863,78.04,45.447,78.04C68.322,78.04,87.13,61.943,87.13,41.811C87.13,21.679,68.322,5.581,45.447,5.581ZM45.447,8.962C66.745,8.962,83.75,23.794,83.75,41.811C83.75,59.828,66.745,74.66,45.447,74.66C41.807,74.66,38.291,74.226,34.958,73.414C34.321,73.258,33.651,73.485,33.24,73.996C33.24,73.996,27.986,79.959,19.61,81.367C21.124,78.65,22.242,76.114,22.762,74.185C23.488,71.496,23.497,69.672,23.497,69.672C23.497,69.093,23.201,68.555,22.713,68.245C13.211,62.221,7.144,52.615,7.144,41.811C7.144,23.793,24.146,8.962,45.447,8.962ZM25.45,29.086C24.795,29.077,24.185,29.421,23.854,29.987C23.524,30.554,23.524,31.254,23.854,31.82C24.185,32.386,24.795,32.731,25.45,32.722L65.443,32.722C66.099,32.731,66.709,32.386,67.039,31.82C67.37,31.254,67.37,30.554,67.039,29.987C66.709,29.421,66.099,29.077,65.443,29.086L25.45,29.086ZM18.179,39.993C17.523,39.984,16.913,40.328,16.583,40.895C16.252,41.461,16.252,42.161,16.583,42.727C16.913,43.294,17.523,43.638,18.179,43.629L49.082,43.629C49.738,43.638,50.348,43.294,50.678,42.727C51.009,42.161,51.009,41.461,50.678,40.895C50.348,40.328,49.738,39.984,49.082,39.993L18.179,39.993ZM59.99,39.993C59.334,39.984,58.724,40.328,58.394,40.895C58.063,41.461,58.063,42.161,58.394,42.727C58.724,43.294,59.334,43.638,59.99,43.629L72.715,43.629C73.37,43.638,73.98,43.294,74.311,42.727C74.641,42.161,74.641,41.461,74.311,40.895C73.98,40.328,73.37,39.984,72.715,39.993L59.99,39.993ZM25.45,50.9C24.795,50.891,24.185,51.235,23.854,51.802C23.524,52.368,23.524,53.068,23.854,53.635C24.185,54.201,24.795,54.545,25.45,54.536L65.443,54.536C66.099,54.545,66.709,54.201,67.039,53.635C67.37,53.068,67.37,52.368,67.039,51.802C66.709,51.235,66.099,50.891,65.443,50.9L25.45,50.9ZM25.45,50.9"/>
</g>
  <g id="Medium-L" transform="matrix(1.0,0.0,0.0,1.0,1702.3933251953124,1475.3233447265625)">  <path stroke-miterlimit="4" fill-rule="nonzero" stroke-dasharray="none" fill="#000000" stroke-linecap="butt" stroke="none" stroke-opacity="1" fill-opacity="1" stroke-width="1px" stroke-linejoin="miter" d="M45.447,5.581C22.569,5.581,3.764,21.679,3.764,41.811C3.764,53.495,10.22,63.783,19.997,70.375C19.981,70.767,20.011,71.407,19.499,73.304C18.865,75.654,17.585,78.953,14.98,82.649C14.617,83.164,14.571,83.837,14.86,84.397C15.148,84.956,15.724,85.309,16.354,85.312C27.583,85.361,34.083,77.995,35.093,76.808C38.418,77.549,41.863,78.04,45.447,78.04C68.322,78.04,87.13,61.943,87.13,41.811C87.13,21.679,68.322,5.581,45.447,5.581ZM45.447,8.962C66.745,8.962,83.75,23.794,83.75,41.811C83.75,59.828,66.745,74.66,45.447,74.66C41.807,74.66,38.291,74.226,34.958,73.414C34.321,73.258,33.651,73.485,33.24,73.996C33.24,73.996,27.986,79.959,19.61,81.367C21.124,78.65,22.242,76.114,22.762,74.185C23.488,71.496,23.497,69.672,23.497,69.672C23.497,69.093,23.201,68.555,22.713,68.245C13.211,62.221,7.144,52.615,7.144,41.811C7.144,23.793,24.146,8.962,45.447,8.962ZM25.45,29.086C24.795,29.077,24.185,29.421,23.854,29.987C23.524,30.554,23.524,31.254,23.854,31.82C24.185,32.386,24.795,32.731,25.45,32.722L65.443,32.722C66.099,32.731,66.709,32.386,67.039,31.82C67.37,31.254,67.37,30.554,67.039,29.987C66.709,29.421,66.099,29.077,65.443,29.086L25.45,29.086ZM18.179,39.993C17.523,39.984,16.913,40.328,16.583,40.895C16.252,41.461,16.252,42.161,16.583,42.727C16.913,43.294,17.523,43.638,18.179,43.629L49.082,43.629C49.738,43.638,50.348,43.294,50.678,42.727C51.009,42.161,51.009,41.461,50.678,40.895C50.348,40.328,49.738,39.984,49.082,39.993L18.179,39.993ZM59.99,39.993C59.334,39.984,58.724,40.328,58.394,40.895C58.063,41.461,58.063,42.161,58.394,42.727C58.724,43.294,59.334,43.638,59.99,43.629L72.715,43.629C73.37,43.638,73.98,43.294,74.311,42.727C74.641,42.161,74.641,41.461,74.311,40.895C73.98,40.328,73.37,39.984,72.715,39.993L59.99,39.993ZM25.45,50.9C24.795,50.891,24.185,51.235,23.854,51.802C23.524,52.368,23.524,53.068,23.854,53.635C24.185,54.201,24.795,54.545,25.45,54.536L65.443,54.536C66.099,54.545,66.709,54.201,67.039,53.635C67.37,53.068,67.37,52.368,67.039,51.802C66.709,51.235,66.099,50.891,65.443,50.9L25.45,50.9ZM25.45,50.9"/>
</g>
  <g id="Regular-L" transform="matrix(1.0,0.0,0.0,1.0,1405.6833251953124,1475.3233447265625)">  <path stroke-opacity="1" stroke-miterlimit="4" fill-opacity="1" fill="#000000" stroke-width="1px" stroke-dasharray="none" stroke="none" stroke-linecap="butt" stroke-linejoin="miter" fill-rule="nonzero" d="M45.447,5.581C22.569,5.581,3.764,21.679,3.764,41.811C3.764,53.495,10.22,63.783,19.997,70.375C19.981,70.767,20.011,71.407,19.499,73.304C18.865,75.654,17.585,78.953,14.98,82.649C14.617,83.164,14.571,83.837,14.86,84.397C15.148,84.956,15.724,85.309,16.354,85.312C27.583,85.361,34.083,77.995,35.093,76.808C38.418,77.549,41.863,78.04,45.447,78.04C68.322,78.04,87.13,61.943,87.13,41.811C87.13,21.679,68.322,5.581,45.447,5.581ZM45.447,8.962C66.745,8.962,83.75,23.794,83.75,41.811C83.75,59.828,66.745,74.66,45.447,74.66C41.807,74.66,38.291,74.226,34.958,73.414C34.321,73.258,33.651,73.485,33.24,73.996C33.24,73.996,27.986,79.959,19.61,81.367C21.124,78.65,22.242,76.114,22.762,74.185C23.488,71.496,23.497,69.672,23.497,69.672C23.497,69.093,23.201,68.555,22.713,68.245C13.211,62.221,7.144,52.615,7.144,41.811C7.144,23.793,24.146,8.962,45.447,8.962ZM25.45,29.086C24.795,29.077,24.185,29.421,23.854,29.987C23.524,30.554,23.524,31.254,23.854,31.82C24.185,32.386,24.795,32.731,25.45,32.722L65.443,32.722C66.099,32.731,66.709,32.386,67.039,31.82C67.37,31.254,67.37,30.554,67.039,29.987C66.709,29.421,66.099,29.077,65.443,29.086L25.45,29.086ZM18.179,39.993C17.523,39.984,16.913,40.328,16.583,40.895C16.252,41.461,16.252,42.161,16.583,42.727C16.913,43.294,17.523,43.638,18.179,43.629L49.082,43.629C49.738,43.638,50.348,43.294,50.678,42.727C51.009,42.161,51.009,41.461,50.678,40.895C50.348,40.328,49.738,39.984,49.082,39.993L18.179,39.993ZM59.99,39.993C59.334,39.984,58.724,40.328,58.394,40.895C58.063,41.461,58.063,42.161,58.394,42.727C58.724,43.294,59.334,43.638,59.99,43.629L72.715,43.629C73.37,43.638,73.98,43.294,74.311,42.727C74.641,42.161,74.641,41.461,74.311,40.895C73.98,40.328,73.37,39.984,72.715,39.993L59.99,39.993ZM25.45,50.9C24.795,50.891,24.185,51.235,23.854,51.802C23.524,52.368,23.524,53.068,23.854,53.635C24.185,54.201,24.795,54.545,25.45,54.536L65.443,54.536C66.099,54.545,66.709,54.201,67.039,53.635C67.37,53.068,67.37,52.368,67.039,51.802C66.709,51.235,66.099,50.891,65.443,50.9L25.45,50.9ZM25.45,50.9"/>
</g>
  <g id="Light-L" transform="matrix(1.0,0.0,0.0,1.0,1108.9733251953126,1475.3233447265625)">  <path stroke-linejoin="miter" stroke="none" stroke-miterlimit="4" fill-opacity="1" stroke-width="1px" fill="#000000" fill-rule="nonzero" stroke-opacity="1" stroke-linecap="butt" stroke-dasharray="none" d="M45.447,5.581C22.569,5.581,3.764,21.679,3.764,41.811C3.764,53.495,10.22,63.783,19.997,70.375C19.981,70.767,20.011,71.407,19.499,73.304C18.865,75.654,17.585,78.953,14.98,82.649C14.617,83.164,14.571,83.837,14.86,84.397C15.148,84.956,15.724,85.309,16.354,85.312C27.583,85.361,34.083,77.995,35.093,76.808C38.418,77.549,41.863,78.04,45.447,78.04C68.322,78.04,87.13,61.943,87.13,41.811C87.13,21.679,68.322,5.581,45.447,5.581ZM45.447,8.962C66.745,8.962,83.75,23.794,83.75,41.811C83.75,59.828,66.745,74.66,45.447,74.66C41.807,74.66,38.291,74.226,34.958,73.414C34.321,73.258,33.651,73.485,33.24,73.996C33.24,73.996,27.986,79.959,19.61,81.367C21.124,78.65,22.242,76.114,22.762,74.185C23.488,71.496,23.497,69.672,23.497,69.672C23.497,69.093,23.201,68.555,22.713,68.245C13.211,62.221,7.144,52.615,7.144,41.811C7.144,23.793,24.146,8.962,45.447,8.962ZM25.45,29.086C24.795,29.077,24.185,29.421,23.854,29.987C23.524,30.554,23.524,31.254,23.854,31.82C24.185,32.386,24.795,32.731,25.45,32.722L65.443,32.722C66.099,32.731,66.709,32.386,67.039,31.82C67.37,31.254,67.37,30.554,67.039,29.987C66.709,29.421,66.099,29.077,65.443,29.086L25.45,29.086ZM18.179,39.993C17.523,39.984,16.913,40.328,16.583,40.895C16.252,41.461,16.252,42.161,16.583,42.727C16.913,43.294,17.523,43.638,18.179,43.629L49.082,43.629C49.738,43.638,50.348,43.294,50.678,42.727C51.009,42.161,51.009,41.461,50.678,40.895C50.348,40.328,49.738,39.984,49.082,39.993L18.179,39.993ZM59.99,39.993C59.334,39.984,58.724,40.328,58.394,40.895C58.063,41.461,58.063,42.161,58.394,42.727C58.724,43.294,59.334,43.638,59.99,43.629L72.715,43.629C73.37,43.638,73.98,43.294,74.311,42.727C74.641,42.161,74.641,41.461,74.311,40.895C73.98,40.328,73.37,39.984,72.715,39.993L59.99,39.993ZM25.45,50.9C24.795,50.891,24.185,51.235,23.854,51.802C23.524,52.368,23.524,53.068,23.854,53.635C24.185,54.201,24.795,54.545,25.45,54.536L65.443,54.536C66.099,54.545,66.709,54.201,67.039,53.635C67.37,53.068,67.37,52.368,67.039,51.802C66.709,51.235,66.099,50.891,65.443,50.9L25.45,50.9ZM25.45,50.9"/>
</g>
  <g id="Thin-L" transform="matrix(1.0,0.0,0.0,1.0,812.2633251953125,1475.3233447265625)">  <path stroke-opacity="1" stroke="none" stroke-width="1px" stroke-linecap="butt" fill-opacity="1" stroke-dasharray="none" stroke-linejoin="miter" stroke-miterlimit="4" fill="#000000" fill-rule="nonzero" d="M45.447,5.581C22.569,5.581,3.764,21.679,3.764,41.811C3.764,53.495,10.22,63.783,19.997,70.375C19.981,70.767,20.011,71.407,19.499,73.304C18.865,75.654,17.585,78.953,14.98,82.649C14.617,83.164,14.571,83.837,14.86,84.397C15.148,84.956,15.724,85.309,16.354,85.312C27.583,85.361,34.083,77.995,35.093,76.808C38.418,77.549,41.863,78.04,45.447,78.04C68.322,78.04,87.13,61.943,87.13,41.811C87.13,21.679,68.322,5.581,45.447,5.581ZM45.447,8.962C66.745,8.962,83.75,23.794,83.75,41.811C83.75,59.828,66.745,74.66,45.447,74.66C41.807,74.66,38.291,74.226,34.958,73.414C34.321,73.258,33.651,73.485,33.24,73.996C33.24,73.996,27.986,79.959,19.61,81.367C21.124,78.65,22.242,76.114,22.762,74.185C23.488,71.496,23.497,69.672,23.497,69.672C23.497,69.093,23.201,68.555,22.713,68.245C13.211,62.221,7.144,52.615,7.144,41.811C7.144,23.793,24.146,8.962,45.447,8.962ZM25.45,29.086C24.795,29.077,24.185,29.421,23.854,29.987C23.524,30.554,23.524,31.254,23.854,31.82C24.185,32.386,24.795,32.731,25.45,32.722L65.443,32.722C66.099,32.731,66.709,32.386,67.039,31.82C67.37,31.254,67.37,30.554,67.039,29.987C66.709,29.421,66.099,29.077,65.443,29.086L25.45,29.086ZM18.179,39.993C17.523,39.984,16.913,40.328,16.583,40.895C16.252,41.461,16.252,42.161,16.583,42.727C16.913,43.294,17.523,43.638,18.179,43.629L49.082,43.629C49.738,43.638,50.348,43.294,50.678,42.727C51.009,42.161,51.009,41.461,50.678,40.895C50.348,40.328,49.738,39.984,49.082,39.993L18.179,39.993ZM59.99,39.993C59.334,39.984,58.724,40.328,58.394,40.895C58.063,41.461,58.063,42.161,58.394,42.727C58.724,43.294,59.334,43.638,59.99,43.629L72.715,43.629C73.37,43.638,73.98,43.294,74.311,42.727C74.641,42.161,74.641,41.461,74.311,40.895C73.98,40.328,73.37,39.984,72.715,39.993L59.99,39.993ZM25.45,50.9C24.795,50.891,24.185,51.235,23.854,51.802C23.524,52.368,23.524,53.068,23.854,53.635C24.185,54.201,24.795,54.545,25.45,54.536L65.443,54.536C66.099,54.545,66.709,54.201,67.039,53.635C67.37,53.068,67.37,52.368,67.039,51.802C66.709,51.235,66.099,50.891,65.443,50.9L25.45,50.9ZM25.45,50.9"/>
</g>
  <g id="Ultralight-L" transform="matrix(1.0,0.0,0.0,1.0,515.5533251953125,1475.3233447265625)">  <path stroke-miterlimit="4" stroke-dasharray="none" stroke="none" stroke-width="1px" stroke-linejoin="miter" fill-opacity="1" fill-rule="nonzero" stroke-opacity="1" fill="#000000" stroke-linecap="butt" d="M45.447,5.581C22.569,5.581,3.764,21.679,3.764,41.811C3.764,53.495,10.22,63.783,19.997,70.375C19.981,70.767,20.011,71.407,19.499,73.304C18.865,75.654,17.585,78.953,14.98,82.649C14.617,83.164,14.571,83.837,14.86,84.397C15.148,84.956,15.724,85.309,16.354,85.312C27.583,85.361,34.083,77.995,35.093,76.808C38.418,77.549,41.863,78.04,45.447,78.04C68.322,78.04,87.13,61.943,87.13,41.811C87.13,21.679,68.322,5.581,45.447,5.581ZM45.447,8.962C66.745,8.962,83.75,23.794,83.75,41.811C83.75,59.828,66.745,74.66,45.447,74.66C41.807,74.66,38.291,74.226,34.958,73.414C34.321,73.258,33.651,73.485,33.24,73.996C33.24,73.996,27.986,79.959,19.61,81.367C21.124,78.65,22.242,76.114,22.762,74.185C23.488,71.496,23.497,69.672,23.497,69.672C23.497,69.093,23.201,68.555,22.713,68.245C13.211,62.221,7.144,52.615,7.144,41.811C7.144,23.793,24.146,8.962,45.447,8.962ZM25.45,29.086C24.795,29.077,24.185,29.421,23.854,29.987C23.524,30.554,23.524,31.254,23.854,31.82C24.185,32.386,24.795,32.731,25.45,32.722L65.443,32.722C66.099,32.731,66.709,32.386,67.039,31.82C67.37,31.254,67.37,30.554,67.039,29.987C66.709,29.421,66.099,29.077,65.443,29.086L25.45,29.086ZM18.179,39.993C17.523,39.984,16.913,40.328,16.583,40.895C16.252,41.461,16.252,42.161,16.583,42.727C16.913,43.294,17.523,43.638,18.179,43.629L49.082,43.629C49.738,43.638,50.348,43.294,50.678,42.727C51.009,42.161,51.009,41.461,50.678,40.895C50.348,40.328,49.738,39.984,49.082,39.993L18.179,39.993ZM59.99,39.993C59.334,39.984,58.724,40.328,58.394,40.895C58.063,41.461,58.063,42.161,58.394,42.727C58.724,43.294,59.334,43.638,59.99,43.629L72.715,43.629C73.37,43.638,73.98,43.294,74.311,42.727C74.641,42.161,74.641,41.461,74.311,40.895C73.98,40.328,73.37,39.984,72.715,39.993L59.99,39.993ZM25.45,50.9C24.795,50.891,24.185,51.235,23.854,51.802C23.524,52.368,23.524,53.068,23.854,53.635C24.185,54.201,24.795,54.545,25.45,54.536L65.443,54.536C66.099,54.545,66.709,54.201,67.039,53.635C67.37,53.068,67.37,52.368,67.039,51.802C66.709,51.235,66.099,50.891,65.443,50.9L25.45,50.9ZM25.45,50.9"/>
</g>
  <g id="Black-M" transform="matrix(1.0,0.0,0.0,1.0,2899.45001953125,1055.5400390625)">  <path fill-opacity="1" fill-rule="nonzero" stroke-linejoin="miter" stroke-miterlimit="4" stroke-width="1px" stroke-opacity="1" fill="#000000" stroke-dasharray="none" stroke-linecap="butt" stroke="none" d="M35.23,4.327C17.495,4.327,2.917,16.805,2.917,32.412C2.917,41.469,7.922,49.444,15.501,54.554C15.489,54.858,15.513,55.354,15.116,56.825C14.624,58.647,13.631,61.204,11.612,64.069C11.331,64.468,11.295,64.99,11.519,65.424C11.743,65.858,12.189,66.131,12.677,66.133C21.382,66.171,26.421,60.461,27.204,59.541C29.781,60.115,32.452,60.496,35.23,60.496C52.963,60.496,67.542,48.018,67.542,32.412C67.542,16.805,52.963,4.327,35.23,4.327ZM35.23,6.947C51.74,6.947,64.922,18.445,64.922,32.412C64.922,46.379,51.74,57.876,35.23,57.876C32.409,57.876,29.683,57.539,27.1,56.91C26.606,56.789,26.086,56.965,25.767,57.362C25.767,57.362,21.694,61.983,15.201,63.075C16.375,60.969,17.242,59.003,17.645,57.507C18.208,55.423,18.215,54.009,18.215,54.009C18.215,53.561,17.986,53.143,17.607,52.903C10.241,48.233,5.538,40.787,5.538,32.412C5.538,18.444,18.718,6.947,35.23,6.947ZM19.729,22.547C19.221,22.54,18.748,22.807,18.492,23.246C18.235,23.685,18.235,24.228,18.492,24.667C18.748,25.106,19.221,25.373,19.729,25.366L50.731,25.366C51.239,25.373,51.712,25.106,51.968,24.667C52.224,24.228,52.224,23.685,51.968,23.246C51.712,22.807,51.239,22.54,50.731,22.547L19.729,22.547ZM14.092,31.002C13.584,30.995,13.111,31.262,12.855,31.701C12.599,32.14,12.599,32.683,12.855,33.122C13.111,33.561,13.584,33.828,14.092,33.821L38.048,33.821C38.557,33.828,39.029,33.561,39.285,33.122C39.542,32.683,39.542,32.14,39.285,31.701C39.029,31.262,38.557,30.995,38.048,31.002L14.092,31.002ZM46.504,31.002C45.995,30.995,45.523,31.262,45.266,31.701C45.01,32.14,45.01,32.683,45.266,33.122C45.523,33.561,45.995,33.828,46.504,33.821L56.368,33.821C56.876,33.828,57.349,33.561,57.605,33.122C57.861,32.683,57.861,32.14,57.605,31.701C57.349,31.262,56.876,30.995,56.368,31.002L46.504,31.002ZM19.729,39.458C19.221,39.45,18.748,39.717,18.492,40.156C18.235,40.595,18.235,41.138,18.492,41.577C18.748,42.016,19.221,42.283,19.729,42.276L50.731,42.276C51.239,42.283,51.712,42.016,51.968,41.577C52.224,41.138,52.224,40.595,51.968,40.156C51.712,39.717,51.239,39.45,50.731,39.458L19.729,39.458ZM19.729,39.458"/>
</g>
  <g id="Heavy-M" transform="matrix(1.0,0.0,0.0,1.0,2602.74001953125,1055.5400390625)">  <path stroke-opacity="1" fill="#000000" stroke-linejoin="miter" stroke-linecap="butt" fill-rule="nonzero" stroke="none" stroke-width="1px" stroke-miterlimit="4" fill-opacity="1" stroke-dasharray="none" d="M35.23,4.327C17.495,4.327,2.917,16.805,2.917,32.412C2.917,41.469,7.922,49.444,15.501,54.554C15.489,54.858,15.513,55.354,15.116,56.825C14.624,58.647,13.631,61.204,11.612,64.069C11.331,64.468,11.295,64.99,11.519,65.424C11.743,65.858,12.189,66.131,12.677,66.133C21.382,66.171,26.421,60.461,27.204,59.541C29.781,60.115,32.452,60.496,35.23,60.496C52.963,60.496,67.542,48.018,67.542,32.412C67.542,16.805,52.963,4.327,35.23,4.327ZM35.23,6.947C51.74,6.947,64.922,18.445,64.922,32.412C64.922,46.379,51.74,57.876,35.23,57.876C32.409,57.876,29.683,57.539,27.1,56.91C26.606,56.789,26.086,56.965,25.767,57.362C25.767,57.362,21.694,61.983,15.201,63.075C16.375,60.969,17.242,59.003,17.645,57.507C18.208,55.423,18.215,54.009,18.215,54.009C18.215,53.561,17.986,53.143,17.607,52.903C10.241,48.233,5.538,40.787,5.538,32.412C5.538,18.444,18.718,6.947,35.23,6.947ZM19.729,22.547C19.221,22.54,18.748,22.807,18.492,23.246C18.235,23.685,18.235,24.228,18.492,24.667C18.748,25.106,19.221,25.373,19.729,25.366L50.731,25.366C51.239,25.373,51.712,25.106,51.968,24.667C52.224,24.228,52.224,23.685,51.968,23.246C51.712,22.807,51.239,22.54,50.731,22.547L19.729,22.547ZM14.092,31.002C13.584,30.995,13.111,31.262,12.855,31.701C12.599,32.14,12.599,32.683,12.855,33.122C13.111,33.561,13.584,33.828,14.092,33.821L38.048,33.821C38.557,33.828,39.029,33.561,39.285,33.122C39.542,32.683,39.542,32.14,39.285,31.701C39.029,31.262,38.557,30.995,38.048,31.002L14.092,31.002ZM46.504,31.002C45.995,30.995,45.523,31.262,45.266,31.701C45.01,32.14,45.01,32.683,45.266,33.122C45.523,33.561,45.995,33.828,46.504,33.821L56.368,33.821C56.876,33.828,57.349,33.561,57.605,33.122C57.861,32.683,57.861,32.14,57.605,31.701C57.349,31.262,56.876,30.995,56.368,31.002L46.504,31.002ZM19.729,39.458C19.221,39.45,18.748,39.717,18.492,40.156C18.235,40.595,18.235,41.138,18.492,41.577C18.748,42.016,19.221,42.283,19.729,42.276L50.731,42.276C51.239,42.283,51.712,42.016,51.968,41.577C52.224,41.138,52.224,40.595,51.968,40.156C51.712,39.717,51.239,39.45,50.731,39.458L19.729,39.458ZM19.729,39.458"/>
</g>
  <g id="Bold-M" transform="matrix(1.0,0.0,0.0,1.0,2306.0300195312498,1055.5400390625)">  <path stroke-linecap="butt" stroke="none" stroke-dasharray="none" fill-opacity="1" stroke-width="1px" fill-rule="nonzero" stroke-miterlimit="4" fill="#000000" stroke-linejoin="miter" stroke-opacity="1" d="M35.23,4.327C17.495,4.327,2.917,16.805,2.917,32.412C2.917,41.469,7.922,49.444,15.501,54.554C15.489,54.858,15.513,55.354,15.116,56.825C14.624,58.647,13.631,61.204,11.612,64.069C11.331,64.468,11.295,64.99,11.519,65.424C11.743,65.858,12.189,66.131,12.677,66.133C21.382,66.171,26.421,60.461,27.204,59.541C29.781,60.115,32.452,60.496,35.23,60.496C52.963,60.496,67.542,48.018,67.542,32.412C67.542,16.805,52.963,4.327,35.23,4.327ZM35.23,6.947C51.74,6.947,64.922,18.445,64.922,32.412C64.922,46.379,51.74,57.876,35.23,57.876C32.409,57.876,29.683,57.539,27.1,56.91C26.606,56.789,26.086,56.965,25.767,57.362C25.767,57.362,21.694,61.983,15.201,63.075C16.375,60.969,17.242,59.003,17.645,57.507C18.208,55.423,18.215,54.009,18.215,54.009C18.215,53.561,17.986,53.143,17.607,52.903C10.241,48.233,5.538,40.787,5.538,32.412C5.538,18.444,18.718,6.947,35.23,6.947ZM19.729,22.547C19.221,22.54,18.748,22.807,18.492,23.246C18.235,23.685,18.235,24.228,18.492,24.667C18.748,25.106,19.221,25.373,19.729,25.366L50.731,25.366C51.239,25.373,51.712,25.106,51.968,24.667C52.224,24.228,52.224,23.685,51.968,23.246C51.712,22.807,51.239,22.54,50.731,22.547L19.729,22.547ZM14.092,31.002C13.584,30.995,13.111,31.262,12.855,31.701C12.599,32.14,12.599,32.683,12.855,33.122C13.111,33.561,13.584,33.828,14.092,33.821L38.048,33.821C38.557,33.828,39.029,33.561,39.285,33.122C39.542,32.683,39.542,32.14,39.285,31.701C39.029,31.262,38.557,30.995,38.048,31.002L14.092,31.002ZM46.504,31.002C45.995,30.995,45.523,31.262,45.266,31.701C45.01,32.14,45.01,32.683,45.266,33.122C45.523,33.561,45.995,33.828,46.504,33.821L56.368,33.821C56.876,33.828,57.349,33.561,57.605,33.122C57.861,32.683,57.861,32.14,57.605,31.701C57.349,31.262,56.876,30.995,56.368,31.002L46.504,31.002ZM19.729,39.458C19.221,39.45,18.748,39.717,18.492,40.156C18.235,40.595,18.235,41.138,18.492,41.577C18.748,42.016,19.221,42.283,19.729,42.276L50.731,42.276C51.239,42.283,51.712,42.016,51.968,41.577C52.224,41.138,52.224,40.595,51.968,40.156C51.712,39.717,51.239,39.45,50.731,39.458L19.729,39.458ZM19.729,39.458"/>
</g>
  <g id="Semibold-M" transform="matrix(1.0,0.0,0.0,1.0,2009.32001953125,1055.5400390625)">  <path stroke-opacity="1" stroke-dasharray="none" stroke="none" fill="#000000" fill-opacity="1" fill-rule="nonzero" stroke-linecap="butt" stroke-linejoin="miter" stroke-width="1px" stroke-miterlimit="4" d="M35.23,4.327C17.495,4.327,2.917,16.805,2.917,32.412C2.917,41.469,7.922,49.444,15.501,54.554C15.489,54.858,15.513,55.354,15.116,56.825C14.624,58.647,13.631,61.204,11.612,64.069C11.331,64.468,11.295,64.99,11.519,65.424C11.743,65.858,12.189,66.131,12.677,66.133C21.382,66.171,26.421,60.461,27.204,59.541C29.781,60.115,32.452,60.496,35.23,60.496C52.963,60.496,67.542,48.018,67.542,32.412C67.542,16.805,52.963,4.327,35.23,4.327ZM35.23,6.947C51.74,6.947,64.922,18.445,64.922,32.412C64.922,46.379,51.74,57.876,35.23,57.876C32.409,57.876,29.683,57.539,27.1,56.91C26.606,56.789,26.086,56.965,25.767,57.362C25.767,57.362,21.694,61.983,15.201,63.075C16.375,60.969,17.242,59.003,17.645,57.507C18.208,55.423,18.215,54.009,18.215,54.009C18.215,53.561,17.986,53.143,17.607,52.903C10.241,48.233,5.538,40.787,5.538,32.412C5.538,18.444,18.718,6.947,35.23,6.947ZM19.729,22.547C19.221,22.54,18.748,22.807,18.492,23.246C18.235,23.685,18.235,24.228,18.492,24.667C18.748,25.106,19.221,25.373,19.729,25.366L50.731,25.366C51.239,25.373,51.712,25.106,51.968,24.667C52.224,24.228,52.224,23.685,51.968,23.246C51.712,22.807,51.239,22.54,50.731,22.547L19.729,22.547ZM14.092,31.002C13.584,30.995,13.111,31.262,12.855,31.701C12.599,32.14,12.599,32.683,12.855,33.122C13.111,33.561,13.584,33.828,14.092,33.821L38.048,33.821C38.557,33.828,39.029,33.561,39.285,33.122C39.542,32.683,39.542,32.14,39.285,31.701C39.029,31.262,38.557,30.995,38.048,31.002L14.092,31.002ZM46.504,31.002C45.995,30.995,45.523,31.262,45.266,31.701C45.01,32.14,45.01,32.683,45.266,33.122C45.523,33.561,45.995,33.828,46.504,33.821L56.368,33.821C56.876,33.828,57.349,33.561,57.605,33.122C57.861,32.683,57.861,32.14,57.605,31.701C57.349,31.262,56.876,30.995,56.368,31.002L46.504,31.002ZM19.729,39.458C19.221,39.45,18.748,39.717,18.492,40.156C18.235,40.595,18.235,41.138,18.492,41.577C18.748,42.016,19.221,42.283,19.729,42.276L50.731,42.276C51.239,42.283,51.712,42.016,51.968,41.577C52.224,41.138,52.224,40.595,51.968,40.156C51.712,39.717,51.239,39.45,50.731,39.458L19.729,39.458ZM19.729,39.458"/>
</g>
  <g id="Medium-M" transform="matrix(1.0,0.0,0.0,1.0,1712.61001953125,1055.5400390625)">  <path stroke-miterlimit="4" fill-rule="nonzero" stroke-dasharray="none" fill="#000000" stroke-linecap="butt" stroke="none" stroke-opacity="1" fill-opacity="1" stroke-width="1px" stroke-linejoin="miter" d="M35.23,4.327C17.495,4.327,2.917,16.805,2.917,32.412C2.917,41.469,7.922,49.444,15.501,54.554C15.489,54.858,15.513,55.354,15.116,56.825C14.624,58.647,13.631,61.204,11.612,64.069C11.331,64.468,11.295,64.99,11.519,65.424C11.743,65.858,12.189,66.131,12.677,66.133C21.382,66.171,26.421,60.461,27.204,59.541C29.781,60.115,32.452,60.496,35.23,60.496C52.963,60.496,67.542,48.018,67.542,32.412C67.542,16.805,52.963,4.327,35.23,4.327ZM35.23,6.947C51.74,6.947,64.922,18.445,64.922,32.412C64.922,46.379,51.74,57.876,35.23,57.876C32.409,57.876,29.683,57.539,27.1,56.91C26.606,56.789,26.086,56.965,25.767,57.362C25.767,57.362,21.694,61.983,15.201,63.075C16.375,60.969,17.242,59.003,17.645,57.507C18.208,55.423,18.215,54.009,18.215,54.009C18.215,53.561,17.986,53.143,17.607,52.903C10.241,48.233,5.538,40.787,5.538,32.412C5.538,18.444,18.718,6.947,35.23,6.947ZM19.729,22.547C19.221,22.54,18.748,22.807,18.492,23.246C18.235,23.685,18.235,24.228,18.492,24.667C18.748,25.106,19.221,25.373,19.729,25.366L50.731,25.366C51.239,25.373,51.712,25.106,51.968,24.667C52.224,24.228,52.224,23.685,51.968,23.246C51.712,22.807,51.239,22.54,50.731,22.547L19.729,22.547ZM14.092,31.002C13.584,30.995,13.111,31.262,12.855,31.701C12.599,32.14,12.599,32.683,12.855,33.122C13.111,33.561,13.584,33.828,14.092,33.821L38.048,33.821C38.557,33.828,39.029,33.561,39.285,33.122C39.542,32.683,39.542,32.14,39.285,31.701C39.029,31.262,38.557,30.995,38.048,31.002L14.092,31.002ZM46.504,31.002C45.995,30.995,45.523,31.262,45.266,31.701C45.01,32.14,45.01,32.683,45.266,33.122C45.523,33.561,45.995,33.828,46.504,33.821L56.368,33.821C56.876,33.828,57.349,33.561,57.605,33.122C57.861,32.683,57.861,32.14,57.605,31.701C57.349,31.262,56.876,30.995,56.368,31.002L46.504,31.002ZM19.729,39.458C19.221,39.45,18.748,39.717,18.492,40.156C18.235,40.595,18.235,41.138,18.492,41.577C18.748,42.016,19.221,42.283,19.729,42.276L50.731,42.276C51.239,42.283,51.712,42.016,51.968,41.577C52.224,41.138,52.224,40.595,51.968,40.156C51.712,39.717,51.239,39.45,50.731,39.458L19.729,39.458ZM19.729,39.458"/>
</g>
  <g id="Regular-M" transform="matrix(1.0,0.0,0.0,1.0,1415.9000195312499,1055.5400390625)">  <path stroke-opacity="1" stroke-miterlimit="4" fill-opacity="1" fill="#000000" stroke-width="1px" stroke-dasharray="none" stroke="none" stroke-linecap="butt" stroke-linejoin="miter" fill-rule="nonzero" d="M35.23,4.327C17.495,4.327,2.917,16.805,2.917,32.412C2.917,41.469,7.922,49.444,15.501,54.554C15.489,54.858,15.513,55.354,15.116,56.825C14.624,58.647,13.631,61.204,11.612,64.069C11.331,64.468,11.295,64.99,11.519,65.424C11.743,65.858,12.189,66.131,12.677,66.133C21.382,66.171,26.421,60.461,27.204,59.541C29.781,60.115,32.452,60.496,35.23,60.496C52.963,60.496,67.542,48.018,67.542,32.412C67.542,16.805,52.963,4.327,35.23,4.327ZM35.23,6.947C51.74,6.947,64.922,18.445,64.922,32.412C64.922,46.379,51.74,57.876,35.23,57.876C32.409,57.876,29.683,57.539,27.1,56.91C26.606,56.789,26.086,56.965,25.767,57.362C25.767,57.362,21.694,61.983,15.201,63.075C16.375,60.969,17.242,59.003,17.645,57.507C18.208,55.423,18.215,54.009,18.215,54.009C18.215,53.561,17.986,53.143,17.607,52.903C10.241,48.233,5.538,40.787,5.538,32.412C5.538,18.444,18.718,6.947,35.23,6.947ZM19.729,22.547C19.221,22.54,18.748,22.807,18.492,23.246C18.235,23.685,18.235,24.228,18.492,24.667C18.748,25.106,19.221,25.373,19.729,25.366L50.731,25.366C51.239,25.373,51.712,25.106,51.968,24.667C52.224,24.228,52.224,23.685,51.968,23.246C51.712,22.807,51.239,22.54,50.731,22.547L19.729,22.547ZM14.092,31.002C13.584,30.995,13.111,31.262,12.855,31.701C12.599,32.14,12.599,32.683,12.855,33.122C13.111,33.561,13.584,33.828,14.092,33.821L38.048,33.821C38.557,33.828,39.029,33.561,39.285,33.122C39.542,32.683,39.542,32.14,39.285,31.701C39.029,31.262,38.557,30.995,38.048,31.002L14.092,31.002ZM46.504,31.002C45.995,30.995,45.523,31.262,45.266,31.701C45.01,32.14,45.01,32.683,45.266,33.122C45.523,33.561,45.995,33.828,46.504,33.821L56.368,33.821C56.876,33.828,57.349,33.561,57.605,33.122C57.861,32.683,57.861,32.14,57.605,31.701C57.349,31.262,56.876,30.995,56.368,31.002L46.504,31.002ZM19.729,39.458C19.221,39.45,18.748,39.717,18.492,40.156C18.235,40.595,18.235,41.138,18.492,41.577C18.748,42.016,19.221,42.283,19.729,42.276L50.731,42.276C51.239,42.283,51.712,42.016,51.968,41.577C52.224,41.138,52.224,40.595,51.968,40.156C51.712,39.717,51.239,39.45,50.731,39.458L19.729,39.458ZM19.729,39.458"/>
</g>
  <g id="Light-M" transform="matrix(1.0,0.0,0.0,1.0,1119.19001953125,1055.5400390625)">  <path stroke-linejoin="miter" stroke="none" stroke-miterlimit="4" fill-opacity="1" stroke-width="1px" fill="#000000" fill-rule="nonzero" stroke-opacity="1" stroke-linecap="butt" stroke-dasharray="none" d="M35.23,4.327C17.495,4.327,2.917,16.805,2.917,32.412C2.917,41.469,7.922,49.444,15.501,54.554C15.489,54.858,15.513,55.354,15.116,56.825C14.624,58.647,13.631,61.204,11.612,64.069C11.331,64.468,11.295,64.99,11.519,65.424C11.743,65.858,12.189,66.131,12.677,66.133C21.382,66.171,26.421,60.461,27.204,59.541C29.781,60.115,32.452,60.496,35.23,60.496C52.963,60.496,67.542,48.018,67.542,32.412C67.542,16.805,52.963,4.327,35.23,4.327ZM35.23,6.947C51.74,6.947,64.922,18.445,64.922,32.412C64.922,46.379,51.74,57.876,35.23,57.876C32.409,57.876,29.683,57.539,27.1,56.91C26.606,56.789,26.086,56.965,25.767,57.362C25.767,57.362,21.694,61.983,15.201,63.075C16.375,60.969,17.242,59.003,17.645,57.507C18.208,55.423,18.215,54.009,18.215,54.009C18.215,53.561,17.986,53.143,17.607,52.903C10.241,48.233,5.538,40.787,5.538,32.412C5.538,18.444,18.718,6.947,35.23,6.947ZM19.729,22.547C19.221,22.54,18.748,22.807,18.492,23.246C18.235,23.685,18.235,24.228,18.492,24.667C18.748,25.106,19.221,25.373,19.729,25.366L50.731,25.366C51.239,25.373,51.712,25.106,51.968,24.667C52.224,24.228,52.224,23.685,51.968,23.246C51.712,22.807,51.239,22.54,50.731,22.547L19.729,22.547ZM14.092,31.002C13.584,30.995,13.111,31.262,12.855,31.701C12.599,32.14,12.599,32.683,12.855,33.122C13.111,33.561,13.584,33.828,14.092,33.821L38.048,33.821C38.557,33.828,39.029,33.561,39.285,33.122C39.542,32.683,39.542,32.14,39.285,31.701C39.029,31.262,38.557,30.995,38.048,31.002L14.092,31.002ZM46.504,31.002C45.995,30.995,45.523,31.262,45.266,31.701C45.01,32.14,45.01,32.683,45.266,33.122C45.523,33.561,45.995,33.828,46.504,33.821L56.368,33.821C56.876,33.828,57.349,33.561,57.605,33.122C57.861,32.683,57.861,32.14,57.605,31.701C57.349,31.262,56.876,30.995,56.368,31.002L46.504,31.002ZM19.729,39.458C19.221,39.45,18.748,39.717,18.492,40.156C18.235,40.595,18.235,41.138,18.492,41.577C18.748,42.016,19.221,42.283,19.729,42.276L50.731,42.276C51.239,42.283,51.712,42.016,51.968,41.577C52.224,41.138,52.224,40.595,51.968,40.156C51.712,39.717,51.239,39.45,50.731,39.458L19.729,39.458ZM19.729,39.458"/>
</g>
  <g id="Thin-M" transform="matrix(1.0,0.0,0.0,1.0,822.48001953125,1055.5400390625)">  <path stroke-opacity="1" stroke="none" stroke-width="1px" stroke-linecap="butt" fill-opacity="1" stroke-dasharray="none" stroke-linejoin="miter" stroke-miterlimit="4" fill="#000000" fill-rule="nonzero" d="M35.23,4.327C17.495,4.327,2.917,16.805,2.917,32.412C2.917,41.469,7.922,49.444,15.501,54.554C15.489,54.858,15.513,55.354,15.116,56.825C14.624,58.647,13.631,61.204,11.612,64.069C11.331,64.468,11.295,64.99,11.519,65.424C11.743,65.858,12.189,66.131,12.677,66.133C21.382,66.171,26.421,60.461,27.204,59.541C29.781,60.115,32.452,60.496,35.23,60.496C52.963,60.496,67.542,48.018,67.542,32.412C67.542,16.805,52.963,4.327,35.23,4.327ZM35.23,6.947C51.74,6.947,64.922,18.445,64.922,32.412C64.922,46.379,51.74,57.876,35.23,57.876C32.409,57.876,29.683,57.539,27.1,56.91C26.606,56.789,26.086,56.965,25.767,57.362C25.767,57.362,21.694,61.983,15.201,63.075C16.375,60.969,17.242,59.003,17.645,57.507C18.208,55.423,18.215,54.009,18.215,54.009C18.215,53.561,17.986,53.143,17.607,52.903C10.241,48.233,5.538,40.787,5.538,32.412C5.538,18.444,18.718,6.947,35.23,6.947ZM19.729,22.547C19.221,22.54,18.748,22.807,18.492,23.246C18.235,23.685,18.235,24.228,18.492,24.667C18.748,25.106,19.221,25.373,19.729,25.366L50.731,25.366C51.239,25.373,51.712,25.106,51.968,24.667C52.224,24.228,52.224,23.685,51.968,23.246C51.712,22.807,51.239,22.54,50.731,22.547L19.729,22.547ZM14.092,31.002C13.584,30.995,13.111,31.262,12.855,31.701C12.599,32.14,12.599,32.683,12.855,33.122C13.111,33.561,13.584,33.828,14.092,33.821L38.048,33.821C38.557,33.828,39.029,33.561,39.285,33.122C39.542,32.683,39.542,32.14,39.285,31.701C39.029,31.262,38.557,30.995,38.048,31.002L14.092,31.002ZM46.504,31.002C45.995,30.995,45.523,31.262,45.266,31.701C45.01,32.14,45.01,32.683,45.266,33.122C45.523,33.561,45.995,33.828,46.504,33.821L56.368,33.821C56.876,33.828,57.349,33.561,57.605,33.122C57.861,32.683,57.861,32.14,57.605,31.701C57.349,31.262,56.876,30.995,56.368,31.002L46.504,31.002ZM19.729,39.458C19.221,39.45,18.748,39.717,18.492,40.156C18.235,40.595,18.235,41.138,18.492,41.577C18.748,42.016,19.221,42.283,19.729,42.276L50.731,42.276C51.239,42.283,51.712,42.016,51.968,41.577C52.224,41.138,52.224,40.595,51.968,40.156C51.712,39.717,51.239,39.45,50.731,39.458L19.729,39.458ZM19.729,39.458"/>
</g>
  <g id="Ultralight-M" transform="matrix(1.0,0.0,0.0,1.0,525.77001953125,1055.5400390625)">  <path stroke-miterlimit="4" stroke-dasharray="none" stroke="none" stroke-width="1px" stroke-linejoin="miter" fill-opacity="1" fill-rule="nonzero" stroke-opacity="1" fill="#000000" stroke-linecap="butt" d="M35.23,4.327C17.495,4.327,2.917,16.805,2.917,32.412C2.917,41.469,7.922,49.444,15.501,54.554C15.489,54.858,15.513,55.354,15.116,56.825C14.624,58.647,13.631,61.204,11.612,64.069C11.331,64.468,11.295,64.99,11.519,65.424C11.743,65.858,12.189,66.131,12.677,66.133C21.382,66.171,26.421,60.461,27.204,59.541C29.781,60.115,32.452,60.496,35.23,60.496C52.963,60.496,67.542,48.018,67.542,32.412C67.542,16.805,52.963,4.327,35.23,4.327ZM35.23,6.947C51.74,6.947,64.922,18.445,64.922,32.412C64.922,46.379,51.74,57.876,35.23,57.876C32.409,57.876,29.683,57.539,27.1,56.91C26.606,56.789,26.086,56.965,25.767,57.362C25.767,57.362,21.694,61.983,15.201,63.075C16.375,60.969,17.242,59.003,17.645,57.507C18.208,55.423,18.215,54.009,18.215,54.009C18.215,53.561,17.986,53.143,17.607,52.903C10.241,48.233,5.538,40.787,5.538,32.412C5.538,18.444,18.718,6.947,35.23,6.947ZM19.729,22.547C19.221,22.54,18.748,22.807,18.492,23.246C18.235,23.685,18.235,24.228,18.492,24.667C18.748,25.106,19.221,25.373,19.729,25.366L50.731,25.366C51.239,25.373,51.712,25.106,51.968,24.667C52.224,24.228,52.224,23.685,51.968,23.246C51.712,22.807,51.239,22.54,50.731,22.547L19.729,22.547ZM14.092,31.002C13.584,30.995,13.111,31.262,12.855,31.701C12.599,32.14,12.599,32.683,12.855,33.122C13.111,33.561,13.584,33.828,14.092,33.821L38.048,33.821C38.557,33.828,39.029,33.561,39.285,33.122C39.542,32.683,39.542,32.14,39.285,31.701C39.029,31.262,38.557,30.995,38.048,31.002L14.092,31.002ZM46.504,31.002C45.995,30.995,45.523,31.262,45.266,31.701C45.01,32.14,45.01,32.683,45.266,33.122C45.523,33.561,45.995,33.828,46.504,33.821L56.368,33.821C56.876,33.828,57.349,33.561,57.605,33.122C57.861,32.683,57.861,32.14,57.605,31.701C57.349,31.262,56.876,30.995,56.368,31.002L46.504,31.002ZM19.729,39.458C19.221,39.45,18.748,39.717,18.492,40.156C18.235,40.595,18.235,41.138,18.492,41.577C18.748,42.016,19.221,42.283,19.729,42.276L50.731,42.276C51.239,42.283,51.712,42.016,51.968,41.577C52.224,41.138,52.224,40.595,51.968,40.156C51.712,39.717,51.239,39.45,50.731,39.458L19.729,39.458ZM19.729,39.458"/>
</g>
  <g id="Black-S" transform="matrix(1.0,0.0,0.0,1.0,2907.0949252929686,633.1849448242187)">  <path fill-opacity="1" fill-rule="nonzero" stroke-linejoin="miter" stroke-miterlimit="4" stroke-width="1px" stroke-opacity="1" fill="#000000" stroke-dasharray="none" stroke-linecap="butt" stroke="none" d="M27.585,3.388C13.699,3.388,2.284,13.158,2.284,25.378C2.284,32.47,6.203,38.715,12.137,42.716C12.128,42.954,12.146,43.342,11.836,44.494C11.451,45.92,10.673,47.923,9.092,50.166C8.872,50.478,8.844,50.887,9.019,51.227C9.195,51.567,9.544,51.781,9.926,51.782C16.742,51.812,20.688,47.341,21.301,46.621C23.319,47.07,25.41,47.369,27.585,47.369C41.47,47.369,52.886,37.598,52.886,25.378C52.886,13.158,41.47,3.388,27.585,3.388ZM27.585,5.439C40.513,5.439,50.834,14.442,50.834,25.378C50.834,36.314,40.513,45.317,27.585,45.317C25.376,45.317,23.241,45.053,21.219,44.561C20.832,44.466,20.425,44.604,20.176,44.914C20.176,44.914,16.987,48.533,11.903,49.388C12.822,47.739,13.5,46.199,13.816,45.028C14.257,43.396,14.262,42.289,14.262,42.289C14.262,41.938,14.083,41.611,13.786,41.423C8.019,37.767,4.336,31.936,4.336,25.378C4.336,14.442,14.656,5.439,27.585,5.439ZM15.448,17.654C15.05,17.649,14.68,17.858,14.479,18.202C14.278,18.545,14.278,18.97,14.479,19.314C14.68,19.658,15.05,19.867,15.448,19.861L39.723,19.861C40.12,19.867,40.491,19.658,40.691,19.314C40.892,18.97,40.892,18.545,40.691,18.202C40.491,17.858,40.12,17.649,39.723,17.654L15.448,17.654ZM11.034,24.275C10.636,24.269,10.266,24.478,10.065,24.822C9.865,25.166,9.865,25.591,10.065,25.935C10.266,26.278,10.636,26.487,11.034,26.482L29.792,26.482C30.19,26.487,30.56,26.278,30.761,25.935C30.961,25.591,30.961,25.166,30.761,24.822C30.56,24.478,30.19,24.269,29.792,24.275L11.034,24.275ZM36.412,24.275C36.014,24.269,35.644,24.478,35.444,24.822C35.243,25.166,35.243,25.591,35.444,25.935C35.644,26.278,36.014,26.487,36.412,26.482L44.136,26.482C44.534,26.487,44.904,26.278,45.105,25.935C45.305,25.591,45.305,25.166,45.105,24.822C44.904,24.478,44.534,24.269,44.136,24.275L36.412,24.275ZM15.448,30.895C15.05,30.89,14.68,31.099,14.479,31.442C14.278,31.786,14.278,32.211,14.479,32.555C14.68,32.899,15.05,33.108,15.448,33.102L39.723,33.102C40.12,33.108,40.491,32.899,40.691,32.555C40.892,32.211,40.892,31.786,40.691,31.442C40.491,31.099,40.12,30.89,39.723,30.895L15.448,30.895ZM15.448,30.895"/>
</g>
  <g id="Heavy-S" transform="matrix(1.0,0.0,0.0,1.0,2610.3849252929685,633.1849448242187)">  <path stroke-opacity="1" fill="#000000" stroke-linejoin="miter" stroke-linecap="butt" fill-rule="nonzero" stroke="none" stroke-width="1px" stroke-miterlimit="4" fill-opacity="1" stroke-dasharray="none" d="M27.585,3.388C13.699,3.388,2.284,13.158,2.284,25.378C2.284,32.47,6.203,38.715,12.137,42.716C12.128,42.954,12.146,43.342,11.836,44.494C11.451,45.92,10.673,47.923,9.092,50.166C8.872,50.478,8.844,50.887,9.019,51.227C9.195,51.567,9.544,51.781,9.926,51.782C16.742,51.812,20.688,47.341,21.301,46.621C23.319,47.07,25.41,47.369,27.585,47.369C41.47,47.369,52.886,37.598,52.886,25.378C52.886,13.158,41.47,3.388,27.585,3.388ZM27.585,5.439C40.513,5.439,50.834,14.442,50.834,25.378C50.834,36.314,40.513,45.317,27.585,45.317C25.376,45.317,23.241,45.053,21.219,44.561C20.832,44.466,20.425,44.604,20.176,44.914C20.176,44.914,16.987,48.533,11.903,49.388C12.822,47.739,13.5,46.199,13.816,45.028C14.257,43.396,14.262,42.289,14.262,42.289C14.262,41.938,14.083,41.611,13.786,41.423C8.019,37.767,4.336,31.936,4.336,25.378C4.336,14.442,14.656,5.439,27.585,5.439ZM15.448,17.654C15.05,17.649,14.68,17.858,14.479,18.202C14.278,18.545,14.278,18.97,14.479,19.314C14.68,19.658,15.05,19.867,15.448,19.861L39.723,19.861C40.12,19.867,40.491,19.658,40.691,19.314C40.892,18.97,40.892,18.545,40.691,18.202C40.491,17.858,40.12,17.649,39.723,17.654L15.448,17.654ZM11.034,24.275C10.636,24.269,10.266,24.478,10.065,24.822C9.865,25.166,9.865,25.591,10.065,25.935C10.266,26.278,10.636,26.487,11.034,26.482L29.792,26.482C30.19,26.487,30.56,26.278,30.761,25.935C30.961,25.591,30.961,25.166,30.761,24.822C30.56,24.478,30.19,24.269,29.792,24.275L11.034,24.275ZM36.412,24.275C36.014,24.269,35.644,24.478,35.444,24.822C35.243,25.166,35.243,25.591,35.444,25.935C35.644,26.278,36.014,26.487,36.412,26.482L44.136,26.482C44.534,26.487,44.904,26.278,45.105,25.935C45.305,25.591,45.305,25.166,45.105,24.822C44.904,24.478,44.534,24.269,44.136,24.275L36.412,24.275ZM15.448,30.895C15.05,30.89,14.68,31.099,14.479,31.442C14.278,31.786,14.278,32.211,14.479,32.555C14.68,32.899,15.05,33.108,15.448,33.102L39.723,33.102C40.12,33.108,40.491,32.899,40.691,32.555C40.892,32.211,40.892,31.786,40.691,31.442C40.491,31.099,40.12,30.89,39.723,30.895L15.448,30.895ZM15.448,30.895"/>
</g>
  <g id="Bold-S" transform="matrix(1.0,0.0,0.0,1.0,2313.6749252929685,633.1849448242187)">  <path stroke-linecap="butt" stroke="none" stroke-dasharray="none" fill-opacity="1" stroke-width="1px" fill-rule="nonzero" stroke-miterlimit="4" fill="#000000" stroke-linejoin="miter" stroke-opacity="1" d="M27.585,3.388C13.699,3.388,2.284,13.158,2.284,25.378C2.284,32.47,6.203,38.715,12.137,42.716C12.128,42.954,12.146,43.342,11.836,44.494C11.451,45.92,10.673,47.923,9.092,50.166C8.872,50.478,8.844,50.887,9.019,51.227C9.195,51.567,9.544,51.781,9.926,51.782C16.742,51.812,20.688,47.341,21.301,46.621C23.319,47.07,25.41,47.369,27.585,47.369C41.47,47.369,52.886,37.598,52.886,25.378C52.886,13.158,41.47,3.388,27.585,3.388ZM27.585,5.439C40.513,5.439,50.834,14.442,50.834,25.378C50.834,36.314,40.513,45.317,27.585,45.317C25.376,45.317,23.241,45.053,21.219,44.561C20.832,44.466,20.425,44.604,20.176,44.914C20.176,44.914,16.987,48.533,11.903,49.388C12.822,47.739,13.5,46.199,13.816,45.028C14.257,43.396,14.262,42.289,14.262,42.289C14.262,41.938,14.083,41.611,13.786,41.423C8.019,37.767,4.336,31.936,4.336,25.378C4.336,14.442,14.656,5.439,27.585,5.439ZM15.448,17.654C15.05,17.649,14.68,17.858,14.479,18.202C14.278,18.545,14.278,18.97,14.479,19.314C14.68,19.658,15.05,19.867,15.448,19.861L39.723,19.861C40.12,19.867,40.491,19.658,40.691,19.314C40.892,18.97,40.892,18.545,40.691,18.202C40.491,17.858,40.12,17.649,39.723,17.654L15.448,17.654ZM11.034,24.275C10.636,24.269,10.266,24.478,10.065,24.822C9.865,25.166,9.865,25.591,10.065,25.935C10.266,26.278,10.636,26.487,11.034,26.482L29.792,26.482C30.19,26.487,30.56,26.278,30.761,25.935C30.961,25.591,30.961,25.166,30.761,24.822C30.56,24.478,30.19,24.269,29.792,24.275L11.034,24.275ZM36.412,24.275C36.014,24.269,35.644,24.478,35.444,24.822C35.243,25.166,35.243,25.591,35.444,25.935C35.644,26.278,36.014,26.487,36.412,26.482L44.136,26.482C44.534,26.487,44.904,26.278,45.105,25.935C45.305,25.591,45.305,25.166,45.105,24.822C44.904,24.478,44.534,24.269,44.136,24.275L36.412,24.275ZM15.448,30.895C15.05,30.89,14.68,31.099,14.479,31.442C14.278,31.786,14.278,32.211,14.479,32.555C14.68,32.899,15.05,33.108,15.448,33.102L39.723,33.102C40.12,33.108,40.491,32.899,40.691,32.555C40.892,32.211,40.892,31.786,40.691,31.442C40.491,31.099,40.12,30.89,39.723,30.895L15.448,30.895ZM15.448,30.895"/>
</g>
  <g id="Semibold-S" transform="matrix(1.0,0.0,0.0,1.0,2016.9649252929687,633.1849448242187)">  <path stroke-opacity="1" stroke-dasharray="none" stroke="none" fill="#000000" fill-opacity="1" fill-rule="nonzero" stroke-linecap="butt" stroke-linejoin="miter" stroke-width="1px" stroke-miterlimit="4" d="M27.585,3.388C13.699,3.388,2.284,13.158,2.284,25.378C2.284,32.47,6.203,38.715,12.137,42.716C12.128,42.954,12.146,43.342,11.836,44.494C11.451,45.92,10.673,47.923,9.092,50.166C8.872,50.478,8.844,50.887,9.019,51.227C9.195,51.567,9.544,51.781,9.926,51.782C16.742,51.812,20.688,47.341,21.301,46.621C23.319,47.07,25.41,47.369,27.585,47.369C41.47,47.369,52.886,37.598,52.886,25.378C52.886,13.158,41.47,3.388,27.585,3.388ZM27.585,5.439C40.513,5.439,50.834,14.442,50.834,25.378C50.834,36.314,40.513,45.317,27.585,45.317C25.376,45.317,23.241,45.053,21.219,44.561C20.832,44.466,20.425,44.604,20.176,44.914C20.176,44.914,16.987,48.533,11.903,49.388C12.822,47.739,13.5,46.199,13.816,45.028C14.257,43.396,14.262,42.289,14.262,42.289C14.262,41.938,14.083,41.611,13.786,41.423C8.019,37.767,4.336,31.936,4.336,25.378C4.336,14.442,14.656,5.439,27.585,5.439ZM15.448,17.654C15.05,17.649,14.68,17.858,14.479,18.202C14.278,18.545,14.278,18.97,14.479,19.314C14.68,19.658,15.05,19.867,15.448,19.861L39.723,19.861C40.12,19.867,40.491,19.658,40.691,19.314C40.892,18.97,40.892,18.545,40.691,18.202C40.491,17.858,40.12,17.649,39.723,17.654L15.448,17.654ZM11.034,24.275C10.636,24.269,10.266,24.478,10.065,24.822C9.865,25.166,9.865,25.591,10.065,25.935C10.266,26.278,10.636,26.487,11.034,26.482L29.792,26.482C30.19,26.487,30.56,26.278,30.761,25.935C30.961,25.591,30.961,25.166,30.761,24.822C30.56,24.478,30.19,24.269,29.792,24.275L11.034,24.275ZM36.412,24.275C36.014,24.269,35.644,24.478,35.444,24.822C35.243,25.166,35.243,25.591,35.444,25.935C35.644,26.278,36.014,26.487,36.412,26.482L44.136,26.482C44.534,26.487,44.904,26.278,45.105,25.935C45.305,25.591,45.305,25.166,45.105,24.822C44.904,24.478,44.534,24.269,44.136,24.275L36.412,24.275ZM15.448,30.895C15.05,30.89,14.68,31.099,14.479,31.442C14.278,31.786,14.278,32.211,14.479,32.555C14.68,32.899,15.05,33.108,15.448,33.102L39.723,33.102C40.12,33.108,40.491,32.899,40.691,32.555C40.892,32.211,40.892,31.786,40.691,31.442C40.491,31.099,40.12,30.89,39.723,30.895L15.448,30.895ZM15.448,30.895"/>
</g>
  <g id="Medium-S" transform="matrix(1.0,0.0,0.0,1.0,1720.2549252929687,633.1849448242187)">  <path stroke-miterlimit="4" fill-rule="nonzero" stroke-dasharray="none" fill="#000000" stroke-linecap="butt" stroke="none" stroke-opacity="1" fill-opacity="1" stroke-width="1px" stroke-linejoin="miter" d="M27.585,3.388C13.699,3.388,2.284,13.158,2.284,25.378C2.284,32.47,6.203,38.715,12.137,42.716C12.128,42.954,12.146,43.342,11.836,44.494C11.451,45.92,10.673,47.923,9.092,50.166C8.872,50.478,8.844,50.887,9.019,51.227C9.195,51.567,9.544,51.781,9.926,51.782C16.742,51.812,20.688,47.341,21.301,46.621C23.319,47.07,25.41,47.369,27.585,47.369C41.47,47.369,52.886,37.598,52.886,25.378C52.886,13.158,41.47,3.388,27.585,3.388ZM27.585,5.439C40.513,5.439,50.834,14.442,50.834,25.378C50.834,36.314,40.513,45.317,27.585,45.317C25.376,45.317,23.241,45.053,21.219,44.561C20.832,44.466,20.425,44.604,20.176,44.914C20.176,44.914,16.987,48.533,11.903,49.388C12.822,47.739,13.5,46.199,13.816,45.028C14.257,43.396,14.262,42.289,14.262,42.289C14.262,41.938,14.083,41.611,13.786,41.423C8.019,37.767,4.336,31.936,4.336,25.378C4.336,14.442,14.656,5.439,27.585,5.439ZM15.448,17.654C15.05,17.649,14.68,17.858,14.479,18.202C14.278,18.545,14.278,18.97,14.479,19.314C14.68,19.658,15.05,19.867,15.448,19.861L39.723,19.861C40.12,19.867,40.491,19.658,40.691,19.314C40.892,18.97,40.892,18.545,40.691,18.202C40.491,17.858,40.12,17.649,39.723,17.654L15.448,17.654ZM11.034,24.275C10.636,24.269,10.266,24.478,10.065,24.822C9.865,25.166,9.865,25.591,10.065,25.935C10.266,26.278,10.636,26.487,11.034,26.482L29.792,26.482C30.19,26.487,30.56,26.278,30.761,25.935C30.961,25.591,30.961,25.166,30.761,24.822C30.56,24.478,30.19,24.269,29.792,24.275L11.034,24.275ZM36.412,24.275C36.014,24.269,35.644,24.478,35.444,24.822C35.243,25.166,35.243,25.591,35.444,25.935C35.644,26.278,36.014,26.487,36.412,26.482L44.136,26.482C44.534,26.487,44.904,26.278,45.105,25.935C45.305,25.591,45.305,25.166,45.105,24.822C44.904,24.478,44.534,24.269,44.136,24.275L36.412,24.275ZM15.448,30.895C15.05,30.89,14.68,31.099,14.479,31.442C14.278,31.786,14.278,32.211,14.479,32.555C14.68,32.899,15.05,33.108,15.448,33.102L39.723,33.102C40.12,33.108,40.491,32.899,40.691,32.555C40.892,32.211,40.892,31.786,40.691,31.442C40.491,31.099,40.12,30.89,39.723,30.895L15.448,30.895ZM15.448,30.895"/>
</g>
  <g id="Regular-S" transform="matrix(1.0,0.0,0.0,1.0,1423.5449252929686,633.1849448242187)">  <path stroke-opacity="1" stroke-miterlimit="4" fill-opacity="1" fill="#000000" stroke-width="1px" stroke-dasharray="none" stroke="none" stroke-linecap="butt" stroke-linejoin="miter" fill-rule="nonzero" d="M27.585,3.388C13.699,3.388,2.284,13.158,2.284,25.378C2.284,32.47,6.203,38.715,12.137,42.716C12.128,42.954,12.146,43.342,11.836,44.494C11.451,45.92,10.673,47.923,9.092,50.166C8.872,50.478,8.844,50.887,9.019,51.227C9.195,51.567,9.544,51.781,9.926,51.782C16.742,51.812,20.688,47.341,21.301,46.621C23.319,47.07,25.41,47.369,27.585,47.369C41.47,47.369,52.886,37.598,52.886,25.378C52.886,13.158,41.47,3.388,27.585,3.388ZM27.585,5.439C40.513,5.439,50.834,14.442,50.834,25.378C50.834,36.314,40.513,45.317,27.585,45.317C25.376,45.317,23.241,45.053,21.219,44.561C20.832,44.466,20.425,44.604,20.176,44.914C20.176,44.914,16.987,48.533,11.903,49.388C12.822,47.739,13.5,46.199,13.816,45.028C14.257,43.396,14.262,42.289,14.262,42.289C14.262,41.938,14.083,41.611,13.786,41.423C8.019,37.767,4.336,31.936,4.336,25.378C4.336,14.442,14.656,5.439,27.585,5.439ZM15.448,17.654C15.05,17.649,14.68,17.858,14.479,18.202C14.278,18.545,14.278,18.97,14.479,19.314C14.68,19.658,15.05,19.867,15.448,19.861L39.723,19.861C40.12,19.867,40.491,19.658,40.691,19.314C40.892,18.97,40.892,18.545,40.691,18.202C40.491,17.858,40.12,17.649,39.723,17.654L15.448,17.654ZM11.034,24.275C10.636,24.269,10.266,24.478,10.065,24.822C9.865,25.166,9.865,25.591,10.065,25.935C10.266,26.278,10.636,26.487,11.034,26.482L29.792,26.482C30.19,26.487,30.56,26.278,30.761,25.935C30.961,25.591,30.961,25.166,30.761,24.822C30.56,24.478,30.19,24.269,29.792,24.275L11.034,24.275ZM36.412,24.275C36.014,24.269,35.644,24.478,35.444,24.822C35.243,25.166,35.243,25.591,35.444,25.935C35.644,26.278,36.014,26.487,36.412,26.482L44.136,26.482C44.534,26.487,44.904,26.278,45.105,25.935C45.305,25.591,45.305,25.166,45.105,24.822C44.904,24.478,44.534,24.269,44.136,24.275L36.412,24.275ZM15.448,30.895C15.05,30.89,14.68,31.099,14.479,31.442C14.278,31.786,14.278,32.211,14.479,32.555C14.68,32.899,15.05,33.108,15.448,33.102L39.723,33.102C40.12,33.108,40.491,32.899,40.691,32.555C40.892,32.211,40.892,31.786,40.691,31.442C40.491,31.099,40.12,30.89,39.723,30.895L15.448,30.895ZM15.448,30.895"/>
</g>
  <g id="Light-S" transform="matrix(1.0,0.0,0.0,1.0,1126.8349252929688,633.1849448242187)">  <path stroke-linejoin="miter" stroke="none" stroke-miterlimit="4" fill-opacity="1" stroke-width="1px" fill="#000000" fill-rule="nonzero" stroke-opacity="1" stroke-linecap="butt" stroke-dasharray="none" d="M27.585,3.388C13.699,3.388,2.284,13.158,2.284,25.378C2.284,32.47,6.203,38.715,12.137,42.716C12.128,42.954,12.146,43.342,11.836,44.494C11.451,45.92,10.673,47.923,9.092,50.166C8.872,50.478,8.844,50.887,9.019,51.227C9.195,51.567,9.544,51.781,9.926,51.782C16.742,51.812,20.688,47.341,21.301,46.621C23.319,47.07,25.41,47.369,27.585,47.369C41.47,47.369,52.886,37.598,52.886,25.378C52.886,13.158,41.47,3.388,27.585,3.388ZM27.585,5.439C40.513,5.439,50.834,14.442,50.834,25.378C50.834,36.314,40.513,45.317,27.585,45.317C25.376,45.317,23.241,45.053,21.219,44.561C20.832,44.466,20.425,44.604,20.176,44.914C20.176,44.914,16.987,48.533,11.903,49.388C12.822,47.739,13.5,46.199,13.816,45.028C14.257,43.396,14.262,42.289,14.262,42.289C14.262,41.938,14.083,41.611,13.786,41.423C8.019,37.767,4.336,31.936,4.336,25.378C4.336,14.442,14.656,5.439,27.585,5.439ZM15.448,17.654C15.05,17.649,14.68,17.858,14.479,18.202C14.278,18.545,14.278,18.97,14.479,19.314C14.68,19.658,15.05,19.867,15.448,19.861L39.723,19.861C40.12,19.867,40.491,19.658,40.691,19.314C40.892,18.97,40.892,18.545,40.691,18.202C40.491,17.858,40.12,17.649,39.723,17.654L15.448,17.654ZM11.034,24.275C10.636,24.269,10.266,24.478,10.065,24.822C9.865,25.166,9.865,25.591,10.065,25.935C10.266,26.278,10.636,26.487,11.034,26.482L29.792,26.482C30.19,26.487,30.56,26.278,30.761,25.935C30.961,25.591,30.961,25.166,30.761,24.822C30.56,24.478,30.19,24.269,29.792,24.275L11.034,24.275ZM36.412,24.275C36.014,24.269,35.644,24.478,35.444,24.822C35.243,25.166,35.243,25.591,35.444,25.935C35.644,26.278,36.014,26.487,36.412,26.482L44.136,26.482C44.534,26.487,44.904,26.278,45.105,25.935C45.305,25.591,45.305,25.166,45.105,24.822C44.904,24.478,44.534,24.269,44.136,24.275L36.412,24.275ZM15.448,30.895C15.05,30.89,14.68,31.099,14.479,31.442C14.278,31.786,14.278,32.211,14.479,32.555C14.68,32.899,15.05,33.108,15.448,33.102L39.723,33.102C40.12,33.108,40.491,32.899,40.691,32.555C40.892,32.211,40.892,31.786,40.691,31.442C40.491,31.099,40.12,30.89,39.723,30.895L15.448,30.895ZM15.448,30.895"/>
</g>
  <g id="Thin-S" transform="matrix(1.0,0.0,0.0,1.0,830.1249252929688,633.1849448242187)">  <path stroke-opacity="1" stroke="none" stroke-width="1px" stroke-linecap="butt" fill-opacity="1" stroke-dasharray="none" stroke-linejoin="miter" stroke-miterlimit="4" fill="#000000" fill-rule="nonzero" d="M27.585,3.388C13.699,3.388,2.284,13.158,2.284,25.378C2.284,32.47,6.203,38.715,12.137,42.716C12.128,42.954,12.146,43.342,11.836,44.494C11.451,45.92,10.673,47.923,9.092,50.166C8.872,50.478,8.844,50.887,9.019,51.227C9.195,51.567,9.544,51.781,9.926,51.782C16.742,51.812,20.688,47.341,21.301,46.621C23.319,47.07,25.41,47.369,27.585,47.369C41.47,47.369,52.886,37.598,52.886,25.378C52.886,13.158,41.47,3.388,27.585,3.388ZM27.585,5.439C40.513,5.439,50.834,14.442,50.834,25.378C50.834,36.314,40.513,45.317,27.585,45.317C25.376,45.317,23.241,45.053,21.219,44.561C20.832,44.466,20.425,44.604,20.176,44.914C20.176,44.914,16.987,48.533,11.903,49.388C12.822,47.739,13.5,46.199,13.816,45.028C14.257,43.396,14.262,42.289,14.262,42.289C14.262,41.938,14.083,41.611,13.786,41.423C8.019,37.767,4.336,31.936,4.336,25.378C4.336,14.442,14.656,5.439,27.585,5.439ZM15.448,17.654C15.05,17.649,14.68,17.858,14.479,18.202C14.278,18.545,14.278,18.97,14.479,19.314C14.68,19.658,15.05,19.867,15.448,19.861L39.723,19.861C40.12,19.867,40.491,19.658,40.691,19.314C40.892,18.97,40.892,18.545,40.691,18.202C40.491,17.858,40.12,17.649,39.723,17.654L15.448,17.654ZM11.034,24.275C10.636,24.269,10.266,24.478,10.065,24.822C9.865,25.166,9.865,25.591,10.065,25.935C10.266,26.278,10.636,26.487,11.034,26.482L29.792,26.482C30.19,26.487,30.56,26.278,30.761,25.935C30.961,25.591,30.961,25.166,30.761,24.822C30.56,24.478,30.19,24.269,29.792,24.275L11.034,24.275ZM36.412,24.275C36.014,24.269,35.644,24.478,35.444,24.822C35.243,25.166,35.243,25.591,35.444,25.935C35.644,26.278,36.014,26.487,36.412,26.482L44.136,26.482C44.534,26.487,44.904,26.278,45.105,25.935C45.305,25.591,45.305,25.166,45.105,24.822C44.904,24.478,44.534,24.269,44.136,24.275L36.412,24.275ZM15.448,30.895C15.05,30.89,14.68,31.099,14.479,31.442C14.278,31.786,14.278,32.211,14.479,32.555C14.68,32.899,15.05,33.108,15.448,33.102L39.723,33.102C40.12,33.108,40.491,32.899,40.691,32.555C40.892,32.211,40.892,31.786,40.691,31.442C40.491,31.099,40.12,30.89,39.723,30.895L15.448,30.895ZM15.448,30.895"/>
</g>
  <g id="Ultralight-S" transform="matrix(1.0,0.0,0.0,1.0,533.4149252929687,633.1849448242187)">  <path stroke-miterlimit="4" stroke-dasharray="none" stroke="none" stroke-width="1px" stroke-linejoin="miter" fill-opacity="1" fill-rule="nonzero" stroke-opacity="1" fill="#000000" stroke-linecap="butt" d="M27.585,3.388C13.699,3.388,2.284,13.158,2.284,25.378C2.284,32.47,6.203,38.715,12.137,42.716C12.128,42.954,12.146,43.342,11.836,44.494C11.451,45.92,10.673,47.923,9.092,50.166C8.872,50.478,8.844,50.887,9.019,51.227C9.195,51.567,9.544,51.781,9.926,51.782C16.742,51.812,20.688,47.341,21.301,46.621C23.319,47.07,25.41,47.369,27.585,47.369C41.47,47.369,52.886,37.598,52.886,25.378C52.886,13.158,41.47,3.388,27.585,3.388ZM27.585,5.439C40.513,5.439,50.834,14.442,50.834,25.378C50.834,36.314,40.513,45.317,27.585,45.317C25.376,45.317,23.241,45.053,21.219,44.561C20.832,44.466,20.425,44.604,20.176,44.914C20.176,44.914,16.987,48.533,11.903,49.388C12.822,47.739,13.5,46.199,13.816,45.028C14.257,43.396,14.262,42.289,14.262,42.289C14.262,41.938,14.083,41.611,13.786,41.423C8.019,37.767,4.336,31.936,4.336,25.378C4.336,14.442,14.656,5.439,27.585,5.439ZM15.448,17.654C15.05,17.649,14.68,17.858,14.479,18.202C14.278,18.545,14.278,18.97,14.479,19.314C14.68,19.658,15.05,19.867,15.448,19.861L39.723,19.861C40.12,19.867,40.491,19.658,40.691,19.314C40.892,18.97,40.892,18.545,40.691,18.202C40.491,17.858,40.12,17.649,39.723,17.654L15.448,17.654ZM11.034,24.275C10.636,24.269,10.266,24.478,10.065,24.822C9.865,25.166,9.865,25.591,10.065,25.935C10.266,26.278,10.636,26.487,11.034,26.482L29.792,26.482C30.19,26.487,30.56,26.278,30.761,25.935C30.961,25.591,30.961,25.166,30.761,24.822C30.56,24.478,30.19,24.269,29.792,24.275L11.034,24.275ZM36.412,24.275C36.014,24.269,35.644,24.478,35.444,24.822C35.243,25.166,35.243,25.591,35.444,25.935C35.644,26.278,36.014,26.487,36.412,26.482L44.136,26.482C44.534,26.487,44.904,26.278,45.105,25.935C45.305,25.591,45.305,25.166,45.105,24.822C44.904,24.478,44.534,24.269,44.136,24.275L36.412,24.275ZM15.448,30.895C15.05,30.89,14.68,31.099,14.479,31.442C14.278,31.786,14.278,32.211,14.479,32.555C14.68,32.899,15.05,33.108,15.448,33.102L39.723,33.102C40.12,33.108,40.491,32.899,40.691,32.555C40.892,32.211,40.892,31.786,40.691,31.442C40.491,31.099,40.12,30.89,39.723,30.895L15.448,30.895ZM15.448,30.895"/>
</g>
 </g>
</svg>
