<?xml version="1.0" encoding="UTF-8"?>
<!-- Generator: CustomSymbols v2.6.2.41 by @serious_bret https://bretlester.com/app_content/CustomSymbols/ -->
<!-- Guides: Left/Right 0.0/0.0 Cap/Base 0.0/0.0 -->
<!-- Settings: RefScale 1.0 Min/Max Stroke Scales 0.5/2.21 -->
<!DOCTYPE svg
PUBLIC "-//W3C//DTD SVG 1.1//EN"
       "http://www.w3.org/Graphics/SVG/1.1/DTD/svg11.dtd">
<svg version="1.1" xmlns="http://www.w3.org/2000/svg" xmlns:xlink="http://www.w3.org/1999/xlink" width="3300" height="2200">
<![CDATA[<?xml version="1.0"?><svg fill="#000000" xmlns="http://www.w3.org/2000/svg"  viewBox="0 0 50 50" width="50px" height="50px">    <path d="M 25 1.0507812 C 24.7825 1.0507812 24.565859 1.1197656 24.380859 1.2597656 L 1.3808594 19.210938 C 0.95085938 19.550938 0.8709375 20.179141 1.2109375 20.619141 C 1.5509375 21.049141 2.1791406 21.129062 2.6191406 20.789062 L 4 19.710938 L 4 46 C 4 46.55 4.45 47 5 47 L 18 47 L 18 27 L 32 27 L 32 47 L 45 47 C 45.55 47 46 46.55 46 46 L 46 19.710938 L 47.380859 20.789062 C 47.570859 20.929063 47.78 21 48 21 C 48.3 21 48.589063 20.869141 48.789062 20.619141 C 49.129063 20.179141 49.049141 19.550937 48.619141 19.210938 L 41 13.269531 L 41 6 C 41 5.45 40.55 5 40 5 L 36 5 C 35.73 5 35.479062 5.1090625 35.289062 5.2890625 C 35.109062 5.4790625 35 5.73 35 6 L 35 8.5898438 L 25.619141 1.2597656 C 25.434141 1.1197656 25.2175 1.0507812 25 1.0507812 z M 20 29.099609 L 20 47 L 30 47 L 30 29.099609 L 20 29.099609 z M 27 36 C 27.55 36 28 36.45 28 37 C 28 37.55 27.55 38 27 38 C 26.45 38 26 37.55 26 37 C 26 36.45 26.45 36 27 36 z"/></svg>]]>
 <g id="Notes">
  <rect height="2200" id="artboard" style="fill:white;opacity:1" width="3300" x="0" y="0"/>
  <line id="" style="fill:none;stroke:black;opacity:1;stroke-width:0.5;" x1="263" x2="3036" y1="292" y2="292"/>
  <text id="reftext1" style="stroke:none;fill:black;font-family:-apple-system,&quot;SF Pro Display&quot;,&quot;SF Pro Text&quot;,Helvetica,sans-serif;font-weight:bold;" transform="matrix(1 0 0 1 263 322)">Weight/Scale Variations</text>
  <text id="reftext2" style="stroke:none;fill:black;font-family:-apple-system,&quot;SF Pro Display&quot;,&quot;SF Pro Text&quot;,Helvetica,sans-serif;text-anchor:middle;" transform="matrix(1 0 0 1 559.711 322)">Ultralight</text>
  <text style="stroke:none;fill:black;font-family:-apple-system,&quot;SF Pro Display&quot;,&quot;SF Pro Text&quot;,Helvetica,sans-serif;text-anchor:middle;" transform="matrix(1 0 0 1 856.422 322)">Thin</text>
  <text style="stroke:none;fill:black;font-family:-apple-system,&quot;SF Pro Display&quot;,&quot;SF Pro Text&quot;,Helvetica,sans-serif;text-anchor:middle;" transform="matrix(1 0 0 1 1153.13 322)">Light</text>
  <text style="stroke:none;fill:black;font-family:-apple-system,&quot;SF Pro Display&quot;,&quot;SF Pro Text&quot;,Helvetica,sans-serif;text-anchor:middle;" transform="matrix(1 0 0 1 1449.84 322)">Regular</text>
  <text style="stroke:none;fill:black;font-family:-apple-system,&quot;SF Pro Display&quot;,&quot;SF Pro Text&quot;,Helvetica,sans-serif;text-anchor:middle;" transform="matrix(1 0 0 1 1746.56 322)">Medium</text>
  <text style="stroke:none;fill:black;font-family:-apple-system,&quot;SF Pro Display&quot;,&quot;SF Pro Text&quot;,Helvetica,sans-serif;text-anchor:middle;" transform="matrix(1 0 0 1 2043.27 322)">Semibold</text>
  <text style="stroke:none;fill:black;font-family:-apple-system,&quot;SF Pro Display&quot;,&quot;SF Pro Text&quot;,Helvetica,sans-serif;text-anchor:middle;" transform="matrix(1 0 0 1 2339.98 322)">Bold</text>
  <text style="stroke:none;fill:black;font-family:-apple-system,&quot;SF Pro Display&quot;,&quot;SF Pro Text&quot;,Helvetica,sans-serif;text-anchor:middle;" transform="matrix(1 0 0 1 2636.69 322)">Heavy</text>
  <text style="stroke:none;fill:black;font-family:-apple-system,&quot;SF Pro Display&quot;,&quot;SF Pro Text&quot;,Helvetica,sans-serif;text-anchor:middle;" transform="matrix(1 0 0 1 2933.4 322)">Black</text>
  <line id="" style="fill:none;stroke:black;opacity:1;stroke-width:0.5;" x1="263" x2="3036" y1="1903" y2="1903"/>
  <g id="" transform="matrix(1 0 0 1 263 1933)">
   <path d="M9.24805 0.830078C13.5547 0.830078 17.1387-2.74414 17.1387-7.05078C17.1387-11.3574 13.5449-14.9316 9.23828-14.9316C4.94141-14.9316 1.36719-11.3574 1.36719-7.05078C1.36719-2.74414 4.95117 0.830078 9.24805 0.830078ZM9.24805-0.654297C5.70312-0.654297 2.87109-3.49609 2.87109-7.05078C2.87109-10.6055 5.69336-13.4473 9.23828-13.4473C12.793-13.4473 15.6348-10.6055 15.6445-7.05078C15.6543-3.49609 12.8027-0.654297 9.24805-0.654297ZM6.39648-6.31836L8.50586-6.31836L8.50586-4.19922C8.50586-3.75977 8.79883-3.45703 9.22852-3.45703C9.67773-3.45703 9.9707-3.75977 9.9707-4.19922L9.9707-6.31836L12.0996-6.31836C12.5391-6.31836 12.8418-6.61133 12.8418-7.04102C12.8418-7.48047 12.5391-7.7832 12.0996-7.7832L9.9707-7.7832L9.9707-9.89258C9.9707-10.3418 9.67773-10.6445 9.22852-10.6445C8.79883-10.6445 8.50586-10.3418 8.50586-9.89258L8.50586-7.7832L6.39648-7.7832C5.94727-7.7832 5.64453-7.48047 5.64453-7.04102C5.64453-6.61133 5.94727-6.31836 6.39648-6.31836Z"/>
  </g>
  <g id="" transform="matrix(1 0 0 1 281.506 1933)">
   <path d="M11.709 2.91016C17.1582 2.91016 21.6699-1.61133 21.6699-7.05078C21.6699-12.5 17.1484-17.0117 11.6992-17.0117C6.25977-17.0117 1.74805-12.5 1.74805-7.05078C1.74805-1.61133 6.26953 2.91016 11.709 2.91016ZM11.709 1.25C7.09961 1.25 3.41797-2.44141 3.41797-7.05078C3.41797-11.6602 7.08984-15.3516 11.6992-15.3516C16.3086-15.3516 20-11.6602 20.0098-7.05078C20.0195-2.44141 16.3184 1.25 11.709 1.25ZM7.98828-6.23047L10.8789-6.23047L10.8789-3.32031C10.8789-2.83203 11.2109-2.5 11.6895-2.5C12.1777-2.5 12.5195-2.83203 12.5195-3.32031L12.5195-6.23047L15.4297-6.23047C15.918-6.23047 16.25-6.5625 16.25-7.04102C16.25-7.5293 15.918-7.87109 15.4297-7.87109L12.5195-7.87109L12.5195-10.7617C12.5195-11.2695 12.1777-11.6016 11.6895-11.6016C11.2109-11.6016 10.8789-11.2598 10.8789-10.7617L10.8789-7.87109L7.98828-7.87109C7.48047-7.87109 7.14844-7.5293 7.14844-7.04102C7.14844-6.5625 7.49023-6.23047 7.98828-6.23047Z"/>
  </g>
  <g id="" transform="matrix(1 0 0 1 304.924 1933)">
   <path d="M14.9707 5.66406C21.9336 5.66406 27.6953-0.0976562 27.6953-7.05078C27.6953-14.0137 21.9238-19.7754 14.9609-19.7754C8.00781-19.7754 2.25586-14.0137 2.25586-7.05078C2.25586-0.0976562 8.01758 5.66406 14.9707 5.66406ZM14.9707 3.84766C8.93555 3.84766 4.08203-1.01562 4.08203-7.05078C4.08203-13.0957 8.92578-17.9492 14.9609-17.9492C21.0059-17.9492 25.8594-13.0957 25.8691-7.05078C25.8789-1.01562 21.0156 3.84766 14.9707 3.84766ZM10.0586-6.14258L14.0625-6.14258L14.0625-2.12891C14.0625-1.5918 14.4336-1.2207 14.9512-1.2207C15.4883-1.2207 15.8594-1.5918 15.8594-2.12891L15.8594-6.14258L19.8828-6.14258C20.4102-6.14258 20.791-6.51367 20.791-7.03125C20.791-7.56836 20.4199-7.94922 19.8828-7.94922L15.8594-7.94922L15.8594-11.9531C15.8594-12.5098 15.4883-12.8809 14.9512-12.8809C14.4336-12.8809 14.0625-12.5 14.0625-11.9531L14.0625-7.94922L10.0586-7.94922C9.50195-7.94922 9.13086-7.56836 9.13086-7.03125C9.13086-6.51367 9.51172-6.14258 10.0586-6.14258Z"/>
  </g>
  <text style="stroke:none;fill:black;font-family:-apple-system,&quot;SF Pro Display&quot;,&quot;SF Pro Text&quot;,Helvetica,sans-serif;font-weight:bold;" transform="matrix(1 0 0 1 263 1953)">Design Variations</text>
  <text style="stroke:none;fill:black;font-family:-apple-system,&quot;SF Pro Display&quot;,&quot;SF Pro Text&quot;,Helvetica,sans-serif;" transform="matrix(1 0 0 1 263 1971)">Symbols are supported in up to nine weights and three scales.</text>
  <text style="stroke:none;fill:black;font-family:-apple-system,&quot;SF Pro Display&quot;,&quot;SF Pro Text&quot;,Helvetica,sans-serif;" transform="matrix(1 0 0 1 263 1989)">For optimal layout with text and other symbols, vertically align</text>
  <text style="stroke:none;fill:black;font-family:-apple-system,&quot;SF Pro Display&quot;,&quot;SF Pro Text&quot;,Helvetica,sans-serif;" transform="matrix(1 0 0 1 263 2007)">symbols with the adjacent text.</text>
  <line id="" style="fill:none;stroke:#00AEEF;stroke-width:0.5;opacity:1.0;" x1="776" x2="776" y1="1919" y2="1933"/>
  <g id="" transform="matrix(1 0 0 1 776 1933)">
   <path d="M3.31055 0.126953C3.82812 0.126953 4.08203-0.0683594 4.26758-0.605469L5.52734-4.0625L11.2891-4.0625L12.5488-0.605469C12.7344-0.0683594 12.9883 0.126953 13.4961 0.126953C14.0137 0.126953 14.3457-0.185547 14.3457-0.673828C14.3457-0.839844 14.3164-0.986328 14.2383-1.20117L9.6582-13.3887C9.43359-13.9941 9.0332-14.2871 8.4082-14.2871C7.80273-14.2871 7.39258-13.9941 7.17773-13.3984L2.59766-1.19141C2.51953-0.976562 2.49023-0.830078 2.49023-0.664062C2.49023-0.175781 2.80273 0.126953 3.31055 0.126953ZM6.00586-5.53711L8.37891-12.1094L8.42773-12.1094L10.8008-5.53711Z"/>
  </g>
  <line id="" style="fill:none;stroke:#00AEEF;stroke-width:0.5;opacity:1.0;" x1="792.836" x2="792.836" y1="1919" y2="1933"/>
  <text style="stroke:none;fill:black;font-family:-apple-system,&quot;SF Pro Display&quot;,&quot;SF Pro Text&quot;,Helvetica,sans-serif;font-weight:bold;" transform="matrix(1 0 0 1 776 1953)">Margins</text>
  <text style="stroke:none;fill:black;font-family:-apple-system,&quot;SF Pro Display&quot;,&quot;SF Pro Text&quot;,Helvetica,sans-serif;" transform="matrix(1 0 0 1 776 1971)">Leading and trailing margins on the left and right side of each symbol</text>
  <text style="stroke:none;fill:black;font-family:-apple-system,&quot;SF Pro Display&quot;,&quot;SF Pro Text&quot;,Helvetica,sans-serif;" transform="matrix(1 0 0 1 776 1989)">can be adjusted by modifying the x-location of the margin guidelines.</text>
  <text style="stroke:none;fill:black;font-family:-apple-system,&quot;SF Pro Display&quot;,&quot;SF Pro Text&quot;,Helvetica,sans-serif;" transform="matrix(1 0 0 1 776 2007)">Modifications are automatically applied proportionally to all</text>
  <text style="stroke:none;fill:black;font-family:-apple-system,&quot;SF Pro Display&quot;,&quot;SF Pro Text&quot;,Helvetica,sans-serif;" transform="matrix(1 0 0 1 776 2025)">scales and weights.</text>
  <g id="" transform="matrix(1 0 0 1 1289 1933)">
   <path d="M2.8418 1.86523L4.54102 3.57422C5.40039 4.44336 6.38672 4.38477 7.31445 3.35938L17.4902-7.85156C17.7539-7.76367 18.0273-7.7832 18.3398-7.8418L19.4043-8.03711L20.0684-7.36328L20.0293-6.80664C19.9902-6.30859 20.1172-5.92773 20.6055-5.44922L21.3672-4.70703C21.8457-4.22852 22.4609-4.19922 22.9297-4.66797L25.8398-7.58789C26.3086-8.05664 26.2891-8.65234 25.8105-9.13086L25.0391-9.89258C24.5605-10.3711 24.1895-10.5273 23.7109-10.4883L23.1348-10.4395L22.4902-11.0742L22.7344-12.1973C22.8613-12.7637 22.7051-13.2031 22.1191-13.7891L19.9219-15.9766C16.582-19.2969 12.1484-19.2188 9.25781-16.3281C8.83789-15.918 8.80859-15.3418 9.04297-14.9512C9.27734-14.5898 9.73633-14.3555 10.3809-14.5215C11.8457-14.8633 13.3691-14.9219 14.7949-13.9844L14.209-12.5293C14.0137-12.0508 13.9844-11.6504 14.1113-11.2891L3.04688-0.898438C2.06055 0.0195312 1.98242 0.996094 2.8418 1.86523ZM10.752-15.957C13.1836-17.7344 16.4746-17.4316 18.7012-15.2051L21.1328-12.793C21.3672-12.5586 21.4062-12.373 21.3379-12.0312L21.0156-10.5469L22.5195-9.0625L23.5059-9.12109C23.7598-9.13086 23.8379-9.11133 24.0332-8.91602L24.6094-8.33984L22.168-5.89844L21.5918-6.47461C21.3965-6.66992 21.3672-6.74805 21.377-7.01172L21.4453-7.98828L19.9512-9.47266L18.4277-9.21875C18.1055-9.15039 17.959-9.17969 17.7148-9.41406L15.7129-11.416C15.459-11.6504 15.4297-11.8164 15.5859-12.1875L16.4648-14.2773C14.9023-15.7324 12.8711-16.3574 10.8398-15.7617C10.6836-15.7227 10.625-15.8496 10.752-15.957ZM5.27344 2.30469L4.10156 1.14258C3.63281 0.683594 3.74023 0.341797 4.14062-0.0195312L14.9512-10.1953L16.416-8.71094L6.42578 2.27539C6.07422 2.67578 5.74219 2.77344 5.27344 2.30469Z"/>
  </g>
  <text style="stroke:none;fill:black;font-family:-apple-system,&quot;SF Pro Display&quot;,&quot;SF Pro Text&quot;,Helvetica,sans-serif;font-weight:bold;" transform="matrix(1 0 0 1 1289 1953)">Exporting</text>
  <text style="stroke:none;fill:black;font-family:-apple-system,&quot;SF Pro Display&quot;,&quot;SF Pro Text&quot;,Helvetica,sans-serif;" transform="matrix(1 0 0 1 1289 1971)">Symbols should be outlined when exporting to ensure the</text>
  <text style="stroke:none;fill:black;font-family:-apple-system,&quot;SF Pro Display&quot;,&quot;SF Pro Text&quot;,Helvetica,sans-serif;" transform="matrix(1 0 0 1 1289 1989)">design is preserved when submitting to Xcode.</text>
  <text id="template-version" style="stroke:none;fill:black;font-family:-apple-system,&quot;SF Pro Display&quot;,&quot;SF Pro Text&quot;,Helvetica,sans-serif;text-anchor:end;" transform="matrix(1 0 0 1 3036 1933)">Template v.2.0</text>
  <text style="stroke:none;fill:black;font-family:-apple-system,&quot;SF Pro Display&quot;,&quot;SF Pro Text&quot;,Helvetica,sans-serif;text-anchor:end;" transform="matrix(1 0 0 1 3036 1951)">Requires Xcode 12 or greater</text>
  <text style="stroke:none;fill:black;font-family:-apple-system,&quot;SF Pro Display&quot;,&quot;SF Pro Text&quot;,Helvetica,sans-serif;" transform="matrix(1 0 0 1 263 726)">Small</text>
  <text style="stroke:none;fill:black;font-family:-apple-system,&quot;SF Pro Display&quot;,&quot;SF Pro Text&quot;,Helvetica,sans-serif;" transform="matrix(1 0 0 1 263 1156)">Medium</text>
  <text style="stroke:none;fill:black;font-family:-apple-system,&quot;SF Pro Display&quot;,&quot;SF Pro Text&quot;,Helvetica,sans-serif;" transform="matrix(1 0 0 1 263 1586)">Large</text>
 </g>
 <g id="Guides">
  <g id="H-reference" style="fill:#27AAE1;stroke:none;" transform="matrix(1 0 0 1 339 696)">
   <path d="M0.976562 0L3.66211 0L12.9883-24.4629L45.752-24.4629L55.127 0L57.7637 0L30.6152-70.459L28.125-70.459ZM29.3457-67.1387L29.4434-67.1387L44.873-26.709L13.8672-26.709Z"/>
  </g>
  <line id="Baseline-S" style="fill:none;stroke:#27AAE1;opacity:1;stroke-width:0.5;" x1="263" x2="3036" y1="696" y2="696"/>
  <line id="Capline-S" style="fill:none;stroke:#27AAE1;opacity:1;stroke-width:0.5;" x1="263" x2="3036" y1="625.541" y2="625.541"/>
  <g id="H-reference" style="fill:#27AAE1;stroke:none;" transform="matrix(1 0 0 1 339 1126)">
   <path d="M0.976562 0L3.66211 0L12.9883-24.4629L45.752-24.4629L55.127 0L57.7637 0L30.6152-70.459L28.125-70.459ZM29.3457-67.1387L29.4434-67.1387L44.873-26.709L13.8672-26.709Z"/>
  </g>
  <line id="Baseline-M" style="fill:none;stroke:#27AAE1;opacity:1;stroke-width:0.5;" x1="263" x2="3036" y1="1126" y2="1126"/>
  <line id="Capline-M" style="fill:none;stroke:#27AAE1;opacity:1;stroke-width:0.5;" x1="263" x2="3036" y1="1055.54" y2="1055.54"/>
  <g id="H-reference" style="fill:#27AAE1;stroke:none;" transform="matrix(1 0 0 1 339 1556)">
   <path d="M0.976562 0L3.66211 0L12.9883-24.4629L45.752-24.4629L55.127 0L57.7637 0L30.6152-70.459L28.125-70.459ZM29.3457-67.1387L29.4434-67.1387L44.873-26.709L13.8672-26.709Z"/>
  </g>
  <line id="Baseline-L" style="fill:none;stroke:#27AAE1;opacity:1;stroke-width:0.5;" x1="263" x2="3036" y1="1556" y2="1556"/>
  <line id="Capline-L" style="fill:none;stroke:#27AAE1;opacity:1;stroke-width:0.5;" x1="263" x2="3036" y1="1485.54" y2="1485.54"/>
  <line id="left-margin" x1="1415.9000195312499" x2="1415.9000195312499" y1="1030.79" y2="1150.12" style="fill:none;stroke:#00AEEF;stroke-width:0.5;opacity:1.0;"/>
  <line id="right-margin" x1="1486.3599804687499" x2="1486.3599804687499" y1="1030.79" y2="1150.12" style="fill:none;stroke:#00AEEF;stroke-width:0.5;opacity:1.0;"/>
 </g>
 <g id="Symbols">
  <g id="Black-L" transform="matrix(1.0,0.0,0.0,1.0,2889.2333251953123,1475.3233447265625)">  <path stroke-linecap="butt" stroke-width="1px" fill-rule="nonzero" stroke-miterlimit="4" fill="#000000" stroke-linejoin="miter" stroke="none" stroke-opacity="1" fill-opacity="1" stroke-dasharray="none" d="M45.447,1.91C45.051,1.91,44.657,2.036,44.321,2.29L2.51,34.923C1.729,35.541,1.583,36.683,2.201,37.483C2.819,38.265,3.961,38.41,4.761,37.792L7.271,35.832L7.271,83.622C7.271,84.622,8.09,85.44,9.089,85.44L32.722,85.44L32.722,49.082L58.172,49.082L58.172,85.44L81.804,85.44C82.804,85.44,83.622,84.622,83.622,83.622L83.622,35.832L86.132,37.792C86.477,38.046,86.858,38.175,87.258,38.175C87.803,38.175,88.328,37.937,88.692,37.483C89.31,36.683,89.165,35.541,88.383,34.923L74.533,24.122L74.533,10.907C74.533,9.907,73.715,9.089,72.715,9.089L65.443,9.089C64.952,9.089,64.496,9.288,64.151,9.615C63.824,9.96,63.625,10.416,63.625,10.907L63.625,15.615L46.572,2.29C46.236,2.036,45.842,1.91,45.447,1.91ZM36.357,52.899L36.357,85.44L54.536,85.44L54.536,52.899L36.357,52.899ZM49.082,65.443C50.082,65.443,50.9,66.261,50.9,67.261C50.9,68.261,50.082,69.079,49.082,69.079C48.083,69.079,47.265,68.261,47.265,67.261C47.265,66.261,48.083,65.443,49.082,65.443ZM49.082,65.443"/>
</g>
  <g id="Heavy-L" transform="matrix(1.0,0.0,0.0,1.0,2592.5233251953123,1475.3233447265625)">  <path stroke="none" stroke-width="1px" stroke-miterlimit="4" stroke-linejoin="miter" stroke-dasharray="none" fill-rule="nonzero" stroke-linecap="butt" stroke-opacity="1" fill-opacity="1" fill="#000000" d="M45.447,1.91C45.051,1.91,44.657,2.036,44.321,2.29L2.51,34.923C1.729,35.541,1.583,36.683,2.201,37.483C2.819,38.265,3.961,38.41,4.761,37.792L7.271,35.832L7.271,83.622C7.271,84.622,8.09,85.44,9.089,85.44L32.722,85.44L32.722,49.082L58.172,49.082L58.172,85.44L81.804,85.44C82.804,85.44,83.622,84.622,83.622,83.622L83.622,35.832L86.132,37.792C86.477,38.046,86.858,38.175,87.258,38.175C87.803,38.175,88.328,37.937,88.692,37.483C89.31,36.683,89.165,35.541,88.383,34.923L74.533,24.122L74.533,10.907C74.533,9.907,73.715,9.089,72.715,9.089L65.443,9.089C64.952,9.089,64.496,9.288,64.151,9.615C63.824,9.96,63.625,10.416,63.625,10.907L63.625,15.615L46.572,2.29C46.236,2.036,45.842,1.91,45.447,1.91ZM36.357,52.899L36.357,85.44L54.536,85.44L54.536,52.899L36.357,52.899ZM49.082,65.443C50.082,65.443,50.9,66.261,50.9,67.261C50.9,68.261,50.082,69.079,49.082,69.079C48.083,69.079,47.265,68.261,47.265,67.261C47.265,66.261,48.083,65.443,49.082,65.443ZM49.082,65.443"/>
</g>
  <g id="Bold-L" transform="matrix(1.0,0.0,0.0,1.0,2295.8133251953122,1475.3233447265625)">  <path stroke-dasharray="none" stroke-linecap="butt" stroke-linejoin="miter" fill-opacity="1" stroke-miterlimit="4" stroke-width="1px" fill="#000000" stroke="none" stroke-opacity="1" fill-rule="nonzero" d="M45.447,1.91C45.051,1.91,44.657,2.036,44.321,2.29L2.51,34.923C1.729,35.541,1.583,36.683,2.201,37.483C2.819,38.265,3.961,38.41,4.761,37.792L7.271,35.832L7.271,83.622C7.271,84.622,8.09,85.44,9.089,85.44L32.722,85.44L32.722,49.082L58.172,49.082L58.172,85.44L81.804,85.44C82.804,85.44,83.622,84.622,83.622,83.622L83.622,35.832L86.132,37.792C86.477,38.046,86.858,38.175,87.258,38.175C87.803,38.175,88.328,37.937,88.692,37.483C89.31,36.683,89.165,35.541,88.383,34.923L74.533,24.122L74.533,10.907C74.533,9.907,73.715,9.089,72.715,9.089L65.443,9.089C64.952,9.089,64.496,9.288,64.151,9.615C63.824,9.96,63.625,10.416,63.625,10.907L63.625,15.615L46.572,2.29C46.236,2.036,45.842,1.91,45.447,1.91ZM36.357,52.899L36.357,85.44L54.536,85.44L54.536,52.899L36.357,52.899ZM49.082,65.443C50.082,65.443,50.9,66.261,50.9,67.261C50.9,68.261,50.082,69.079,49.082,69.079C48.083,69.079,47.265,68.261,47.265,67.261C47.265,66.261,48.083,65.443,49.082,65.443ZM49.082,65.443"/>
</g>
  <g id="Semibold-L" transform="matrix(1.0,0.0,0.0,1.0,1999.1033251953124,1475.3233447265625)">  <path fill="#000000" fill-rule="nonzero" stroke-linecap="butt" stroke-width="1px" stroke-linejoin="miter" stroke-miterlimit="4" stroke-opacity="1" stroke="none" stroke-dasharray="none" fill-opacity="1" d="M45.447,1.91C45.051,1.91,44.657,2.036,44.321,2.29L2.51,34.923C1.729,35.541,1.583,36.683,2.201,37.483C2.819,38.265,3.961,38.41,4.761,37.792L7.271,35.832L7.271,83.622C7.271,84.622,8.09,85.44,9.089,85.44L32.722,85.44L32.722,49.082L58.172,49.082L58.172,85.44L81.804,85.44C82.804,85.44,83.622,84.622,83.622,83.622L83.622,35.832L86.132,37.792C86.477,38.046,86.858,38.175,87.258,38.175C87.803,38.175,88.328,37.937,88.692,37.483C89.31,36.683,89.165,35.541,88.383,34.923L74.533,24.122L74.533,10.907C74.533,9.907,73.715,9.089,72.715,9.089L65.443,9.089C64.952,9.089,64.496,9.288,64.151,9.615C63.824,9.96,63.625,10.416,63.625,10.907L63.625,15.615L46.572,2.29C46.236,2.036,45.842,1.91,45.447,1.91ZM36.357,52.899L36.357,85.44L54.536,85.44L54.536,52.899L36.357,52.899ZM49.082,65.443C50.082,65.443,50.9,66.261,50.9,67.261C50.9,68.261,50.082,69.079,49.082,69.079C48.083,69.079,47.265,68.261,47.265,67.261C47.265,66.261,48.083,65.443,49.082,65.443ZM49.082,65.443"/>
</g>
  <g id="Medium-L" transform="matrix(1.0,0.0,0.0,1.0,1702.3933251953124,1475.3233447265625)">  <path fill="#000000" fill-rule="nonzero" fill-opacity="1" stroke-opacity="1" stroke-width="1px" stroke-linecap="butt" stroke-linejoin="miter" stroke="none" stroke-miterlimit="4" stroke-dasharray="none" d="M45.447,1.91C45.051,1.91,44.657,2.036,44.321,2.29L2.51,34.923C1.729,35.541,1.583,36.683,2.201,37.483C2.819,38.265,3.961,38.41,4.761,37.792L7.271,35.832L7.271,83.622C7.271,84.622,8.09,85.44,9.089,85.44L32.722,85.44L32.722,49.082L58.172,49.082L58.172,85.44L81.804,85.44C82.804,85.44,83.622,84.622,83.622,83.622L83.622,35.832L86.132,37.792C86.477,38.046,86.858,38.175,87.258,38.175C87.803,38.175,88.328,37.937,88.692,37.483C89.31,36.683,89.165,35.541,88.383,34.923L74.533,24.122L74.533,10.907C74.533,9.907,73.715,9.089,72.715,9.089L65.443,9.089C64.952,9.089,64.496,9.288,64.151,9.615C63.824,9.96,63.625,10.416,63.625,10.907L63.625,15.615L46.572,2.29C46.236,2.036,45.842,1.91,45.447,1.91ZM36.357,52.899L36.357,85.44L54.536,85.44L54.536,52.899L36.357,52.899ZM49.082,65.443C50.082,65.443,50.9,66.261,50.9,67.261C50.9,68.261,50.082,69.079,49.082,69.079C48.083,69.079,47.265,68.261,47.265,67.261C47.265,66.261,48.083,65.443,49.082,65.443ZM49.082,65.443"/>
</g>
  <g id="Regular-L" transform="matrix(1.0,0.0,0.0,1.0,1405.6833251953124,1475.3233447265625)">  <path stroke-opacity="1" stroke="none" fill="#000000" stroke-width="1px" fill-opacity="1" fill-rule="nonzero" stroke-miterlimit="4" stroke-dasharray="none" stroke-linecap="butt" stroke-linejoin="miter" d="M45.447,1.91C45.051,1.91,44.657,2.036,44.321,2.29L2.51,34.923C1.729,35.541,1.583,36.683,2.201,37.483C2.819,38.265,3.961,38.41,4.761,37.792L7.271,35.832L7.271,83.622C7.271,84.622,8.09,85.44,9.089,85.44L32.722,85.44L32.722,49.082L58.172,49.082L58.172,85.44L81.804,85.44C82.804,85.44,83.622,84.622,83.622,83.622L83.622,35.832L86.132,37.792C86.477,38.046,86.858,38.175,87.258,38.175C87.803,38.175,88.328,37.937,88.692,37.483C89.31,36.683,89.165,35.541,88.383,34.923L74.533,24.122L74.533,10.907C74.533,9.907,73.715,9.089,72.715,9.089L65.443,9.089C64.952,9.089,64.496,9.288,64.151,9.615C63.824,9.96,63.625,10.416,63.625,10.907L63.625,15.615L46.572,2.29C46.236,2.036,45.842,1.91,45.447,1.91ZM36.357,52.899L36.357,85.44L54.536,85.44L54.536,52.899L36.357,52.899ZM49.082,65.443C50.082,65.443,50.9,66.261,50.9,67.261C50.9,68.261,50.082,69.079,49.082,69.079C48.083,69.079,47.265,68.261,47.265,67.261C47.265,66.261,48.083,65.443,49.082,65.443ZM49.082,65.443"/>
</g>
  <g id="Light-L" transform="matrix(1.0,0.0,0.0,1.0,1108.9733251953126,1475.3233447265625)">  <path stroke-linejoin="miter" fill-rule="nonzero" stroke-miterlimit="4" fill="#000000" stroke="none" stroke-linecap="butt" stroke-dasharray="none" fill-opacity="1" stroke-width="1px" stroke-opacity="1" d="M45.447,1.91C45.051,1.91,44.657,2.036,44.321,2.29L2.51,34.923C1.729,35.541,1.583,36.683,2.201,37.483C2.819,38.265,3.961,38.41,4.761,37.792L7.271,35.832L7.271,83.622C7.271,84.622,8.09,85.44,9.089,85.44L32.722,85.44L32.722,49.082L58.172,49.082L58.172,85.44L81.804,85.44C82.804,85.44,83.622,84.622,83.622,83.622L83.622,35.832L86.132,37.792C86.477,38.046,86.858,38.175,87.258,38.175C87.803,38.175,88.328,37.937,88.692,37.483C89.31,36.683,89.165,35.541,88.383,34.923L74.533,24.122L74.533,10.907C74.533,9.907,73.715,9.089,72.715,9.089L65.443,9.089C64.952,9.089,64.496,9.288,64.151,9.615C63.824,9.96,63.625,10.416,63.625,10.907L63.625,15.615L46.572,2.29C46.236,2.036,45.842,1.91,45.447,1.91ZM36.357,52.899L36.357,85.44L54.536,85.44L54.536,52.899L36.357,52.899ZM49.082,65.443C50.082,65.443,50.9,66.261,50.9,67.261C50.9,68.261,50.082,69.079,49.082,69.079C48.083,69.079,47.265,68.261,47.265,67.261C47.265,66.261,48.083,65.443,49.082,65.443ZM49.082,65.443"/>
</g>
  <g id="Thin-L" transform="matrix(1.0,0.0,0.0,1.0,812.2633251953125,1475.3233447265625)">  <path stroke-dasharray="none" stroke-opacity="1" fill="#000000" stroke-width="1px" fill-rule="nonzero" stroke-miterlimit="4" stroke-linecap="butt" stroke="none" fill-opacity="1" stroke-linejoin="miter" d="M45.447,1.91C45.051,1.91,44.657,2.036,44.321,2.29L2.51,34.923C1.729,35.541,1.583,36.683,2.201,37.483C2.819,38.265,3.961,38.41,4.761,37.792L7.271,35.832L7.271,83.622C7.271,84.622,8.09,85.44,9.089,85.44L32.722,85.44L32.722,49.082L58.172,49.082L58.172,85.44L81.804,85.44C82.804,85.44,83.622,84.622,83.622,83.622L83.622,35.832L86.132,37.792C86.477,38.046,86.858,38.175,87.258,38.175C87.803,38.175,88.328,37.937,88.692,37.483C89.31,36.683,89.165,35.541,88.383,34.923L74.533,24.122L74.533,10.907C74.533,9.907,73.715,9.089,72.715,9.089L65.443,9.089C64.952,9.089,64.496,9.288,64.151,9.615C63.824,9.96,63.625,10.416,63.625,10.907L63.625,15.615L46.572,2.29C46.236,2.036,45.842,1.91,45.447,1.91ZM36.357,52.899L36.357,85.44L54.536,85.44L54.536,52.899L36.357,52.899ZM49.082,65.443C50.082,65.443,50.9,66.261,50.9,67.261C50.9,68.261,50.082,69.079,49.082,69.079C48.083,69.079,47.265,68.261,47.265,67.261C47.265,66.261,48.083,65.443,49.082,65.443ZM49.082,65.443"/>
</g>
  <g id="Ultralight-L" transform="matrix(1.0,0.0,0.0,1.0,515.5533251953125,1475.3233447265625)">  <path stroke="none" fill-opacity="1" stroke-width="1px" fill-rule="nonzero" fill="#000000" stroke-opacity="1" stroke-miterlimit="4" stroke-linecap="butt" stroke-dasharray="none" stroke-linejoin="miter" d="M45.447,1.91C45.051,1.91,44.657,2.036,44.321,2.29L2.51,34.923C1.729,35.541,1.583,36.683,2.201,37.483C2.819,38.265,3.961,38.41,4.761,37.792L7.271,35.832L7.271,83.622C7.271,84.622,8.09,85.44,9.089,85.44L32.722,85.44L32.722,49.082L58.172,49.082L58.172,85.44L81.804,85.44C82.804,85.44,83.622,84.622,83.622,83.622L83.622,35.832L86.132,37.792C86.477,38.046,86.858,38.175,87.258,38.175C87.803,38.175,88.328,37.937,88.692,37.483C89.31,36.683,89.165,35.541,88.383,34.923L74.533,24.122L74.533,10.907C74.533,9.907,73.715,9.089,72.715,9.089L65.443,9.089C64.952,9.089,64.496,9.288,64.151,9.615C63.824,9.96,63.625,10.416,63.625,10.907L63.625,15.615L46.572,2.29C46.236,2.036,45.842,1.91,45.447,1.91ZM36.357,52.899L36.357,85.44L54.536,85.44L54.536,52.899L36.357,52.899ZM49.082,65.443C50.082,65.443,50.9,66.261,50.9,67.261C50.9,68.261,50.082,69.079,49.082,69.079C48.083,69.079,47.265,68.261,47.265,67.261C47.265,66.261,48.083,65.443,49.082,65.443ZM49.082,65.443"/>
</g>
  <g id="Black-M" transform="matrix(1.0,0.0,0.0,1.0,2899.45001953125,1055.5400390625)">  <path stroke-linecap="butt" stroke-width="1px" fill-rule="nonzero" stroke-miterlimit="4" fill="#000000" stroke-linejoin="miter" stroke="none" stroke-opacity="1" fill-opacity="1" stroke-dasharray="none" d="M35.23,1.481C34.923,1.481,34.618,1.578,34.357,1.775L1.946,27.072C1.34,27.551,1.227,28.436,1.706,29.056C2.186,29.662,3.071,29.775,3.691,29.296L5.637,27.777L5.637,64.823C5.637,65.598,6.271,66.232,7.046,66.232L25.366,66.232L25.366,38.048L45.094,38.048L45.094,66.232L63.414,66.232C64.189,66.232,64.823,65.598,64.823,64.823L64.823,27.777L66.769,29.296C67.037,29.493,67.332,29.593,67.642,29.593C68.064,29.593,68.472,29.409,68.754,29.056C69.233,28.436,69.12,27.551,68.514,27.072L57.777,18.699L57.777,8.455C57.777,7.68,57.143,7.046,56.368,7.046L50.731,7.046C50.351,7.046,49.997,7.2,49.729,7.453C49.476,7.721,49.322,8.075,49.322,8.455L49.322,12.105L36.102,1.775C35.842,1.578,35.536,1.481,35.23,1.481ZM28.184,41.007L28.184,66.232L42.276,66.232L42.276,41.007L28.184,41.007ZM38.048,50.731C38.823,50.731,39.458,51.365,39.458,52.14C39.458,52.915,38.823,53.55,38.048,53.55C37.273,53.55,36.639,52.915,36.639,52.14C36.639,51.365,37.273,50.731,38.048,50.731ZM38.048,50.731"/>
</g>
  <g id="Heavy-M" transform="matrix(1.0,0.0,0.0,1.0,2602.74001953125,1055.5400390625)">  <path stroke="none" stroke-width="1px" stroke-miterlimit="4" stroke-linejoin="miter" stroke-dasharray="none" fill-rule="nonzero" stroke-linecap="butt" stroke-opacity="1" fill-opacity="1" fill="#000000" d="M35.23,1.481C34.923,1.481,34.618,1.578,34.357,1.775L1.946,27.072C1.34,27.551,1.227,28.436,1.706,29.056C2.186,29.662,3.071,29.775,3.691,29.296L5.637,27.777L5.637,64.823C5.637,65.598,6.271,66.232,7.046,66.232L25.366,66.232L25.366,38.048L45.094,38.048L45.094,66.232L63.414,66.232C64.189,66.232,64.823,65.598,64.823,64.823L64.823,27.777L66.769,29.296C67.037,29.493,67.332,29.593,67.642,29.593C68.064,29.593,68.472,29.409,68.754,29.056C69.233,28.436,69.12,27.551,68.514,27.072L57.777,18.699L57.777,8.455C57.777,7.68,57.143,7.046,56.368,7.046L50.731,7.046C50.351,7.046,49.997,7.2,49.729,7.453C49.476,7.721,49.322,8.075,49.322,8.455L49.322,12.105L36.102,1.775C35.842,1.578,35.536,1.481,35.23,1.481ZM28.184,41.007L28.184,66.232L42.276,66.232L42.276,41.007L28.184,41.007ZM38.048,50.731C38.823,50.731,39.458,51.365,39.458,52.14C39.458,52.915,38.823,53.55,38.048,53.55C37.273,53.55,36.639,52.915,36.639,52.14C36.639,51.365,37.273,50.731,38.048,50.731ZM38.048,50.731"/>
</g>
  <g id="Bold-M" transform="matrix(1.0,0.0,0.0,1.0,2306.0300195312498,1055.5400390625)">  <path stroke-dasharray="none" stroke-linecap="butt" stroke-linejoin="miter" fill-opacity="1" stroke-miterlimit="4" stroke-width="1px" fill="#000000" stroke="none" stroke-opacity="1" fill-rule="nonzero" d="M35.23,1.481C34.923,1.481,34.618,1.578,34.357,1.775L1.946,27.072C1.34,27.551,1.227,28.436,1.706,29.056C2.186,29.662,3.071,29.775,3.691,29.296L5.637,27.777L5.637,64.823C5.637,65.598,6.271,66.232,7.046,66.232L25.366,66.232L25.366,38.048L45.094,38.048L45.094,66.232L63.414,66.232C64.189,66.232,64.823,65.598,64.823,64.823L64.823,27.777L66.769,29.296C67.037,29.493,67.332,29.593,67.642,29.593C68.064,29.593,68.472,29.409,68.754,29.056C69.233,28.436,69.12,27.551,68.514,27.072L57.777,18.699L57.777,8.455C57.777,7.68,57.143,7.046,56.368,7.046L50.731,7.046C50.351,7.046,49.997,7.2,49.729,7.453C49.476,7.721,49.322,8.075,49.322,8.455L49.322,12.105L36.102,1.775C35.842,1.578,35.536,1.481,35.23,1.481ZM28.184,41.007L28.184,66.232L42.276,66.232L42.276,41.007L28.184,41.007ZM38.048,50.731C38.823,50.731,39.458,51.365,39.458,52.14C39.458,52.915,38.823,53.55,38.048,53.55C37.273,53.55,36.639,52.915,36.639,52.14C36.639,51.365,37.273,50.731,38.048,50.731ZM38.048,50.731"/>
</g>
  <g id="Semibold-M" transform="matrix(1.0,0.0,0.0,1.0,2009.32001953125,1055.5400390625)">  <path fill="#000000" fill-rule="nonzero" stroke-linecap="butt" stroke-width="1px" stroke-linejoin="miter" stroke-miterlimit="4" stroke-opacity="1" stroke="none" stroke-dasharray="none" fill-opacity="1" d="M35.23,1.481C34.923,1.481,34.618,1.578,34.357,1.775L1.946,27.072C1.34,27.551,1.227,28.436,1.706,29.056C2.186,29.662,3.071,29.775,3.691,29.296L5.637,27.777L5.637,64.823C5.637,65.598,6.271,66.232,7.046,66.232L25.366,66.232L25.366,38.048L45.094,38.048L45.094,66.232L63.414,66.232C64.189,66.232,64.823,65.598,64.823,64.823L64.823,27.777L66.769,29.296C67.037,29.493,67.332,29.593,67.642,29.593C68.064,29.593,68.472,29.409,68.754,29.056C69.233,28.436,69.12,27.551,68.514,27.072L57.777,18.699L57.777,8.455C57.777,7.68,57.143,7.046,56.368,7.046L50.731,7.046C50.351,7.046,49.997,7.2,49.729,7.453C49.476,7.721,49.322,8.075,49.322,8.455L49.322,12.105L36.102,1.775C35.842,1.578,35.536,1.481,35.23,1.481ZM28.184,41.007L28.184,66.232L42.276,66.232L42.276,41.007L28.184,41.007ZM38.048,50.731C38.823,50.731,39.458,51.365,39.458,52.14C39.458,52.915,38.823,53.55,38.048,53.55C37.273,53.55,36.639,52.915,36.639,52.14C36.639,51.365,37.273,50.731,38.048,50.731ZM38.048,50.731"/>
</g>
  <g id="Medium-M" transform="matrix(1.0,0.0,0.0,1.0,1712.61001953125,1055.5400390625)">  <path fill="#000000" fill-rule="nonzero" fill-opacity="1" stroke-opacity="1" stroke-width="1px" stroke-linecap="butt" stroke-linejoin="miter" stroke="none" stroke-miterlimit="4" stroke-dasharray="none" d="M35.23,1.481C34.923,1.481,34.618,1.578,34.357,1.775L1.946,27.072C1.34,27.551,1.227,28.436,1.706,29.056C2.186,29.662,3.071,29.775,3.691,29.296L5.637,27.777L5.637,64.823C5.637,65.598,6.271,66.232,7.046,66.232L25.366,66.232L25.366,38.048L45.094,38.048L45.094,66.232L63.414,66.232C64.189,66.232,64.823,65.598,64.823,64.823L64.823,27.777L66.769,29.296C67.037,29.493,67.332,29.593,67.642,29.593C68.064,29.593,68.472,29.409,68.754,29.056C69.233,28.436,69.12,27.551,68.514,27.072L57.777,18.699L57.777,8.455C57.777,7.68,57.143,7.046,56.368,7.046L50.731,7.046C50.351,7.046,49.997,7.2,49.729,7.453C49.476,7.721,49.322,8.075,49.322,8.455L49.322,12.105L36.102,1.775C35.842,1.578,35.536,1.481,35.23,1.481ZM28.184,41.007L28.184,66.232L42.276,66.232L42.276,41.007L28.184,41.007ZM38.048,50.731C38.823,50.731,39.458,51.365,39.458,52.14C39.458,52.915,38.823,53.55,38.048,53.55C37.273,53.55,36.639,52.915,36.639,52.14C36.639,51.365,37.273,50.731,38.048,50.731ZM38.048,50.731"/>
</g>
  <g id="Regular-M" transform="matrix(1.0,0.0,0.0,1.0,1415.9000195312499,1055.5400390625)">  <path stroke-opacity="1" stroke="none" fill="#000000" stroke-width="1px" fill-opacity="1" fill-rule="nonzero" stroke-miterlimit="4" stroke-dasharray="none" stroke-linecap="butt" stroke-linejoin="miter" d="M35.23,1.481C34.923,1.481,34.618,1.578,34.357,1.775L1.946,27.072C1.34,27.551,1.227,28.436,1.706,29.056C2.186,29.662,3.071,29.775,3.691,29.296L5.637,27.777L5.637,64.823C5.637,65.598,6.271,66.232,7.046,66.232L25.366,66.232L25.366,38.048L45.094,38.048L45.094,66.232L63.414,66.232C64.189,66.232,64.823,65.598,64.823,64.823L64.823,27.777L66.769,29.296C67.037,29.493,67.332,29.593,67.642,29.593C68.064,29.593,68.472,29.409,68.754,29.056C69.233,28.436,69.12,27.551,68.514,27.072L57.777,18.699L57.777,8.455C57.777,7.68,57.143,7.046,56.368,7.046L50.731,7.046C50.351,7.046,49.997,7.2,49.729,7.453C49.476,7.721,49.322,8.075,49.322,8.455L49.322,12.105L36.102,1.775C35.842,1.578,35.536,1.481,35.23,1.481ZM28.184,41.007L28.184,66.232L42.276,66.232L42.276,41.007L28.184,41.007ZM38.048,50.731C38.823,50.731,39.458,51.365,39.458,52.14C39.458,52.915,38.823,53.55,38.048,53.55C37.273,53.55,36.639,52.915,36.639,52.14C36.639,51.365,37.273,50.731,38.048,50.731ZM38.048,50.731"/>
</g>
  <g id="Light-M" transform="matrix(1.0,0.0,0.0,1.0,1119.19001953125,1055.5400390625)">  <path stroke-linejoin="miter" fill-rule="nonzero" stroke-miterlimit="4" fill="#000000" stroke="none" stroke-linecap="butt" stroke-dasharray="none" fill-opacity="1" stroke-width="1px" stroke-opacity="1" d="M35.23,1.481C34.923,1.481,34.618,1.578,34.357,1.775L1.946,27.072C1.34,27.551,1.227,28.436,1.706,29.056C2.186,29.662,3.071,29.775,3.691,29.296L5.637,27.777L5.637,64.823C5.637,65.598,6.271,66.232,7.046,66.232L25.366,66.232L25.366,38.048L45.094,38.048L45.094,66.232L63.414,66.232C64.189,66.232,64.823,65.598,64.823,64.823L64.823,27.777L66.769,29.296C67.037,29.493,67.332,29.593,67.642,29.593C68.064,29.593,68.472,29.409,68.754,29.056C69.233,28.436,69.12,27.551,68.514,27.072L57.777,18.699L57.777,8.455C57.777,7.68,57.143,7.046,56.368,7.046L50.731,7.046C50.351,7.046,49.997,7.2,49.729,7.453C49.476,7.721,49.322,8.075,49.322,8.455L49.322,12.105L36.102,1.775C35.842,1.578,35.536,1.481,35.23,1.481ZM28.184,41.007L28.184,66.232L42.276,66.232L42.276,41.007L28.184,41.007ZM38.048,50.731C38.823,50.731,39.458,51.365,39.458,52.14C39.458,52.915,38.823,53.55,38.048,53.55C37.273,53.55,36.639,52.915,36.639,52.14C36.639,51.365,37.273,50.731,38.048,50.731ZM38.048,50.731"/>
</g>
  <g id="Thin-M" transform="matrix(1.0,0.0,0.0,1.0,822.48001953125,1055.5400390625)">  <path stroke-dasharray="none" stroke-opacity="1" fill="#000000" stroke-width="1px" fill-rule="nonzero" stroke-miterlimit="4" stroke-linecap="butt" stroke="none" fill-opacity="1" stroke-linejoin="miter" d="M35.23,1.481C34.923,1.481,34.618,1.578,34.357,1.775L1.946,27.072C1.34,27.551,1.227,28.436,1.706,29.056C2.186,29.662,3.071,29.775,3.691,29.296L5.637,27.777L5.637,64.823C5.637,65.598,6.271,66.232,7.046,66.232L25.366,66.232L25.366,38.048L45.094,38.048L45.094,66.232L63.414,66.232C64.189,66.232,64.823,65.598,64.823,64.823L64.823,27.777L66.769,29.296C67.037,29.493,67.332,29.593,67.642,29.593C68.064,29.593,68.472,29.409,68.754,29.056C69.233,28.436,69.12,27.551,68.514,27.072L57.777,18.699L57.777,8.455C57.777,7.68,57.143,7.046,56.368,7.046L50.731,7.046C50.351,7.046,49.997,7.2,49.729,7.453C49.476,7.721,49.322,8.075,49.322,8.455L49.322,12.105L36.102,1.775C35.842,1.578,35.536,1.481,35.23,1.481ZM28.184,41.007L28.184,66.232L42.276,66.232L42.276,41.007L28.184,41.007ZM38.048,50.731C38.823,50.731,39.458,51.365,39.458,52.14C39.458,52.915,38.823,53.55,38.048,53.55C37.273,53.55,36.639,52.915,36.639,52.14C36.639,51.365,37.273,50.731,38.048,50.731ZM38.048,50.731"/>
</g>
  <g id="Ultralight-M" transform="matrix(1.0,0.0,0.0,1.0,525.77001953125,1055.5400390625)">  <path stroke="none" fill-opacity="1" stroke-width="1px" fill-rule="nonzero" fill="#000000" stroke-opacity="1" stroke-miterlimit="4" stroke-linecap="butt" stroke-dasharray="none" stroke-linejoin="miter" d="M35.23,1.481C34.923,1.481,34.618,1.578,34.357,1.775L1.946,27.072C1.34,27.551,1.227,28.436,1.706,29.056C2.186,29.662,3.071,29.775,3.691,29.296L5.637,27.777L5.637,64.823C5.637,65.598,6.271,66.232,7.046,66.232L25.366,66.232L25.366,38.048L45.094,38.048L45.094,66.232L63.414,66.232C64.189,66.232,64.823,65.598,64.823,64.823L64.823,27.777L66.769,29.296C67.037,29.493,67.332,29.593,67.642,29.593C68.064,29.593,68.472,29.409,68.754,29.056C69.233,28.436,69.12,27.551,68.514,27.072L57.777,18.699L57.777,8.455C57.777,7.68,57.143,7.046,56.368,7.046L50.731,7.046C50.351,7.046,49.997,7.2,49.729,7.453C49.476,7.721,49.322,8.075,49.322,8.455L49.322,12.105L36.102,1.775C35.842,1.578,35.536,1.481,35.23,1.481ZM28.184,41.007L28.184,66.232L42.276,66.232L42.276,41.007L28.184,41.007ZM38.048,50.731C38.823,50.731,39.458,51.365,39.458,52.14C39.458,52.915,38.823,53.55,38.048,53.55C37.273,53.55,36.639,52.915,36.639,52.14C36.639,51.365,37.273,50.731,38.048,50.731ZM38.048,50.731"/>
</g>
  <g id="Black-S" transform="matrix(1.0,0.0,0.0,1.0,2907.0949252929686,633.1849448242187)">  <path stroke-linecap="butt" stroke-width="1px" fill-rule="nonzero" stroke-miterlimit="4" fill="#000000" stroke-linejoin="miter" stroke="none" stroke-opacity="1" fill-opacity="1" stroke-dasharray="none" d="M27.585,1.159C27.345,1.159,27.106,1.236,26.902,1.39L1.524,21.197C1.049,21.573,0.961,22.266,1.336,22.751C1.711,23.226,2.404,23.314,2.89,22.939L4.414,21.749L4.414,50.757C4.414,51.363,4.91,51.86,5.517,51.86L19.861,51.86L19.861,29.792L35.309,29.792L35.309,51.86L49.653,51.86C50.26,51.86,50.757,51.363,50.757,50.757L50.757,21.749L52.28,22.939C52.49,23.093,52.721,23.171,52.963,23.171C53.294,23.171,53.613,23.027,53.834,22.751C54.209,22.266,54.121,21.573,53.647,21.197L45.24,14.642L45.24,6.62C45.24,6.014,44.743,5.517,44.136,5.517L39.723,5.517C39.425,5.517,39.148,5.637,38.938,5.836C38.739,6.046,38.619,6.322,38.619,6.62L38.619,9.478L28.268,1.39C28.064,1.236,27.825,1.159,27.585,1.159ZM22.068,32.109L22.068,51.86L33.102,51.86L33.102,32.109L22.068,32.109ZM29.792,39.723C30.399,39.723,30.895,40.219,30.895,40.826C30.895,41.433,30.399,41.929,29.792,41.929C29.185,41.929,28.688,41.433,28.688,40.826C28.688,40.219,29.185,39.723,29.792,39.723ZM29.792,39.723"/>
</g>
  <g id="Heavy-S" transform="matrix(1.0,0.0,0.0,1.0,2610.3849252929685,633.1849448242187)">  <path stroke="none" stroke-width="1px" stroke-miterlimit="4" stroke-linejoin="miter" stroke-dasharray="none" fill-rule="nonzero" stroke-linecap="butt" stroke-opacity="1" fill-opacity="1" fill="#000000" d="M27.585,1.159C27.345,1.159,27.106,1.236,26.902,1.39L1.524,21.197C1.049,21.573,0.961,22.266,1.336,22.751C1.711,23.226,2.404,23.314,2.89,22.939L4.414,21.749L4.414,50.757C4.414,51.363,4.91,51.86,5.517,51.86L19.861,51.86L19.861,29.792L35.309,29.792L35.309,51.86L49.653,51.86C50.26,51.86,50.757,51.363,50.757,50.757L50.757,21.749L52.28,22.939C52.49,23.093,52.721,23.171,52.963,23.171C53.294,23.171,53.613,23.027,53.834,22.751C54.209,22.266,54.121,21.573,53.647,21.197L45.24,14.642L45.24,6.62C45.24,6.014,44.743,5.517,44.136,5.517L39.723,5.517C39.425,5.517,39.148,5.637,38.938,5.836C38.739,6.046,38.619,6.322,38.619,6.62L38.619,9.478L28.268,1.39C28.064,1.236,27.825,1.159,27.585,1.159ZM22.068,32.109L22.068,51.86L33.102,51.86L33.102,32.109L22.068,32.109ZM29.792,39.723C30.399,39.723,30.895,40.219,30.895,40.826C30.895,41.433,30.399,41.929,29.792,41.929C29.185,41.929,28.688,41.433,28.688,40.826C28.688,40.219,29.185,39.723,29.792,39.723ZM29.792,39.723"/>
</g>
  <g id="Bold-S" transform="matrix(1.0,0.0,0.0,1.0,2313.6749252929685,633.1849448242187)">  <path stroke-dasharray="none" stroke-linecap="butt" stroke-linejoin="miter" fill-opacity="1" stroke-miterlimit="4" stroke-width="1px" fill="#000000" stroke="none" stroke-opacity="1" fill-rule="nonzero" d="M27.585,1.159C27.345,1.159,27.106,1.236,26.902,1.39L1.524,21.197C1.049,21.573,0.961,22.266,1.336,22.751C1.711,23.226,2.404,23.314,2.89,22.939L4.414,21.749L4.414,50.757C4.414,51.363,4.91,51.86,5.517,51.86L19.861,51.86L19.861,29.792L35.309,29.792L35.309,51.86L49.653,51.86C50.26,51.86,50.757,51.363,50.757,50.757L50.757,21.749L52.28,22.939C52.49,23.093,52.721,23.171,52.963,23.171C53.294,23.171,53.613,23.027,53.834,22.751C54.209,22.266,54.121,21.573,53.647,21.197L45.24,14.642L45.24,6.62C45.24,6.014,44.743,5.517,44.136,5.517L39.723,5.517C39.425,5.517,39.148,5.637,38.938,5.836C38.739,6.046,38.619,6.322,38.619,6.62L38.619,9.478L28.268,1.39C28.064,1.236,27.825,1.159,27.585,1.159ZM22.068,32.109L22.068,51.86L33.102,51.86L33.102,32.109L22.068,32.109ZM29.792,39.723C30.399,39.723,30.895,40.219,30.895,40.826C30.895,41.433,30.399,41.929,29.792,41.929C29.185,41.929,28.688,41.433,28.688,40.826C28.688,40.219,29.185,39.723,29.792,39.723ZM29.792,39.723"/>
</g>
  <g id="Semibold-S" transform="matrix(1.0,0.0,0.0,1.0,2016.9649252929687,633.1849448242187)">  <path fill="#000000" fill-rule="nonzero" stroke-linecap="butt" stroke-width="1px" stroke-linejoin="miter" stroke-miterlimit="4" stroke-opacity="1" stroke="none" stroke-dasharray="none" fill-opacity="1" d="M27.585,1.159C27.345,1.159,27.106,1.236,26.902,1.39L1.524,21.197C1.049,21.573,0.961,22.266,1.336,22.751C1.711,23.226,2.404,23.314,2.89,22.939L4.414,21.749L4.414,50.757C4.414,51.363,4.91,51.86,5.517,51.86L19.861,51.86L19.861,29.792L35.309,29.792L35.309,51.86L49.653,51.86C50.26,51.86,50.757,51.363,50.757,50.757L50.757,21.749L52.28,22.939C52.49,23.093,52.721,23.171,52.963,23.171C53.294,23.171,53.613,23.027,53.834,22.751C54.209,22.266,54.121,21.573,53.647,21.197L45.24,14.642L45.24,6.62C45.24,6.014,44.743,5.517,44.136,5.517L39.723,5.517C39.425,5.517,39.148,5.637,38.938,5.836C38.739,6.046,38.619,6.322,38.619,6.62L38.619,9.478L28.268,1.39C28.064,1.236,27.825,1.159,27.585,1.159ZM22.068,32.109L22.068,51.86L33.102,51.86L33.102,32.109L22.068,32.109ZM29.792,39.723C30.399,39.723,30.895,40.219,30.895,40.826C30.895,41.433,30.399,41.929,29.792,41.929C29.185,41.929,28.688,41.433,28.688,40.826C28.688,40.219,29.185,39.723,29.792,39.723ZM29.792,39.723"/>
</g>
  <g id="Medium-S" transform="matrix(1.0,0.0,0.0,1.0,1720.2549252929687,633.1849448242187)">  <path fill="#000000" fill-rule="nonzero" fill-opacity="1" stroke-opacity="1" stroke-width="1px" stroke-linecap="butt" stroke-linejoin="miter" stroke="none" stroke-miterlimit="4" stroke-dasharray="none" d="M27.585,1.159C27.345,1.159,27.106,1.236,26.902,1.39L1.524,21.197C1.049,21.573,0.961,22.266,1.336,22.751C1.711,23.226,2.404,23.314,2.89,22.939L4.414,21.749L4.414,50.757C4.414,51.363,4.91,51.86,5.517,51.86L19.861,51.86L19.861,29.792L35.309,29.792L35.309,51.86L49.653,51.86C50.26,51.86,50.757,51.363,50.757,50.757L50.757,21.749L52.28,22.939C52.49,23.093,52.721,23.171,52.963,23.171C53.294,23.171,53.613,23.027,53.834,22.751C54.209,22.266,54.121,21.573,53.647,21.197L45.24,14.642L45.24,6.62C45.24,6.014,44.743,5.517,44.136,5.517L39.723,5.517C39.425,5.517,39.148,5.637,38.938,5.836C38.739,6.046,38.619,6.322,38.619,6.62L38.619,9.478L28.268,1.39C28.064,1.236,27.825,1.159,27.585,1.159ZM22.068,32.109L22.068,51.86L33.102,51.86L33.102,32.109L22.068,32.109ZM29.792,39.723C30.399,39.723,30.895,40.219,30.895,40.826C30.895,41.433,30.399,41.929,29.792,41.929C29.185,41.929,28.688,41.433,28.688,40.826C28.688,40.219,29.185,39.723,29.792,39.723ZM29.792,39.723"/>
</g>
  <g id="Regular-S" transform="matrix(1.0,0.0,0.0,1.0,1423.5449252929686,633.1849448242187)">  <path stroke-opacity="1" stroke="none" fill="#000000" stroke-width="1px" fill-opacity="1" fill-rule="nonzero" stroke-miterlimit="4" stroke-dasharray="none" stroke-linecap="butt" stroke-linejoin="miter" d="M27.585,1.159C27.345,1.159,27.106,1.236,26.902,1.39L1.524,21.197C1.049,21.573,0.961,22.266,1.336,22.751C1.711,23.226,2.404,23.314,2.89,22.939L4.414,21.749L4.414,50.757C4.414,51.363,4.91,51.86,5.517,51.86L19.861,51.86L19.861,29.792L35.309,29.792L35.309,51.86L49.653,51.86C50.26,51.86,50.757,51.363,50.757,50.757L50.757,21.749L52.28,22.939C52.49,23.093,52.721,23.171,52.963,23.171C53.294,23.171,53.613,23.027,53.834,22.751C54.209,22.266,54.121,21.573,53.647,21.197L45.24,14.642L45.24,6.62C45.24,6.014,44.743,5.517,44.136,5.517L39.723,5.517C39.425,5.517,39.148,5.637,38.938,5.836C38.739,6.046,38.619,6.322,38.619,6.62L38.619,9.478L28.268,1.39C28.064,1.236,27.825,1.159,27.585,1.159ZM22.068,32.109L22.068,51.86L33.102,51.86L33.102,32.109L22.068,32.109ZM29.792,39.723C30.399,39.723,30.895,40.219,30.895,40.826C30.895,41.433,30.399,41.929,29.792,41.929C29.185,41.929,28.688,41.433,28.688,40.826C28.688,40.219,29.185,39.723,29.792,39.723ZM29.792,39.723"/>
</g>
  <g id="Light-S" transform="matrix(1.0,0.0,0.0,1.0,1126.8349252929688,633.1849448242187)">  <path stroke-linejoin="miter" fill-rule="nonzero" stroke-miterlimit="4" fill="#000000" stroke="none" stroke-linecap="butt" stroke-dasharray="none" fill-opacity="1" stroke-width="1px" stroke-opacity="1" d="M27.585,1.159C27.345,1.159,27.106,1.236,26.902,1.39L1.524,21.197C1.049,21.573,0.961,22.266,1.336,22.751C1.711,23.226,2.404,23.314,2.89,22.939L4.414,21.749L4.414,50.757C4.414,51.363,4.91,51.86,5.517,51.86L19.861,51.86L19.861,29.792L35.309,29.792L35.309,51.86L49.653,51.86C50.26,51.86,50.757,51.363,50.757,50.757L50.757,21.749L52.28,22.939C52.49,23.093,52.721,23.171,52.963,23.171C53.294,23.171,53.613,23.027,53.834,22.751C54.209,22.266,54.121,21.573,53.647,21.197L45.24,14.642L45.24,6.62C45.24,6.014,44.743,5.517,44.136,5.517L39.723,5.517C39.425,5.517,39.148,5.637,38.938,5.836C38.739,6.046,38.619,6.322,38.619,6.62L38.619,9.478L28.268,1.39C28.064,1.236,27.825,1.159,27.585,1.159ZM22.068,32.109L22.068,51.86L33.102,51.86L33.102,32.109L22.068,32.109ZM29.792,39.723C30.399,39.723,30.895,40.219,30.895,40.826C30.895,41.433,30.399,41.929,29.792,41.929C29.185,41.929,28.688,41.433,28.688,40.826C28.688,40.219,29.185,39.723,29.792,39.723ZM29.792,39.723"/>
</g>
  <g id="Thin-S" transform="matrix(1.0,0.0,0.0,1.0,830.1249252929688,633.1849448242187)">  <path stroke-dasharray="none" stroke-opacity="1" fill="#000000" stroke-width="1px" fill-rule="nonzero" stroke-miterlimit="4" stroke-linecap="butt" stroke="none" fill-opacity="1" stroke-linejoin="miter" d="M27.585,1.159C27.345,1.159,27.106,1.236,26.902,1.39L1.524,21.197C1.049,21.573,0.961,22.266,1.336,22.751C1.711,23.226,2.404,23.314,2.89,22.939L4.414,21.749L4.414,50.757C4.414,51.363,4.91,51.86,5.517,51.86L19.861,51.86L19.861,29.792L35.309,29.792L35.309,51.86L49.653,51.86C50.26,51.86,50.757,51.363,50.757,50.757L50.757,21.749L52.28,22.939C52.49,23.093,52.721,23.171,52.963,23.171C53.294,23.171,53.613,23.027,53.834,22.751C54.209,22.266,54.121,21.573,53.647,21.197L45.24,14.642L45.24,6.62C45.24,6.014,44.743,5.517,44.136,5.517L39.723,5.517C39.425,5.517,39.148,5.637,38.938,5.836C38.739,6.046,38.619,6.322,38.619,6.62L38.619,9.478L28.268,1.39C28.064,1.236,27.825,1.159,27.585,1.159ZM22.068,32.109L22.068,51.86L33.102,51.86L33.102,32.109L22.068,32.109ZM29.792,39.723C30.399,39.723,30.895,40.219,30.895,40.826C30.895,41.433,30.399,41.929,29.792,41.929C29.185,41.929,28.688,41.433,28.688,40.826C28.688,40.219,29.185,39.723,29.792,39.723ZM29.792,39.723"/>
</g>
  <g id="Ultralight-S" transform="matrix(1.0,0.0,0.0,1.0,533.4149252929687,633.1849448242187)">  <path stroke="none" fill-opacity="1" stroke-width="1px" fill-rule="nonzero" fill="#000000" stroke-opacity="1" stroke-miterlimit="4" stroke-linecap="butt" stroke-dasharray="none" stroke-linejoin="miter" d="M27.585,1.159C27.345,1.159,27.106,1.236,26.902,1.39L1.524,21.197C1.049,21.573,0.961,22.266,1.336,22.751C1.711,23.226,2.404,23.314,2.89,22.939L4.414,21.749L4.414,50.757C4.414,51.363,4.91,51.86,5.517,51.86L19.861,51.86L19.861,29.792L35.309,29.792L35.309,51.86L49.653,51.86C50.26,51.86,50.757,51.363,50.757,50.757L50.757,21.749L52.28,22.939C52.49,23.093,52.721,23.171,52.963,23.171C53.294,23.171,53.613,23.027,53.834,22.751C54.209,22.266,54.121,21.573,53.647,21.197L45.24,14.642L45.24,6.62C45.24,6.014,44.743,5.517,44.136,5.517L39.723,5.517C39.425,5.517,39.148,5.637,38.938,5.836C38.739,6.046,38.619,6.322,38.619,6.62L38.619,9.478L28.268,1.39C28.064,1.236,27.825,1.159,27.585,1.159ZM22.068,32.109L22.068,51.86L33.102,51.86L33.102,32.109L22.068,32.109ZM29.792,39.723C30.399,39.723,30.895,40.219,30.895,40.826C30.895,41.433,30.399,41.929,29.792,41.929C29.185,41.929,28.688,41.433,28.688,40.826C28.688,40.219,29.185,39.723,29.792,39.723ZM29.792,39.723"/>
</g>
 </g>
</svg>
