<?xml version="1.0" encoding="UTF-8"?>
<!-- Generator: CustomSymbols v2.6.2.41 by @serious_bret https://bretlester.com/app_content/CustomSymbols/ -->
<!-- Guides: Left/Right 0.0/0.0 Cap/Base 0.0/0.0 -->
<!-- Settings: RefScale 1.0 Min/Max Stroke Scales 0.5/2.21 -->
<!DOCTYPE svg
PUBLIC "-//W3C//DTD SVG 1.1//EN"
       "http://www.w3.org/Graphics/SVG/1.1/DTD/svg11.dtd">
<svg version="1.1" xmlns="http://www.w3.org/2000/svg" xmlns:xlink="http://www.w3.org/1999/xlink" width="3300" height="2200">
<![CDATA[<svg fill="#000000" xmlns="http://www.w3.org/2000/svg"  viewBox="0 0 50 50" width="50px" height="50px"><path d="M 29 0 C 27.894531 0 27 0.898438 27 2 L 27 4 C 27 5.101563 27.894531 6 29 6 L 39 6 C 40.105469 6 41 5.101563 41 4 L 41 2 C 41 0.898438 40.105469 0 39 0 Z M 28.09375 7.875 C 27.164063 9.613281 26.363281 11.855469 25.78125 13.65625 L 40.53125 22 L 44 22 L 44 21.8125 C 44 19.492188 42.09375 12.074219 39.84375 7.90625 C 39.574219 7.964844 39.285156 8 39 8 L 29 8 C 28.6875 8 28.382813 7.941406 28.09375 7.875 Z M 14.625 13.78125 C 9.632813 13.78125 5.6875 17.167969 4.65625 22 L 12.25 22 L 19.59375 15.0625 C 18.089844 14.222656 16.398438 13.78125 14.625 13.78125 Z M 23.1875 14.6875 C 22.980469 14.710938 22.785156 14.816406 22.625 14.96875 L 15.15625 22 L 36.46875 22 L 23.8125 14.8125 C 23.621094 14.703125 23.394531 14.664063 23.1875 14.6875 Z M 2.84375 24 C 1.273438 24 0 25.273438 0 26.84375 L 0 30.15625 C 0 31.726563 1.273438 33 2.84375 33 L 47.15625 33 C 48.726563 33 50 31.726563 50 30.15625 L 50 26.84375 C 50 25.273438 48.726563 24 47.15625 24 Z M 3 35 L 3 36 C 3 36.195313 3.007813 36.304688 6.4375 47.4375 C 6.457031 47.503906 6.527344 47.65625 6.5625 47.71875 C 7.160156 48.789063 7.816406 50 9.21875 50 L 40.78125 50 C 42.519531 50 43.117188 48.507813 43.5625 47.4375 C 46.988281 36.304688 47 36.195313 47 36 L 47 35 L 37 35 L 37 45 L 34 45 L 34 35 L 30 35 L 30 45 L 27 45 L 27 35 L 23 35 L 23 45 L 20 45 L 20 35 L 16 35 L 16 45 L 13 45 L 13 35 Z"/></svg>]]>
 <g id="Notes">
  <rect height="2200" id="artboard" style="fill:white;opacity:1" width="3300" x="0" y="0"/>
  <line id="" style="fill:none;stroke:black;opacity:1;stroke-width:0.5;" x1="263" x2="3036" y1="292" y2="292"/>
  <text id="reftext1" style="stroke:none;fill:black;font-family:-apple-system,&quot;SF Pro Display&quot;,&quot;SF Pro Text&quot;,Helvetica,sans-serif;font-weight:bold;" transform="matrix(1 0 0 1 263 322)">Weight/Scale Variations</text>
  <text id="reftext2" style="stroke:none;fill:black;font-family:-apple-system,&quot;SF Pro Display&quot;,&quot;SF Pro Text&quot;,Helvetica,sans-serif;text-anchor:middle;" transform="matrix(1 0 0 1 559.711 322)">Ultralight</text>
  <text style="stroke:none;fill:black;font-family:-apple-system,&quot;SF Pro Display&quot;,&quot;SF Pro Text&quot;,Helvetica,sans-serif;text-anchor:middle;" transform="matrix(1 0 0 1 856.422 322)">Thin</text>
  <text style="stroke:none;fill:black;font-family:-apple-system,&quot;SF Pro Display&quot;,&quot;SF Pro Text&quot;,Helvetica,sans-serif;text-anchor:middle;" transform="matrix(1 0 0 1 1153.13 322)">Light</text>
  <text style="stroke:none;fill:black;font-family:-apple-system,&quot;SF Pro Display&quot;,&quot;SF Pro Text&quot;,Helvetica,sans-serif;text-anchor:middle;" transform="matrix(1 0 0 1 1449.84 322)">Regular</text>
  <text style="stroke:none;fill:black;font-family:-apple-system,&quot;SF Pro Display&quot;,&quot;SF Pro Text&quot;,Helvetica,sans-serif;text-anchor:middle;" transform="matrix(1 0 0 1 1746.56 322)">Medium</text>
  <text style="stroke:none;fill:black;font-family:-apple-system,&quot;SF Pro Display&quot;,&quot;SF Pro Text&quot;,Helvetica,sans-serif;text-anchor:middle;" transform="matrix(1 0 0 1 2043.27 322)">Semibold</text>
  <text style="stroke:none;fill:black;font-family:-apple-system,&quot;SF Pro Display&quot;,&quot;SF Pro Text&quot;,Helvetica,sans-serif;text-anchor:middle;" transform="matrix(1 0 0 1 2339.98 322)">Bold</text>
  <text style="stroke:none;fill:black;font-family:-apple-system,&quot;SF Pro Display&quot;,&quot;SF Pro Text&quot;,Helvetica,sans-serif;text-anchor:middle;" transform="matrix(1 0 0 1 2636.69 322)">Heavy</text>
  <text style="stroke:none;fill:black;font-family:-apple-system,&quot;SF Pro Display&quot;,&quot;SF Pro Text&quot;,Helvetica,sans-serif;text-anchor:middle;" transform="matrix(1 0 0 1 2933.4 322)">Black</text>
  <line id="" style="fill:none;stroke:black;opacity:1;stroke-width:0.5;" x1="263" x2="3036" y1="1903" y2="1903"/>
  <g id="" transform="matrix(1 0 0 1 263 1933)">
   <path d="M9.24805 0.830078C13.5547 0.830078 17.1387-2.74414 17.1387-7.05078C17.1387-11.3574 13.5449-14.9316 9.23828-14.9316C4.94141-14.9316 1.36719-11.3574 1.36719-7.05078C1.36719-2.74414 4.95117 0.830078 9.24805 0.830078ZM9.24805-0.654297C5.70312-0.654297 2.87109-3.49609 2.87109-7.05078C2.87109-10.6055 5.69336-13.4473 9.23828-13.4473C12.793-13.4473 15.6348-10.6055 15.6445-7.05078C15.6543-3.49609 12.8027-0.654297 9.24805-0.654297ZM6.39648-6.31836L8.50586-6.31836L8.50586-4.19922C8.50586-3.75977 8.79883-3.45703 9.22852-3.45703C9.67773-3.45703 9.9707-3.75977 9.9707-4.19922L9.9707-6.31836L12.0996-6.31836C12.5391-6.31836 12.8418-6.61133 12.8418-7.04102C12.8418-7.48047 12.5391-7.7832 12.0996-7.7832L9.9707-7.7832L9.9707-9.89258C9.9707-10.3418 9.67773-10.6445 9.22852-10.6445C8.79883-10.6445 8.50586-10.3418 8.50586-9.89258L8.50586-7.7832L6.39648-7.7832C5.94727-7.7832 5.64453-7.48047 5.64453-7.04102C5.64453-6.61133 5.94727-6.31836 6.39648-6.31836Z"/>
  </g>
  <g id="" transform="matrix(1 0 0 1 281.506 1933)">
   <path d="M11.709 2.91016C17.1582 2.91016 21.6699-1.61133 21.6699-7.05078C21.6699-12.5 17.1484-17.0117 11.6992-17.0117C6.25977-17.0117 1.74805-12.5 1.74805-7.05078C1.74805-1.61133 6.26953 2.91016 11.709 2.91016ZM11.709 1.25C7.09961 1.25 3.41797-2.44141 3.41797-7.05078C3.41797-11.6602 7.08984-15.3516 11.6992-15.3516C16.3086-15.3516 20-11.6602 20.0098-7.05078C20.0195-2.44141 16.3184 1.25 11.709 1.25ZM7.98828-6.23047L10.8789-6.23047L10.8789-3.32031C10.8789-2.83203 11.2109-2.5 11.6895-2.5C12.1777-2.5 12.5195-2.83203 12.5195-3.32031L12.5195-6.23047L15.4297-6.23047C15.918-6.23047 16.25-6.5625 16.25-7.04102C16.25-7.5293 15.918-7.87109 15.4297-7.87109L12.5195-7.87109L12.5195-10.7617C12.5195-11.2695 12.1777-11.6016 11.6895-11.6016C11.2109-11.6016 10.8789-11.2598 10.8789-10.7617L10.8789-7.87109L7.98828-7.87109C7.48047-7.87109 7.14844-7.5293 7.14844-7.04102C7.14844-6.5625 7.49023-6.23047 7.98828-6.23047Z"/>
  </g>
  <g id="" transform="matrix(1 0 0 1 304.924 1933)">
   <path d="M14.9707 5.66406C21.9336 5.66406 27.6953-0.0976562 27.6953-7.05078C27.6953-14.0137 21.9238-19.7754 14.9609-19.7754C8.00781-19.7754 2.25586-14.0137 2.25586-7.05078C2.25586-0.0976562 8.01758 5.66406 14.9707 5.66406ZM14.9707 3.84766C8.93555 3.84766 4.08203-1.01562 4.08203-7.05078C4.08203-13.0957 8.92578-17.9492 14.9609-17.9492C21.0059-17.9492 25.8594-13.0957 25.8691-7.05078C25.8789-1.01562 21.0156 3.84766 14.9707 3.84766ZM10.0586-6.14258L14.0625-6.14258L14.0625-2.12891C14.0625-1.5918 14.4336-1.2207 14.9512-1.2207C15.4883-1.2207 15.8594-1.5918 15.8594-2.12891L15.8594-6.14258L19.8828-6.14258C20.4102-6.14258 20.791-6.51367 20.791-7.03125C20.791-7.56836 20.4199-7.94922 19.8828-7.94922L15.8594-7.94922L15.8594-11.9531C15.8594-12.5098 15.4883-12.8809 14.9512-12.8809C14.4336-12.8809 14.0625-12.5 14.0625-11.9531L14.0625-7.94922L10.0586-7.94922C9.50195-7.94922 9.13086-7.56836 9.13086-7.03125C9.13086-6.51367 9.51172-6.14258 10.0586-6.14258Z"/>
  </g>
  <text style="stroke:none;fill:black;font-family:-apple-system,&quot;SF Pro Display&quot;,&quot;SF Pro Text&quot;,Helvetica,sans-serif;font-weight:bold;" transform="matrix(1 0 0 1 263 1953)">Design Variations</text>
  <text style="stroke:none;fill:black;font-family:-apple-system,&quot;SF Pro Display&quot;,&quot;SF Pro Text&quot;,Helvetica,sans-serif;" transform="matrix(1 0 0 1 263 1971)">Symbols are supported in up to nine weights and three scales.</text>
  <text style="stroke:none;fill:black;font-family:-apple-system,&quot;SF Pro Display&quot;,&quot;SF Pro Text&quot;,Helvetica,sans-serif;" transform="matrix(1 0 0 1 263 1989)">For optimal layout with text and other symbols, vertically align</text>
  <text style="stroke:none;fill:black;font-family:-apple-system,&quot;SF Pro Display&quot;,&quot;SF Pro Text&quot;,Helvetica,sans-serif;" transform="matrix(1 0 0 1 263 2007)">symbols with the adjacent text.</text>
  <line id="" style="fill:none;stroke:#00AEEF;stroke-width:0.5;opacity:1.0;" x1="776" x2="776" y1="1919" y2="1933"/>
  <g id="" transform="matrix(1 0 0 1 776 1933)">
   <path d="M3.31055 0.126953C3.82812 0.126953 4.08203-0.0683594 4.26758-0.605469L5.52734-4.0625L11.2891-4.0625L12.5488-0.605469C12.7344-0.0683594 12.9883 0.126953 13.4961 0.126953C14.0137 0.126953 14.3457-0.185547 14.3457-0.673828C14.3457-0.839844 14.3164-0.986328 14.2383-1.20117L9.6582-13.3887C9.43359-13.9941 9.0332-14.2871 8.4082-14.2871C7.80273-14.2871 7.39258-13.9941 7.17773-13.3984L2.59766-1.19141C2.51953-0.976562 2.49023-0.830078 2.49023-0.664062C2.49023-0.175781 2.80273 0.126953 3.31055 0.126953ZM6.00586-5.53711L8.37891-12.1094L8.42773-12.1094L10.8008-5.53711Z"/>
  </g>
  <line id="" style="fill:none;stroke:#00AEEF;stroke-width:0.5;opacity:1.0;" x1="792.836" x2="792.836" y1="1919" y2="1933"/>
  <text style="stroke:none;fill:black;font-family:-apple-system,&quot;SF Pro Display&quot;,&quot;SF Pro Text&quot;,Helvetica,sans-serif;font-weight:bold;" transform="matrix(1 0 0 1 776 1953)">Margins</text>
  <text style="stroke:none;fill:black;font-family:-apple-system,&quot;SF Pro Display&quot;,&quot;SF Pro Text&quot;,Helvetica,sans-serif;" transform="matrix(1 0 0 1 776 1971)">Leading and trailing margins on the left and right side of each symbol</text>
  <text style="stroke:none;fill:black;font-family:-apple-system,&quot;SF Pro Display&quot;,&quot;SF Pro Text&quot;,Helvetica,sans-serif;" transform="matrix(1 0 0 1 776 1989)">can be adjusted by modifying the x-location of the margin guidelines.</text>
  <text style="stroke:none;fill:black;font-family:-apple-system,&quot;SF Pro Display&quot;,&quot;SF Pro Text&quot;,Helvetica,sans-serif;" transform="matrix(1 0 0 1 776 2007)">Modifications are automatically applied proportionally to all</text>
  <text style="stroke:none;fill:black;font-family:-apple-system,&quot;SF Pro Display&quot;,&quot;SF Pro Text&quot;,Helvetica,sans-serif;" transform="matrix(1 0 0 1 776 2025)">scales and weights.</text>
  <g id="" transform="matrix(1 0 0 1 1289 1933)">
   <path d="M2.8418 1.86523L4.54102 3.57422C5.40039 4.44336 6.38672 4.38477 7.31445 3.35938L17.4902-7.85156C17.7539-7.76367 18.0273-7.7832 18.3398-7.8418L19.4043-8.03711L20.0684-7.36328L20.0293-6.80664C19.9902-6.30859 20.1172-5.92773 20.6055-5.44922L21.3672-4.70703C21.8457-4.22852 22.4609-4.19922 22.9297-4.66797L25.8398-7.58789C26.3086-8.05664 26.2891-8.65234 25.8105-9.13086L25.0391-9.89258C24.5605-10.3711 24.1895-10.5273 23.7109-10.4883L23.1348-10.4395L22.4902-11.0742L22.7344-12.1973C22.8613-12.7637 22.7051-13.2031 22.1191-13.7891L19.9219-15.9766C16.582-19.2969 12.1484-19.2188 9.25781-16.3281C8.83789-15.918 8.80859-15.3418 9.04297-14.9512C9.27734-14.5898 9.73633-14.3555 10.3809-14.5215C11.8457-14.8633 13.3691-14.9219 14.7949-13.9844L14.209-12.5293C14.0137-12.0508 13.9844-11.6504 14.1113-11.2891L3.04688-0.898438C2.06055 0.0195312 1.98242 0.996094 2.8418 1.86523ZM10.752-15.957C13.1836-17.7344 16.4746-17.4316 18.7012-15.2051L21.1328-12.793C21.3672-12.5586 21.4062-12.373 21.3379-12.0312L21.0156-10.5469L22.5195-9.0625L23.5059-9.12109C23.7598-9.13086 23.8379-9.11133 24.0332-8.91602L24.6094-8.33984L22.168-5.89844L21.5918-6.47461C21.3965-6.66992 21.3672-6.74805 21.377-7.01172L21.4453-7.98828L19.9512-9.47266L18.4277-9.21875C18.1055-9.15039 17.959-9.17969 17.7148-9.41406L15.7129-11.416C15.459-11.6504 15.4297-11.8164 15.5859-12.1875L16.4648-14.2773C14.9023-15.7324 12.8711-16.3574 10.8398-15.7617C10.6836-15.7227 10.625-15.8496 10.752-15.957ZM5.27344 2.30469L4.10156 1.14258C3.63281 0.683594 3.74023 0.341797 4.14062-0.0195312L14.9512-10.1953L16.416-8.71094L6.42578 2.27539C6.07422 2.67578 5.74219 2.77344 5.27344 2.30469Z"/>
  </g>
  <text style="stroke:none;fill:black;font-family:-apple-system,&quot;SF Pro Display&quot;,&quot;SF Pro Text&quot;,Helvetica,sans-serif;font-weight:bold;" transform="matrix(1 0 0 1 1289 1953)">Exporting</text>
  <text style="stroke:none;fill:black;font-family:-apple-system,&quot;SF Pro Display&quot;,&quot;SF Pro Text&quot;,Helvetica,sans-serif;" transform="matrix(1 0 0 1 1289 1971)">Symbols should be outlined when exporting to ensure the</text>
  <text style="stroke:none;fill:black;font-family:-apple-system,&quot;SF Pro Display&quot;,&quot;SF Pro Text&quot;,Helvetica,sans-serif;" transform="matrix(1 0 0 1 1289 1989)">design is preserved when submitting to Xcode.</text>
  <text id="template-version" style="stroke:none;fill:black;font-family:-apple-system,&quot;SF Pro Display&quot;,&quot;SF Pro Text&quot;,Helvetica,sans-serif;text-anchor:end;" transform="matrix(1 0 0 1 3036 1933)">Template v.2.0</text>
  <text style="stroke:none;fill:black;font-family:-apple-system,&quot;SF Pro Display&quot;,&quot;SF Pro Text&quot;,Helvetica,sans-serif;text-anchor:end;" transform="matrix(1 0 0 1 3036 1951)">Requires Xcode 12 or greater</text>
  <text style="stroke:none;fill:black;font-family:-apple-system,&quot;SF Pro Display&quot;,&quot;SF Pro Text&quot;,Helvetica,sans-serif;" transform="matrix(1 0 0 1 263 726)">Small</text>
  <text style="stroke:none;fill:black;font-family:-apple-system,&quot;SF Pro Display&quot;,&quot;SF Pro Text&quot;,Helvetica,sans-serif;" transform="matrix(1 0 0 1 263 1156)">Medium</text>
  <text style="stroke:none;fill:black;font-family:-apple-system,&quot;SF Pro Display&quot;,&quot;SF Pro Text&quot;,Helvetica,sans-serif;" transform="matrix(1 0 0 1 263 1586)">Large</text>
 </g>
 <g id="Guides">
  <g id="H-reference" style="fill:#27AAE1;stroke:none;" transform="matrix(1 0 0 1 339 696)">
   <path d="M0.976562 0L3.66211 0L12.9883-24.4629L45.752-24.4629L55.127 0L57.7637 0L30.6152-70.459L28.125-70.459ZM29.3457-67.1387L29.4434-67.1387L44.873-26.709L13.8672-26.709Z"/>
  </g>
  <line id="Baseline-S" style="fill:none;stroke:#27AAE1;opacity:1;stroke-width:0.5;" x1="263" x2="3036" y1="696" y2="696"/>
  <line id="Capline-S" style="fill:none;stroke:#27AAE1;opacity:1;stroke-width:0.5;" x1="263" x2="3036" y1="625.541" y2="625.541"/>
  <g id="H-reference" style="fill:#27AAE1;stroke:none;" transform="matrix(1 0 0 1 339 1126)">
   <path d="M0.976562 0L3.66211 0L12.9883-24.4629L45.752-24.4629L55.127 0L57.7637 0L30.6152-70.459L28.125-70.459ZM29.3457-67.1387L29.4434-67.1387L44.873-26.709L13.8672-26.709Z"/>
  </g>
  <line id="Baseline-M" style="fill:none;stroke:#27AAE1;opacity:1;stroke-width:0.5;" x1="263" x2="3036" y1="1126" y2="1126"/>
  <line id="Capline-M" style="fill:none;stroke:#27AAE1;opacity:1;stroke-width:0.5;" x1="263" x2="3036" y1="1055.54" y2="1055.54"/>
  <g id="H-reference" style="fill:#27AAE1;stroke:none;" transform="matrix(1 0 0 1 339 1556)">
   <path d="M0.976562 0L3.66211 0L12.9883-24.4629L45.752-24.4629L55.127 0L57.7637 0L30.6152-70.459L28.125-70.459ZM29.3457-67.1387L29.4434-67.1387L44.873-26.709L13.8672-26.709Z"/>
  </g>
  <line id="Baseline-L" style="fill:none;stroke:#27AAE1;opacity:1;stroke-width:0.5;" x1="263" x2="3036" y1="1556" y2="1556"/>
  <line id="Capline-L" style="fill:none;stroke:#27AAE1;opacity:1;stroke-width:0.5;" x1="263" x2="3036" y1="1485.54" y2="1485.54"/>
  <line id="left-margin" x1="1415.9000195312499" x2="1415.9000195312499" y1="1030.79" y2="1150.12" style="fill:none;stroke:#00AEEF;stroke-width:0.5;opacity:1.0;"/>
  <line id="right-margin" x1="1486.3599804687499" x2="1486.3599804687499" y1="1030.79" y2="1150.12" style="fill:none;stroke:#00AEEF;stroke-width:0.5;opacity:1.0;"/>
 </g>
 <g id="Symbols">
  <g id="Black-L" transform="matrix(1.0,0.0,0.0,1.0,2889.2333251953123,1475.3233447265625)">  <path stroke-opacity="1" stroke-miterlimit="4" fill-rule="nonzero" fill="#000000" stroke="none" stroke-width="1px" fill-opacity="1" stroke-dasharray="none" stroke-linecap="butt" stroke-linejoin="miter" d="M52.718,0C50.709,0,49.082,1.633,49.082,3.636L49.082,7.271C49.082,9.274,50.709,10.907,52.718,10.907L70.897,10.907C72.906,10.907,74.533,9.274,74.533,7.271L74.533,3.636C74.533,1.633,72.906,0,70.897,0ZM51.071,14.316C49.381,17.476,47.925,21.552,46.867,24.825L73.68,39.993L79.986,39.993L79.986,39.652C79.986,35.434,76.521,21.949,72.431,14.373C71.941,14.479,71.415,14.543,70.897,14.543L52.718,14.543C52.15,14.543,51.596,14.436,51.071,14.316ZM26.586,25.052C17.511,25.052,10.339,31.209,8.464,39.993L22.269,39.993L35.619,27.382C32.885,25.855,29.81,25.052,26.586,25.052ZM42.152,26.7C41.775,26.743,41.42,26.934,41.129,27.211L27.552,39.993L66.295,39.993L43.288,26.927C42.94,26.728,42.528,26.657,42.152,26.7ZM5.17,43.629C2.315,43.629,0,45.944,0,48.798L0,54.82C0,57.675,2.315,59.99,5.17,59.99L85.724,59.99C88.578,59.99,90.893,57.675,90.893,54.82L90.893,48.798C90.893,45.944,88.578,43.629,85.724,43.629ZM5.454,63.625L5.454,65.443C5.454,65.798,5.468,65.997,11.703,86.235C11.738,86.356,11.866,86.633,11.93,86.746C13.016,88.692,14.209,90.893,16.758,90.893L74.135,90.893C77.295,90.893,78.381,88.181,79.191,86.235C85.418,65.997,85.44,65.798,85.44,65.443L85.44,63.625L67.261,63.625L67.261,81.804L61.807,81.804L61.807,63.625L54.536,63.625L54.536,81.804L49.082,81.804L49.082,63.625L41.811,63.625L41.811,81.804L36.357,81.804L36.357,63.625L29.086,63.625L29.086,81.804L23.632,81.804L23.632,63.625ZM5.454,63.625"/>
</g>
  <g id="Heavy-L" transform="matrix(1.0,0.0,0.0,1.0,2592.5233251953123,1475.3233447265625)">  <path fill-opacity="1" stroke-opacity="1" stroke-dasharray="none" stroke-linejoin="miter" fill="#000000" stroke-width="1px" stroke-miterlimit="4" fill-rule="nonzero" stroke-linecap="butt" stroke="none" d="M52.718,0C50.709,0,49.082,1.633,49.082,3.636L49.082,7.271C49.082,9.274,50.709,10.907,52.718,10.907L70.897,10.907C72.906,10.907,74.533,9.274,74.533,7.271L74.533,3.636C74.533,1.633,72.906,0,70.897,0ZM51.071,14.316C49.381,17.476,47.925,21.552,46.867,24.825L73.68,39.993L79.986,39.993L79.986,39.652C79.986,35.434,76.521,21.949,72.431,14.373C71.941,14.479,71.415,14.543,70.897,14.543L52.718,14.543C52.15,14.543,51.596,14.436,51.071,14.316ZM26.586,25.052C17.511,25.052,10.339,31.209,8.464,39.993L22.269,39.993L35.619,27.382C32.885,25.855,29.81,25.052,26.586,25.052ZM42.152,26.7C41.775,26.743,41.42,26.934,41.129,27.211L27.552,39.993L66.295,39.993L43.288,26.927C42.94,26.728,42.528,26.657,42.152,26.7ZM5.17,43.629C2.315,43.629,0,45.944,0,48.798L0,54.82C0,57.675,2.315,59.99,5.17,59.99L85.724,59.99C88.578,59.99,90.893,57.675,90.893,54.82L90.893,48.798C90.893,45.944,88.578,43.629,85.724,43.629ZM5.454,63.625L5.454,65.443C5.454,65.798,5.468,65.997,11.703,86.235C11.738,86.356,11.866,86.633,11.93,86.746C13.016,88.692,14.209,90.893,16.758,90.893L74.135,90.893C77.295,90.893,78.381,88.181,79.191,86.235C85.418,65.997,85.44,65.798,85.44,65.443L85.44,63.625L67.261,63.625L67.261,81.804L61.807,81.804L61.807,63.625L54.536,63.625L54.536,81.804L49.082,81.804L49.082,63.625L41.811,63.625L41.811,81.804L36.357,81.804L36.357,63.625L29.086,63.625L29.086,81.804L23.632,81.804L23.632,63.625ZM5.454,63.625"/>
</g>
  <g id="Bold-L" transform="matrix(1.0,0.0,0.0,1.0,2295.8133251953122,1475.3233447265625)">  <path stroke="none" stroke-opacity="1" stroke-miterlimit="4" stroke-width="1px" fill-opacity="1" stroke-dasharray="none" stroke-linejoin="miter" fill="#000000" fill-rule="nonzero" stroke-linecap="butt" d="M52.718,0C50.709,0,49.082,1.633,49.082,3.636L49.082,7.271C49.082,9.274,50.709,10.907,52.718,10.907L70.897,10.907C72.906,10.907,74.533,9.274,74.533,7.271L74.533,3.636C74.533,1.633,72.906,0,70.897,0ZM51.071,14.316C49.381,17.476,47.925,21.552,46.867,24.825L73.68,39.993L79.986,39.993L79.986,39.652C79.986,35.434,76.521,21.949,72.431,14.373C71.941,14.479,71.415,14.543,70.897,14.543L52.718,14.543C52.15,14.543,51.596,14.436,51.071,14.316ZM26.586,25.052C17.511,25.052,10.339,31.209,8.464,39.993L22.269,39.993L35.619,27.382C32.885,25.855,29.81,25.052,26.586,25.052ZM42.152,26.7C41.775,26.743,41.42,26.934,41.129,27.211L27.552,39.993L66.295,39.993L43.288,26.927C42.94,26.728,42.528,26.657,42.152,26.7ZM5.17,43.629C2.315,43.629,0,45.944,0,48.798L0,54.82C0,57.675,2.315,59.99,5.17,59.99L85.724,59.99C88.578,59.99,90.893,57.675,90.893,54.82L90.893,48.798C90.893,45.944,88.578,43.629,85.724,43.629ZM5.454,63.625L5.454,65.443C5.454,65.798,5.468,65.997,11.703,86.235C11.738,86.356,11.866,86.633,11.93,86.746C13.016,88.692,14.209,90.893,16.758,90.893L74.135,90.893C77.295,90.893,78.381,88.181,79.191,86.235C85.418,65.997,85.44,65.798,85.44,65.443L85.44,63.625L67.261,63.625L67.261,81.804L61.807,81.804L61.807,63.625L54.536,63.625L54.536,81.804L49.082,81.804L49.082,63.625L41.811,63.625L41.811,81.804L36.357,81.804L36.357,63.625L29.086,63.625L29.086,81.804L23.632,81.804L23.632,63.625ZM5.454,63.625"/>
</g>
  <g id="Semibold-L" transform="matrix(1.0,0.0,0.0,1.0,1999.1033251953124,1475.3233447265625)">  <path stroke-miterlimit="4" stroke-dasharray="none" fill="#000000" stroke-linejoin="miter" stroke-width="1px" stroke-linecap="butt" fill-opacity="1" stroke-opacity="1" fill-rule="nonzero" stroke="none" d="M52.718,0C50.709,0,49.082,1.633,49.082,3.636L49.082,7.271C49.082,9.274,50.709,10.907,52.718,10.907L70.897,10.907C72.906,10.907,74.533,9.274,74.533,7.271L74.533,3.636C74.533,1.633,72.906,0,70.897,0ZM51.071,14.316C49.381,17.476,47.925,21.552,46.867,24.825L73.68,39.993L79.986,39.993L79.986,39.652C79.986,35.434,76.521,21.949,72.431,14.373C71.941,14.479,71.415,14.543,70.897,14.543L52.718,14.543C52.15,14.543,51.596,14.436,51.071,14.316ZM26.586,25.052C17.511,25.052,10.339,31.209,8.464,39.993L22.269,39.993L35.619,27.382C32.885,25.855,29.81,25.052,26.586,25.052ZM42.152,26.7C41.775,26.743,41.42,26.934,41.129,27.211L27.552,39.993L66.295,39.993L43.288,26.927C42.94,26.728,42.528,26.657,42.152,26.7ZM5.17,43.629C2.315,43.629,0,45.944,0,48.798L0,54.82C0,57.675,2.315,59.99,5.17,59.99L85.724,59.99C88.578,59.99,90.893,57.675,90.893,54.82L90.893,48.798C90.893,45.944,88.578,43.629,85.724,43.629ZM5.454,63.625L5.454,65.443C5.454,65.798,5.468,65.997,11.703,86.235C11.738,86.356,11.866,86.633,11.93,86.746C13.016,88.692,14.209,90.893,16.758,90.893L74.135,90.893C77.295,90.893,78.381,88.181,79.191,86.235C85.418,65.997,85.44,65.798,85.44,65.443L85.44,63.625L67.261,63.625L67.261,81.804L61.807,81.804L61.807,63.625L54.536,63.625L54.536,81.804L49.082,81.804L49.082,63.625L41.811,63.625L41.811,81.804L36.357,81.804L36.357,63.625L29.086,63.625L29.086,81.804L23.632,81.804L23.632,63.625ZM5.454,63.625"/>
</g>
  <g id="Medium-L" transform="matrix(1.0,0.0,0.0,1.0,1702.3933251953124,1475.3233447265625)">  <path stroke-linecap="butt" fill="#000000" stroke-dasharray="none" fill-rule="nonzero" stroke-miterlimit="4" stroke-opacity="1" stroke-linejoin="miter" stroke="none" fill-opacity="1" stroke-width="1px" d="M52.718,0C50.709,0,49.082,1.633,49.082,3.636L49.082,7.271C49.082,9.274,50.709,10.907,52.718,10.907L70.897,10.907C72.906,10.907,74.533,9.274,74.533,7.271L74.533,3.636C74.533,1.633,72.906,0,70.897,0ZM51.071,14.316C49.381,17.476,47.925,21.552,46.867,24.825L73.68,39.993L79.986,39.993L79.986,39.652C79.986,35.434,76.521,21.949,72.431,14.373C71.941,14.479,71.415,14.543,70.897,14.543L52.718,14.543C52.15,14.543,51.596,14.436,51.071,14.316ZM26.586,25.052C17.511,25.052,10.339,31.209,8.464,39.993L22.269,39.993L35.619,27.382C32.885,25.855,29.81,25.052,26.586,25.052ZM42.152,26.7C41.775,26.743,41.42,26.934,41.129,27.211L27.552,39.993L66.295,39.993L43.288,26.927C42.94,26.728,42.528,26.657,42.152,26.7ZM5.17,43.629C2.315,43.629,0,45.944,0,48.798L0,54.82C0,57.675,2.315,59.99,5.17,59.99L85.724,59.99C88.578,59.99,90.893,57.675,90.893,54.82L90.893,48.798C90.893,45.944,88.578,43.629,85.724,43.629ZM5.454,63.625L5.454,65.443C5.454,65.798,5.468,65.997,11.703,86.235C11.738,86.356,11.866,86.633,11.93,86.746C13.016,88.692,14.209,90.893,16.758,90.893L74.135,90.893C77.295,90.893,78.381,88.181,79.191,86.235C85.418,65.997,85.44,65.798,85.44,65.443L85.44,63.625L67.261,63.625L67.261,81.804L61.807,81.804L61.807,63.625L54.536,63.625L54.536,81.804L49.082,81.804L49.082,63.625L41.811,63.625L41.811,81.804L36.357,81.804L36.357,63.625L29.086,63.625L29.086,81.804L23.632,81.804L23.632,63.625ZM5.454,63.625"/>
</g>
  <g id="Regular-L" transform="matrix(1.0,0.0,0.0,1.0,1405.6833251953124,1475.3233447265625)">  <path stroke-miterlimit="4" fill-opacity="1" fill-rule="nonzero" stroke-width="1px" stroke-linecap="butt" stroke-dasharray="none" stroke-linejoin="miter" stroke="none" fill="#000000" stroke-opacity="1" d="M52.718,0C50.709,0,49.082,1.633,49.082,3.636L49.082,7.271C49.082,9.274,50.709,10.907,52.718,10.907L70.897,10.907C72.906,10.907,74.533,9.274,74.533,7.271L74.533,3.636C74.533,1.633,72.906,0,70.897,0ZM51.071,14.316C49.381,17.476,47.925,21.552,46.867,24.825L73.68,39.993L79.986,39.993L79.986,39.652C79.986,35.434,76.521,21.949,72.431,14.373C71.941,14.479,71.415,14.543,70.897,14.543L52.718,14.543C52.15,14.543,51.596,14.436,51.071,14.316ZM26.586,25.052C17.511,25.052,10.339,31.209,8.464,39.993L22.269,39.993L35.619,27.382C32.885,25.855,29.81,25.052,26.586,25.052ZM42.152,26.7C41.775,26.743,41.42,26.934,41.129,27.211L27.552,39.993L66.295,39.993L43.288,26.927C42.94,26.728,42.528,26.657,42.152,26.7ZM5.17,43.629C2.315,43.629,0,45.944,0,48.798L0,54.82C0,57.675,2.315,59.99,5.17,59.99L85.724,59.99C88.578,59.99,90.893,57.675,90.893,54.82L90.893,48.798C90.893,45.944,88.578,43.629,85.724,43.629ZM5.454,63.625L5.454,65.443C5.454,65.798,5.468,65.997,11.703,86.235C11.738,86.356,11.866,86.633,11.93,86.746C13.016,88.692,14.209,90.893,16.758,90.893L74.135,90.893C77.295,90.893,78.381,88.181,79.191,86.235C85.418,65.997,85.44,65.798,85.44,65.443L85.44,63.625L67.261,63.625L67.261,81.804L61.807,81.804L61.807,63.625L54.536,63.625L54.536,81.804L49.082,81.804L49.082,63.625L41.811,63.625L41.811,81.804L36.357,81.804L36.357,63.625L29.086,63.625L29.086,81.804L23.632,81.804L23.632,63.625ZM5.454,63.625"/>
</g>
  <g id="Light-L" transform="matrix(1.0,0.0,0.0,1.0,1108.9733251953126,1475.3233447265625)">  <path stroke-linejoin="miter" stroke-linecap="butt" stroke-dasharray="none" stroke-miterlimit="4" stroke-opacity="1" fill-rule="nonzero" stroke="none" fill-opacity="1" stroke-width="1px" fill="#000000" d="M52.718,0C50.709,0,49.082,1.633,49.082,3.636L49.082,7.271C49.082,9.274,50.709,10.907,52.718,10.907L70.897,10.907C72.906,10.907,74.533,9.274,74.533,7.271L74.533,3.636C74.533,1.633,72.906,0,70.897,0ZM51.071,14.316C49.381,17.476,47.925,21.552,46.867,24.825L73.68,39.993L79.986,39.993L79.986,39.652C79.986,35.434,76.521,21.949,72.431,14.373C71.941,14.479,71.415,14.543,70.897,14.543L52.718,14.543C52.15,14.543,51.596,14.436,51.071,14.316ZM26.586,25.052C17.511,25.052,10.339,31.209,8.464,39.993L22.269,39.993L35.619,27.382C32.885,25.855,29.81,25.052,26.586,25.052ZM42.152,26.7C41.775,26.743,41.42,26.934,41.129,27.211L27.552,39.993L66.295,39.993L43.288,26.927C42.94,26.728,42.528,26.657,42.152,26.7ZM5.17,43.629C2.315,43.629,0,45.944,0,48.798L0,54.82C0,57.675,2.315,59.99,5.17,59.99L85.724,59.99C88.578,59.99,90.893,57.675,90.893,54.82L90.893,48.798C90.893,45.944,88.578,43.629,85.724,43.629ZM5.454,63.625L5.454,65.443C5.454,65.798,5.468,65.997,11.703,86.235C11.738,86.356,11.866,86.633,11.93,86.746C13.016,88.692,14.209,90.893,16.758,90.893L74.135,90.893C77.295,90.893,78.381,88.181,79.191,86.235C85.418,65.997,85.44,65.798,85.44,65.443L85.44,63.625L67.261,63.625L67.261,81.804L61.807,81.804L61.807,63.625L54.536,63.625L54.536,81.804L49.082,81.804L49.082,63.625L41.811,63.625L41.811,81.804L36.357,81.804L36.357,63.625L29.086,63.625L29.086,81.804L23.632,81.804L23.632,63.625ZM5.454,63.625"/>
</g>
  <g id="Thin-L" transform="matrix(1.0,0.0,0.0,1.0,812.2633251953125,1475.3233447265625)">  <path stroke-miterlimit="4" stroke-linecap="butt" stroke-opacity="1" stroke-width="1px" stroke="none" fill-opacity="1" stroke-dasharray="none" fill="#000000" fill-rule="nonzero" stroke-linejoin="miter" d="M52.718,0C50.709,0,49.082,1.633,49.082,3.636L49.082,7.271C49.082,9.274,50.709,10.907,52.718,10.907L70.897,10.907C72.906,10.907,74.533,9.274,74.533,7.271L74.533,3.636C74.533,1.633,72.906,0,70.897,0ZM51.071,14.316C49.381,17.476,47.925,21.552,46.867,24.825L73.68,39.993L79.986,39.993L79.986,39.652C79.986,35.434,76.521,21.949,72.431,14.373C71.941,14.479,71.415,14.543,70.897,14.543L52.718,14.543C52.15,14.543,51.596,14.436,51.071,14.316ZM26.586,25.052C17.511,25.052,10.339,31.209,8.464,39.993L22.269,39.993L35.619,27.382C32.885,25.855,29.81,25.052,26.586,25.052ZM42.152,26.7C41.775,26.743,41.42,26.934,41.129,27.211L27.552,39.993L66.295,39.993L43.288,26.927C42.94,26.728,42.528,26.657,42.152,26.7ZM5.17,43.629C2.315,43.629,0,45.944,0,48.798L0,54.82C0,57.675,2.315,59.99,5.17,59.99L85.724,59.99C88.578,59.99,90.893,57.675,90.893,54.82L90.893,48.798C90.893,45.944,88.578,43.629,85.724,43.629ZM5.454,63.625L5.454,65.443C5.454,65.798,5.468,65.997,11.703,86.235C11.738,86.356,11.866,86.633,11.93,86.746C13.016,88.692,14.209,90.893,16.758,90.893L74.135,90.893C77.295,90.893,78.381,88.181,79.191,86.235C85.418,65.997,85.44,65.798,85.44,65.443L85.44,63.625L67.261,63.625L67.261,81.804L61.807,81.804L61.807,63.625L54.536,63.625L54.536,81.804L49.082,81.804L49.082,63.625L41.811,63.625L41.811,81.804L36.357,81.804L36.357,63.625L29.086,63.625L29.086,81.804L23.632,81.804L23.632,63.625ZM5.454,63.625"/>
</g>
  <g id="Ultralight-L" transform="matrix(1.0,0.0,0.0,1.0,515.5533251953125,1475.3233447265625)">  <path stroke-opacity="1" stroke-linecap="butt" stroke-dasharray="none" fill="#000000" stroke="none" fill-rule="nonzero" fill-opacity="1" stroke-miterlimit="4" stroke-linejoin="miter" stroke-width="1px" d="M52.718,0C50.709,0,49.082,1.633,49.082,3.636L49.082,7.271C49.082,9.274,50.709,10.907,52.718,10.907L70.897,10.907C72.906,10.907,74.533,9.274,74.533,7.271L74.533,3.636C74.533,1.633,72.906,0,70.897,0ZM51.071,14.316C49.381,17.476,47.925,21.552,46.867,24.825L73.68,39.993L79.986,39.993L79.986,39.652C79.986,35.434,76.521,21.949,72.431,14.373C71.941,14.479,71.415,14.543,70.897,14.543L52.718,14.543C52.15,14.543,51.596,14.436,51.071,14.316ZM26.586,25.052C17.511,25.052,10.339,31.209,8.464,39.993L22.269,39.993L35.619,27.382C32.885,25.855,29.81,25.052,26.586,25.052ZM42.152,26.7C41.775,26.743,41.42,26.934,41.129,27.211L27.552,39.993L66.295,39.993L43.288,26.927C42.94,26.728,42.528,26.657,42.152,26.7ZM5.17,43.629C2.315,43.629,0,45.944,0,48.798L0,54.82C0,57.675,2.315,59.99,5.17,59.99L85.724,59.99C88.578,59.99,90.893,57.675,90.893,54.82L90.893,48.798C90.893,45.944,88.578,43.629,85.724,43.629ZM5.454,63.625L5.454,65.443C5.454,65.798,5.468,65.997,11.703,86.235C11.738,86.356,11.866,86.633,11.93,86.746C13.016,88.692,14.209,90.893,16.758,90.893L74.135,90.893C77.295,90.893,78.381,88.181,79.191,86.235C85.418,65.997,85.44,65.798,85.44,65.443L85.44,63.625L67.261,63.625L67.261,81.804L61.807,81.804L61.807,63.625L54.536,63.625L54.536,81.804L49.082,81.804L49.082,63.625L41.811,63.625L41.811,81.804L36.357,81.804L36.357,63.625L29.086,63.625L29.086,81.804L23.632,81.804L23.632,63.625ZM5.454,63.625"/>
</g>
  <g id="Black-M" transform="matrix(1.0,0.0,0.0,1.0,2899.45001953125,1055.5400390625)">  <path stroke-opacity="1" stroke-miterlimit="4" fill-rule="nonzero" fill="#000000" stroke="none" stroke-width="1px" fill-opacity="1" stroke-dasharray="none" stroke-linecap="butt" stroke-linejoin="miter" d="M40.867,0C39.309,0,38.048,1.266,38.048,2.818L38.048,5.637C38.048,7.189,39.309,8.455,40.867,8.455L54.959,8.455C56.517,8.455,57.777,7.189,57.777,5.637L57.777,2.818C57.777,1.266,56.517,0,54.959,0ZM39.59,11.097C38.28,13.547,37.151,16.707,36.331,19.244L57.117,31.002L62.005,31.002L62.005,30.738C62.005,27.468,59.318,17.015,56.148,11.141C55.768,11.224,55.361,11.274,54.959,11.274L40.867,11.274C40.426,11.274,39.997,11.191,39.59,11.097ZM20.61,19.421C13.575,19.421,8.015,24.193,6.562,31.002L17.263,31.002L27.611,21.226C25.492,20.043,23.109,19.421,20.61,19.421ZM32.676,20.698C32.384,20.731,32.109,20.879,31.883,21.094L21.358,31.002L51.392,31.002L33.557,20.874C33.287,20.72,32.968,20.665,32.676,20.698ZM4.007,33.821C1.795,33.821,0,35.615,0,37.828L0,42.496C0,44.709,1.795,46.504,4.007,46.504L66.453,46.504C68.665,46.504,70.46,44.709,70.46,42.496L70.46,37.828C70.46,35.615,68.665,33.821,66.453,33.821ZM4.228,49.322L4.228,50.731C4.228,51.006,4.239,51.161,9.072,66.849C9.099,66.942,9.198,67.157,9.248,67.245C10.09,68.754,11.015,70.46,12.991,70.46L57.469,70.46C59.918,70.46,60.761,68.357,61.388,66.849C66.216,51.161,66.232,51.006,66.232,50.731L66.232,49.322L52.14,49.322L52.14,63.414L47.913,63.414L47.913,49.322L42.276,49.322L42.276,63.414L38.048,63.414L38.048,49.322L32.412,49.322L32.412,63.414L28.184,63.414L28.184,49.322L22.547,49.322L22.547,63.414L18.32,63.414L18.32,49.322ZM4.228,49.322"/>
</g>
  <g id="Heavy-M" transform="matrix(1.0,0.0,0.0,1.0,2602.74001953125,1055.5400390625)">  <path fill-opacity="1" stroke-opacity="1" stroke-dasharray="none" stroke-linejoin="miter" fill="#000000" stroke-width="1px" stroke-miterlimit="4" fill-rule="nonzero" stroke-linecap="butt" stroke="none" d="M40.867,0C39.309,0,38.048,1.266,38.048,2.818L38.048,5.637C38.048,7.189,39.309,8.455,40.867,8.455L54.959,8.455C56.517,8.455,57.777,7.189,57.777,5.637L57.777,2.818C57.777,1.266,56.517,0,54.959,0ZM39.59,11.097C38.28,13.547,37.151,16.707,36.331,19.244L57.117,31.002L62.005,31.002L62.005,30.738C62.005,27.468,59.318,17.015,56.148,11.141C55.768,11.224,55.361,11.274,54.959,11.274L40.867,11.274C40.426,11.274,39.997,11.191,39.59,11.097ZM20.61,19.421C13.575,19.421,8.015,24.193,6.562,31.002L17.263,31.002L27.611,21.226C25.492,20.043,23.109,19.421,20.61,19.421ZM32.676,20.698C32.384,20.731,32.109,20.879,31.883,21.094L21.358,31.002L51.392,31.002L33.557,20.874C33.287,20.72,32.968,20.665,32.676,20.698ZM4.007,33.821C1.795,33.821,0,35.615,0,37.828L0,42.496C0,44.709,1.795,46.504,4.007,46.504L66.453,46.504C68.665,46.504,70.46,44.709,70.46,42.496L70.46,37.828C70.46,35.615,68.665,33.821,66.453,33.821ZM4.228,49.322L4.228,50.731C4.228,51.006,4.239,51.161,9.072,66.849C9.099,66.942,9.198,67.157,9.248,67.245C10.09,68.754,11.015,70.46,12.991,70.46L57.469,70.46C59.918,70.46,60.761,68.357,61.388,66.849C66.216,51.161,66.232,51.006,66.232,50.731L66.232,49.322L52.14,49.322L52.14,63.414L47.913,63.414L47.913,49.322L42.276,49.322L42.276,63.414L38.048,63.414L38.048,49.322L32.412,49.322L32.412,63.414L28.184,63.414L28.184,49.322L22.547,49.322L22.547,63.414L18.32,63.414L18.32,49.322ZM4.228,49.322"/>
</g>
  <g id="Bold-M" transform="matrix(1.0,0.0,0.0,1.0,2306.0300195312498,1055.5400390625)">  <path stroke="none" stroke-opacity="1" stroke-miterlimit="4" stroke-width="1px" fill-opacity="1" stroke-dasharray="none" stroke-linejoin="miter" fill="#000000" fill-rule="nonzero" stroke-linecap="butt" d="M40.867,0C39.309,0,38.048,1.266,38.048,2.818L38.048,5.637C38.048,7.189,39.309,8.455,40.867,8.455L54.959,8.455C56.517,8.455,57.777,7.189,57.777,5.637L57.777,2.818C57.777,1.266,56.517,0,54.959,0ZM39.59,11.097C38.28,13.547,37.151,16.707,36.331,19.244L57.117,31.002L62.005,31.002L62.005,30.738C62.005,27.468,59.318,17.015,56.148,11.141C55.768,11.224,55.361,11.274,54.959,11.274L40.867,11.274C40.426,11.274,39.997,11.191,39.59,11.097ZM20.61,19.421C13.575,19.421,8.015,24.193,6.562,31.002L17.263,31.002L27.611,21.226C25.492,20.043,23.109,19.421,20.61,19.421ZM32.676,20.698C32.384,20.731,32.109,20.879,31.883,21.094L21.358,31.002L51.392,31.002L33.557,20.874C33.287,20.72,32.968,20.665,32.676,20.698ZM4.007,33.821C1.795,33.821,0,35.615,0,37.828L0,42.496C0,44.709,1.795,46.504,4.007,46.504L66.453,46.504C68.665,46.504,70.46,44.709,70.46,42.496L70.46,37.828C70.46,35.615,68.665,33.821,66.453,33.821ZM4.228,49.322L4.228,50.731C4.228,51.006,4.239,51.161,9.072,66.849C9.099,66.942,9.198,67.157,9.248,67.245C10.09,68.754,11.015,70.46,12.991,70.46L57.469,70.46C59.918,70.46,60.761,68.357,61.388,66.849C66.216,51.161,66.232,51.006,66.232,50.731L66.232,49.322L52.14,49.322L52.14,63.414L47.913,63.414L47.913,49.322L42.276,49.322L42.276,63.414L38.048,63.414L38.048,49.322L32.412,49.322L32.412,63.414L28.184,63.414L28.184,49.322L22.547,49.322L22.547,63.414L18.32,63.414L18.32,49.322ZM4.228,49.322"/>
</g>
  <g id="Semibold-M" transform="matrix(1.0,0.0,0.0,1.0,2009.32001953125,1055.5400390625)">  <path stroke-miterlimit="4" stroke-dasharray="none" fill="#000000" stroke-linejoin="miter" stroke-width="1px" stroke-linecap="butt" fill-opacity="1" stroke-opacity="1" fill-rule="nonzero" stroke="none" d="M40.867,0C39.309,0,38.048,1.266,38.048,2.818L38.048,5.637C38.048,7.189,39.309,8.455,40.867,8.455L54.959,8.455C56.517,8.455,57.777,7.189,57.777,5.637L57.777,2.818C57.777,1.266,56.517,0,54.959,0ZM39.59,11.097C38.28,13.547,37.151,16.707,36.331,19.244L57.117,31.002L62.005,31.002L62.005,30.738C62.005,27.468,59.318,17.015,56.148,11.141C55.768,11.224,55.361,11.274,54.959,11.274L40.867,11.274C40.426,11.274,39.997,11.191,39.59,11.097ZM20.61,19.421C13.575,19.421,8.015,24.193,6.562,31.002L17.263,31.002L27.611,21.226C25.492,20.043,23.109,19.421,20.61,19.421ZM32.676,20.698C32.384,20.731,32.109,20.879,31.883,21.094L21.358,31.002L51.392,31.002L33.557,20.874C33.287,20.72,32.968,20.665,32.676,20.698ZM4.007,33.821C1.795,33.821,0,35.615,0,37.828L0,42.496C0,44.709,1.795,46.504,4.007,46.504L66.453,46.504C68.665,46.504,70.46,44.709,70.46,42.496L70.46,37.828C70.46,35.615,68.665,33.821,66.453,33.821ZM4.228,49.322L4.228,50.731C4.228,51.006,4.239,51.161,9.072,66.849C9.099,66.942,9.198,67.157,9.248,67.245C10.09,68.754,11.015,70.46,12.991,70.46L57.469,70.46C59.918,70.46,60.761,68.357,61.388,66.849C66.216,51.161,66.232,51.006,66.232,50.731L66.232,49.322L52.14,49.322L52.14,63.414L47.913,63.414L47.913,49.322L42.276,49.322L42.276,63.414L38.048,63.414L38.048,49.322L32.412,49.322L32.412,63.414L28.184,63.414L28.184,49.322L22.547,49.322L22.547,63.414L18.32,63.414L18.32,49.322ZM4.228,49.322"/>
</g>
  <g id="Medium-M" transform="matrix(1.0,0.0,0.0,1.0,1712.61001953125,1055.5400390625)">  <path stroke-linecap="butt" fill="#000000" stroke-dasharray="none" fill-rule="nonzero" stroke-miterlimit="4" stroke-opacity="1" stroke-linejoin="miter" stroke="none" fill-opacity="1" stroke-width="1px" d="M40.867,0C39.309,0,38.048,1.266,38.048,2.818L38.048,5.637C38.048,7.189,39.309,8.455,40.867,8.455L54.959,8.455C56.517,8.455,57.777,7.189,57.777,5.637L57.777,2.818C57.777,1.266,56.517,0,54.959,0ZM39.59,11.097C38.28,13.547,37.151,16.707,36.331,19.244L57.117,31.002L62.005,31.002L62.005,30.738C62.005,27.468,59.318,17.015,56.148,11.141C55.768,11.224,55.361,11.274,54.959,11.274L40.867,11.274C40.426,11.274,39.997,11.191,39.59,11.097ZM20.61,19.421C13.575,19.421,8.015,24.193,6.562,31.002L17.263,31.002L27.611,21.226C25.492,20.043,23.109,19.421,20.61,19.421ZM32.676,20.698C32.384,20.731,32.109,20.879,31.883,21.094L21.358,31.002L51.392,31.002L33.557,20.874C33.287,20.72,32.968,20.665,32.676,20.698ZM4.007,33.821C1.795,33.821,0,35.615,0,37.828L0,42.496C0,44.709,1.795,46.504,4.007,46.504L66.453,46.504C68.665,46.504,70.46,44.709,70.46,42.496L70.46,37.828C70.46,35.615,68.665,33.821,66.453,33.821ZM4.228,49.322L4.228,50.731C4.228,51.006,4.239,51.161,9.072,66.849C9.099,66.942,9.198,67.157,9.248,67.245C10.09,68.754,11.015,70.46,12.991,70.46L57.469,70.46C59.918,70.46,60.761,68.357,61.388,66.849C66.216,51.161,66.232,51.006,66.232,50.731L66.232,49.322L52.14,49.322L52.14,63.414L47.913,63.414L47.913,49.322L42.276,49.322L42.276,63.414L38.048,63.414L38.048,49.322L32.412,49.322L32.412,63.414L28.184,63.414L28.184,49.322L22.547,49.322L22.547,63.414L18.32,63.414L18.32,49.322ZM4.228,49.322"/>
</g>
  <g id="Regular-M" transform="matrix(1.0,0.0,0.0,1.0,1415.9000195312499,1055.5400390625)">  <path stroke-miterlimit="4" fill-opacity="1" fill-rule="nonzero" stroke-width="1px" stroke-linecap="butt" stroke-dasharray="none" stroke-linejoin="miter" stroke="none" fill="#000000" stroke-opacity="1" d="M40.867,0C39.309,0,38.048,1.266,38.048,2.818L38.048,5.637C38.048,7.189,39.309,8.455,40.867,8.455L54.959,8.455C56.517,8.455,57.777,7.189,57.777,5.637L57.777,2.818C57.777,1.266,56.517,0,54.959,0ZM39.59,11.097C38.28,13.547,37.151,16.707,36.331,19.244L57.117,31.002L62.005,31.002L62.005,30.738C62.005,27.468,59.318,17.015,56.148,11.141C55.768,11.224,55.361,11.274,54.959,11.274L40.867,11.274C40.426,11.274,39.997,11.191,39.59,11.097ZM20.61,19.421C13.575,19.421,8.015,24.193,6.562,31.002L17.263,31.002L27.611,21.226C25.492,20.043,23.109,19.421,20.61,19.421ZM32.676,20.698C32.384,20.731,32.109,20.879,31.883,21.094L21.358,31.002L51.392,31.002L33.557,20.874C33.287,20.72,32.968,20.665,32.676,20.698ZM4.007,33.821C1.795,33.821,0,35.615,0,37.828L0,42.496C0,44.709,1.795,46.504,4.007,46.504L66.453,46.504C68.665,46.504,70.46,44.709,70.46,42.496L70.46,37.828C70.46,35.615,68.665,33.821,66.453,33.821ZM4.228,49.322L4.228,50.731C4.228,51.006,4.239,51.161,9.072,66.849C9.099,66.942,9.198,67.157,9.248,67.245C10.09,68.754,11.015,70.46,12.991,70.46L57.469,70.46C59.918,70.46,60.761,68.357,61.388,66.849C66.216,51.161,66.232,51.006,66.232,50.731L66.232,49.322L52.14,49.322L52.14,63.414L47.913,63.414L47.913,49.322L42.276,49.322L42.276,63.414L38.048,63.414L38.048,49.322L32.412,49.322L32.412,63.414L28.184,63.414L28.184,49.322L22.547,49.322L22.547,63.414L18.32,63.414L18.32,49.322ZM4.228,49.322"/>
</g>
  <g id="Light-M" transform="matrix(1.0,0.0,0.0,1.0,1119.19001953125,1055.5400390625)">  <path stroke-linejoin="miter" stroke-linecap="butt" stroke-dasharray="none" stroke-miterlimit="4" stroke-opacity="1" fill-rule="nonzero" stroke="none" fill-opacity="1" stroke-width="1px" fill="#000000" d="M40.867,0C39.309,0,38.048,1.266,38.048,2.818L38.048,5.637C38.048,7.189,39.309,8.455,40.867,8.455L54.959,8.455C56.517,8.455,57.777,7.189,57.777,5.637L57.777,2.818C57.777,1.266,56.517,0,54.959,0ZM39.59,11.097C38.28,13.547,37.151,16.707,36.331,19.244L57.117,31.002L62.005,31.002L62.005,30.738C62.005,27.468,59.318,17.015,56.148,11.141C55.768,11.224,55.361,11.274,54.959,11.274L40.867,11.274C40.426,11.274,39.997,11.191,39.59,11.097ZM20.61,19.421C13.575,19.421,8.015,24.193,6.562,31.002L17.263,31.002L27.611,21.226C25.492,20.043,23.109,19.421,20.61,19.421ZM32.676,20.698C32.384,20.731,32.109,20.879,31.883,21.094L21.358,31.002L51.392,31.002L33.557,20.874C33.287,20.72,32.968,20.665,32.676,20.698ZM4.007,33.821C1.795,33.821,0,35.615,0,37.828L0,42.496C0,44.709,1.795,46.504,4.007,46.504L66.453,46.504C68.665,46.504,70.46,44.709,70.46,42.496L70.46,37.828C70.46,35.615,68.665,33.821,66.453,33.821ZM4.228,49.322L4.228,50.731C4.228,51.006,4.239,51.161,9.072,66.849C9.099,66.942,9.198,67.157,9.248,67.245C10.09,68.754,11.015,70.46,12.991,70.46L57.469,70.46C59.918,70.46,60.761,68.357,61.388,66.849C66.216,51.161,66.232,51.006,66.232,50.731L66.232,49.322L52.14,49.322L52.14,63.414L47.913,63.414L47.913,49.322L42.276,49.322L42.276,63.414L38.048,63.414L38.048,49.322L32.412,49.322L32.412,63.414L28.184,63.414L28.184,49.322L22.547,49.322L22.547,63.414L18.32,63.414L18.32,49.322ZM4.228,49.322"/>
</g>
  <g id="Thin-M" transform="matrix(1.0,0.0,0.0,1.0,822.48001953125,1055.5400390625)">  <path stroke-miterlimit="4" stroke-linecap="butt" stroke-opacity="1" stroke-width="1px" stroke="none" fill-opacity="1" stroke-dasharray="none" fill="#000000" fill-rule="nonzero" stroke-linejoin="miter" d="M40.867,0C39.309,0,38.048,1.266,38.048,2.818L38.048,5.637C38.048,7.189,39.309,8.455,40.867,8.455L54.959,8.455C56.517,8.455,57.777,7.189,57.777,5.637L57.777,2.818C57.777,1.266,56.517,0,54.959,0ZM39.59,11.097C38.28,13.547,37.151,16.707,36.331,19.244L57.117,31.002L62.005,31.002L62.005,30.738C62.005,27.468,59.318,17.015,56.148,11.141C55.768,11.224,55.361,11.274,54.959,11.274L40.867,11.274C40.426,11.274,39.997,11.191,39.59,11.097ZM20.61,19.421C13.575,19.421,8.015,24.193,6.562,31.002L17.263,31.002L27.611,21.226C25.492,20.043,23.109,19.421,20.61,19.421ZM32.676,20.698C32.384,20.731,32.109,20.879,31.883,21.094L21.358,31.002L51.392,31.002L33.557,20.874C33.287,20.72,32.968,20.665,32.676,20.698ZM4.007,33.821C1.795,33.821,0,35.615,0,37.828L0,42.496C0,44.709,1.795,46.504,4.007,46.504L66.453,46.504C68.665,46.504,70.46,44.709,70.46,42.496L70.46,37.828C70.46,35.615,68.665,33.821,66.453,33.821ZM4.228,49.322L4.228,50.731C4.228,51.006,4.239,51.161,9.072,66.849C9.099,66.942,9.198,67.157,9.248,67.245C10.09,68.754,11.015,70.46,12.991,70.46L57.469,70.46C59.918,70.46,60.761,68.357,61.388,66.849C66.216,51.161,66.232,51.006,66.232,50.731L66.232,49.322L52.14,49.322L52.14,63.414L47.913,63.414L47.913,49.322L42.276,49.322L42.276,63.414L38.048,63.414L38.048,49.322L32.412,49.322L32.412,63.414L28.184,63.414L28.184,49.322L22.547,49.322L22.547,63.414L18.32,63.414L18.32,49.322ZM4.228,49.322"/>
</g>
  <g id="Ultralight-M" transform="matrix(1.0,0.0,0.0,1.0,525.77001953125,1055.5400390625)">  <path stroke-opacity="1" stroke-linecap="butt" stroke-dasharray="none" fill="#000000" stroke="none" fill-rule="nonzero" fill-opacity="1" stroke-miterlimit="4" stroke-linejoin="miter" stroke-width="1px" d="M40.867,0C39.309,0,38.048,1.266,38.048,2.818L38.048,5.637C38.048,7.189,39.309,8.455,40.867,8.455L54.959,8.455C56.517,8.455,57.777,7.189,57.777,5.637L57.777,2.818C57.777,1.266,56.517,0,54.959,0ZM39.59,11.097C38.28,13.547,37.151,16.707,36.331,19.244L57.117,31.002L62.005,31.002L62.005,30.738C62.005,27.468,59.318,17.015,56.148,11.141C55.768,11.224,55.361,11.274,54.959,11.274L40.867,11.274C40.426,11.274,39.997,11.191,39.59,11.097ZM20.61,19.421C13.575,19.421,8.015,24.193,6.562,31.002L17.263,31.002L27.611,21.226C25.492,20.043,23.109,19.421,20.61,19.421ZM32.676,20.698C32.384,20.731,32.109,20.879,31.883,21.094L21.358,31.002L51.392,31.002L33.557,20.874C33.287,20.72,32.968,20.665,32.676,20.698ZM4.007,33.821C1.795,33.821,0,35.615,0,37.828L0,42.496C0,44.709,1.795,46.504,4.007,46.504L66.453,46.504C68.665,46.504,70.46,44.709,70.46,42.496L70.46,37.828C70.46,35.615,68.665,33.821,66.453,33.821ZM4.228,49.322L4.228,50.731C4.228,51.006,4.239,51.161,9.072,66.849C9.099,66.942,9.198,67.157,9.248,67.245C10.09,68.754,11.015,70.46,12.991,70.46L57.469,70.46C59.918,70.46,60.761,68.357,61.388,66.849C66.216,51.161,66.232,51.006,66.232,50.731L66.232,49.322L52.14,49.322L52.14,63.414L47.913,63.414L47.913,49.322L42.276,49.322L42.276,63.414L38.048,63.414L38.048,49.322L32.412,49.322L32.412,63.414L28.184,63.414L28.184,49.322L22.547,49.322L22.547,63.414L18.32,63.414L18.32,49.322ZM4.228,49.322"/>
</g>
  <g id="Black-S" transform="matrix(1.0,0.0,0.0,1.0,2907.0949252929686,633.1849448242187)">  <path stroke-opacity="1" stroke-miterlimit="4" fill-rule="nonzero" fill="#000000" stroke="none" stroke-width="1px" fill-opacity="1" stroke-dasharray="none" stroke-linecap="butt" stroke-linejoin="miter" d="M31.999,0C30.779,0,29.792,0.991,29.792,2.207L29.792,4.414C29.792,5.629,30.779,6.62,31.999,6.62L43.033,6.62C44.252,6.62,45.24,5.629,45.24,4.414L45.24,2.207C45.24,0.991,44.252,0,43.033,0ZM30.999,8.689C29.973,10.607,29.089,13.081,28.447,15.068L44.722,24.275L48.55,24.275L48.55,24.068C48.55,21.508,46.446,13.323,43.964,8.724C43.666,8.788,43.347,8.827,43.033,8.827L31.999,8.827C31.654,8.827,31.318,8.763,30.999,8.689ZM16.137,15.206C10.629,15.206,6.276,18.943,5.138,24.275L13.517,24.275L21.62,16.62C19.96,15.693,18.094,15.206,16.137,15.206ZM25.585,16.206C25.357,16.232,25.141,16.348,24.964,16.517L16.723,24.275L40.24,24.275L26.275,16.344C26.064,16.223,25.814,16.18,25.585,16.206ZM3.138,26.482C1.405,26.482,0,27.887,0,29.619L0,33.274C0,35.007,1.405,36.412,3.138,36.412L52.032,36.412C53.765,36.412,55.17,35.007,55.17,33.274L55.17,29.619C55.17,27.887,53.765,26.482,52.032,26.482ZM3.31,38.619L3.31,39.723C3.31,39.938,3.319,40.059,7.103,52.343C7.125,52.416,7.202,52.584,7.241,52.653C7.901,53.834,8.625,55.17,10.172,55.17L44.998,55.17C46.916,55.17,47.576,53.524,48.067,52.343C51.847,40.059,51.86,39.938,51.86,39.723L51.86,38.619L40.826,38.619L40.826,49.653L37.516,49.653L37.516,38.619L33.102,38.619L33.102,49.653L29.792,49.653L29.792,38.619L25.378,38.619L25.378,49.653L22.068,49.653L22.068,38.619L17.654,38.619L17.654,49.653L14.344,49.653L14.344,38.619ZM3.31,38.619"/>
</g>
  <g id="Heavy-S" transform="matrix(1.0,0.0,0.0,1.0,2610.3849252929685,633.1849448242187)">  <path fill-opacity="1" stroke-opacity="1" stroke-dasharray="none" stroke-linejoin="miter" fill="#000000" stroke-width="1px" stroke-miterlimit="4" fill-rule="nonzero" stroke-linecap="butt" stroke="none" d="M31.999,0C30.779,0,29.792,0.991,29.792,2.207L29.792,4.414C29.792,5.629,30.779,6.62,31.999,6.62L43.033,6.62C44.252,6.62,45.24,5.629,45.24,4.414L45.24,2.207C45.24,0.991,44.252,0,43.033,0ZM30.999,8.689C29.973,10.607,29.089,13.081,28.447,15.068L44.722,24.275L48.55,24.275L48.55,24.068C48.55,21.508,46.446,13.323,43.964,8.724C43.666,8.788,43.347,8.827,43.033,8.827L31.999,8.827C31.654,8.827,31.318,8.763,30.999,8.689ZM16.137,15.206C10.629,15.206,6.276,18.943,5.138,24.275L13.517,24.275L21.62,16.62C19.96,15.693,18.094,15.206,16.137,15.206ZM25.585,16.206C25.357,16.232,25.141,16.348,24.964,16.517L16.723,24.275L40.24,24.275L26.275,16.344C26.064,16.223,25.814,16.18,25.585,16.206ZM3.138,26.482C1.405,26.482,0,27.887,0,29.619L0,33.274C0,35.007,1.405,36.412,3.138,36.412L52.032,36.412C53.765,36.412,55.17,35.007,55.17,33.274L55.17,29.619C55.17,27.887,53.765,26.482,52.032,26.482ZM3.31,38.619L3.31,39.723C3.31,39.938,3.319,40.059,7.103,52.343C7.125,52.416,7.202,52.584,7.241,52.653C7.901,53.834,8.625,55.17,10.172,55.17L44.998,55.17C46.916,55.17,47.576,53.524,48.067,52.343C51.847,40.059,51.86,39.938,51.86,39.723L51.86,38.619L40.826,38.619L40.826,49.653L37.516,49.653L37.516,38.619L33.102,38.619L33.102,49.653L29.792,49.653L29.792,38.619L25.378,38.619L25.378,49.653L22.068,49.653L22.068,38.619L17.654,38.619L17.654,49.653L14.344,49.653L14.344,38.619ZM3.31,38.619"/>
</g>
  <g id="Bold-S" transform="matrix(1.0,0.0,0.0,1.0,2313.6749252929685,633.1849448242187)">  <path stroke="none" stroke-opacity="1" stroke-miterlimit="4" stroke-width="1px" fill-opacity="1" stroke-dasharray="none" stroke-linejoin="miter" fill="#000000" fill-rule="nonzero" stroke-linecap="butt" d="M31.999,0C30.779,0,29.792,0.991,29.792,2.207L29.792,4.414C29.792,5.629,30.779,6.62,31.999,6.62L43.033,6.62C44.252,6.62,45.24,5.629,45.24,4.414L45.24,2.207C45.24,0.991,44.252,0,43.033,0ZM30.999,8.689C29.973,10.607,29.089,13.081,28.447,15.068L44.722,24.275L48.55,24.275L48.55,24.068C48.55,21.508,46.446,13.323,43.964,8.724C43.666,8.788,43.347,8.827,43.033,8.827L31.999,8.827C31.654,8.827,31.318,8.763,30.999,8.689ZM16.137,15.206C10.629,15.206,6.276,18.943,5.138,24.275L13.517,24.275L21.62,16.62C19.96,15.693,18.094,15.206,16.137,15.206ZM25.585,16.206C25.357,16.232,25.141,16.348,24.964,16.517L16.723,24.275L40.24,24.275L26.275,16.344C26.064,16.223,25.814,16.18,25.585,16.206ZM3.138,26.482C1.405,26.482,0,27.887,0,29.619L0,33.274C0,35.007,1.405,36.412,3.138,36.412L52.032,36.412C53.765,36.412,55.17,35.007,55.17,33.274L55.17,29.619C55.17,27.887,53.765,26.482,52.032,26.482ZM3.31,38.619L3.31,39.723C3.31,39.938,3.319,40.059,7.103,52.343C7.125,52.416,7.202,52.584,7.241,52.653C7.901,53.834,8.625,55.17,10.172,55.17L44.998,55.17C46.916,55.17,47.576,53.524,48.067,52.343C51.847,40.059,51.86,39.938,51.86,39.723L51.86,38.619L40.826,38.619L40.826,49.653L37.516,49.653L37.516,38.619L33.102,38.619L33.102,49.653L29.792,49.653L29.792,38.619L25.378,38.619L25.378,49.653L22.068,49.653L22.068,38.619L17.654,38.619L17.654,49.653L14.344,49.653L14.344,38.619ZM3.31,38.619"/>
</g>
  <g id="Semibold-S" transform="matrix(1.0,0.0,0.0,1.0,2016.9649252929687,633.1849448242187)">  <path stroke-miterlimit="4" stroke-dasharray="none" fill="#000000" stroke-linejoin="miter" stroke-width="1px" stroke-linecap="butt" fill-opacity="1" stroke-opacity="1" fill-rule="nonzero" stroke="none" d="M31.999,0C30.779,0,29.792,0.991,29.792,2.207L29.792,4.414C29.792,5.629,30.779,6.62,31.999,6.62L43.033,6.62C44.252,6.62,45.24,5.629,45.24,4.414L45.24,2.207C45.24,0.991,44.252,0,43.033,0ZM30.999,8.689C29.973,10.607,29.089,13.081,28.447,15.068L44.722,24.275L48.55,24.275L48.55,24.068C48.55,21.508,46.446,13.323,43.964,8.724C43.666,8.788,43.347,8.827,43.033,8.827L31.999,8.827C31.654,8.827,31.318,8.763,30.999,8.689ZM16.137,15.206C10.629,15.206,6.276,18.943,5.138,24.275L13.517,24.275L21.62,16.62C19.96,15.693,18.094,15.206,16.137,15.206ZM25.585,16.206C25.357,16.232,25.141,16.348,24.964,16.517L16.723,24.275L40.24,24.275L26.275,16.344C26.064,16.223,25.814,16.18,25.585,16.206ZM3.138,26.482C1.405,26.482,0,27.887,0,29.619L0,33.274C0,35.007,1.405,36.412,3.138,36.412L52.032,36.412C53.765,36.412,55.17,35.007,55.17,33.274L55.17,29.619C55.17,27.887,53.765,26.482,52.032,26.482ZM3.31,38.619L3.31,39.723C3.31,39.938,3.319,40.059,7.103,52.343C7.125,52.416,7.202,52.584,7.241,52.653C7.901,53.834,8.625,55.17,10.172,55.17L44.998,55.17C46.916,55.17,47.576,53.524,48.067,52.343C51.847,40.059,51.86,39.938,51.86,39.723L51.86,38.619L40.826,38.619L40.826,49.653L37.516,49.653L37.516,38.619L33.102,38.619L33.102,49.653L29.792,49.653L29.792,38.619L25.378,38.619L25.378,49.653L22.068,49.653L22.068,38.619L17.654,38.619L17.654,49.653L14.344,49.653L14.344,38.619ZM3.31,38.619"/>
</g>
  <g id="Medium-S" transform="matrix(1.0,0.0,0.0,1.0,1720.2549252929687,633.1849448242187)">  <path stroke-linecap="butt" fill="#000000" stroke-dasharray="none" fill-rule="nonzero" stroke-miterlimit="4" stroke-opacity="1" stroke-linejoin="miter" stroke="none" fill-opacity="1" stroke-width="1px" d="M31.999,0C30.779,0,29.792,0.991,29.792,2.207L29.792,4.414C29.792,5.629,30.779,6.62,31.999,6.62L43.033,6.62C44.252,6.62,45.24,5.629,45.24,4.414L45.24,2.207C45.24,0.991,44.252,0,43.033,0ZM30.999,8.689C29.973,10.607,29.089,13.081,28.447,15.068L44.722,24.275L48.55,24.275L48.55,24.068C48.55,21.508,46.446,13.323,43.964,8.724C43.666,8.788,43.347,8.827,43.033,8.827L31.999,8.827C31.654,8.827,31.318,8.763,30.999,8.689ZM16.137,15.206C10.629,15.206,6.276,18.943,5.138,24.275L13.517,24.275L21.62,16.62C19.96,15.693,18.094,15.206,16.137,15.206ZM25.585,16.206C25.357,16.232,25.141,16.348,24.964,16.517L16.723,24.275L40.24,24.275L26.275,16.344C26.064,16.223,25.814,16.18,25.585,16.206ZM3.138,26.482C1.405,26.482,0,27.887,0,29.619L0,33.274C0,35.007,1.405,36.412,3.138,36.412L52.032,36.412C53.765,36.412,55.17,35.007,55.17,33.274L55.17,29.619C55.17,27.887,53.765,26.482,52.032,26.482ZM3.31,38.619L3.31,39.723C3.31,39.938,3.319,40.059,7.103,52.343C7.125,52.416,7.202,52.584,7.241,52.653C7.901,53.834,8.625,55.17,10.172,55.17L44.998,55.17C46.916,55.17,47.576,53.524,48.067,52.343C51.847,40.059,51.86,39.938,51.86,39.723L51.86,38.619L40.826,38.619L40.826,49.653L37.516,49.653L37.516,38.619L33.102,38.619L33.102,49.653L29.792,49.653L29.792,38.619L25.378,38.619L25.378,49.653L22.068,49.653L22.068,38.619L17.654,38.619L17.654,49.653L14.344,49.653L14.344,38.619ZM3.31,38.619"/>
</g>
  <g id="Regular-S" transform="matrix(1.0,0.0,0.0,1.0,1423.5449252929686,633.1849448242187)">  <path stroke-miterlimit="4" fill-opacity="1" fill-rule="nonzero" stroke-width="1px" stroke-linecap="butt" stroke-dasharray="none" stroke-linejoin="miter" stroke="none" fill="#000000" stroke-opacity="1" d="M31.999,0C30.779,0,29.792,0.991,29.792,2.207L29.792,4.414C29.792,5.629,30.779,6.62,31.999,6.62L43.033,6.62C44.252,6.62,45.24,5.629,45.24,4.414L45.24,2.207C45.24,0.991,44.252,0,43.033,0ZM30.999,8.689C29.973,10.607,29.089,13.081,28.447,15.068L44.722,24.275L48.55,24.275L48.55,24.068C48.55,21.508,46.446,13.323,43.964,8.724C43.666,8.788,43.347,8.827,43.033,8.827L31.999,8.827C31.654,8.827,31.318,8.763,30.999,8.689ZM16.137,15.206C10.629,15.206,6.276,18.943,5.138,24.275L13.517,24.275L21.62,16.62C19.96,15.693,18.094,15.206,16.137,15.206ZM25.585,16.206C25.357,16.232,25.141,16.348,24.964,16.517L16.723,24.275L40.24,24.275L26.275,16.344C26.064,16.223,25.814,16.18,25.585,16.206ZM3.138,26.482C1.405,26.482,0,27.887,0,29.619L0,33.274C0,35.007,1.405,36.412,3.138,36.412L52.032,36.412C53.765,36.412,55.17,35.007,55.17,33.274L55.17,29.619C55.17,27.887,53.765,26.482,52.032,26.482ZM3.31,38.619L3.31,39.723C3.31,39.938,3.319,40.059,7.103,52.343C7.125,52.416,7.202,52.584,7.241,52.653C7.901,53.834,8.625,55.17,10.172,55.17L44.998,55.17C46.916,55.17,47.576,53.524,48.067,52.343C51.847,40.059,51.86,39.938,51.86,39.723L51.86,38.619L40.826,38.619L40.826,49.653L37.516,49.653L37.516,38.619L33.102,38.619L33.102,49.653L29.792,49.653L29.792,38.619L25.378,38.619L25.378,49.653L22.068,49.653L22.068,38.619L17.654,38.619L17.654,49.653L14.344,49.653L14.344,38.619ZM3.31,38.619"/>
</g>
  <g id="Light-S" transform="matrix(1.0,0.0,0.0,1.0,1126.8349252929688,633.1849448242187)">  <path stroke-linejoin="miter" stroke-linecap="butt" stroke-dasharray="none" stroke-miterlimit="4" stroke-opacity="1" fill-rule="nonzero" stroke="none" fill-opacity="1" stroke-width="1px" fill="#000000" d="M31.999,0C30.779,0,29.792,0.991,29.792,2.207L29.792,4.414C29.792,5.629,30.779,6.62,31.999,6.62L43.033,6.62C44.252,6.62,45.24,5.629,45.24,4.414L45.24,2.207C45.24,0.991,44.252,0,43.033,0ZM30.999,8.689C29.973,10.607,29.089,13.081,28.447,15.068L44.722,24.275L48.55,24.275L48.55,24.068C48.55,21.508,46.446,13.323,43.964,8.724C43.666,8.788,43.347,8.827,43.033,8.827L31.999,8.827C31.654,8.827,31.318,8.763,30.999,8.689ZM16.137,15.206C10.629,15.206,6.276,18.943,5.138,24.275L13.517,24.275L21.62,16.62C19.96,15.693,18.094,15.206,16.137,15.206ZM25.585,16.206C25.357,16.232,25.141,16.348,24.964,16.517L16.723,24.275L40.24,24.275L26.275,16.344C26.064,16.223,25.814,16.18,25.585,16.206ZM3.138,26.482C1.405,26.482,0,27.887,0,29.619L0,33.274C0,35.007,1.405,36.412,3.138,36.412L52.032,36.412C53.765,36.412,55.17,35.007,55.17,33.274L55.17,29.619C55.17,27.887,53.765,26.482,52.032,26.482ZM3.31,38.619L3.31,39.723C3.31,39.938,3.319,40.059,7.103,52.343C7.125,52.416,7.202,52.584,7.241,52.653C7.901,53.834,8.625,55.17,10.172,55.17L44.998,55.17C46.916,55.17,47.576,53.524,48.067,52.343C51.847,40.059,51.86,39.938,51.86,39.723L51.86,38.619L40.826,38.619L40.826,49.653L37.516,49.653L37.516,38.619L33.102,38.619L33.102,49.653L29.792,49.653L29.792,38.619L25.378,38.619L25.378,49.653L22.068,49.653L22.068,38.619L17.654,38.619L17.654,49.653L14.344,49.653L14.344,38.619ZM3.31,38.619"/>
</g>
  <g id="Thin-S" transform="matrix(1.0,0.0,0.0,1.0,830.1249252929688,633.1849448242187)">  <path stroke-miterlimit="4" stroke-linecap="butt" stroke-opacity="1" stroke-width="1px" stroke="none" fill-opacity="1" stroke-dasharray="none" fill="#000000" fill-rule="nonzero" stroke-linejoin="miter" d="M31.999,0C30.779,0,29.792,0.991,29.792,2.207L29.792,4.414C29.792,5.629,30.779,6.62,31.999,6.62L43.033,6.62C44.252,6.62,45.24,5.629,45.24,4.414L45.24,2.207C45.24,0.991,44.252,0,43.033,0ZM30.999,8.689C29.973,10.607,29.089,13.081,28.447,15.068L44.722,24.275L48.55,24.275L48.55,24.068C48.55,21.508,46.446,13.323,43.964,8.724C43.666,8.788,43.347,8.827,43.033,8.827L31.999,8.827C31.654,8.827,31.318,8.763,30.999,8.689ZM16.137,15.206C10.629,15.206,6.276,18.943,5.138,24.275L13.517,24.275L21.62,16.62C19.96,15.693,18.094,15.206,16.137,15.206ZM25.585,16.206C25.357,16.232,25.141,16.348,24.964,16.517L16.723,24.275L40.24,24.275L26.275,16.344C26.064,16.223,25.814,16.18,25.585,16.206ZM3.138,26.482C1.405,26.482,0,27.887,0,29.619L0,33.274C0,35.007,1.405,36.412,3.138,36.412L52.032,36.412C53.765,36.412,55.17,35.007,55.17,33.274L55.17,29.619C55.17,27.887,53.765,26.482,52.032,26.482ZM3.31,38.619L3.31,39.723C3.31,39.938,3.319,40.059,7.103,52.343C7.125,52.416,7.202,52.584,7.241,52.653C7.901,53.834,8.625,55.17,10.172,55.17L44.998,55.17C46.916,55.17,47.576,53.524,48.067,52.343C51.847,40.059,51.86,39.938,51.86,39.723L51.86,38.619L40.826,38.619L40.826,49.653L37.516,49.653L37.516,38.619L33.102,38.619L33.102,49.653L29.792,49.653L29.792,38.619L25.378,38.619L25.378,49.653L22.068,49.653L22.068,38.619L17.654,38.619L17.654,49.653L14.344,49.653L14.344,38.619ZM3.31,38.619"/>
</g>
  <g id="Ultralight-S" transform="matrix(1.0,0.0,0.0,1.0,533.4149252929687,633.1849448242187)">  <path stroke-opacity="1" stroke-linecap="butt" stroke-dasharray="none" fill="#000000" stroke="none" fill-rule="nonzero" fill-opacity="1" stroke-miterlimit="4" stroke-linejoin="miter" stroke-width="1px" d="M31.999,0C30.779,0,29.792,0.991,29.792,2.207L29.792,4.414C29.792,5.629,30.779,6.62,31.999,6.62L43.033,6.62C44.252,6.62,45.24,5.629,45.24,4.414L45.24,2.207C45.24,0.991,44.252,0,43.033,0ZM30.999,8.689C29.973,10.607,29.089,13.081,28.447,15.068L44.722,24.275L48.55,24.275L48.55,24.068C48.55,21.508,46.446,13.323,43.964,8.724C43.666,8.788,43.347,8.827,43.033,8.827L31.999,8.827C31.654,8.827,31.318,8.763,30.999,8.689ZM16.137,15.206C10.629,15.206,6.276,18.943,5.138,24.275L13.517,24.275L21.62,16.62C19.96,15.693,18.094,15.206,16.137,15.206ZM25.585,16.206C25.357,16.232,25.141,16.348,24.964,16.517L16.723,24.275L40.24,24.275L26.275,16.344C26.064,16.223,25.814,16.18,25.585,16.206ZM3.138,26.482C1.405,26.482,0,27.887,0,29.619L0,33.274C0,35.007,1.405,36.412,3.138,36.412L52.032,36.412C53.765,36.412,55.17,35.007,55.17,33.274L55.17,29.619C55.17,27.887,53.765,26.482,52.032,26.482ZM3.31,38.619L3.31,39.723C3.31,39.938,3.319,40.059,7.103,52.343C7.125,52.416,7.202,52.584,7.241,52.653C7.901,53.834,8.625,55.17,10.172,55.17L44.998,55.17C46.916,55.17,47.576,53.524,48.067,52.343C51.847,40.059,51.86,39.938,51.86,39.723L51.86,38.619L40.826,38.619L40.826,49.653L37.516,49.653L37.516,38.619L33.102,38.619L33.102,49.653L29.792,49.653L29.792,38.619L25.378,38.619L25.378,49.653L22.068,49.653L22.068,38.619L17.654,38.619L17.654,49.653L14.344,49.653L14.344,38.619ZM3.31,38.619"/>
</g>
 </g>
</svg>
