<?xml version="1.0" encoding="UTF-8"?>
<!-- Generator: CustomSymbols v2.6.2.41 by @serious_bret https://bretlester.com/app_content/CustomSymbols/ -->
<!-- Guides: Left/Right 0.0/0.0 Cap/Base 0.0/0.0 -->
<!-- Settings: RefScale 1.0 Min/Max Stroke Scales 0.5/2.21 -->
<!DOCTYPE svg
PUBLIC "-//W3C//DTD SVG 1.1//EN"
       "http://www.w3.org/Graphics/SVG/1.1/DTD/svg11.dtd">
<svg version="1.1" xmlns="http://www.w3.org/2000/svg" xmlns:xlink="http://www.w3.org/1999/xlink" width="3300" height="2200">
<![CDATA[<svg fill="#000000" xmlns="http://www.w3.org/2000/svg"  viewBox="0 0 50 50" width="50px" height="50px"><path d="M 17 5 C 16.179688 5 15.601563 5.5 15.1875 5.96875 C 14.773438 6.4375 14.4375 6.96875 14.125 7.46875 C 13.8125 7.96875 13.527344 8.4375 13.28125 8.71875 C 13.097656 8.929688 12.976563 8.988281 12.96875 9 L 3 9 C 1.355469 9 0 10.355469 0 12 L 0 39 C 0 40.644531 1.355469 42 3 42 L 47 42 C 48.644531 42 50 40.644531 50 39 L 50 12 C 50 10.355469 48.644531 9 47 9 L 37.03125 9 C 37.035156 9.003906 37.023438 9 37 9 C 36.96875 8.976563 36.878906 8.902344 36.71875 8.71875 C 36.472656 8.4375 36.1875 7.96875 35.875 7.46875 C 35.5625 6.96875 35.226563 6.4375 34.8125 5.96875 C 34.398438 5.5 33.820313 5 33 5 Z M 17 7 L 33 7 C 32.9375 7 33.066406 7 33.3125 7.28125 C 33.558594 7.5625 33.84375 8.03125 34.15625 8.53125 C 34.46875 9.03125 34.8125 9.5625 35.21875 10.03125 C 35.625 10.5 36.179688 11 37 11 L 47 11 C 47.5625 11 48 11.4375 48 12 L 48 39 C 48 39.5625 47.5625 40 47 40 L 3 40 C 2.4375 40 2 39.5625 2 39 L 2 12 C 2 11.4375 2.4375 11 3 11 L 13 11 C 13.820313 11 14.375 10.5 14.78125 10.03125 C 15.1875 9.5625 15.53125 9.03125 15.84375 8.53125 C 16.15625 8.03125 16.441406 7.5625 16.6875 7.28125 C 16.933594 7 17.0625 7 17 7 Z M 25 11 C 17.832031 11 12 16.832031 12 24 C 12 31.167969 17.832031 37 25 37 C 32.167969 37 38 31.167969 38 24 C 38 16.832031 32.167969 11 25 11 Z M 25 13 C 31.085938 13 36 17.914063 36 24 C 36 30.085938 31.085938 35 25 35 C 18.914063 35 14 30.085938 14 24 C 14 17.914063 18.914063 13 25 13 Z M 8 14 C 6.894531 14 6 14.894531 6 16 C 6 17.105469 6.894531 18 8 18 L 9 18 C 10.105469 18 11 17.105469 11 16 C 11 14.894531 10.105469 14 9 14 Z M 25 15 C 20.042969 15 16 19.042969 16 24 C 16 28.957031 20.042969 33 25 33 C 29.957031 33 34 28.957031 34 24 C 34 19.042969 29.957031 15 25 15 Z M 25 17 C 28.878906 17 32 20.121094 32 24 C 32 27.878906 28.878906 31 25 31 C 21.121094 31 18 27.878906 18 24 C 18 20.121094 21.121094 17 25 17 Z"/></svg>]]>
 <g id="Notes">
  <rect height="2200" id="artboard" style="fill:white;opacity:1" width="3300" x="0" y="0"/>
  <line id="" style="fill:none;stroke:black;opacity:1;stroke-width:0.5;" x1="263" x2="3036" y1="292" y2="292"/>
  <text id="reftext1" style="stroke:none;fill:black;font-family:-apple-system,&quot;SF Pro Display&quot;,&quot;SF Pro Text&quot;,Helvetica,sans-serif;font-weight:bold;" transform="matrix(1 0 0 1 263 322)">Weight/Scale Variations</text>
  <text id="reftext2" style="stroke:none;fill:black;font-family:-apple-system,&quot;SF Pro Display&quot;,&quot;SF Pro Text&quot;,Helvetica,sans-serif;text-anchor:middle;" transform="matrix(1 0 0 1 559.711 322)">Ultralight</text>
  <text style="stroke:none;fill:black;font-family:-apple-system,&quot;SF Pro Display&quot;,&quot;SF Pro Text&quot;,Helvetica,sans-serif;text-anchor:middle;" transform="matrix(1 0 0 1 856.422 322)">Thin</text>
  <text style="stroke:none;fill:black;font-family:-apple-system,&quot;SF Pro Display&quot;,&quot;SF Pro Text&quot;,Helvetica,sans-serif;text-anchor:middle;" transform="matrix(1 0 0 1 1153.13 322)">Light</text>
  <text style="stroke:none;fill:black;font-family:-apple-system,&quot;SF Pro Display&quot;,&quot;SF Pro Text&quot;,Helvetica,sans-serif;text-anchor:middle;" transform="matrix(1 0 0 1 1449.84 322)">Regular</text>
  <text style="stroke:none;fill:black;font-family:-apple-system,&quot;SF Pro Display&quot;,&quot;SF Pro Text&quot;,Helvetica,sans-serif;text-anchor:middle;" transform="matrix(1 0 0 1 1746.56 322)">Medium</text>
  <text style="stroke:none;fill:black;font-family:-apple-system,&quot;SF Pro Display&quot;,&quot;SF Pro Text&quot;,Helvetica,sans-serif;text-anchor:middle;" transform="matrix(1 0 0 1 2043.27 322)">Semibold</text>
  <text style="stroke:none;fill:black;font-family:-apple-system,&quot;SF Pro Display&quot;,&quot;SF Pro Text&quot;,Helvetica,sans-serif;text-anchor:middle;" transform="matrix(1 0 0 1 2339.98 322)">Bold</text>
  <text style="stroke:none;fill:black;font-family:-apple-system,&quot;SF Pro Display&quot;,&quot;SF Pro Text&quot;,Helvetica,sans-serif;text-anchor:middle;" transform="matrix(1 0 0 1 2636.69 322)">Heavy</text>
  <text style="stroke:none;fill:black;font-family:-apple-system,&quot;SF Pro Display&quot;,&quot;SF Pro Text&quot;,Helvetica,sans-serif;text-anchor:middle;" transform="matrix(1 0 0 1 2933.4 322)">Black</text>
  <line id="" style="fill:none;stroke:black;opacity:1;stroke-width:0.5;" x1="263" x2="3036" y1="1903" y2="1903"/>
  <g id="" transform="matrix(1 0 0 1 263 1933)">
   <path d="M9.24805 0.830078C13.5547 0.830078 17.1387-2.74414 17.1387-7.05078C17.1387-11.3574 13.5449-14.9316 9.23828-14.9316C4.94141-14.9316 1.36719-11.3574 1.36719-7.05078C1.36719-2.74414 4.95117 0.830078 9.24805 0.830078ZM9.24805-0.654297C5.70312-0.654297 2.87109-3.49609 2.87109-7.05078C2.87109-10.6055 5.69336-13.4473 9.23828-13.4473C12.793-13.4473 15.6348-10.6055 15.6445-7.05078C15.6543-3.49609 12.8027-0.654297 9.24805-0.654297ZM6.39648-6.31836L8.50586-6.31836L8.50586-4.19922C8.50586-3.75977 8.79883-3.45703 9.22852-3.45703C9.67773-3.45703 9.9707-3.75977 9.9707-4.19922L9.9707-6.31836L12.0996-6.31836C12.5391-6.31836 12.8418-6.61133 12.8418-7.04102C12.8418-7.48047 12.5391-7.7832 12.0996-7.7832L9.9707-7.7832L9.9707-9.89258C9.9707-10.3418 9.67773-10.6445 9.22852-10.6445C8.79883-10.6445 8.50586-10.3418 8.50586-9.89258L8.50586-7.7832L6.39648-7.7832C5.94727-7.7832 5.64453-7.48047 5.64453-7.04102C5.64453-6.61133 5.94727-6.31836 6.39648-6.31836Z"/>
  </g>
  <g id="" transform="matrix(1 0 0 1 281.506 1933)">
   <path d="M11.709 2.91016C17.1582 2.91016 21.6699-1.61133 21.6699-7.05078C21.6699-12.5 17.1484-17.0117 11.6992-17.0117C6.25977-17.0117 1.74805-12.5 1.74805-7.05078C1.74805-1.61133 6.26953 2.91016 11.709 2.91016ZM11.709 1.25C7.09961 1.25 3.41797-2.44141 3.41797-7.05078C3.41797-11.6602 7.08984-15.3516 11.6992-15.3516C16.3086-15.3516 20-11.6602 20.0098-7.05078C20.0195-2.44141 16.3184 1.25 11.709 1.25ZM7.98828-6.23047L10.8789-6.23047L10.8789-3.32031C10.8789-2.83203 11.2109-2.5 11.6895-2.5C12.1777-2.5 12.5195-2.83203 12.5195-3.32031L12.5195-6.23047L15.4297-6.23047C15.918-6.23047 16.25-6.5625 16.25-7.04102C16.25-7.5293 15.918-7.87109 15.4297-7.87109L12.5195-7.87109L12.5195-10.7617C12.5195-11.2695 12.1777-11.6016 11.6895-11.6016C11.2109-11.6016 10.8789-11.2598 10.8789-10.7617L10.8789-7.87109L7.98828-7.87109C7.48047-7.87109 7.14844-7.5293 7.14844-7.04102C7.14844-6.5625 7.49023-6.23047 7.98828-6.23047Z"/>
  </g>
  <g id="" transform="matrix(1 0 0 1 304.924 1933)">
   <path d="M14.9707 5.66406C21.9336 5.66406 27.6953-0.0976562 27.6953-7.05078C27.6953-14.0137 21.9238-19.7754 14.9609-19.7754C8.00781-19.7754 2.25586-14.0137 2.25586-7.05078C2.25586-0.0976562 8.01758 5.66406 14.9707 5.66406ZM14.9707 3.84766C8.93555 3.84766 4.08203-1.01562 4.08203-7.05078C4.08203-13.0957 8.92578-17.9492 14.9609-17.9492C21.0059-17.9492 25.8594-13.0957 25.8691-7.05078C25.8789-1.01562 21.0156 3.84766 14.9707 3.84766ZM10.0586-6.14258L14.0625-6.14258L14.0625-2.12891C14.0625-1.5918 14.4336-1.2207 14.9512-1.2207C15.4883-1.2207 15.8594-1.5918 15.8594-2.12891L15.8594-6.14258L19.8828-6.14258C20.4102-6.14258 20.791-6.51367 20.791-7.03125C20.791-7.56836 20.4199-7.94922 19.8828-7.94922L15.8594-7.94922L15.8594-11.9531C15.8594-12.5098 15.4883-12.8809 14.9512-12.8809C14.4336-12.8809 14.0625-12.5 14.0625-11.9531L14.0625-7.94922L10.0586-7.94922C9.50195-7.94922 9.13086-7.56836 9.13086-7.03125C9.13086-6.51367 9.51172-6.14258 10.0586-6.14258Z"/>
  </g>
  <text style="stroke:none;fill:black;font-family:-apple-system,&quot;SF Pro Display&quot;,&quot;SF Pro Text&quot;,Helvetica,sans-serif;font-weight:bold;" transform="matrix(1 0 0 1 263 1953)">Design Variations</text>
  <text style="stroke:none;fill:black;font-family:-apple-system,&quot;SF Pro Display&quot;,&quot;SF Pro Text&quot;,Helvetica,sans-serif;" transform="matrix(1 0 0 1 263 1971)">Symbols are supported in up to nine weights and three scales.</text>
  <text style="stroke:none;fill:black;font-family:-apple-system,&quot;SF Pro Display&quot;,&quot;SF Pro Text&quot;,Helvetica,sans-serif;" transform="matrix(1 0 0 1 263 1989)">For optimal layout with text and other symbols, vertically align</text>
  <text style="stroke:none;fill:black;font-family:-apple-system,&quot;SF Pro Display&quot;,&quot;SF Pro Text&quot;,Helvetica,sans-serif;" transform="matrix(1 0 0 1 263 2007)">symbols with the adjacent text.</text>
  <line id="" style="fill:none;stroke:#00AEEF;stroke-width:0.5;opacity:1.0;" x1="776" x2="776" y1="1919" y2="1933"/>
  <g id="" transform="matrix(1 0 0 1 776 1933)">
   <path d="M3.31055 0.126953C3.82812 0.126953 4.08203-0.0683594 4.26758-0.605469L5.52734-4.0625L11.2891-4.0625L12.5488-0.605469C12.7344-0.0683594 12.9883 0.126953 13.4961 0.126953C14.0137 0.126953 14.3457-0.185547 14.3457-0.673828C14.3457-0.839844 14.3164-0.986328 14.2383-1.20117L9.6582-13.3887C9.43359-13.9941 9.0332-14.2871 8.4082-14.2871C7.80273-14.2871 7.39258-13.9941 7.17773-13.3984L2.59766-1.19141C2.51953-0.976562 2.49023-0.830078 2.49023-0.664062C2.49023-0.175781 2.80273 0.126953 3.31055 0.126953ZM6.00586-5.53711L8.37891-12.1094L8.42773-12.1094L10.8008-5.53711Z"/>
  </g>
  <line id="" style="fill:none;stroke:#00AEEF;stroke-width:0.5;opacity:1.0;" x1="792.836" x2="792.836" y1="1919" y2="1933"/>
  <text style="stroke:none;fill:black;font-family:-apple-system,&quot;SF Pro Display&quot;,&quot;SF Pro Text&quot;,Helvetica,sans-serif;font-weight:bold;" transform="matrix(1 0 0 1 776 1953)">Margins</text>
  <text style="stroke:none;fill:black;font-family:-apple-system,&quot;SF Pro Display&quot;,&quot;SF Pro Text&quot;,Helvetica,sans-serif;" transform="matrix(1 0 0 1 776 1971)">Leading and trailing margins on the left and right side of each symbol</text>
  <text style="stroke:none;fill:black;font-family:-apple-system,&quot;SF Pro Display&quot;,&quot;SF Pro Text&quot;,Helvetica,sans-serif;" transform="matrix(1 0 0 1 776 1989)">can be adjusted by modifying the x-location of the margin guidelines.</text>
  <text style="stroke:none;fill:black;font-family:-apple-system,&quot;SF Pro Display&quot;,&quot;SF Pro Text&quot;,Helvetica,sans-serif;" transform="matrix(1 0 0 1 776 2007)">Modifications are automatically applied proportionally to all</text>
  <text style="stroke:none;fill:black;font-family:-apple-system,&quot;SF Pro Display&quot;,&quot;SF Pro Text&quot;,Helvetica,sans-serif;" transform="matrix(1 0 0 1 776 2025)">scales and weights.</text>
  <g id="" transform="matrix(1 0 0 1 1289 1933)">
   <path d="M2.8418 1.86523L4.54102 3.57422C5.40039 4.44336 6.38672 4.38477 7.31445 3.35938L17.4902-7.85156C17.7539-7.76367 18.0273-7.7832 18.3398-7.8418L19.4043-8.03711L20.0684-7.36328L20.0293-6.80664C19.9902-6.30859 20.1172-5.92773 20.6055-5.44922L21.3672-4.70703C21.8457-4.22852 22.4609-4.19922 22.9297-4.66797L25.8398-7.58789C26.3086-8.05664 26.2891-8.65234 25.8105-9.13086L25.0391-9.89258C24.5605-10.3711 24.1895-10.5273 23.7109-10.4883L23.1348-10.4395L22.4902-11.0742L22.7344-12.1973C22.8613-12.7637 22.7051-13.2031 22.1191-13.7891L19.9219-15.9766C16.582-19.2969 12.1484-19.2188 9.25781-16.3281C8.83789-15.918 8.80859-15.3418 9.04297-14.9512C9.27734-14.5898 9.73633-14.3555 10.3809-14.5215C11.8457-14.8633 13.3691-14.9219 14.7949-13.9844L14.209-12.5293C14.0137-12.0508 13.9844-11.6504 14.1113-11.2891L3.04688-0.898438C2.06055 0.0195312 1.98242 0.996094 2.8418 1.86523ZM10.752-15.957C13.1836-17.7344 16.4746-17.4316 18.7012-15.2051L21.1328-12.793C21.3672-12.5586 21.4062-12.373 21.3379-12.0312L21.0156-10.5469L22.5195-9.0625L23.5059-9.12109C23.7598-9.13086 23.8379-9.11133 24.0332-8.91602L24.6094-8.33984L22.168-5.89844L21.5918-6.47461C21.3965-6.66992 21.3672-6.74805 21.377-7.01172L21.4453-7.98828L19.9512-9.47266L18.4277-9.21875C18.1055-9.15039 17.959-9.17969 17.7148-9.41406L15.7129-11.416C15.459-11.6504 15.4297-11.8164 15.5859-12.1875L16.4648-14.2773C14.9023-15.7324 12.8711-16.3574 10.8398-15.7617C10.6836-15.7227 10.625-15.8496 10.752-15.957ZM5.27344 2.30469L4.10156 1.14258C3.63281 0.683594 3.74023 0.341797 4.14062-0.0195312L14.9512-10.1953L16.416-8.71094L6.42578 2.27539C6.07422 2.67578 5.74219 2.77344 5.27344 2.30469Z"/>
  </g>
  <text style="stroke:none;fill:black;font-family:-apple-system,&quot;SF Pro Display&quot;,&quot;SF Pro Text&quot;,Helvetica,sans-serif;font-weight:bold;" transform="matrix(1 0 0 1 1289 1953)">Exporting</text>
  <text style="stroke:none;fill:black;font-family:-apple-system,&quot;SF Pro Display&quot;,&quot;SF Pro Text&quot;,Helvetica,sans-serif;" transform="matrix(1 0 0 1 1289 1971)">Symbols should be outlined when exporting to ensure the</text>
  <text style="stroke:none;fill:black;font-family:-apple-system,&quot;SF Pro Display&quot;,&quot;SF Pro Text&quot;,Helvetica,sans-serif;" transform="matrix(1 0 0 1 1289 1989)">design is preserved when submitting to Xcode.</text>
  <text id="template-version" style="stroke:none;fill:black;font-family:-apple-system,&quot;SF Pro Display&quot;,&quot;SF Pro Text&quot;,Helvetica,sans-serif;text-anchor:end;" transform="matrix(1 0 0 1 3036 1933)">Template v.2.0</text>
  <text style="stroke:none;fill:black;font-family:-apple-system,&quot;SF Pro Display&quot;,&quot;SF Pro Text&quot;,Helvetica,sans-serif;text-anchor:end;" transform="matrix(1 0 0 1 3036 1951)">Requires Xcode 12 or greater</text>
  <text style="stroke:none;fill:black;font-family:-apple-system,&quot;SF Pro Display&quot;,&quot;SF Pro Text&quot;,Helvetica,sans-serif;" transform="matrix(1 0 0 1 263 726)">Small</text>
  <text style="stroke:none;fill:black;font-family:-apple-system,&quot;SF Pro Display&quot;,&quot;SF Pro Text&quot;,Helvetica,sans-serif;" transform="matrix(1 0 0 1 263 1156)">Medium</text>
  <text style="stroke:none;fill:black;font-family:-apple-system,&quot;SF Pro Display&quot;,&quot;SF Pro Text&quot;,Helvetica,sans-serif;" transform="matrix(1 0 0 1 263 1586)">Large</text>
 </g>
 <g id="Guides">
  <g id="H-reference" style="fill:#27AAE1;stroke:none;" transform="matrix(1 0 0 1 339 696)">
   <path d="M0.976562 0L3.66211 0L12.9883-24.4629L45.752-24.4629L55.127 0L57.7637 0L30.6152-70.459L28.125-70.459ZM29.3457-67.1387L29.4434-67.1387L44.873-26.709L13.8672-26.709Z"/>
  </g>
  <line id="Baseline-S" style="fill:none;stroke:#27AAE1;opacity:1;stroke-width:0.5;" x1="263" x2="3036" y1="696" y2="696"/>
  <line id="Capline-S" style="fill:none;stroke:#27AAE1;opacity:1;stroke-width:0.5;" x1="263" x2="3036" y1="625.541" y2="625.541"/>
  <g id="H-reference" style="fill:#27AAE1;stroke:none;" transform="matrix(1 0 0 1 339 1126)">
   <path d="M0.976562 0L3.66211 0L12.9883-24.4629L45.752-24.4629L55.127 0L57.7637 0L30.6152-70.459L28.125-70.459ZM29.3457-67.1387L29.4434-67.1387L44.873-26.709L13.8672-26.709Z"/>
  </g>
  <line id="Baseline-M" style="fill:none;stroke:#27AAE1;opacity:1;stroke-width:0.5;" x1="263" x2="3036" y1="1126" y2="1126"/>
  <line id="Capline-M" style="fill:none;stroke:#27AAE1;opacity:1;stroke-width:0.5;" x1="263" x2="3036" y1="1055.54" y2="1055.54"/>
  <g id="H-reference" style="fill:#27AAE1;stroke:none;" transform="matrix(1 0 0 1 339 1556)">
   <path d="M0.976562 0L3.66211 0L12.9883-24.4629L45.752-24.4629L55.127 0L57.7637 0L30.6152-70.459L28.125-70.459ZM29.3457-67.1387L29.4434-67.1387L44.873-26.709L13.8672-26.709Z"/>
  </g>
  <line id="Baseline-L" style="fill:none;stroke:#27AAE1;opacity:1;stroke-width:0.5;" x1="263" x2="3036" y1="1556" y2="1556"/>
  <line id="Capline-L" style="fill:none;stroke:#27AAE1;opacity:1;stroke-width:0.5;" x1="263" x2="3036" y1="1485.54" y2="1485.54"/>
  <line id="left-margin" x1="1415.9000195312499" x2="1415.9000195312499" y1="1030.79" y2="1150.12" style="fill:none;stroke:#00AEEF;stroke-width:0.5;opacity:1.0;"/>
  <line id="right-margin" x1="1486.3599804687499" x2="1486.3599804687499" y1="1030.79" y2="1150.12" style="fill:none;stroke:#00AEEF;stroke-width:0.5;opacity:1.0;"/>
 </g>
 <g id="Symbols">
  <g id="Black-L" transform="matrix(1.0,0.0,0.0,1.0,2889.2333251953123,1475.3233447265625)">  <path fill-opacity="1" stroke-linejoin="miter" fill-rule="nonzero" stroke-dasharray="none" stroke-linecap="butt" stroke="none" stroke-miterlimit="4" fill="#000000" stroke-width="1px" stroke-opacity="1" d="M30.904,9.089C29.413,9.089,28.362,9.998,27.609,10.85C26.856,11.703,26.245,12.668,25.677,13.577C25.109,14.486,24.591,15.338,24.144,15.85C23.81,16.233,23.59,16.339,23.575,16.361L5.454,16.361C2.464,16.361,0,18.825,0,21.814L0,70.897C0,73.886,2.464,76.35,5.454,76.35L85.44,76.35C88.429,76.35,90.893,73.886,90.893,70.897L90.893,21.814C90.893,18.825,88.429,16.361,85.44,16.361L67.318,16.361C67.325,16.368,67.304,16.361,67.261,16.361C67.204,16.318,67.041,16.183,66.75,15.85C66.302,15.338,65.784,14.486,65.216,13.577C64.648,12.668,64.037,11.703,63.284,10.85C62.532,9.998,61.481,9.089,59.99,9.089ZM30.904,12.725L59.99,12.725C59.876,12.725,60.11,12.725,60.558,13.236C61.005,13.748,61.523,14.6,62.092,15.509C62.66,16.418,63.284,17.383,64.023,18.235C64.762,19.088,65.77,19.997,67.261,19.997L85.44,19.997C86.462,19.997,87.258,20.792,87.258,21.814L87.258,70.897C87.258,71.919,86.462,72.715,85.44,72.715L5.454,72.715C4.431,72.715,3.636,71.919,3.636,70.897L3.636,21.814C3.636,20.792,4.431,19.997,5.454,19.997L23.632,19.997C25.123,19.997,26.132,19.088,26.87,18.235C27.609,17.383,28.234,16.418,28.802,15.509C29.37,14.6,29.888,13.748,30.336,13.236C30.783,12.725,31.017,12.725,30.904,12.725ZM45.447,19.997C32.416,19.997,21.814,30.598,21.814,43.629C21.814,56.659,32.416,67.261,45.447,67.261C58.477,67.261,69.079,56.659,69.079,43.629C69.079,30.598,58.477,19.997,45.447,19.997ZM45.447,23.632C56.51,23.632,65.443,32.565,65.443,43.629C65.443,54.692,56.51,63.625,45.447,63.625C34.383,63.625,25.45,54.692,25.45,43.629C25.45,32.565,34.383,23.632,45.447,23.632ZM14.543,25.45C12.533,25.45,10.907,27.076,10.907,29.086C10.907,31.095,12.533,32.722,14.543,32.722L16.361,32.722C18.37,32.722,19.997,31.095,19.997,29.086C19.997,27.076,18.37,25.45,16.361,25.45ZM45.447,27.268C36.435,27.268,29.086,34.618,29.086,43.629C29.086,52.64,36.435,59.99,45.447,59.99C54.458,59.99,61.807,52.64,61.807,43.629C61.807,34.618,54.458,27.268,45.447,27.268ZM45.447,30.904C52.498,30.904,58.172,36.577,58.172,43.629C58.172,50.68,52.498,56.354,45.447,56.354C38.395,56.354,32.722,50.68,32.722,43.629C32.722,36.577,38.395,30.904,45.447,30.904ZM45.447,30.904"/>
</g>
  <g id="Heavy-L" transform="matrix(1.0,0.0,0.0,1.0,2592.5233251953123,1475.3233447265625)">  <path stroke-dasharray="none" stroke-opacity="1" stroke-linejoin="miter" stroke-linecap="butt" fill-rule="nonzero" stroke-width="1px" stroke-miterlimit="4" fill-opacity="1" stroke="none" fill="#000000" d="M30.904,9.089C29.413,9.089,28.362,9.998,27.609,10.85C26.856,11.703,26.245,12.668,25.677,13.577C25.109,14.486,24.591,15.338,24.144,15.85C23.81,16.233,23.59,16.339,23.575,16.361L5.454,16.361C2.464,16.361,0,18.825,0,21.814L0,70.897C0,73.886,2.464,76.35,5.454,76.35L85.44,76.35C88.429,76.35,90.893,73.886,90.893,70.897L90.893,21.814C90.893,18.825,88.429,16.361,85.44,16.361L67.318,16.361C67.325,16.368,67.304,16.361,67.261,16.361C67.204,16.318,67.041,16.183,66.75,15.85C66.302,15.338,65.784,14.486,65.216,13.577C64.648,12.668,64.037,11.703,63.284,10.85C62.532,9.998,61.481,9.089,59.99,9.089ZM30.904,12.725L59.99,12.725C59.876,12.725,60.11,12.725,60.558,13.236C61.005,13.748,61.523,14.6,62.092,15.509C62.66,16.418,63.284,17.383,64.023,18.235C64.762,19.088,65.77,19.997,67.261,19.997L85.44,19.997C86.462,19.997,87.258,20.792,87.258,21.814L87.258,70.897C87.258,71.919,86.462,72.715,85.44,72.715L5.454,72.715C4.431,72.715,3.636,71.919,3.636,70.897L3.636,21.814C3.636,20.792,4.431,19.997,5.454,19.997L23.632,19.997C25.123,19.997,26.132,19.088,26.87,18.235C27.609,17.383,28.234,16.418,28.802,15.509C29.37,14.6,29.888,13.748,30.336,13.236C30.783,12.725,31.017,12.725,30.904,12.725ZM45.447,19.997C32.416,19.997,21.814,30.598,21.814,43.629C21.814,56.659,32.416,67.261,45.447,67.261C58.477,67.261,69.079,56.659,69.079,43.629C69.079,30.598,58.477,19.997,45.447,19.997ZM45.447,23.632C56.51,23.632,65.443,32.565,65.443,43.629C65.443,54.692,56.51,63.625,45.447,63.625C34.383,63.625,25.45,54.692,25.45,43.629C25.45,32.565,34.383,23.632,45.447,23.632ZM14.543,25.45C12.533,25.45,10.907,27.076,10.907,29.086C10.907,31.095,12.533,32.722,14.543,32.722L16.361,32.722C18.37,32.722,19.997,31.095,19.997,29.086C19.997,27.076,18.37,25.45,16.361,25.45ZM45.447,27.268C36.435,27.268,29.086,34.618,29.086,43.629C29.086,52.64,36.435,59.99,45.447,59.99C54.458,59.99,61.807,52.64,61.807,43.629C61.807,34.618,54.458,27.268,45.447,27.268ZM45.447,30.904C52.498,30.904,58.172,36.577,58.172,43.629C58.172,50.68,52.498,56.354,45.447,56.354C38.395,56.354,32.722,50.68,32.722,43.629C32.722,36.577,38.395,30.904,45.447,30.904ZM45.447,30.904"/>
</g>
  <g id="Bold-L" transform="matrix(1.0,0.0,0.0,1.0,2295.8133251953122,1475.3233447265625)">  <path fill="#000000" stroke-linejoin="miter" fill-opacity="1" stroke-width="1px" stroke-opacity="1" stroke-linecap="butt" stroke-miterlimit="4" stroke="none" fill-rule="nonzero" stroke-dasharray="none" d="M30.904,9.089C29.413,9.089,28.362,9.998,27.609,10.85C26.856,11.703,26.245,12.668,25.677,13.577C25.109,14.486,24.591,15.338,24.144,15.85C23.81,16.233,23.59,16.339,23.575,16.361L5.454,16.361C2.464,16.361,0,18.825,0,21.814L0,70.897C0,73.886,2.464,76.35,5.454,76.35L85.44,76.35C88.429,76.35,90.893,73.886,90.893,70.897L90.893,21.814C90.893,18.825,88.429,16.361,85.44,16.361L67.318,16.361C67.325,16.368,67.304,16.361,67.261,16.361C67.204,16.318,67.041,16.183,66.75,15.85C66.302,15.338,65.784,14.486,65.216,13.577C64.648,12.668,64.037,11.703,63.284,10.85C62.532,9.998,61.481,9.089,59.99,9.089ZM30.904,12.725L59.99,12.725C59.876,12.725,60.11,12.725,60.558,13.236C61.005,13.748,61.523,14.6,62.092,15.509C62.66,16.418,63.284,17.383,64.023,18.235C64.762,19.088,65.77,19.997,67.261,19.997L85.44,19.997C86.462,19.997,87.258,20.792,87.258,21.814L87.258,70.897C87.258,71.919,86.462,72.715,85.44,72.715L5.454,72.715C4.431,72.715,3.636,71.919,3.636,70.897L3.636,21.814C3.636,20.792,4.431,19.997,5.454,19.997L23.632,19.997C25.123,19.997,26.132,19.088,26.87,18.235C27.609,17.383,28.234,16.418,28.802,15.509C29.37,14.6,29.888,13.748,30.336,13.236C30.783,12.725,31.017,12.725,30.904,12.725ZM45.447,19.997C32.416,19.997,21.814,30.598,21.814,43.629C21.814,56.659,32.416,67.261,45.447,67.261C58.477,67.261,69.079,56.659,69.079,43.629C69.079,30.598,58.477,19.997,45.447,19.997ZM45.447,23.632C56.51,23.632,65.443,32.565,65.443,43.629C65.443,54.692,56.51,63.625,45.447,63.625C34.383,63.625,25.45,54.692,25.45,43.629C25.45,32.565,34.383,23.632,45.447,23.632ZM14.543,25.45C12.533,25.45,10.907,27.076,10.907,29.086C10.907,31.095,12.533,32.722,14.543,32.722L16.361,32.722C18.37,32.722,19.997,31.095,19.997,29.086C19.997,27.076,18.37,25.45,16.361,25.45ZM45.447,27.268C36.435,27.268,29.086,34.618,29.086,43.629C29.086,52.64,36.435,59.99,45.447,59.99C54.458,59.99,61.807,52.64,61.807,43.629C61.807,34.618,54.458,27.268,45.447,27.268ZM45.447,30.904C52.498,30.904,58.172,36.577,58.172,43.629C58.172,50.68,52.498,56.354,45.447,56.354C38.395,56.354,32.722,50.68,32.722,43.629C32.722,36.577,38.395,30.904,45.447,30.904ZM45.447,30.904"/>
</g>
  <g id="Semibold-L" transform="matrix(1.0,0.0,0.0,1.0,1999.1033251953124,1475.3233447265625)">  <path stroke="none" stroke-linecap="butt" stroke-opacity="1" stroke-width="1px" fill-opacity="1" stroke-dasharray="none" stroke-linejoin="miter" fill-rule="nonzero" stroke-miterlimit="4" fill="#000000" d="M30.904,9.089C29.413,9.089,28.362,9.998,27.609,10.85C26.856,11.703,26.245,12.668,25.677,13.577C25.109,14.486,24.591,15.338,24.144,15.85C23.81,16.233,23.59,16.339,23.575,16.361L5.454,16.361C2.464,16.361,0,18.825,0,21.814L0,70.897C0,73.886,2.464,76.35,5.454,76.35L85.44,76.35C88.429,76.35,90.893,73.886,90.893,70.897L90.893,21.814C90.893,18.825,88.429,16.361,85.44,16.361L67.318,16.361C67.325,16.368,67.304,16.361,67.261,16.361C67.204,16.318,67.041,16.183,66.75,15.85C66.302,15.338,65.784,14.486,65.216,13.577C64.648,12.668,64.037,11.703,63.284,10.85C62.532,9.998,61.481,9.089,59.99,9.089ZM30.904,12.725L59.99,12.725C59.876,12.725,60.11,12.725,60.558,13.236C61.005,13.748,61.523,14.6,62.092,15.509C62.66,16.418,63.284,17.383,64.023,18.235C64.762,19.088,65.77,19.997,67.261,19.997L85.44,19.997C86.462,19.997,87.258,20.792,87.258,21.814L87.258,70.897C87.258,71.919,86.462,72.715,85.44,72.715L5.454,72.715C4.431,72.715,3.636,71.919,3.636,70.897L3.636,21.814C3.636,20.792,4.431,19.997,5.454,19.997L23.632,19.997C25.123,19.997,26.132,19.088,26.87,18.235C27.609,17.383,28.234,16.418,28.802,15.509C29.37,14.6,29.888,13.748,30.336,13.236C30.783,12.725,31.017,12.725,30.904,12.725ZM45.447,19.997C32.416,19.997,21.814,30.598,21.814,43.629C21.814,56.659,32.416,67.261,45.447,67.261C58.477,67.261,69.079,56.659,69.079,43.629C69.079,30.598,58.477,19.997,45.447,19.997ZM45.447,23.632C56.51,23.632,65.443,32.565,65.443,43.629C65.443,54.692,56.51,63.625,45.447,63.625C34.383,63.625,25.45,54.692,25.45,43.629C25.45,32.565,34.383,23.632,45.447,23.632ZM14.543,25.45C12.533,25.45,10.907,27.076,10.907,29.086C10.907,31.095,12.533,32.722,14.543,32.722L16.361,32.722C18.37,32.722,19.997,31.095,19.997,29.086C19.997,27.076,18.37,25.45,16.361,25.45ZM45.447,27.268C36.435,27.268,29.086,34.618,29.086,43.629C29.086,52.64,36.435,59.99,45.447,59.99C54.458,59.99,61.807,52.64,61.807,43.629C61.807,34.618,54.458,27.268,45.447,27.268ZM45.447,30.904C52.498,30.904,58.172,36.577,58.172,43.629C58.172,50.68,52.498,56.354,45.447,56.354C38.395,56.354,32.722,50.68,32.722,43.629C32.722,36.577,38.395,30.904,45.447,30.904ZM45.447,30.904"/>
</g>
  <g id="Medium-L" transform="matrix(1.0,0.0,0.0,1.0,1702.3933251953124,1475.3233447265625)">  <path stroke-opacity="1" stroke-width="1px" stroke-linejoin="miter" fill="#000000" stroke-linecap="butt" stroke="none" fill-opacity="1" fill-rule="nonzero" stroke-miterlimit="4" stroke-dasharray="none" d="M30.904,9.089C29.413,9.089,28.362,9.998,27.609,10.85C26.856,11.703,26.245,12.668,25.677,13.577C25.109,14.486,24.591,15.338,24.144,15.85C23.81,16.233,23.59,16.339,23.575,16.361L5.454,16.361C2.464,16.361,0,18.825,0,21.814L0,70.897C0,73.886,2.464,76.35,5.454,76.35L85.44,76.35C88.429,76.35,90.893,73.886,90.893,70.897L90.893,21.814C90.893,18.825,88.429,16.361,85.44,16.361L67.318,16.361C67.325,16.368,67.304,16.361,67.261,16.361C67.204,16.318,67.041,16.183,66.75,15.85C66.302,15.338,65.784,14.486,65.216,13.577C64.648,12.668,64.037,11.703,63.284,10.85C62.532,9.998,61.481,9.089,59.99,9.089ZM30.904,12.725L59.99,12.725C59.876,12.725,60.11,12.725,60.558,13.236C61.005,13.748,61.523,14.6,62.092,15.509C62.66,16.418,63.284,17.383,64.023,18.235C64.762,19.088,65.77,19.997,67.261,19.997L85.44,19.997C86.462,19.997,87.258,20.792,87.258,21.814L87.258,70.897C87.258,71.919,86.462,72.715,85.44,72.715L5.454,72.715C4.431,72.715,3.636,71.919,3.636,70.897L3.636,21.814C3.636,20.792,4.431,19.997,5.454,19.997L23.632,19.997C25.123,19.997,26.132,19.088,26.87,18.235C27.609,17.383,28.234,16.418,28.802,15.509C29.37,14.6,29.888,13.748,30.336,13.236C30.783,12.725,31.017,12.725,30.904,12.725ZM45.447,19.997C32.416,19.997,21.814,30.598,21.814,43.629C21.814,56.659,32.416,67.261,45.447,67.261C58.477,67.261,69.079,56.659,69.079,43.629C69.079,30.598,58.477,19.997,45.447,19.997ZM45.447,23.632C56.51,23.632,65.443,32.565,65.443,43.629C65.443,54.692,56.51,63.625,45.447,63.625C34.383,63.625,25.45,54.692,25.45,43.629C25.45,32.565,34.383,23.632,45.447,23.632ZM14.543,25.45C12.533,25.45,10.907,27.076,10.907,29.086C10.907,31.095,12.533,32.722,14.543,32.722L16.361,32.722C18.37,32.722,19.997,31.095,19.997,29.086C19.997,27.076,18.37,25.45,16.361,25.45ZM45.447,27.268C36.435,27.268,29.086,34.618,29.086,43.629C29.086,52.64,36.435,59.99,45.447,59.99C54.458,59.99,61.807,52.64,61.807,43.629C61.807,34.618,54.458,27.268,45.447,27.268ZM45.447,30.904C52.498,30.904,58.172,36.577,58.172,43.629C58.172,50.68,52.498,56.354,45.447,56.354C38.395,56.354,32.722,50.68,32.722,43.629C32.722,36.577,38.395,30.904,45.447,30.904ZM45.447,30.904"/>
</g>
  <g id="Regular-L" transform="matrix(1.0,0.0,0.0,1.0,1405.6833251953124,1475.3233447265625)">  <path stroke-linejoin="miter" stroke-dasharray="none" stroke-miterlimit="4" fill="#000000" fill-opacity="1" fill-rule="nonzero" stroke="none" stroke-opacity="1" stroke-width="1px" stroke-linecap="butt" d="M30.904,9.089C29.413,9.089,28.362,9.998,27.609,10.85C26.856,11.703,26.245,12.668,25.677,13.577C25.109,14.486,24.591,15.338,24.144,15.85C23.81,16.233,23.59,16.339,23.575,16.361L5.454,16.361C2.464,16.361,0,18.825,0,21.814L0,70.897C0,73.886,2.464,76.35,5.454,76.35L85.44,76.35C88.429,76.35,90.893,73.886,90.893,70.897L90.893,21.814C90.893,18.825,88.429,16.361,85.44,16.361L67.318,16.361C67.325,16.368,67.304,16.361,67.261,16.361C67.204,16.318,67.041,16.183,66.75,15.85C66.302,15.338,65.784,14.486,65.216,13.577C64.648,12.668,64.037,11.703,63.284,10.85C62.532,9.998,61.481,9.089,59.99,9.089ZM30.904,12.725L59.99,12.725C59.876,12.725,60.11,12.725,60.558,13.236C61.005,13.748,61.523,14.6,62.092,15.509C62.66,16.418,63.284,17.383,64.023,18.235C64.762,19.088,65.77,19.997,67.261,19.997L85.44,19.997C86.462,19.997,87.258,20.792,87.258,21.814L87.258,70.897C87.258,71.919,86.462,72.715,85.44,72.715L5.454,72.715C4.431,72.715,3.636,71.919,3.636,70.897L3.636,21.814C3.636,20.792,4.431,19.997,5.454,19.997L23.632,19.997C25.123,19.997,26.132,19.088,26.87,18.235C27.609,17.383,28.234,16.418,28.802,15.509C29.37,14.6,29.888,13.748,30.336,13.236C30.783,12.725,31.017,12.725,30.904,12.725ZM45.447,19.997C32.416,19.997,21.814,30.598,21.814,43.629C21.814,56.659,32.416,67.261,45.447,67.261C58.477,67.261,69.079,56.659,69.079,43.629C69.079,30.598,58.477,19.997,45.447,19.997ZM45.447,23.632C56.51,23.632,65.443,32.565,65.443,43.629C65.443,54.692,56.51,63.625,45.447,63.625C34.383,63.625,25.45,54.692,25.45,43.629C25.45,32.565,34.383,23.632,45.447,23.632ZM14.543,25.45C12.533,25.45,10.907,27.076,10.907,29.086C10.907,31.095,12.533,32.722,14.543,32.722L16.361,32.722C18.37,32.722,19.997,31.095,19.997,29.086C19.997,27.076,18.37,25.45,16.361,25.45ZM45.447,27.268C36.435,27.268,29.086,34.618,29.086,43.629C29.086,52.64,36.435,59.99,45.447,59.99C54.458,59.99,61.807,52.64,61.807,43.629C61.807,34.618,54.458,27.268,45.447,27.268ZM45.447,30.904C52.498,30.904,58.172,36.577,58.172,43.629C58.172,50.68,52.498,56.354,45.447,56.354C38.395,56.354,32.722,50.68,32.722,43.629C32.722,36.577,38.395,30.904,45.447,30.904ZM45.447,30.904"/>
</g>
  <g id="Light-L" transform="matrix(1.0,0.0,0.0,1.0,1108.9733251953126,1475.3233447265625)">  <path stroke-linejoin="miter" stroke-width="1px" fill-opacity="1" stroke-opacity="1" stroke="none" stroke-linecap="butt" fill-rule="nonzero" stroke-miterlimit="4" stroke-dasharray="none" fill="#000000" d="M30.904,9.089C29.413,9.089,28.362,9.998,27.609,10.85C26.856,11.703,26.245,12.668,25.677,13.577C25.109,14.486,24.591,15.338,24.144,15.85C23.81,16.233,23.59,16.339,23.575,16.361L5.454,16.361C2.464,16.361,0,18.825,0,21.814L0,70.897C0,73.886,2.464,76.35,5.454,76.35L85.44,76.35C88.429,76.35,90.893,73.886,90.893,70.897L90.893,21.814C90.893,18.825,88.429,16.361,85.44,16.361L67.318,16.361C67.325,16.368,67.304,16.361,67.261,16.361C67.204,16.318,67.041,16.183,66.75,15.85C66.302,15.338,65.784,14.486,65.216,13.577C64.648,12.668,64.037,11.703,63.284,10.85C62.532,9.998,61.481,9.089,59.99,9.089ZM30.904,12.725L59.99,12.725C59.876,12.725,60.11,12.725,60.558,13.236C61.005,13.748,61.523,14.6,62.092,15.509C62.66,16.418,63.284,17.383,64.023,18.235C64.762,19.088,65.77,19.997,67.261,19.997L85.44,19.997C86.462,19.997,87.258,20.792,87.258,21.814L87.258,70.897C87.258,71.919,86.462,72.715,85.44,72.715L5.454,72.715C4.431,72.715,3.636,71.919,3.636,70.897L3.636,21.814C3.636,20.792,4.431,19.997,5.454,19.997L23.632,19.997C25.123,19.997,26.132,19.088,26.87,18.235C27.609,17.383,28.234,16.418,28.802,15.509C29.37,14.6,29.888,13.748,30.336,13.236C30.783,12.725,31.017,12.725,30.904,12.725ZM45.447,19.997C32.416,19.997,21.814,30.598,21.814,43.629C21.814,56.659,32.416,67.261,45.447,67.261C58.477,67.261,69.079,56.659,69.079,43.629C69.079,30.598,58.477,19.997,45.447,19.997ZM45.447,23.632C56.51,23.632,65.443,32.565,65.443,43.629C65.443,54.692,56.51,63.625,45.447,63.625C34.383,63.625,25.45,54.692,25.45,43.629C25.45,32.565,34.383,23.632,45.447,23.632ZM14.543,25.45C12.533,25.45,10.907,27.076,10.907,29.086C10.907,31.095,12.533,32.722,14.543,32.722L16.361,32.722C18.37,32.722,19.997,31.095,19.997,29.086C19.997,27.076,18.37,25.45,16.361,25.45ZM45.447,27.268C36.435,27.268,29.086,34.618,29.086,43.629C29.086,52.64,36.435,59.99,45.447,59.99C54.458,59.99,61.807,52.64,61.807,43.629C61.807,34.618,54.458,27.268,45.447,27.268ZM45.447,30.904C52.498,30.904,58.172,36.577,58.172,43.629C58.172,50.68,52.498,56.354,45.447,56.354C38.395,56.354,32.722,50.68,32.722,43.629C32.722,36.577,38.395,30.904,45.447,30.904ZM45.447,30.904"/>
</g>
  <g id="Thin-L" transform="matrix(1.0,0.0,0.0,1.0,812.2633251953125,1475.3233447265625)">  <path stroke-linecap="butt" stroke="none" fill="#000000" stroke-linejoin="miter" stroke-opacity="1" fill-opacity="1" stroke-width="1px" stroke-miterlimit="4" fill-rule="nonzero" stroke-dasharray="none" d="M30.904,9.089C29.413,9.089,28.362,9.998,27.609,10.85C26.856,11.703,26.245,12.668,25.677,13.577C25.109,14.486,24.591,15.338,24.144,15.85C23.81,16.233,23.59,16.339,23.575,16.361L5.454,16.361C2.464,16.361,0,18.825,0,21.814L0,70.897C0,73.886,2.464,76.35,5.454,76.35L85.44,76.35C88.429,76.35,90.893,73.886,90.893,70.897L90.893,21.814C90.893,18.825,88.429,16.361,85.44,16.361L67.318,16.361C67.325,16.368,67.304,16.361,67.261,16.361C67.204,16.318,67.041,16.183,66.75,15.85C66.302,15.338,65.784,14.486,65.216,13.577C64.648,12.668,64.037,11.703,63.284,10.85C62.532,9.998,61.481,9.089,59.99,9.089ZM30.904,12.725L59.99,12.725C59.876,12.725,60.11,12.725,60.558,13.236C61.005,13.748,61.523,14.6,62.092,15.509C62.66,16.418,63.284,17.383,64.023,18.235C64.762,19.088,65.77,19.997,67.261,19.997L85.44,19.997C86.462,19.997,87.258,20.792,87.258,21.814L87.258,70.897C87.258,71.919,86.462,72.715,85.44,72.715L5.454,72.715C4.431,72.715,3.636,71.919,3.636,70.897L3.636,21.814C3.636,20.792,4.431,19.997,5.454,19.997L23.632,19.997C25.123,19.997,26.132,19.088,26.87,18.235C27.609,17.383,28.234,16.418,28.802,15.509C29.37,14.6,29.888,13.748,30.336,13.236C30.783,12.725,31.017,12.725,30.904,12.725ZM45.447,19.997C32.416,19.997,21.814,30.598,21.814,43.629C21.814,56.659,32.416,67.261,45.447,67.261C58.477,67.261,69.079,56.659,69.079,43.629C69.079,30.598,58.477,19.997,45.447,19.997ZM45.447,23.632C56.51,23.632,65.443,32.565,65.443,43.629C65.443,54.692,56.51,63.625,45.447,63.625C34.383,63.625,25.45,54.692,25.45,43.629C25.45,32.565,34.383,23.632,45.447,23.632ZM14.543,25.45C12.533,25.45,10.907,27.076,10.907,29.086C10.907,31.095,12.533,32.722,14.543,32.722L16.361,32.722C18.37,32.722,19.997,31.095,19.997,29.086C19.997,27.076,18.37,25.45,16.361,25.45ZM45.447,27.268C36.435,27.268,29.086,34.618,29.086,43.629C29.086,52.64,36.435,59.99,45.447,59.99C54.458,59.99,61.807,52.64,61.807,43.629C61.807,34.618,54.458,27.268,45.447,27.268ZM45.447,30.904C52.498,30.904,58.172,36.577,58.172,43.629C58.172,50.68,52.498,56.354,45.447,56.354C38.395,56.354,32.722,50.68,32.722,43.629C32.722,36.577,38.395,30.904,45.447,30.904ZM45.447,30.904"/>
</g>
  <g id="Ultralight-L" transform="matrix(1.0,0.0,0.0,1.0,515.5533251953125,1475.3233447265625)">  <path stroke-opacity="1" stroke-miterlimit="4" fill-opacity="1" fill="#000000" stroke-width="1px" stroke-dasharray="none" stroke="none" stroke-linecap="butt" stroke-linejoin="miter" fill-rule="nonzero" d="M30.904,9.089C29.413,9.089,28.362,9.998,27.609,10.85C26.856,11.703,26.245,12.668,25.677,13.577C25.109,14.486,24.591,15.338,24.144,15.85C23.81,16.233,23.59,16.339,23.575,16.361L5.454,16.361C2.464,16.361,0,18.825,0,21.814L0,70.897C0,73.886,2.464,76.35,5.454,76.35L85.44,76.35C88.429,76.35,90.893,73.886,90.893,70.897L90.893,21.814C90.893,18.825,88.429,16.361,85.44,16.361L67.318,16.361C67.325,16.368,67.304,16.361,67.261,16.361C67.204,16.318,67.041,16.183,66.75,15.85C66.302,15.338,65.784,14.486,65.216,13.577C64.648,12.668,64.037,11.703,63.284,10.85C62.532,9.998,61.481,9.089,59.99,9.089ZM30.904,12.725L59.99,12.725C59.876,12.725,60.11,12.725,60.558,13.236C61.005,13.748,61.523,14.6,62.092,15.509C62.66,16.418,63.284,17.383,64.023,18.235C64.762,19.088,65.77,19.997,67.261,19.997L85.44,19.997C86.462,19.997,87.258,20.792,87.258,21.814L87.258,70.897C87.258,71.919,86.462,72.715,85.44,72.715L5.454,72.715C4.431,72.715,3.636,71.919,3.636,70.897L3.636,21.814C3.636,20.792,4.431,19.997,5.454,19.997L23.632,19.997C25.123,19.997,26.132,19.088,26.87,18.235C27.609,17.383,28.234,16.418,28.802,15.509C29.37,14.6,29.888,13.748,30.336,13.236C30.783,12.725,31.017,12.725,30.904,12.725ZM45.447,19.997C32.416,19.997,21.814,30.598,21.814,43.629C21.814,56.659,32.416,67.261,45.447,67.261C58.477,67.261,69.079,56.659,69.079,43.629C69.079,30.598,58.477,19.997,45.447,19.997ZM45.447,23.632C56.51,23.632,65.443,32.565,65.443,43.629C65.443,54.692,56.51,63.625,45.447,63.625C34.383,63.625,25.45,54.692,25.45,43.629C25.45,32.565,34.383,23.632,45.447,23.632ZM14.543,25.45C12.533,25.45,10.907,27.076,10.907,29.086C10.907,31.095,12.533,32.722,14.543,32.722L16.361,32.722C18.37,32.722,19.997,31.095,19.997,29.086C19.997,27.076,18.37,25.45,16.361,25.45ZM45.447,27.268C36.435,27.268,29.086,34.618,29.086,43.629C29.086,52.64,36.435,59.99,45.447,59.99C54.458,59.99,61.807,52.64,61.807,43.629C61.807,34.618,54.458,27.268,45.447,27.268ZM45.447,30.904C52.498,30.904,58.172,36.577,58.172,43.629C58.172,50.68,52.498,56.354,45.447,56.354C38.395,56.354,32.722,50.68,32.722,43.629C32.722,36.577,38.395,30.904,45.447,30.904ZM45.447,30.904"/>
</g>
  <g id="Black-M" transform="matrix(1.0,0.0,0.0,1.0,2899.45001953125,1055.5400390625)">  <path fill-opacity="1" stroke-linejoin="miter" fill-rule="nonzero" stroke-dasharray="none" stroke-linecap="butt" stroke="none" stroke-miterlimit="4" fill="#000000" stroke-width="1px" stroke-opacity="1" d="M23.956,7.046C22.8,7.046,21.986,7.751,21.402,8.411C20.819,9.072,20.345,9.82,19.905,10.525C19.465,11.23,19.063,11.89,18.716,12.286C18.457,12.584,18.287,12.666,18.276,12.683L4.228,12.683C1.91,12.683,0,14.593,0,16.91L0,54.959C0,57.276,1.91,59.186,4.228,59.186L66.232,59.186C68.55,59.186,70.46,57.276,70.46,54.959L70.46,16.91C70.46,14.593,68.55,12.683,66.232,12.683L52.184,12.683C52.19,12.688,52.173,12.683,52.14,12.683C52.096,12.65,51.97,12.545,51.744,12.286C51.397,11.89,50.995,11.23,50.555,10.525C50.115,9.82,49.641,9.072,49.058,8.411C48.474,7.751,47.66,7.046,46.504,7.046ZM23.956,9.864L46.504,9.864C46.415,9.864,46.597,9.864,46.944,10.261C47.291,10.657,47.693,11.318,48.133,12.022C48.573,12.727,49.058,13.475,49.63,14.136C50.203,14.797,50.984,15.501,52.14,15.501L66.232,15.501C67.025,15.501,67.642,16.118,67.642,16.91L67.642,54.959C67.642,55.751,67.025,56.368,66.232,56.368L4.228,56.368C3.435,56.368,2.818,55.751,2.818,54.959L2.818,16.91C2.818,16.118,3.435,15.501,4.228,15.501L18.32,15.501C19.476,15.501,20.257,14.797,20.83,14.136C21.402,13.475,21.887,12.727,22.327,12.022C22.767,11.318,23.169,10.657,23.516,10.261C23.863,9.864,24.044,9.864,23.956,9.864ZM35.23,15.501C25.129,15.501,16.91,23.72,16.91,33.821C16.91,43.922,25.129,52.14,35.23,52.14C45.331,52.14,53.55,43.922,53.55,33.821C53.55,23.72,45.331,15.501,35.23,15.501ZM35.23,18.32C43.806,18.32,50.731,25.244,50.731,33.821C50.731,42.397,43.806,49.322,35.23,49.322C26.654,49.322,19.729,42.397,19.729,33.821C19.729,25.244,26.654,18.32,35.23,18.32ZM11.274,19.729C9.716,19.729,8.455,20.989,8.455,22.547C8.455,24.105,9.716,25.366,11.274,25.366L12.683,25.366C14.241,25.366,15.501,24.105,15.501,22.547C15.501,20.989,14.241,19.729,12.683,19.729ZM35.23,21.138C28.245,21.138,22.547,26.835,22.547,33.821C22.547,40.806,28.245,46.504,35.23,46.504C42.215,46.504,47.913,40.806,47.913,33.821C47.913,26.835,42.215,21.138,35.23,21.138ZM35.23,23.956C40.696,23.956,45.094,28.355,45.094,33.821C45.094,39.287,40.696,43.685,35.23,43.685C29.764,43.685,25.366,39.287,25.366,33.821C25.366,28.355,29.764,23.956,35.23,23.956ZM35.23,23.956"/>
</g>
  <g id="Heavy-M" transform="matrix(1.0,0.0,0.0,1.0,2602.74001953125,1055.5400390625)">  <path stroke-dasharray="none" stroke-opacity="1" stroke-linejoin="miter" stroke-linecap="butt" fill-rule="nonzero" stroke-width="1px" stroke-miterlimit="4" fill-opacity="1" stroke="none" fill="#000000" d="M23.956,7.046C22.8,7.046,21.986,7.751,21.402,8.411C20.819,9.072,20.345,9.82,19.905,10.525C19.465,11.23,19.063,11.89,18.716,12.286C18.457,12.584,18.287,12.666,18.276,12.683L4.228,12.683C1.91,12.683,0,14.593,0,16.91L0,54.959C0,57.276,1.91,59.186,4.228,59.186L66.232,59.186C68.55,59.186,70.46,57.276,70.46,54.959L70.46,16.91C70.46,14.593,68.55,12.683,66.232,12.683L52.184,12.683C52.19,12.688,52.173,12.683,52.14,12.683C52.096,12.65,51.97,12.545,51.744,12.286C51.397,11.89,50.995,11.23,50.555,10.525C50.115,9.82,49.641,9.072,49.058,8.411C48.474,7.751,47.66,7.046,46.504,7.046ZM23.956,9.864L46.504,9.864C46.415,9.864,46.597,9.864,46.944,10.261C47.291,10.657,47.693,11.318,48.133,12.022C48.573,12.727,49.058,13.475,49.63,14.136C50.203,14.797,50.984,15.501,52.14,15.501L66.232,15.501C67.025,15.501,67.642,16.118,67.642,16.91L67.642,54.959C67.642,55.751,67.025,56.368,66.232,56.368L4.228,56.368C3.435,56.368,2.818,55.751,2.818,54.959L2.818,16.91C2.818,16.118,3.435,15.501,4.228,15.501L18.32,15.501C19.476,15.501,20.257,14.797,20.83,14.136C21.402,13.475,21.887,12.727,22.327,12.022C22.767,11.318,23.169,10.657,23.516,10.261C23.863,9.864,24.044,9.864,23.956,9.864ZM35.23,15.501C25.129,15.501,16.91,23.72,16.91,33.821C16.91,43.922,25.129,52.14,35.23,52.14C45.331,52.14,53.55,43.922,53.55,33.821C53.55,23.72,45.331,15.501,35.23,15.501ZM35.23,18.32C43.806,18.32,50.731,25.244,50.731,33.821C50.731,42.397,43.806,49.322,35.23,49.322C26.654,49.322,19.729,42.397,19.729,33.821C19.729,25.244,26.654,18.32,35.23,18.32ZM11.274,19.729C9.716,19.729,8.455,20.989,8.455,22.547C8.455,24.105,9.716,25.366,11.274,25.366L12.683,25.366C14.241,25.366,15.501,24.105,15.501,22.547C15.501,20.989,14.241,19.729,12.683,19.729ZM35.23,21.138C28.245,21.138,22.547,26.835,22.547,33.821C22.547,40.806,28.245,46.504,35.23,46.504C42.215,46.504,47.913,40.806,47.913,33.821C47.913,26.835,42.215,21.138,35.23,21.138ZM35.23,23.956C40.696,23.956,45.094,28.355,45.094,33.821C45.094,39.287,40.696,43.685,35.23,43.685C29.764,43.685,25.366,39.287,25.366,33.821C25.366,28.355,29.764,23.956,35.23,23.956ZM35.23,23.956"/>
</g>
  <g id="Bold-M" transform="matrix(1.0,0.0,0.0,1.0,2306.0300195312498,1055.5400390625)">  <path fill="#000000" stroke-linejoin="miter" fill-opacity="1" stroke-width="1px" stroke-opacity="1" stroke-linecap="butt" stroke-miterlimit="4" stroke="none" fill-rule="nonzero" stroke-dasharray="none" d="M23.956,7.046C22.8,7.046,21.986,7.751,21.402,8.411C20.819,9.072,20.345,9.82,19.905,10.525C19.465,11.23,19.063,11.89,18.716,12.286C18.457,12.584,18.287,12.666,18.276,12.683L4.228,12.683C1.91,12.683,0,14.593,0,16.91L0,54.959C0,57.276,1.91,59.186,4.228,59.186L66.232,59.186C68.55,59.186,70.46,57.276,70.46,54.959L70.46,16.91C70.46,14.593,68.55,12.683,66.232,12.683L52.184,12.683C52.19,12.688,52.173,12.683,52.14,12.683C52.096,12.65,51.97,12.545,51.744,12.286C51.397,11.89,50.995,11.23,50.555,10.525C50.115,9.82,49.641,9.072,49.058,8.411C48.474,7.751,47.66,7.046,46.504,7.046ZM23.956,9.864L46.504,9.864C46.415,9.864,46.597,9.864,46.944,10.261C47.291,10.657,47.693,11.318,48.133,12.022C48.573,12.727,49.058,13.475,49.63,14.136C50.203,14.797,50.984,15.501,52.14,15.501L66.232,15.501C67.025,15.501,67.642,16.118,67.642,16.91L67.642,54.959C67.642,55.751,67.025,56.368,66.232,56.368L4.228,56.368C3.435,56.368,2.818,55.751,2.818,54.959L2.818,16.91C2.818,16.118,3.435,15.501,4.228,15.501L18.32,15.501C19.476,15.501,20.257,14.797,20.83,14.136C21.402,13.475,21.887,12.727,22.327,12.022C22.767,11.318,23.169,10.657,23.516,10.261C23.863,9.864,24.044,9.864,23.956,9.864ZM35.23,15.501C25.129,15.501,16.91,23.72,16.91,33.821C16.91,43.922,25.129,52.14,35.23,52.14C45.331,52.14,53.55,43.922,53.55,33.821C53.55,23.72,45.331,15.501,35.23,15.501ZM35.23,18.32C43.806,18.32,50.731,25.244,50.731,33.821C50.731,42.397,43.806,49.322,35.23,49.322C26.654,49.322,19.729,42.397,19.729,33.821C19.729,25.244,26.654,18.32,35.23,18.32ZM11.274,19.729C9.716,19.729,8.455,20.989,8.455,22.547C8.455,24.105,9.716,25.366,11.274,25.366L12.683,25.366C14.241,25.366,15.501,24.105,15.501,22.547C15.501,20.989,14.241,19.729,12.683,19.729ZM35.23,21.138C28.245,21.138,22.547,26.835,22.547,33.821C22.547,40.806,28.245,46.504,35.23,46.504C42.215,46.504,47.913,40.806,47.913,33.821C47.913,26.835,42.215,21.138,35.23,21.138ZM35.23,23.956C40.696,23.956,45.094,28.355,45.094,33.821C45.094,39.287,40.696,43.685,35.23,43.685C29.764,43.685,25.366,39.287,25.366,33.821C25.366,28.355,29.764,23.956,35.23,23.956ZM35.23,23.956"/>
</g>
  <g id="Semibold-M" transform="matrix(1.0,0.0,0.0,1.0,2009.32001953125,1055.5400390625)">  <path stroke="none" stroke-linecap="butt" stroke-opacity="1" stroke-width="1px" fill-opacity="1" stroke-dasharray="none" stroke-linejoin="miter" fill-rule="nonzero" stroke-miterlimit="4" fill="#000000" d="M23.956,7.046C22.8,7.046,21.986,7.751,21.402,8.411C20.819,9.072,20.345,9.82,19.905,10.525C19.465,11.23,19.063,11.89,18.716,12.286C18.457,12.584,18.287,12.666,18.276,12.683L4.228,12.683C1.91,12.683,0,14.593,0,16.91L0,54.959C0,57.276,1.91,59.186,4.228,59.186L66.232,59.186C68.55,59.186,70.46,57.276,70.46,54.959L70.46,16.91C70.46,14.593,68.55,12.683,66.232,12.683L52.184,12.683C52.19,12.688,52.173,12.683,52.14,12.683C52.096,12.65,51.97,12.545,51.744,12.286C51.397,11.89,50.995,11.23,50.555,10.525C50.115,9.82,49.641,9.072,49.058,8.411C48.474,7.751,47.66,7.046,46.504,7.046ZM23.956,9.864L46.504,9.864C46.415,9.864,46.597,9.864,46.944,10.261C47.291,10.657,47.693,11.318,48.133,12.022C48.573,12.727,49.058,13.475,49.63,14.136C50.203,14.797,50.984,15.501,52.14,15.501L66.232,15.501C67.025,15.501,67.642,16.118,67.642,16.91L67.642,54.959C67.642,55.751,67.025,56.368,66.232,56.368L4.228,56.368C3.435,56.368,2.818,55.751,2.818,54.959L2.818,16.91C2.818,16.118,3.435,15.501,4.228,15.501L18.32,15.501C19.476,15.501,20.257,14.797,20.83,14.136C21.402,13.475,21.887,12.727,22.327,12.022C22.767,11.318,23.169,10.657,23.516,10.261C23.863,9.864,24.044,9.864,23.956,9.864ZM35.23,15.501C25.129,15.501,16.91,23.72,16.91,33.821C16.91,43.922,25.129,52.14,35.23,52.14C45.331,52.14,53.55,43.922,53.55,33.821C53.55,23.72,45.331,15.501,35.23,15.501ZM35.23,18.32C43.806,18.32,50.731,25.244,50.731,33.821C50.731,42.397,43.806,49.322,35.23,49.322C26.654,49.322,19.729,42.397,19.729,33.821C19.729,25.244,26.654,18.32,35.23,18.32ZM11.274,19.729C9.716,19.729,8.455,20.989,8.455,22.547C8.455,24.105,9.716,25.366,11.274,25.366L12.683,25.366C14.241,25.366,15.501,24.105,15.501,22.547C15.501,20.989,14.241,19.729,12.683,19.729ZM35.23,21.138C28.245,21.138,22.547,26.835,22.547,33.821C22.547,40.806,28.245,46.504,35.23,46.504C42.215,46.504,47.913,40.806,47.913,33.821C47.913,26.835,42.215,21.138,35.23,21.138ZM35.23,23.956C40.696,23.956,45.094,28.355,45.094,33.821C45.094,39.287,40.696,43.685,35.23,43.685C29.764,43.685,25.366,39.287,25.366,33.821C25.366,28.355,29.764,23.956,35.23,23.956ZM35.23,23.956"/>
</g>
  <g id="Medium-M" transform="matrix(1.0,0.0,0.0,1.0,1712.61001953125,1055.5400390625)">  <path stroke-opacity="1" stroke-width="1px" stroke-linejoin="miter" fill="#000000" stroke-linecap="butt" stroke="none" fill-opacity="1" fill-rule="nonzero" stroke-miterlimit="4" stroke-dasharray="none" d="M23.956,7.046C22.8,7.046,21.986,7.751,21.402,8.411C20.819,9.072,20.345,9.82,19.905,10.525C19.465,11.23,19.063,11.89,18.716,12.286C18.457,12.584,18.287,12.666,18.276,12.683L4.228,12.683C1.91,12.683,0,14.593,0,16.91L0,54.959C0,57.276,1.91,59.186,4.228,59.186L66.232,59.186C68.55,59.186,70.46,57.276,70.46,54.959L70.46,16.91C70.46,14.593,68.55,12.683,66.232,12.683L52.184,12.683C52.19,12.688,52.173,12.683,52.14,12.683C52.096,12.65,51.97,12.545,51.744,12.286C51.397,11.89,50.995,11.23,50.555,10.525C50.115,9.82,49.641,9.072,49.058,8.411C48.474,7.751,47.66,7.046,46.504,7.046ZM23.956,9.864L46.504,9.864C46.415,9.864,46.597,9.864,46.944,10.261C47.291,10.657,47.693,11.318,48.133,12.022C48.573,12.727,49.058,13.475,49.63,14.136C50.203,14.797,50.984,15.501,52.14,15.501L66.232,15.501C67.025,15.501,67.642,16.118,67.642,16.91L67.642,54.959C67.642,55.751,67.025,56.368,66.232,56.368L4.228,56.368C3.435,56.368,2.818,55.751,2.818,54.959L2.818,16.91C2.818,16.118,3.435,15.501,4.228,15.501L18.32,15.501C19.476,15.501,20.257,14.797,20.83,14.136C21.402,13.475,21.887,12.727,22.327,12.022C22.767,11.318,23.169,10.657,23.516,10.261C23.863,9.864,24.044,9.864,23.956,9.864ZM35.23,15.501C25.129,15.501,16.91,23.72,16.91,33.821C16.91,43.922,25.129,52.14,35.23,52.14C45.331,52.14,53.55,43.922,53.55,33.821C53.55,23.72,45.331,15.501,35.23,15.501ZM35.23,18.32C43.806,18.32,50.731,25.244,50.731,33.821C50.731,42.397,43.806,49.322,35.23,49.322C26.654,49.322,19.729,42.397,19.729,33.821C19.729,25.244,26.654,18.32,35.23,18.32ZM11.274,19.729C9.716,19.729,8.455,20.989,8.455,22.547C8.455,24.105,9.716,25.366,11.274,25.366L12.683,25.366C14.241,25.366,15.501,24.105,15.501,22.547C15.501,20.989,14.241,19.729,12.683,19.729ZM35.23,21.138C28.245,21.138,22.547,26.835,22.547,33.821C22.547,40.806,28.245,46.504,35.23,46.504C42.215,46.504,47.913,40.806,47.913,33.821C47.913,26.835,42.215,21.138,35.23,21.138ZM35.23,23.956C40.696,23.956,45.094,28.355,45.094,33.821C45.094,39.287,40.696,43.685,35.23,43.685C29.764,43.685,25.366,39.287,25.366,33.821C25.366,28.355,29.764,23.956,35.23,23.956ZM35.23,23.956"/>
</g>
  <g id="Regular-M" transform="matrix(1.0,0.0,0.0,1.0,1415.9000195312499,1055.5400390625)">  <path stroke-linejoin="miter" stroke-dasharray="none" stroke-miterlimit="4" fill="#000000" fill-opacity="1" fill-rule="nonzero" stroke="none" stroke-opacity="1" stroke-width="1px" stroke-linecap="butt" d="M23.956,7.046C22.8,7.046,21.986,7.751,21.402,8.411C20.819,9.072,20.345,9.82,19.905,10.525C19.465,11.23,19.063,11.89,18.716,12.286C18.457,12.584,18.287,12.666,18.276,12.683L4.228,12.683C1.91,12.683,0,14.593,0,16.91L0,54.959C0,57.276,1.91,59.186,4.228,59.186L66.232,59.186C68.55,59.186,70.46,57.276,70.46,54.959L70.46,16.91C70.46,14.593,68.55,12.683,66.232,12.683L52.184,12.683C52.19,12.688,52.173,12.683,52.14,12.683C52.096,12.65,51.97,12.545,51.744,12.286C51.397,11.89,50.995,11.23,50.555,10.525C50.115,9.82,49.641,9.072,49.058,8.411C48.474,7.751,47.66,7.046,46.504,7.046ZM23.956,9.864L46.504,9.864C46.415,9.864,46.597,9.864,46.944,10.261C47.291,10.657,47.693,11.318,48.133,12.022C48.573,12.727,49.058,13.475,49.63,14.136C50.203,14.797,50.984,15.501,52.14,15.501L66.232,15.501C67.025,15.501,67.642,16.118,67.642,16.91L67.642,54.959C67.642,55.751,67.025,56.368,66.232,56.368L4.228,56.368C3.435,56.368,2.818,55.751,2.818,54.959L2.818,16.91C2.818,16.118,3.435,15.501,4.228,15.501L18.32,15.501C19.476,15.501,20.257,14.797,20.83,14.136C21.402,13.475,21.887,12.727,22.327,12.022C22.767,11.318,23.169,10.657,23.516,10.261C23.863,9.864,24.044,9.864,23.956,9.864ZM35.23,15.501C25.129,15.501,16.91,23.72,16.91,33.821C16.91,43.922,25.129,52.14,35.23,52.14C45.331,52.14,53.55,43.922,53.55,33.821C53.55,23.72,45.331,15.501,35.23,15.501ZM35.23,18.32C43.806,18.32,50.731,25.244,50.731,33.821C50.731,42.397,43.806,49.322,35.23,49.322C26.654,49.322,19.729,42.397,19.729,33.821C19.729,25.244,26.654,18.32,35.23,18.32ZM11.274,19.729C9.716,19.729,8.455,20.989,8.455,22.547C8.455,24.105,9.716,25.366,11.274,25.366L12.683,25.366C14.241,25.366,15.501,24.105,15.501,22.547C15.501,20.989,14.241,19.729,12.683,19.729ZM35.23,21.138C28.245,21.138,22.547,26.835,22.547,33.821C22.547,40.806,28.245,46.504,35.23,46.504C42.215,46.504,47.913,40.806,47.913,33.821C47.913,26.835,42.215,21.138,35.23,21.138ZM35.23,23.956C40.696,23.956,45.094,28.355,45.094,33.821C45.094,39.287,40.696,43.685,35.23,43.685C29.764,43.685,25.366,39.287,25.366,33.821C25.366,28.355,29.764,23.956,35.23,23.956ZM35.23,23.956"/>
</g>
  <g id="Light-M" transform="matrix(1.0,0.0,0.0,1.0,1119.19001953125,1055.5400390625)">  <path stroke-linejoin="miter" stroke-width="1px" fill-opacity="1" stroke-opacity="1" stroke="none" stroke-linecap="butt" fill-rule="nonzero" stroke-miterlimit="4" stroke-dasharray="none" fill="#000000" d="M23.956,7.046C22.8,7.046,21.986,7.751,21.402,8.411C20.819,9.072,20.345,9.82,19.905,10.525C19.465,11.23,19.063,11.89,18.716,12.286C18.457,12.584,18.287,12.666,18.276,12.683L4.228,12.683C1.91,12.683,0,14.593,0,16.91L0,54.959C0,57.276,1.91,59.186,4.228,59.186L66.232,59.186C68.55,59.186,70.46,57.276,70.46,54.959L70.46,16.91C70.46,14.593,68.55,12.683,66.232,12.683L52.184,12.683C52.19,12.688,52.173,12.683,52.14,12.683C52.096,12.65,51.97,12.545,51.744,12.286C51.397,11.89,50.995,11.23,50.555,10.525C50.115,9.82,49.641,9.072,49.058,8.411C48.474,7.751,47.66,7.046,46.504,7.046ZM23.956,9.864L46.504,9.864C46.415,9.864,46.597,9.864,46.944,10.261C47.291,10.657,47.693,11.318,48.133,12.022C48.573,12.727,49.058,13.475,49.63,14.136C50.203,14.797,50.984,15.501,52.14,15.501L66.232,15.501C67.025,15.501,67.642,16.118,67.642,16.91L67.642,54.959C67.642,55.751,67.025,56.368,66.232,56.368L4.228,56.368C3.435,56.368,2.818,55.751,2.818,54.959L2.818,16.91C2.818,16.118,3.435,15.501,4.228,15.501L18.32,15.501C19.476,15.501,20.257,14.797,20.83,14.136C21.402,13.475,21.887,12.727,22.327,12.022C22.767,11.318,23.169,10.657,23.516,10.261C23.863,9.864,24.044,9.864,23.956,9.864ZM35.23,15.501C25.129,15.501,16.91,23.72,16.91,33.821C16.91,43.922,25.129,52.14,35.23,52.14C45.331,52.14,53.55,43.922,53.55,33.821C53.55,23.72,45.331,15.501,35.23,15.501ZM35.23,18.32C43.806,18.32,50.731,25.244,50.731,33.821C50.731,42.397,43.806,49.322,35.23,49.322C26.654,49.322,19.729,42.397,19.729,33.821C19.729,25.244,26.654,18.32,35.23,18.32ZM11.274,19.729C9.716,19.729,8.455,20.989,8.455,22.547C8.455,24.105,9.716,25.366,11.274,25.366L12.683,25.366C14.241,25.366,15.501,24.105,15.501,22.547C15.501,20.989,14.241,19.729,12.683,19.729ZM35.23,21.138C28.245,21.138,22.547,26.835,22.547,33.821C22.547,40.806,28.245,46.504,35.23,46.504C42.215,46.504,47.913,40.806,47.913,33.821C47.913,26.835,42.215,21.138,35.23,21.138ZM35.23,23.956C40.696,23.956,45.094,28.355,45.094,33.821C45.094,39.287,40.696,43.685,35.23,43.685C29.764,43.685,25.366,39.287,25.366,33.821C25.366,28.355,29.764,23.956,35.23,23.956ZM35.23,23.956"/>
</g>
  <g id="Thin-M" transform="matrix(1.0,0.0,0.0,1.0,822.48001953125,1055.5400390625)">  <path stroke-linecap="butt" stroke="none" fill="#000000" stroke-linejoin="miter" stroke-opacity="1" fill-opacity="1" stroke-width="1px" stroke-miterlimit="4" fill-rule="nonzero" stroke-dasharray="none" d="M23.956,7.046C22.8,7.046,21.986,7.751,21.402,8.411C20.819,9.072,20.345,9.82,19.905,10.525C19.465,11.23,19.063,11.89,18.716,12.286C18.457,12.584,18.287,12.666,18.276,12.683L4.228,12.683C1.91,12.683,0,14.593,0,16.91L0,54.959C0,57.276,1.91,59.186,4.228,59.186L66.232,59.186C68.55,59.186,70.46,57.276,70.46,54.959L70.46,16.91C70.46,14.593,68.55,12.683,66.232,12.683L52.184,12.683C52.19,12.688,52.173,12.683,52.14,12.683C52.096,12.65,51.97,12.545,51.744,12.286C51.397,11.89,50.995,11.23,50.555,10.525C50.115,9.82,49.641,9.072,49.058,8.411C48.474,7.751,47.66,7.046,46.504,7.046ZM23.956,9.864L46.504,9.864C46.415,9.864,46.597,9.864,46.944,10.261C47.291,10.657,47.693,11.318,48.133,12.022C48.573,12.727,49.058,13.475,49.63,14.136C50.203,14.797,50.984,15.501,52.14,15.501L66.232,15.501C67.025,15.501,67.642,16.118,67.642,16.91L67.642,54.959C67.642,55.751,67.025,56.368,66.232,56.368L4.228,56.368C3.435,56.368,2.818,55.751,2.818,54.959L2.818,16.91C2.818,16.118,3.435,15.501,4.228,15.501L18.32,15.501C19.476,15.501,20.257,14.797,20.83,14.136C21.402,13.475,21.887,12.727,22.327,12.022C22.767,11.318,23.169,10.657,23.516,10.261C23.863,9.864,24.044,9.864,23.956,9.864ZM35.23,15.501C25.129,15.501,16.91,23.72,16.91,33.821C16.91,43.922,25.129,52.14,35.23,52.14C45.331,52.14,53.55,43.922,53.55,33.821C53.55,23.72,45.331,15.501,35.23,15.501ZM35.23,18.32C43.806,18.32,50.731,25.244,50.731,33.821C50.731,42.397,43.806,49.322,35.23,49.322C26.654,49.322,19.729,42.397,19.729,33.821C19.729,25.244,26.654,18.32,35.23,18.32ZM11.274,19.729C9.716,19.729,8.455,20.989,8.455,22.547C8.455,24.105,9.716,25.366,11.274,25.366L12.683,25.366C14.241,25.366,15.501,24.105,15.501,22.547C15.501,20.989,14.241,19.729,12.683,19.729ZM35.23,21.138C28.245,21.138,22.547,26.835,22.547,33.821C22.547,40.806,28.245,46.504,35.23,46.504C42.215,46.504,47.913,40.806,47.913,33.821C47.913,26.835,42.215,21.138,35.23,21.138ZM35.23,23.956C40.696,23.956,45.094,28.355,45.094,33.821C45.094,39.287,40.696,43.685,35.23,43.685C29.764,43.685,25.366,39.287,25.366,33.821C25.366,28.355,29.764,23.956,35.23,23.956ZM35.23,23.956"/>
</g>
  <g id="Ultralight-M" transform="matrix(1.0,0.0,0.0,1.0,525.77001953125,1055.5400390625)">  <path stroke-opacity="1" stroke-miterlimit="4" fill-opacity="1" fill="#000000" stroke-width="1px" stroke-dasharray="none" stroke="none" stroke-linecap="butt" stroke-linejoin="miter" fill-rule="nonzero" d="M23.956,7.046C22.8,7.046,21.986,7.751,21.402,8.411C20.819,9.072,20.345,9.82,19.905,10.525C19.465,11.23,19.063,11.89,18.716,12.286C18.457,12.584,18.287,12.666,18.276,12.683L4.228,12.683C1.91,12.683,0,14.593,0,16.91L0,54.959C0,57.276,1.91,59.186,4.228,59.186L66.232,59.186C68.55,59.186,70.46,57.276,70.46,54.959L70.46,16.91C70.46,14.593,68.55,12.683,66.232,12.683L52.184,12.683C52.19,12.688,52.173,12.683,52.14,12.683C52.096,12.65,51.97,12.545,51.744,12.286C51.397,11.89,50.995,11.23,50.555,10.525C50.115,9.82,49.641,9.072,49.058,8.411C48.474,7.751,47.66,7.046,46.504,7.046ZM23.956,9.864L46.504,9.864C46.415,9.864,46.597,9.864,46.944,10.261C47.291,10.657,47.693,11.318,48.133,12.022C48.573,12.727,49.058,13.475,49.63,14.136C50.203,14.797,50.984,15.501,52.14,15.501L66.232,15.501C67.025,15.501,67.642,16.118,67.642,16.91L67.642,54.959C67.642,55.751,67.025,56.368,66.232,56.368L4.228,56.368C3.435,56.368,2.818,55.751,2.818,54.959L2.818,16.91C2.818,16.118,3.435,15.501,4.228,15.501L18.32,15.501C19.476,15.501,20.257,14.797,20.83,14.136C21.402,13.475,21.887,12.727,22.327,12.022C22.767,11.318,23.169,10.657,23.516,10.261C23.863,9.864,24.044,9.864,23.956,9.864ZM35.23,15.501C25.129,15.501,16.91,23.72,16.91,33.821C16.91,43.922,25.129,52.14,35.23,52.14C45.331,52.14,53.55,43.922,53.55,33.821C53.55,23.72,45.331,15.501,35.23,15.501ZM35.23,18.32C43.806,18.32,50.731,25.244,50.731,33.821C50.731,42.397,43.806,49.322,35.23,49.322C26.654,49.322,19.729,42.397,19.729,33.821C19.729,25.244,26.654,18.32,35.23,18.32ZM11.274,19.729C9.716,19.729,8.455,20.989,8.455,22.547C8.455,24.105,9.716,25.366,11.274,25.366L12.683,25.366C14.241,25.366,15.501,24.105,15.501,22.547C15.501,20.989,14.241,19.729,12.683,19.729ZM35.23,21.138C28.245,21.138,22.547,26.835,22.547,33.821C22.547,40.806,28.245,46.504,35.23,46.504C42.215,46.504,47.913,40.806,47.913,33.821C47.913,26.835,42.215,21.138,35.23,21.138ZM35.23,23.956C40.696,23.956,45.094,28.355,45.094,33.821C45.094,39.287,40.696,43.685,35.23,43.685C29.764,43.685,25.366,39.287,25.366,33.821C25.366,28.355,29.764,23.956,35.23,23.956ZM35.23,23.956"/>
</g>
  <g id="Black-S" transform="matrix(1.0,0.0,0.0,1.0,2907.0949252929686,633.1849448242187)">  <path fill-opacity="1" stroke-linejoin="miter" fill-rule="nonzero" stroke-dasharray="none" stroke-linecap="butt" stroke="none" stroke-miterlimit="4" fill="#000000" stroke-width="1px" stroke-opacity="1" d="M18.758,5.517C17.853,5.517,17.215,6.069,16.758,6.586C16.301,7.103,15.93,7.689,15.586,8.241C15.241,8.793,14.926,9.31,14.655,9.62C14.452,9.853,14.318,9.918,14.31,9.931L3.31,9.931C1.496,9.931,0,11.426,0,13.241L0,43.033C0,44.847,1.496,46.343,3.31,46.343L51.86,46.343C53.675,46.343,55.17,44.847,55.17,43.033L55.17,13.241C55.17,11.426,53.675,9.931,51.86,9.931L40.86,9.931C40.865,9.935,40.852,9.931,40.826,9.931C40.791,9.905,40.692,9.823,40.516,9.62C40.244,9.31,39.929,8.793,39.585,8.241C39.24,7.689,38.869,7.103,38.412,6.586C37.955,6.069,37.317,5.517,36.412,5.517ZM18.758,7.724L36.412,7.724C36.343,7.724,36.486,7.724,36.757,8.034C37.029,8.344,37.343,8.862,37.688,9.413C38.033,9.965,38.412,10.551,38.86,11.069C39.309,11.586,39.921,12.137,40.826,12.137L51.86,12.137C52.481,12.137,52.963,12.62,52.963,13.241L52.963,43.033C52.963,43.653,52.481,44.136,51.86,44.136L3.31,44.136C2.69,44.136,2.207,43.653,2.207,43.033L2.207,13.241C2.207,12.62,2.69,12.137,3.31,12.137L14.344,12.137C15.249,12.137,15.861,11.586,16.31,11.069C16.758,10.551,17.137,9.965,17.482,9.413C17.827,8.862,18.141,8.344,18.413,8.034C18.685,7.724,18.827,7.724,18.758,7.724ZM27.585,12.137C19.676,12.137,13.241,18.573,13.241,26.482C13.241,34.391,19.676,40.826,27.585,40.826C35.494,40.826,41.929,34.391,41.929,26.482C41.929,18.573,35.494,12.137,27.585,12.137ZM27.585,14.344C34.3,14.344,39.723,19.766,39.723,26.482C39.723,33.197,34.3,38.619,27.585,38.619C20.87,38.619,15.448,33.197,15.448,26.482C15.448,19.766,20.87,14.344,27.585,14.344ZM8.827,15.448C7.607,15.448,6.62,16.435,6.62,17.654C6.62,18.874,7.607,19.861,8.827,19.861L9.931,19.861C11.15,19.861,12.137,18.874,12.137,17.654C12.137,16.435,11.15,15.448,9.931,15.448ZM27.585,16.551C22.115,16.551,17.654,21.012,17.654,26.482C17.654,31.951,22.115,36.412,27.585,36.412C33.055,36.412,37.516,31.951,37.516,26.482C37.516,21.012,33.055,16.551,27.585,16.551ZM27.585,18.758C31.865,18.758,35.309,22.202,35.309,26.482C35.309,30.762,31.865,34.205,27.585,34.205C23.305,34.205,19.861,30.762,19.861,26.482C19.861,22.202,23.305,18.758,27.585,18.758ZM27.585,18.758"/>
</g>
  <g id="Heavy-S" transform="matrix(1.0,0.0,0.0,1.0,2610.3849252929685,633.1849448242187)">  <path stroke-dasharray="none" stroke-opacity="1" stroke-linejoin="miter" stroke-linecap="butt" fill-rule="nonzero" stroke-width="1px" stroke-miterlimit="4" fill-opacity="1" stroke="none" fill="#000000" d="M18.758,5.517C17.853,5.517,17.215,6.069,16.758,6.586C16.301,7.103,15.93,7.689,15.586,8.241C15.241,8.793,14.926,9.31,14.655,9.62C14.452,9.853,14.318,9.918,14.31,9.931L3.31,9.931C1.496,9.931,0,11.426,0,13.241L0,43.033C0,44.847,1.496,46.343,3.31,46.343L51.86,46.343C53.675,46.343,55.17,44.847,55.17,43.033L55.17,13.241C55.17,11.426,53.675,9.931,51.86,9.931L40.86,9.931C40.865,9.935,40.852,9.931,40.826,9.931C40.791,9.905,40.692,9.823,40.516,9.62C40.244,9.31,39.929,8.793,39.585,8.241C39.24,7.689,38.869,7.103,38.412,6.586C37.955,6.069,37.317,5.517,36.412,5.517ZM18.758,7.724L36.412,7.724C36.343,7.724,36.486,7.724,36.757,8.034C37.029,8.344,37.343,8.862,37.688,9.413C38.033,9.965,38.412,10.551,38.86,11.069C39.309,11.586,39.921,12.137,40.826,12.137L51.86,12.137C52.481,12.137,52.963,12.62,52.963,13.241L52.963,43.033C52.963,43.653,52.481,44.136,51.86,44.136L3.31,44.136C2.69,44.136,2.207,43.653,2.207,43.033L2.207,13.241C2.207,12.62,2.69,12.137,3.31,12.137L14.344,12.137C15.249,12.137,15.861,11.586,16.31,11.069C16.758,10.551,17.137,9.965,17.482,9.413C17.827,8.862,18.141,8.344,18.413,8.034C18.685,7.724,18.827,7.724,18.758,7.724ZM27.585,12.137C19.676,12.137,13.241,18.573,13.241,26.482C13.241,34.391,19.676,40.826,27.585,40.826C35.494,40.826,41.929,34.391,41.929,26.482C41.929,18.573,35.494,12.137,27.585,12.137ZM27.585,14.344C34.3,14.344,39.723,19.766,39.723,26.482C39.723,33.197,34.3,38.619,27.585,38.619C20.87,38.619,15.448,33.197,15.448,26.482C15.448,19.766,20.87,14.344,27.585,14.344ZM8.827,15.448C7.607,15.448,6.62,16.435,6.62,17.654C6.62,18.874,7.607,19.861,8.827,19.861L9.931,19.861C11.15,19.861,12.137,18.874,12.137,17.654C12.137,16.435,11.15,15.448,9.931,15.448ZM27.585,16.551C22.115,16.551,17.654,21.012,17.654,26.482C17.654,31.951,22.115,36.412,27.585,36.412C33.055,36.412,37.516,31.951,37.516,26.482C37.516,21.012,33.055,16.551,27.585,16.551ZM27.585,18.758C31.865,18.758,35.309,22.202,35.309,26.482C35.309,30.762,31.865,34.205,27.585,34.205C23.305,34.205,19.861,30.762,19.861,26.482C19.861,22.202,23.305,18.758,27.585,18.758ZM27.585,18.758"/>
</g>
  <g id="Bold-S" transform="matrix(1.0,0.0,0.0,1.0,2313.6749252929685,633.1849448242187)">  <path fill="#000000" stroke-linejoin="miter" fill-opacity="1" stroke-width="1px" stroke-opacity="1" stroke-linecap="butt" stroke-miterlimit="4" stroke="none" fill-rule="nonzero" stroke-dasharray="none" d="M18.758,5.517C17.853,5.517,17.215,6.069,16.758,6.586C16.301,7.103,15.93,7.689,15.586,8.241C15.241,8.793,14.926,9.31,14.655,9.62C14.452,9.853,14.318,9.918,14.31,9.931L3.31,9.931C1.496,9.931,0,11.426,0,13.241L0,43.033C0,44.847,1.496,46.343,3.31,46.343L51.86,46.343C53.675,46.343,55.17,44.847,55.17,43.033L55.17,13.241C55.17,11.426,53.675,9.931,51.86,9.931L40.86,9.931C40.865,9.935,40.852,9.931,40.826,9.931C40.791,9.905,40.692,9.823,40.516,9.62C40.244,9.31,39.929,8.793,39.585,8.241C39.24,7.689,38.869,7.103,38.412,6.586C37.955,6.069,37.317,5.517,36.412,5.517ZM18.758,7.724L36.412,7.724C36.343,7.724,36.486,7.724,36.757,8.034C37.029,8.344,37.343,8.862,37.688,9.413C38.033,9.965,38.412,10.551,38.86,11.069C39.309,11.586,39.921,12.137,40.826,12.137L51.86,12.137C52.481,12.137,52.963,12.62,52.963,13.241L52.963,43.033C52.963,43.653,52.481,44.136,51.86,44.136L3.31,44.136C2.69,44.136,2.207,43.653,2.207,43.033L2.207,13.241C2.207,12.62,2.69,12.137,3.31,12.137L14.344,12.137C15.249,12.137,15.861,11.586,16.31,11.069C16.758,10.551,17.137,9.965,17.482,9.413C17.827,8.862,18.141,8.344,18.413,8.034C18.685,7.724,18.827,7.724,18.758,7.724ZM27.585,12.137C19.676,12.137,13.241,18.573,13.241,26.482C13.241,34.391,19.676,40.826,27.585,40.826C35.494,40.826,41.929,34.391,41.929,26.482C41.929,18.573,35.494,12.137,27.585,12.137ZM27.585,14.344C34.3,14.344,39.723,19.766,39.723,26.482C39.723,33.197,34.3,38.619,27.585,38.619C20.87,38.619,15.448,33.197,15.448,26.482C15.448,19.766,20.87,14.344,27.585,14.344ZM8.827,15.448C7.607,15.448,6.62,16.435,6.62,17.654C6.62,18.874,7.607,19.861,8.827,19.861L9.931,19.861C11.15,19.861,12.137,18.874,12.137,17.654C12.137,16.435,11.15,15.448,9.931,15.448ZM27.585,16.551C22.115,16.551,17.654,21.012,17.654,26.482C17.654,31.951,22.115,36.412,27.585,36.412C33.055,36.412,37.516,31.951,37.516,26.482C37.516,21.012,33.055,16.551,27.585,16.551ZM27.585,18.758C31.865,18.758,35.309,22.202,35.309,26.482C35.309,30.762,31.865,34.205,27.585,34.205C23.305,34.205,19.861,30.762,19.861,26.482C19.861,22.202,23.305,18.758,27.585,18.758ZM27.585,18.758"/>
</g>
  <g id="Semibold-S" transform="matrix(1.0,0.0,0.0,1.0,2016.9649252929687,633.1849448242187)">  <path stroke="none" stroke-linecap="butt" stroke-opacity="1" stroke-width="1px" fill-opacity="1" stroke-dasharray="none" stroke-linejoin="miter" fill-rule="nonzero" stroke-miterlimit="4" fill="#000000" d="M18.758,5.517C17.853,5.517,17.215,6.069,16.758,6.586C16.301,7.103,15.93,7.689,15.586,8.241C15.241,8.793,14.926,9.31,14.655,9.62C14.452,9.853,14.318,9.918,14.31,9.931L3.31,9.931C1.496,9.931,0,11.426,0,13.241L0,43.033C0,44.847,1.496,46.343,3.31,46.343L51.86,46.343C53.675,46.343,55.17,44.847,55.17,43.033L55.17,13.241C55.17,11.426,53.675,9.931,51.86,9.931L40.86,9.931C40.865,9.935,40.852,9.931,40.826,9.931C40.791,9.905,40.692,9.823,40.516,9.62C40.244,9.31,39.929,8.793,39.585,8.241C39.24,7.689,38.869,7.103,38.412,6.586C37.955,6.069,37.317,5.517,36.412,5.517ZM18.758,7.724L36.412,7.724C36.343,7.724,36.486,7.724,36.757,8.034C37.029,8.344,37.343,8.862,37.688,9.413C38.033,9.965,38.412,10.551,38.86,11.069C39.309,11.586,39.921,12.137,40.826,12.137L51.86,12.137C52.481,12.137,52.963,12.62,52.963,13.241L52.963,43.033C52.963,43.653,52.481,44.136,51.86,44.136L3.31,44.136C2.69,44.136,2.207,43.653,2.207,43.033L2.207,13.241C2.207,12.62,2.69,12.137,3.31,12.137L14.344,12.137C15.249,12.137,15.861,11.586,16.31,11.069C16.758,10.551,17.137,9.965,17.482,9.413C17.827,8.862,18.141,8.344,18.413,8.034C18.685,7.724,18.827,7.724,18.758,7.724ZM27.585,12.137C19.676,12.137,13.241,18.573,13.241,26.482C13.241,34.391,19.676,40.826,27.585,40.826C35.494,40.826,41.929,34.391,41.929,26.482C41.929,18.573,35.494,12.137,27.585,12.137ZM27.585,14.344C34.3,14.344,39.723,19.766,39.723,26.482C39.723,33.197,34.3,38.619,27.585,38.619C20.87,38.619,15.448,33.197,15.448,26.482C15.448,19.766,20.87,14.344,27.585,14.344ZM8.827,15.448C7.607,15.448,6.62,16.435,6.62,17.654C6.62,18.874,7.607,19.861,8.827,19.861L9.931,19.861C11.15,19.861,12.137,18.874,12.137,17.654C12.137,16.435,11.15,15.448,9.931,15.448ZM27.585,16.551C22.115,16.551,17.654,21.012,17.654,26.482C17.654,31.951,22.115,36.412,27.585,36.412C33.055,36.412,37.516,31.951,37.516,26.482C37.516,21.012,33.055,16.551,27.585,16.551ZM27.585,18.758C31.865,18.758,35.309,22.202,35.309,26.482C35.309,30.762,31.865,34.205,27.585,34.205C23.305,34.205,19.861,30.762,19.861,26.482C19.861,22.202,23.305,18.758,27.585,18.758ZM27.585,18.758"/>
</g>
  <g id="Medium-S" transform="matrix(1.0,0.0,0.0,1.0,1720.2549252929687,633.1849448242187)">  <path stroke-opacity="1" stroke-width="1px" stroke-linejoin="miter" fill="#000000" stroke-linecap="butt" stroke="none" fill-opacity="1" fill-rule="nonzero" stroke-miterlimit="4" stroke-dasharray="none" d="M18.758,5.517C17.853,5.517,17.215,6.069,16.758,6.586C16.301,7.103,15.93,7.689,15.586,8.241C15.241,8.793,14.926,9.31,14.655,9.62C14.452,9.853,14.318,9.918,14.31,9.931L3.31,9.931C1.496,9.931,0,11.426,0,13.241L0,43.033C0,44.847,1.496,46.343,3.31,46.343L51.86,46.343C53.675,46.343,55.17,44.847,55.17,43.033L55.17,13.241C55.17,11.426,53.675,9.931,51.86,9.931L40.86,9.931C40.865,9.935,40.852,9.931,40.826,9.931C40.791,9.905,40.692,9.823,40.516,9.62C40.244,9.31,39.929,8.793,39.585,8.241C39.24,7.689,38.869,7.103,38.412,6.586C37.955,6.069,37.317,5.517,36.412,5.517ZM18.758,7.724L36.412,7.724C36.343,7.724,36.486,7.724,36.757,8.034C37.029,8.344,37.343,8.862,37.688,9.413C38.033,9.965,38.412,10.551,38.86,11.069C39.309,11.586,39.921,12.137,40.826,12.137L51.86,12.137C52.481,12.137,52.963,12.62,52.963,13.241L52.963,43.033C52.963,43.653,52.481,44.136,51.86,44.136L3.31,44.136C2.69,44.136,2.207,43.653,2.207,43.033L2.207,13.241C2.207,12.62,2.69,12.137,3.31,12.137L14.344,12.137C15.249,12.137,15.861,11.586,16.31,11.069C16.758,10.551,17.137,9.965,17.482,9.413C17.827,8.862,18.141,8.344,18.413,8.034C18.685,7.724,18.827,7.724,18.758,7.724ZM27.585,12.137C19.676,12.137,13.241,18.573,13.241,26.482C13.241,34.391,19.676,40.826,27.585,40.826C35.494,40.826,41.929,34.391,41.929,26.482C41.929,18.573,35.494,12.137,27.585,12.137ZM27.585,14.344C34.3,14.344,39.723,19.766,39.723,26.482C39.723,33.197,34.3,38.619,27.585,38.619C20.87,38.619,15.448,33.197,15.448,26.482C15.448,19.766,20.87,14.344,27.585,14.344ZM8.827,15.448C7.607,15.448,6.62,16.435,6.62,17.654C6.62,18.874,7.607,19.861,8.827,19.861L9.931,19.861C11.15,19.861,12.137,18.874,12.137,17.654C12.137,16.435,11.15,15.448,9.931,15.448ZM27.585,16.551C22.115,16.551,17.654,21.012,17.654,26.482C17.654,31.951,22.115,36.412,27.585,36.412C33.055,36.412,37.516,31.951,37.516,26.482C37.516,21.012,33.055,16.551,27.585,16.551ZM27.585,18.758C31.865,18.758,35.309,22.202,35.309,26.482C35.309,30.762,31.865,34.205,27.585,34.205C23.305,34.205,19.861,30.762,19.861,26.482C19.861,22.202,23.305,18.758,27.585,18.758ZM27.585,18.758"/>
</g>
  <g id="Regular-S" transform="matrix(1.0,0.0,0.0,1.0,1423.5449252929686,633.1849448242187)">  <path stroke-linejoin="miter" stroke-dasharray="none" stroke-miterlimit="4" fill="#000000" fill-opacity="1" fill-rule="nonzero" stroke="none" stroke-opacity="1" stroke-width="1px" stroke-linecap="butt" d="M18.758,5.517C17.853,5.517,17.215,6.069,16.758,6.586C16.301,7.103,15.93,7.689,15.586,8.241C15.241,8.793,14.926,9.31,14.655,9.62C14.452,9.853,14.318,9.918,14.31,9.931L3.31,9.931C1.496,9.931,0,11.426,0,13.241L0,43.033C0,44.847,1.496,46.343,3.31,46.343L51.86,46.343C53.675,46.343,55.17,44.847,55.17,43.033L55.17,13.241C55.17,11.426,53.675,9.931,51.86,9.931L40.86,9.931C40.865,9.935,40.852,9.931,40.826,9.931C40.791,9.905,40.692,9.823,40.516,9.62C40.244,9.31,39.929,8.793,39.585,8.241C39.24,7.689,38.869,7.103,38.412,6.586C37.955,6.069,37.317,5.517,36.412,5.517ZM18.758,7.724L36.412,7.724C36.343,7.724,36.486,7.724,36.757,8.034C37.029,8.344,37.343,8.862,37.688,9.413C38.033,9.965,38.412,10.551,38.86,11.069C39.309,11.586,39.921,12.137,40.826,12.137L51.86,12.137C52.481,12.137,52.963,12.62,52.963,13.241L52.963,43.033C52.963,43.653,52.481,44.136,51.86,44.136L3.31,44.136C2.69,44.136,2.207,43.653,2.207,43.033L2.207,13.241C2.207,12.62,2.69,12.137,3.31,12.137L14.344,12.137C15.249,12.137,15.861,11.586,16.31,11.069C16.758,10.551,17.137,9.965,17.482,9.413C17.827,8.862,18.141,8.344,18.413,8.034C18.685,7.724,18.827,7.724,18.758,7.724ZM27.585,12.137C19.676,12.137,13.241,18.573,13.241,26.482C13.241,34.391,19.676,40.826,27.585,40.826C35.494,40.826,41.929,34.391,41.929,26.482C41.929,18.573,35.494,12.137,27.585,12.137ZM27.585,14.344C34.3,14.344,39.723,19.766,39.723,26.482C39.723,33.197,34.3,38.619,27.585,38.619C20.87,38.619,15.448,33.197,15.448,26.482C15.448,19.766,20.87,14.344,27.585,14.344ZM8.827,15.448C7.607,15.448,6.62,16.435,6.62,17.654C6.62,18.874,7.607,19.861,8.827,19.861L9.931,19.861C11.15,19.861,12.137,18.874,12.137,17.654C12.137,16.435,11.15,15.448,9.931,15.448ZM27.585,16.551C22.115,16.551,17.654,21.012,17.654,26.482C17.654,31.951,22.115,36.412,27.585,36.412C33.055,36.412,37.516,31.951,37.516,26.482C37.516,21.012,33.055,16.551,27.585,16.551ZM27.585,18.758C31.865,18.758,35.309,22.202,35.309,26.482C35.309,30.762,31.865,34.205,27.585,34.205C23.305,34.205,19.861,30.762,19.861,26.482C19.861,22.202,23.305,18.758,27.585,18.758ZM27.585,18.758"/>
</g>
  <g id="Light-S" transform="matrix(1.0,0.0,0.0,1.0,1126.8349252929688,633.1849448242187)">  <path stroke-linejoin="miter" stroke-width="1px" fill-opacity="1" stroke-opacity="1" stroke="none" stroke-linecap="butt" fill-rule="nonzero" stroke-miterlimit="4" stroke-dasharray="none" fill="#000000" d="M18.758,5.517C17.853,5.517,17.215,6.069,16.758,6.586C16.301,7.103,15.93,7.689,15.586,8.241C15.241,8.793,14.926,9.31,14.655,9.62C14.452,9.853,14.318,9.918,14.31,9.931L3.31,9.931C1.496,9.931,0,11.426,0,13.241L0,43.033C0,44.847,1.496,46.343,3.31,46.343L51.86,46.343C53.675,46.343,55.17,44.847,55.17,43.033L55.17,13.241C55.17,11.426,53.675,9.931,51.86,9.931L40.86,9.931C40.865,9.935,40.852,9.931,40.826,9.931C40.791,9.905,40.692,9.823,40.516,9.62C40.244,9.31,39.929,8.793,39.585,8.241C39.24,7.689,38.869,7.103,38.412,6.586C37.955,6.069,37.317,5.517,36.412,5.517ZM18.758,7.724L36.412,7.724C36.343,7.724,36.486,7.724,36.757,8.034C37.029,8.344,37.343,8.862,37.688,9.413C38.033,9.965,38.412,10.551,38.86,11.069C39.309,11.586,39.921,12.137,40.826,12.137L51.86,12.137C52.481,12.137,52.963,12.62,52.963,13.241L52.963,43.033C52.963,43.653,52.481,44.136,51.86,44.136L3.31,44.136C2.69,44.136,2.207,43.653,2.207,43.033L2.207,13.241C2.207,12.62,2.69,12.137,3.31,12.137L14.344,12.137C15.249,12.137,15.861,11.586,16.31,11.069C16.758,10.551,17.137,9.965,17.482,9.413C17.827,8.862,18.141,8.344,18.413,8.034C18.685,7.724,18.827,7.724,18.758,7.724ZM27.585,12.137C19.676,12.137,13.241,18.573,13.241,26.482C13.241,34.391,19.676,40.826,27.585,40.826C35.494,40.826,41.929,34.391,41.929,26.482C41.929,18.573,35.494,12.137,27.585,12.137ZM27.585,14.344C34.3,14.344,39.723,19.766,39.723,26.482C39.723,33.197,34.3,38.619,27.585,38.619C20.87,38.619,15.448,33.197,15.448,26.482C15.448,19.766,20.87,14.344,27.585,14.344ZM8.827,15.448C7.607,15.448,6.62,16.435,6.62,17.654C6.62,18.874,7.607,19.861,8.827,19.861L9.931,19.861C11.15,19.861,12.137,18.874,12.137,17.654C12.137,16.435,11.15,15.448,9.931,15.448ZM27.585,16.551C22.115,16.551,17.654,21.012,17.654,26.482C17.654,31.951,22.115,36.412,27.585,36.412C33.055,36.412,37.516,31.951,37.516,26.482C37.516,21.012,33.055,16.551,27.585,16.551ZM27.585,18.758C31.865,18.758,35.309,22.202,35.309,26.482C35.309,30.762,31.865,34.205,27.585,34.205C23.305,34.205,19.861,30.762,19.861,26.482C19.861,22.202,23.305,18.758,27.585,18.758ZM27.585,18.758"/>
</g>
  <g id="Thin-S" transform="matrix(1.0,0.0,0.0,1.0,830.1249252929688,633.1849448242187)">  <path stroke-linecap="butt" stroke="none" fill="#000000" stroke-linejoin="miter" stroke-opacity="1" fill-opacity="1" stroke-width="1px" stroke-miterlimit="4" fill-rule="nonzero" stroke-dasharray="none" d="M18.758,5.517C17.853,5.517,17.215,6.069,16.758,6.586C16.301,7.103,15.93,7.689,15.586,8.241C15.241,8.793,14.926,9.31,14.655,9.62C14.452,9.853,14.318,9.918,14.31,9.931L3.31,9.931C1.496,9.931,0,11.426,0,13.241L0,43.033C0,44.847,1.496,46.343,3.31,46.343L51.86,46.343C53.675,46.343,55.17,44.847,55.17,43.033L55.17,13.241C55.17,11.426,53.675,9.931,51.86,9.931L40.86,9.931C40.865,9.935,40.852,9.931,40.826,9.931C40.791,9.905,40.692,9.823,40.516,9.62C40.244,9.31,39.929,8.793,39.585,8.241C39.24,7.689,38.869,7.103,38.412,6.586C37.955,6.069,37.317,5.517,36.412,5.517ZM18.758,7.724L36.412,7.724C36.343,7.724,36.486,7.724,36.757,8.034C37.029,8.344,37.343,8.862,37.688,9.413C38.033,9.965,38.412,10.551,38.86,11.069C39.309,11.586,39.921,12.137,40.826,12.137L51.86,12.137C52.481,12.137,52.963,12.62,52.963,13.241L52.963,43.033C52.963,43.653,52.481,44.136,51.86,44.136L3.31,44.136C2.69,44.136,2.207,43.653,2.207,43.033L2.207,13.241C2.207,12.62,2.69,12.137,3.31,12.137L14.344,12.137C15.249,12.137,15.861,11.586,16.31,11.069C16.758,10.551,17.137,9.965,17.482,9.413C17.827,8.862,18.141,8.344,18.413,8.034C18.685,7.724,18.827,7.724,18.758,7.724ZM27.585,12.137C19.676,12.137,13.241,18.573,13.241,26.482C13.241,34.391,19.676,40.826,27.585,40.826C35.494,40.826,41.929,34.391,41.929,26.482C41.929,18.573,35.494,12.137,27.585,12.137ZM27.585,14.344C34.3,14.344,39.723,19.766,39.723,26.482C39.723,33.197,34.3,38.619,27.585,38.619C20.87,38.619,15.448,33.197,15.448,26.482C15.448,19.766,20.87,14.344,27.585,14.344ZM8.827,15.448C7.607,15.448,6.62,16.435,6.62,17.654C6.62,18.874,7.607,19.861,8.827,19.861L9.931,19.861C11.15,19.861,12.137,18.874,12.137,17.654C12.137,16.435,11.15,15.448,9.931,15.448ZM27.585,16.551C22.115,16.551,17.654,21.012,17.654,26.482C17.654,31.951,22.115,36.412,27.585,36.412C33.055,36.412,37.516,31.951,37.516,26.482C37.516,21.012,33.055,16.551,27.585,16.551ZM27.585,18.758C31.865,18.758,35.309,22.202,35.309,26.482C35.309,30.762,31.865,34.205,27.585,34.205C23.305,34.205,19.861,30.762,19.861,26.482C19.861,22.202,23.305,18.758,27.585,18.758ZM27.585,18.758"/>
</g>
  <g id="Ultralight-S" transform="matrix(1.0,0.0,0.0,1.0,533.4149252929687,633.1849448242187)">  <path stroke-opacity="1" stroke-miterlimit="4" fill-opacity="1" fill="#000000" stroke-width="1px" stroke-dasharray="none" stroke="none" stroke-linecap="butt" stroke-linejoin="miter" fill-rule="nonzero" d="M18.758,5.517C17.853,5.517,17.215,6.069,16.758,6.586C16.301,7.103,15.93,7.689,15.586,8.241C15.241,8.793,14.926,9.31,14.655,9.62C14.452,9.853,14.318,9.918,14.31,9.931L3.31,9.931C1.496,9.931,0,11.426,0,13.241L0,43.033C0,44.847,1.496,46.343,3.31,46.343L51.86,46.343C53.675,46.343,55.17,44.847,55.17,43.033L55.17,13.241C55.17,11.426,53.675,9.931,51.86,9.931L40.86,9.931C40.865,9.935,40.852,9.931,40.826,9.931C40.791,9.905,40.692,9.823,40.516,9.62C40.244,9.31,39.929,8.793,39.585,8.241C39.24,7.689,38.869,7.103,38.412,6.586C37.955,6.069,37.317,5.517,36.412,5.517ZM18.758,7.724L36.412,7.724C36.343,7.724,36.486,7.724,36.757,8.034C37.029,8.344,37.343,8.862,37.688,9.413C38.033,9.965,38.412,10.551,38.86,11.069C39.309,11.586,39.921,12.137,40.826,12.137L51.86,12.137C52.481,12.137,52.963,12.62,52.963,13.241L52.963,43.033C52.963,43.653,52.481,44.136,51.86,44.136L3.31,44.136C2.69,44.136,2.207,43.653,2.207,43.033L2.207,13.241C2.207,12.62,2.69,12.137,3.31,12.137L14.344,12.137C15.249,12.137,15.861,11.586,16.31,11.069C16.758,10.551,17.137,9.965,17.482,9.413C17.827,8.862,18.141,8.344,18.413,8.034C18.685,7.724,18.827,7.724,18.758,7.724ZM27.585,12.137C19.676,12.137,13.241,18.573,13.241,26.482C13.241,34.391,19.676,40.826,27.585,40.826C35.494,40.826,41.929,34.391,41.929,26.482C41.929,18.573,35.494,12.137,27.585,12.137ZM27.585,14.344C34.3,14.344,39.723,19.766,39.723,26.482C39.723,33.197,34.3,38.619,27.585,38.619C20.87,38.619,15.448,33.197,15.448,26.482C15.448,19.766,20.87,14.344,27.585,14.344ZM8.827,15.448C7.607,15.448,6.62,16.435,6.62,17.654C6.62,18.874,7.607,19.861,8.827,19.861L9.931,19.861C11.15,19.861,12.137,18.874,12.137,17.654C12.137,16.435,11.15,15.448,9.931,15.448ZM27.585,16.551C22.115,16.551,17.654,21.012,17.654,26.482C17.654,31.951,22.115,36.412,27.585,36.412C33.055,36.412,37.516,31.951,37.516,26.482C37.516,21.012,33.055,16.551,27.585,16.551ZM27.585,18.758C31.865,18.758,35.309,22.202,35.309,26.482C35.309,30.762,31.865,34.205,27.585,34.205C23.305,34.205,19.861,30.762,19.861,26.482C19.861,22.202,23.305,18.758,27.585,18.758ZM27.585,18.758"/>
</g>
 </g>
</svg>
